<?xml version="1.0" encoding="UTF-8" standalone="no"?><svg xmlns="http://www.w3.org/2000/svg" xmlns:xlink="http://www.w3.org/1999/xlink" contentScriptType="text/ecmascript" fill="#000000" width="317.1" zoomAndPan="magnify" contentStyleType="text/css" viewBox="0.0 -3.6 317.1 408.4" height="408.4" preserveAspectRatio="xMidYMid meet" version="1"><g id="change1_1"><path fill="#ffe1bc" d="M293.841,132.197c1.414,0.173,2.807,0.32,4.128,0.446c0.167,0.341,0.51,0.581,0.916,0.581 c0.337,0,0.622-0.173,0.81-0.424c1.377,0.118,2.625,0.211,3.664,0.281l13.763,2.09l-1.824-7.986l-8.848-7.119v-0.558l5.612-3.95 v-14.559l-5.612-2.383V98.06l8.848-6.712l1.824-7.529l-11.385,1.63l-6.094,0.714c-0.188-0.21-0.454-0.348-0.758-0.348 c-0.388,0-0.713,0.223-0.888,0.541l-4.156,0.487l-14.825,1.749l-7.06,0.825v3.006c-0.001,0-0.002,0-0.003,0 c-0.285,0.018-0.588,0.037-0.906,0.057c-0.583-0.137-1.17-0.255-1.767-0.331c0-0.014,0.007-0.024,0.006-0.038 c-0.046-1.146-0.092-2.293-0.138-3.439c-0.013-0.317-0.272-0.699-0.579-0.8c-3.818-1.259-7.532,0.195-10.761,2.265 c-1.762,1.13-3.489,2.32-5.206,3.525c-0.223,0.014-0.444,0.028-0.668,0.042c-1.279,0.084-2.56,0.169-3.835,0.253v-0.237 c0-0.567-0.459-1.027-1.027-1.027c-0.568,0-1.027,0.46-1.027,1.027v0.373c-2.56,0.17-5.058,0.337-7.361,0.491 c-4.687,0.32-8.605,0.59-10.746,0.78V83.569c0.521-0.136,1.005-0.398,1.392-0.79l10.369-10.51c1.908-1.934,0.557-5.241-2.142-5.241 H224.57c0.116-0.236,0.188-0.498,0.186-0.779l-0.013-2.58c0.548-0.008,0.989-0.454,0.986-1.003l-0.002-0.431l3.791-0.019 c1.129-0.006,2.04-0.925,2.034-2.054l-0.108-21.756l7.778-0.039c1.519-0.008,2.744-1.245,2.736-2.764l-0.017-3.353 c-0.027-5.333-4.372-9.635-9.705-9.609l-21.921,0.109c-1.519,0.008-2.744,1.245-2.736,2.764l0.065,13.01l0.245-0.001l-0.244,0.001 l0.049,9.896c-0.553,0.003-0.998,0.453-0.995,1.005c0.003,0.551,0.45,0.995,1,0.995c0.002,0,0.003,0,0.005,0l0.059,11.904 l0.02,4.009c0.001,0.264,0.065,0.511,0.171,0.735c-0.92,0.097-1.757,0.594-2.255,1.397l-9.101,14.681h-0.898 c-0.946,0-1.713,0.767-1.713,1.712v23.35l-32.889,19.843c-2.028-1.911-4.056-3.822-6.083-5.733l2.086-5.131l24.855-1.88V97.384 c0.335-0.199,0.587-0.588,0.502-0.973c-0.167-0.758-0.335-1.516-0.502-2.274v-6.124c0.998-0.239,1.997-0.478,2.995-0.717 c0.263-0.063,0.48-0.143,0.659-0.361c0.157-0.192,0.26-0.495,0.222-0.745c-0.072-0.479-0.549-1.008-1.091-0.879 c-0.928,0.222-1.857,0.445-2.785,0.667v-0.506c5.53-6.078,12.855-16.938,8.276-28.394c-3.758-9.402-10.469-11.596-17.662-11.035 c1.924-2.428,3.655-5.039,4.696-7.845c2.515-4.749,2.234-10.879-1.177-15.161c-2.72-3.415-6.984-5.259-11.263-5.177 c4.994-10.862-7.333-21.468-18.294-16.678c-4.021,1.758-7.15,5.216-11.256,6.766c-3.04,1.147-6.397,1.162-9.497,2.135 c-4.473,1.403-8.247,4.884-10.008,9.229c-1.781,4.395-1.717,12.295,1.661,16.029c-4.077,2.315-5.908,7.24-4.942,11.761 c0.962,4.505,4.194,8.229,7.895,10.973c2.689,1.993,5.687,3.555,8.847,4.655c-0.448,0.612-0.878,1.238-1.282,1.885 c-0.275,0.441-0.173,0.908,0.081,1.24c-1.036,2.422-1.783,5.321-2.143,8.848c-1.646,16.1,8.439,24.428,13.01,27.338l-2.747,2.498 c-2.706-2.55-5.411-5.1-8.117-7.65c-0.616-0.581-1.369-0.097-1.546,0.548l-0.717,0.205c0,0-23.547,2.739-45.473,11.988 c-0.162-0.487-0.628-0.838-1.221-0.544c-15.439,7.676-29.38,18.127-41.066,30.806c-0.647,0.701,0.03,1.573,0.777,1.592 c-15.304,17.334-27.21,35.738-27.21,35.738c0.494,0.663,1.019,1.319,1.561,1.972L0,202.583l7.473,21.12c0,0-0.001,0-0.001,0 c-0.521,0.184-0.793,0.755-0.608,1.276l9.881,27.926l-9.406,62.501c-0.082,0.546,0.294,1.054,0.84,1.137l-6.63,44.05l21.48-0.517 l-0.363,22.86c0,0-6.545,21.881-6.015,21.881s73.706,0,73.706,0l-4.412-13.235l-26.899-8.589l0.957-10.826 c17.015,0,37.118,0,37.118,0l-3.616-10.849l-21.964-7.013l16.043-93.748l-12-43.184c8.464,3.355,14.184,5.208,14.184,5.208 s0.388-5.002,0.951-11.07c0.571,0.055,1.201-0.32,1.121-1.06c-1.224-11.381,1.899-22.983,8.629-32.221 c5.316,4.461,13.09,4.66,18.625,0.444c0.582-0.443,0.447-1.154,0.041-1.543c6.935-4.826,9.213-14.641,9.213-14.641 s2.687,2.472,6.118,5.581l13.351,13.309c0.549,0.547,1.222,0.19,1.472-0.375c0.073-0.067,0.141-0.143,0.198-0.237 c0.765-1.262,1.529-2.524,2.294-3.785c7.381,3.908,22.991,12.088,34.127,17.328l-28.111,79.103h-4.627 c-1.982,0-3.588,1.607-3.588,3.588v0.8c0,1.982,1.607,3.588,3.588,3.588h1.793L115.347,392.87h-2.226 c-1.703,0-3.084,1.381-3.084,3.084v5.701c0,1.703,1.381,3.084,3.084,3.084h5.485c1.703,0,3.084-1.381,3.084-3.084v-5.701 c0-1.377-0.909-2.53-2.155-2.926l39.672-111.636h1.822c1.982,0,3.588-1.607,3.588-3.588v-0.8c0-1.647-1.116-3.019-2.628-3.442 l27.128-76.338c0.13,0.099,0.275,0.182,0.444,0.221c3.388,0.795,6.777,1.591,10.165,2.386c0.223,0.052,0.439-0.017,0.629-0.134 c0.207,0.019,0.428-0.041,0.644-0.225c1.728-1.48,3.456-2.961,5.184-4.441v60.493h9.554v-48.779l10.179,48.531 c-1.55,0.314-2.717,1.683-2.717,3.325v0c0,1.874,1.519,3.393,3.394,3.393h0.733l19.945,95.086c-0.72,0.565-1.19,1.432-1.19,2.418 v4.147c0,1.703,1.381,3.084,3.084,3.084h3.165c1.703,0,3.084-1.381,3.084-3.084v-4.147c0-1.703-1.381-3.084-3.084-3.084h-1.113 l-19.818-94.481c1.583-0.287,2.786-1.666,2.786-3.332v0c0-1.874-1.519-3.393-3.394-3.393h-0.803l-14.251-67.943v-0.42 c2.906-2.49,5.813-4.98,8.719-7.47l33.479,94.207c-1.48,0.443-2.566,1.799-2.566,3.422v0.8c0,1.982,1.606,3.588,3.588,3.588h1.753 l39.658,111.595c-1.315,0.353-2.287,1.541-2.287,2.967v5.701c0,1.703,1.381,3.084,3.084,3.084h5.486 c1.703,0,3.084-1.381,3.084-3.084v-5.701c0-1.703-1.381-3.084-3.084-3.084h-2.078l-39.616-111.478h1.862 c1.982,0,3.588-1.607,3.588-3.588v-0.8c0-1.982-1.606-3.588-3.588-3.588h-4.696l-34.411-96.83c3.306-2.832,6.612-5.665,9.917-8.497 c0.375-0.322,0.43-0.763,0.303-1.135c19.378-16.317,38.548-32.739,38.548-32.739l-1.005-4.444c1.019,0.143,2.216,0.31,3.54,0.494 C283.273,130.84,288.834,131.589,293.841,132.197z M198.052,137.753c0.094,1.812,1.343,3.304,3.03,3.768 c-1.885,2.243-3.024,5.134-3.024,8.293c0,1.281,0.193,2.516,0.541,3.685c-3.767-1.925-7.534-3.85-11.301-5.775L198.052,137.753z M227.106,143.167c-0.191-0.065-0.414-0.058-0.661,0.068c-1.17,0.596-2.339,1.193-3.509,1.789c-0.513-1.281-1.221-2.462-2.095-3.502 c1.755-0.483,3.052-2.074,3.052-3.983v-1.193c0-0.283-0.029-0.559-0.083-0.827c2.404-0.857,4.127-3.146,4.127-5.844v-4.333 l9.833,0.302c2.624,4.059,6.414,8.533,6.414,8.533L227.106,143.167z"/></g><g id="change2_1"><path fill="#fec782" d="M61.073,360.065l-1.07,12.104l-0.957,10.826l-36.379-0.057l0.363-22.86l7.677-0.185 c0.029,0.515,0.395,1.039,1.058,1.019C41.534,360.63,51.303,360.348,61.073,360.065z M161.594,129.48l10.057,9.338 c0,0-0.132,0.252-0.375,0.717c5.341,2.73,10.682,5.459,16.023,8.189l10.753-9.97c-0.004-0.073-0.022-0.141-0.022-0.215v-1.193 c0-0.283,0.029-0.559,0.083-0.827c-2.404-0.857-4.127-3.146-4.127-5.844v-15.064c-0.27-0.185-0.459-0.481-0.459-0.833 c0-0.352,0.188-0.648,0.459-0.833v-4.738l-32.889,19.843c0.092,0.087,0.184,0.174,0.277,0.261 C161.742,128.659,161.76,129.113,161.594,129.48z M180.655,88.255c0.433,1.961,0.866,3.922,1.3,5.883v-6.124 c-0.334,0.08-0.667,0.16-1.001,0.24C180.851,88.278,180.752,88.273,180.655,88.255z M155.014,122.318 c-6.288-5.927-12.577-11.853-18.865-17.78l2.747-2.498l5.619-5.109c0,0-6.664-3.51-5.058-9.105s13.45,2.865,25.881-6.13 s16.618-14.554,16.618-14.554v9.662c-0.285-0.183-0.569-0.365-0.854-0.548c-0.233-0.149-0.452-0.251-0.738-0.218 c-0.238,0.027-0.513,0.166-0.659,0.361c-0.157,0.21-0.262,0.478-0.222,0.745c0.036,0.238,0.141,0.524,0.354,0.66 c0.706,0.453,1.413,0.907,2.119,1.36v6.31v0.506c-0.404,0.097-0.808,0.193-1.211,0.29c-0.184,0.044-0.338,0.115-0.479,0.217 c-0.297-1.345-0.594-2.691-0.892-4.036c-0.116-0.528-0.514-0.938-1.092-0.879c-0.49,0.05-0.996,0.583-0.881,1.105 c0.949,4.295,1.898,8.59,2.847,12.884c-0.95-0.089-1.9-0.178-2.85-0.267c-0.519-0.049-1.072,0.289-1.132,0.843 c-0.056,0.51,0.272,1.081,0.828,1.133l3.357,0.314c0.225,0.021,0.45-0.042,0.646-0.153c0.143,0.063,0.299,0.104,0.481,0.085 c0.129-0.013,0.259-0.061,0.379-0.133v17.923l-24.855,1.88L155.014,122.318z M173.221,88.777c1.906,0,1.594-2.976-0.316-2.976 C170.999,85.801,171.311,88.777,173.221,88.777z M175.369,105.59c-2.236,0.378-4.493,0.104-6.547-0.801 c-0.493-0.218-1.093,0.02-1.311,0.511c-0.218,0.49,0.003,1.098,0.498,1.316c2.366,1.043,5.02,1.389,7.571,0.958 c0.531-0.09,0.94-0.551,0.881-1.105C176.406,105.956,175.902,105.5,175.369,105.59z M166.893,82.822 c0.382,0.315,1.102,0.309,1.397-0.143c0.184-0.281,0.384-0.551,0.605-0.804c0.238-0.272,0.354-0.385,0.565-0.565 c0.256-0.218,0.526-0.418,0.809-0.599c0.313-0.202,0.41-0.254,0.754-0.41c1.175-0.533,2.365-0.719,3.584-0.547 c1.259,0.177,1.575-1.797,0.304-1.976c-3.11-0.437-6.422,0.997-8.15,3.64C166.468,81.866,166.446,82.454,166.893,82.822z M275.476,129.77l1.005,4.444c0,0-19.169,16.422-38.548,32.739c-0.201-0.585-0.856-0.995-1.454-0.482 c-12.197,10.45-24.394,20.901-36.59,31.351c-3.341-0.784-6.681-1.568-10.021-2.352c-0.308-0.072-0.607,0.07-0.826,0.291 c-0.994-0.451-2.041-0.934-3.133-1.448c-11.136-5.239-26.746-13.419-34.127-17.328c5.07-8.367,10.14-16.733,15.21-25.1 c0.644-1.063-1.038-1.836-1.742-0.895c2.122-4.013,3.954-7.5,5.109-9.702c0.029,0.018,0.044,0.044,0.075,0.06 c10.62,5.428,21.24,10.855,31.861,16.283c0.58,0.296,1.07-0.036,1.266-0.508c7.863-4.009,15.725-8.017,23.588-12.026 c0.883-0.45,0.651-1.694-0.042-1.93l17.077-8.989c0,0-3.79-4.474-6.414-8.533c-1.927-2.982-3.227-5.74-1.928-6.333 c0.823-0.376,1.821-0.203,2.841,0.239c1.822,0.789,3.711,2.455,4.799,3.517c-0.002,1.602-0.004,3.204-0.007,4.807 c-0.001,0.537,0.598,0.935,1.091,0.879c0.582-0.067,0.88-0.566,0.881-1.105c0.004-2.51,0.007-5.02,0.011-7.53 c0.001-0.537-0.598-0.935-1.091-0.879c-0.002,0-0.003,0.001-0.005,0.001l-0.155-16.609c0.34,0.27,0.803,0.269,1.185,0.039 c2.772-1.67,6.54-1.437,9.112,0.508c1.02,0.771,2.282-0.779,1.265-1.548c-3.328-2.516-7.966-2.724-11.529-0.578 c-0.021,0.012-0.029,0.035-0.048,0.049l-0.01-1.035c0,0,0.711-0.438,1.86-1.141c0.206-0.126,0.422-0.258,0.655-0.4 c0.145,0.613,0.854,1.115,1.534,0.643c3.176-2.206,6.337-4.436,9.531-6.618c3.71-3.187,8.342-3.717,8.342-3.717l1.441,0.456 c0,0-0.272,2.088-0.246,2.746c-3.746,0.006-7.403,1.299-10.309,3.674c-0.987,0.807,0.153,2.434,1.151,1.618 c2.8-2.287,6.39-3.549,10.021-3.29c2.622,0.187,5.072,1.099,7.428,2.216l-0.554,0.001c-1.896,0.004-3.834-0.105-5.722,0.093 c-3.464,0.362-5.863,2.617-8.142,5.046c-0.879,0.937,0.651,2.197,1.528,1.262c1.064-1.135,2.143-2.278,3.45-3.14 c1.343-0.885,2.809-1.192,4.396-1.252c3.535-0.134,7.093-0.031,10.63-0.039c0.863-0.002,1.03-0.909,0.659-1.496l3.877,1.156 c0,0-2.118,7.299-3.059,8.005c-0.306,0.23-1.786,0.132-3.64-0.103c-3.848-0.487-9.317-1.569-9.317-1.569L275.476,129.77z M260.607,131.863c-3.187-1.595-6.84-1.906-10.272-1c-0.52,0.137-0.75,0.829-0.575,1.292c0.208,0.55,0.758,0.707,1.279,0.569 c2.92-0.77,6.067-0.379,8.755,0.966C260.936,134.261,261.747,132.433,260.607,131.863z M279.798,96.146 c0.054,0.028,0.099,0.062,0.144,0.095c0.088,0,0.176,0,0.264-0.001l-0.529-0.158C279.717,96.104,279.758,96.125,279.798,96.146z"/></g><g id="change3_1"><path fill="#575853" d="M224.458,179.374c1.085-0.93,2.17-1.859,3.255-2.789l34.411,96.83h-3.164c-0.358,0-0.697,0.068-1.023,0.166 L224.458,179.374z M251.929,93.706v0.427c0.223-0.157,0.445-0.313,0.668-0.47C252.373,93.678,252.152,93.692,251.929,93.706z M220.973,89.939c-0.553,0-1,0.447-1,1v35.458c0,0.553,0.447,1,1,1s1-0.447,1-1V90.939 C221.973,90.386,221.526,89.939,220.973,89.939z M223.898,83.811c0.195,0.193,0.449,0.289,0.703,0.289 c0.258,0,0.516-0.099,0.711-0.297l12.421-12.561c0.284-0.287,0.367-0.716,0.212-1.089c-0.155-0.372-0.52-0.614-0.923-0.614H227.7 c-0.553,0-1,0.447-1,1s0.447,1,1,1h6.927L223.89,82.397C223.501,82.79,223.505,83.422,223.898,83.811z M201.083,141.522 c2.367-2.817,5.912-4.61,9.879-4.61c3.967,0,7.512,1.794,9.879,4.61c1.755-0.483,3.052-2.074,3.052-3.983v-1.193 c0-0.283-0.029-0.559-0.083-0.827c-0.383-1.895-2.057-3.322-4.065-3.322h-7.756h-2.054h-7.756c-2.008,0-3.682,1.427-4.065,3.322 c-0.054,0.267-0.083,0.543-0.083,0.827v1.193c0,0.074,0.018,0.142,0.022,0.215C198.147,139.565,199.395,141.057,201.083,141.522z M157.797,273.415h-4.627c-1.982,0-3.588,1.607-3.588,3.588v0.8c0,1.982,1.607,3.588,3.588,3.588h1.793h4.246h1.822 c1.982,0,3.588-1.607,3.588-3.588v-0.8c0-1.647-1.116-3.019-2.628-3.442c-0.308-0.086-0.626-0.147-0.961-0.147H157.797z M257.937,273.581c-1.48,0.443-2.566,1.799-2.566,3.422v0.8c0,1.982,1.606,3.588,3.588,3.588h1.753h4.246h1.862 c1.982,0,3.588-1.607,3.588-3.588v-0.8c0-1.982-1.606-3.588-3.588-3.588h-4.696h-3.164 C258.602,273.415,258.263,273.484,257.937,273.581z M225.919,255.276c-1.55,0.314-2.717,1.683-2.717,3.325v0 c0,1.874,1.519,3.393,3.394,3.393h0.733h3.466c0.208,0,0.41-0.025,0.608-0.061c1.583-0.287,2.786-1.666,2.786-3.332v0 c0-1.874-1.519-3.393-3.394-3.393h-0.803h-3.395C226.363,255.208,226.137,255.232,225.919,255.276z M209.544,68.076l13.469-0.067 c0.687-0.003,1.273-0.405,1.558-0.982c0.116-0.236,0.188-0.498,0.186-0.779l-0.013-2.58c-0.003,0-0.006,0.002-0.009,0.002 c-0.002,0-0.003,0-0.005,0c-0.55,0-0.997-0.444-1-0.995l-0.002-0.431l-15.965,0.08l0.02,4.009c0.001,0.264,0.065,0.511,0.171,0.735 C208.235,67.665,208.84,68.08,209.544,68.076z M165.25,150.99c-0.022,0.03-0.047,0.056-0.067,0.09 c-5.642,9.31-11.284,18.621-16.926,27.931c-13.432-13.39-26.864-26.781-40.296-40.171c-0.907-0.904-2.16,0.656-1.265,1.548 l27.772,27.686l13.351,13.309c0.549,0.547,1.222,0.19,1.472-0.375c0.073-0.067,0.141-0.143,0.198-0.237 c0.765-1.262,1.529-2.524,2.294-3.785c5.07-8.367,10.14-16.733,15.21-25.1C167.636,150.822,165.954,150.048,165.25,150.99z M117.944,177.059c-4.916,3.744-11.73,3.523-16.397-0.524c-0.007-0.006-0.015-0.006-0.022-0.012 c0.048-0.839-1.076-1.547-1.726-0.712c-7.653,9.831-11.262,22.48-9.93,34.869c0.058,0.537,0.439,0.794,0.851,0.833 c0.571,0.055,1.201-0.32,1.121-1.06c-1.224-11.381,1.899-22.983,8.629-32.221c5.316,4.461,13.09,4.66,18.625,0.444 c0.582-0.443,0.447-1.154,0.041-1.543C118.832,176.842,118.382,176.725,117.944,177.059z M39.537,141.155 c11.441-12.413,25.125-22.691,40.242-30.207c0.551-0.274,0.67-0.857,0.517-1.318c-0.162-0.487-0.628-0.838-1.221-0.544 c-15.439,7.676-29.38,18.127-41.066,30.806c-0.647,0.701,0.03,1.573,0.777,1.592C39.046,141.491,39.313,141.398,39.537,141.155z M126.767,98.437c11.114,10.474,22.228,20.949,33.342,31.423c0.561,0.529,1.235,0.174,1.486-0.38 c0.166-0.367,0.147-0.821-0.22-1.168c-0.092-0.087-0.184-0.174-0.277-0.261c-2.028-1.911-4.056-3.822-6.083-5.733 c-6.288-5.927-12.577-11.853-18.865-17.78c-2.706-2.55-5.411-5.1-8.117-7.65c-0.616-0.581-1.369-0.097-1.546,0.548 C126.395,97.768,126.454,98.142,126.767,98.437z"/></g><g id="change4_1"><path fill="#be3852" d="M139.457,87.826c1.606-5.596,13.45,2.865,25.881-6.13s16.618-14.554,16.618-14.554v9.662 c0.896,0.575,1.792,1.151,2.689,1.726c0.212,0.136,0.318,0.422,0.354,0.66c0.04,0.267-0.066,0.534-0.222,0.745 c-0.146,0.195-0.421,0.333-0.659,0.361c-0.286,0.033-0.505-0.069-0.738-0.218c-0.475-0.305-0.949-0.609-1.424-0.914v6.31 c5.53-6.078,12.855-16.938,8.276-28.394c-3.758-9.402-10.469-11.596-17.662-11.035c1.924-2.428,3.655-5.039,4.696-7.845 c2.515-4.749,2.234-10.879-1.177-15.161c-2.72-3.415-6.984-5.259-11.263-5.177c4.994-10.862-7.333-21.468-18.294-16.678 c-4.021,1.758-7.15,5.216-11.256,6.766c-3.04,1.147-6.397,1.162-9.497,2.135c-4.473,1.403-8.247,4.884-10.008,9.229 c-1.781,4.395-1.717,12.295,1.661,16.029c-4.077,2.315-5.908,7.24-4.942,11.761c0.962,4.505,4.194,8.229,7.895,10.973 c2.689,1.993,5.687,3.555,8.847,4.655c6.248-8.531,16.673-13.577,27.265-13.254c1.28,0.039,0.953,2.014-0.303,1.976 c-10.689-0.327-21.076,5.385-26.715,14.425c-0.401,0.642-1.084,0.454-1.447-0.022c-1.036,2.422-1.783,5.321-2.143,8.848 c-1.646,16.1,8.439,24.428,13.01,27.338l5.619-5.109C144.515,96.931,137.851,93.422,139.457,87.826z M154.253,17.08 c-2.712,0.228-5.068,1.771-6.496,4.059c-0.281,0.449-1.027,0.462-1.397,0.143c-4.341-3.75-10.922-2.028-12.914,3.329 c-0.449,1.208-2.255,0.393-1.809-0.805c2.313-6.221,9.879-8.396,15.156-4.704c2.089-2.717,5.515-4.299,8.958-4 c3.725,0.323,7.419,3.638,5.702,7.594c-0.513,1.182-2.32,0.373-1.809-0.805C161.076,18.592,156.838,16.863,154.253,17.08z M57.59,264.353c-0.055,0-0.11,0.005-0.167,0.015c0.083-0.016,0.165-0.021,0.249-0.011C57.645,264.354,57.618,264.353,57.59,264.353 z M13.137,179.195L0,202.583l7.473,21.12c0.523-0.184,1.093,0.089,1.276,0.609l9.965,28.162c0.055,0.155,0.071,0.32,0.047,0.482 l-9.443,62.747c-0.075,0.496-0.502,0.852-0.988,0.852c-0.049,0-0.1-0.004-0.149-0.011c0,0,0,0-0.001,0l-6.63,44.05l21.48-0.517 l7.677-0.185c-0.027-0.477,0.236-0.947,0.848-0.965c12.353-0.357,24.706-0.714,37.059-1.072c0.698-0.02,1.061,0.56,1.053,1.099 l1.084-0.026l0.791-4.624l16.043-93.748l-12-43.184C57.658,210.269,27.426,196.428,13.137,179.195z M40.739,212.401 c0.134-0.537,0.675-0.859,1.212-0.729c0.868,0.217,0.902,0.225,8.311,25.943c3.266,11.337,7.312,25.386,8.078,27.067 c0.516,0.538,0.565,1.369-7.293,42.484c-3.898,20.398-7.918,40.991-7.958,41.196c-0.093,0.478-0.512,0.809-0.98,0.809 c-0.063,0-0.128-0.006-0.192-0.019c-0.542-0.105-0.896-0.631-0.79-1.173c6.191-31.718,15.383-79.637,15.488-82.477 c-0.968-1.968-2.765-8.207-8.274-27.335c-3.177-11.028-6.771-23.504-7.416-24.909C40.739,213.025,40.662,212.712,40.739,212.401z M28.539,202.677c0.529-0.141,1.082,0.168,1.229,0.701l15.882,58.059c0.04,0.147,0.046,0.303,0.017,0.453l-13.588,70.412 c-0.092,0.479-0.511,0.811-0.98,0.811c-0.063,0-0.126-0.006-0.19-0.019c-0.542-0.104-0.897-0.629-0.792-1.171l13.543-70.184 l-15.82-57.834C27.692,203.374,28.005,202.823,28.539,202.677z M56.957,266.122c-0.236-0.198-0.32-0.459-0.338-0.608 c0.132,0.268,0.248,0.455,0.357,0.586L56.957,266.122z M227.933,95.362c0.001,0,0.003,0,0.004,0c2.141-0.19,6.058-0.46,10.746-0.78 v24.968c-1.02-0.442-2.018-0.615-2.841-0.239c-1.3,0.594,0,3.352,1.928,6.333l-9.833-0.302l-0.004,0V95.362z M194.555,114.806 c-0.215,0-0.403-0.081-0.568-0.194c-0.27-0.185-0.459-0.481-0.459-0.833c0-0.352,0.188-0.648,0.459-0.833 c0.165-0.113,0.353-0.194,0.568-0.194h16.407c0.568,0,1.027,0.46,1.027,1.027v18.418h-2.054v-17.391H194.555z M297.857,86.842 c0-0.18,0.058-0.34,0.139-0.487c0.175-0.317,0.5-0.541,0.888-0.541c0.304,0,0.57,0.138,0.758,0.348 c0.163,0.182,0.269,0.416,0.269,0.68v45.356c0,0.23-0.09,0.432-0.218,0.603c-0.187,0.251-0.472,0.424-0.81,0.424 c-0.406,0-0.749-0.24-0.916-0.581c-0.067-0.136-0.112-0.284-0.112-0.446V86.842z M206.653,74.922c0-2.947,2.389-5.336,5.336-5.336 s5.336,2.389,5.336,5.336c0,2.947-2.389,5.336-5.336,5.336S206.653,77.869,206.653,74.922z M210.891,30.627 c-0.014-2.854,2.288-5.18,5.143-5.194c2.854-0.014,5.18,2.288,5.194,5.143c0.014,2.854-2.288,5.18-5.143,5.194 C213.23,35.784,210.905,33.481,210.891,30.627z M207.703,50.419L207.703,50.419c-0.002,0-0.003,0-0.005,0 c-0.55,0-0.997-0.444-1-0.995c-0.003-0.552,0.442-1.002,0.995-1.005c0,0,0,0,0,0l16.965-0.085c0.303-0.021,0.521,0.103,0.708,0.289 c0.188,0.187,0.296,0.44,0.297,0.706l0.064,12.905l0.002,0.431c0.003,0.549-0.438,0.995-0.986,1.003 c-0.003,0-0.006,0.002-0.009,0.002c-0.002,0-0.003,0-0.005,0c-0.55,0-0.997-0.444-1-0.995l-0.002-0.431l-0.059-11.905 L207.703,50.419z M227.106,143.167c0.694,0.235,0.926,1.479,0.042,1.93c-7.863,4.009-15.726,8.017-23.588,12.026 c-0.196,0.472-0.686,0.804-1.266,0.508c-10.62-5.427-21.24-10.855-31.861-16.283c-0.032-0.016-0.047-0.042-0.075-0.06 c-0.998-0.628-0.216-2.332,0.889-1.767c0.01,0.005,0.019,0.01,0.029,0.015c5.341,2.73,10.682,5.459,16.023,8.189 c3.767,1.925,7.534,3.85,11.301,5.775c1.287,0.658,2.574,1.316,3.862,1.974c0.026-0.016,0.047-0.034,0.075-0.048 c6.8-3.467,13.599-6.933,20.399-10.4c1.17-0.596,2.339-1.193,3.509-1.789C226.692,143.109,226.916,143.102,227.106,143.167z M237.933,166.953c0.128,0.372,0.073,0.814-0.303,1.135c-3.306,2.832-6.612,5.665-9.917,8.497c-1.085,0.93-2.17,1.859-3.255,2.789 c-2.906,2.49-5.813,4.98-8.719,7.47c-3.185,2.729-6.37,5.457-9.554,8.186c-1.728,1.48-3.456,2.961-5.184,4.441 c-0.215,0.184-0.437,0.244-0.644,0.225c-0.19,0.118-0.406,0.186-0.629,0.134c-3.388-0.795-6.777-1.591-10.165-2.386 c-0.169-0.04-0.314-0.122-0.444-0.221c-0.273-0.21-0.444-0.528-0.384-0.912c0.032-0.206,0.152-0.396,0.306-0.551 c0.219-0.222,0.517-0.364,0.826-0.291c3.341,0.784,6.681,1.568,10.021,2.352c12.197-10.45,24.394-20.901,36.59-31.351 C237.077,165.958,237.732,166.369,237.933,166.953z M244.193,101.101c0.019-0.014,0.028-0.037,0.048-0.049 c3.563-2.147,8.201-1.939,11.529,0.578c1.017,0.769-0.246,2.318-1.265,1.548c-2.572-1.944-6.34-2.178-9.112-0.508 c-0.383,0.23-0.845,0.231-1.185-0.039c-0.069-0.055-0.141-0.105-0.198-0.184C243.729,102.052,243.787,101.4,244.193,101.101z M252.597,93.663c0.001-0.001,0.003-0.002,0.004-0.003c1.717-1.206,3.444-2.395,5.206-3.525c3.228-2.07,6.943-3.524,10.761-2.265 c0.307,0.101,0.567,0.483,0.579,0.8c0.046,1.146,0.092,2.293,0.138,3.439c0.001,0.014-0.006,0.024-0.006,0.038 c0.597,0.076,1.184,0.195,1.767,0.331c2.789,0.653,5.427,1.93,7.969,3.258c0.221,0.115,0.442,0.231,0.662,0.346 c0.04,0.021,0.081,0.042,0.121,0.063c0.054,0.028,0.099,0.062,0.144,0.095c0.088,0,0.176,0,0.264-0.001 c0.254-0.001,0.508-0.001,0.762-0.002c0.408-0.001,0.694,0.211,0.869,0.488c0.372,0.587,0.204,1.494-0.659,1.496 c-3.538,0.008-7.095-0.094-10.63,0.039c-1.587,0.06-3.053,0.367-4.396,1.252c-1.307,0.862-2.385,2.004-3.45,3.14 c-0.876,0.935-2.407-0.325-1.528-1.262c2.278-2.43,4.678-4.684,8.142-5.046c1.888-0.197,3.827-0.088,5.722-0.093l0.554-0.001 c-2.357-1.118-4.806-2.029-7.428-2.216c-3.631-0.259-7.222,1.003-10.021,3.29c-0.999,0.816-2.139-0.811-1.151-1.618 c2.906-2.375,6.563-3.667,10.309-3.674c-0.026-0.658-0.053-1.315-0.079-1.973c-0.007-0.172-0.014-0.344-0.021-0.516 c-0.114-0.027-0.228-0.044-0.342-0.065c-3.277-0.608-6.467,1.273-9.096,3.069c-3.194,2.182-6.355,4.411-9.531,6.618 c-0.68,0.472-1.388-0.03-1.534-0.643c-0.081-0.34,0.007-0.714,0.382-0.975c0.34-0.236,0.678-0.477,1.017-0.715 c1.278-0.897,2.553-1.8,3.83-2.701C252.151,93.976,252.374,93.82,252.597,93.663z M259.794,133.69 c-2.688-1.345-5.835-1.736-8.755-0.966c-0.521,0.137-1.071-0.02-1.279-0.569c-0.175-0.463,0.055-1.155,0.575-1.292 c3.432-0.905,7.085-0.594,10.272,1C261.747,132.433,260.936,134.261,259.794,133.69z M244.362,119.239 c0.002,0,0.003-0.001,0.005-0.001c0.493-0.057,1.092,0.342,1.091,0.879c-0.003,2.51-0.007,5.02-0.011,7.53 c0,0.539-0.299,1.039-0.881,1.105c-0.493,0.057-1.092-0.342-1.091-0.879c0.002-1.602,0.004-3.204,0.007-4.807 c0.001-0.908,0.002-1.815,0.004-2.723C243.487,119.806,243.784,119.309,244.362,119.239z"/></g><g id="change5_1"><path fill="#383936" d="M70.75,358.93l0.791-4.624l21.964,7.013l3.616,10.849c0,0-20.103,0-37.118,0l1.07-12.104 c2.583-0.075,5.167-0.149,7.75-0.224c0.577-0.017,0.836-0.437,0.843-0.885L70.75,358.93z M188.735,196.312 c0.032-0.206,0.152-0.396,0.306-0.551c-0.994-0.451-2.041-0.934-3.133-1.448l-28.111,79.103h3.233c0.335,0,0.653,0.061,0.961,0.147 l27.128-76.338C188.846,197.014,188.676,196.696,188.735,196.312z M115.347,392.87h-2.226c-1.703,0-3.084,1.381-3.084,3.084v5.701 c0,1.703,1.381,3.084,3.084,3.084h5.485c1.703,0,3.084-1.381,3.084-3.084v-5.701c0-1.377-0.909-2.53-2.155-2.926l39.672-111.636 h-4.246L115.347,392.87z M300.37,392.987c-1.315,0.353-2.287,1.541-2.287,2.967v5.701c0,1.703,1.381,3.084,3.084,3.084h5.486 c1.703,0,3.084-1.381,3.084-3.084v-5.701c0-1.703-1.381-3.084-3.084-3.084h-2.078l-39.616-111.478h-4.246L300.37,392.987z M227.328,261.995l19.945,95.086c-0.72,0.565-1.19,1.432-1.19,2.418v4.147c0,1.703,1.381,3.084,3.084,3.084h3.165 c1.703,0,3.084-1.381,3.084-3.084v-4.147c0-1.703-1.381-3.084-3.084-3.084h-1.113l-19.818-94.481 c-0.198,0.036-0.399,0.061-0.608,0.061H227.328z M206.185,195.031v60.493h9.554v-48.779l10.179,48.531 c0.219-0.044,0.445-0.068,0.677-0.068h3.395l-14.251-67.943v-0.42C212.554,189.573,209.37,192.302,206.185,195.031z M251.929,94.133 v-0.427c0.224-0.014,0.445-0.028,0.668-0.043c0.001-0.001,0.003-0.002,0.004-0.003c-0.223,0.014-0.444,0.028-0.668,0.042 c-1.279,0.084-2.56,0.169-3.835,0.253v2.879C249.376,95.938,250.651,95.034,251.929,94.133z M243.482,123.067 c0.001-0.908,0.002-1.815,0.004-2.723c0.001-0.538,0.298-1.035,0.876-1.104l-0.155-16.609c-0.069-0.055-0.141-0.105-0.198-0.184 c-0.281-0.394-0.223-1.046,0.184-1.345l-0.01-1.035c0,0,0.711-0.438,1.86-1.141v-4.833c-2.56,0.17-5.058,0.337-7.361,0.491v24.968 C240.505,120.339,242.394,122.004,243.482,123.067z M299.912,132.198c0,0.23-0.09,0.432-0.218,0.603 c1.377,0.118,2.625,0.211,3.664,0.281l13.763,2.09l-1.824-7.986l-8.848-7.119v-0.558l5.612-3.95v-14.559l-5.612-2.383V98.06 l8.848-6.712l1.824-7.529l-11.385,1.63l-6.094,0.714c0.163,0.182,0.269,0.416,0.269,0.68V132.198z M279.016,105.786 c-3.848-0.487-9.317-1.569-9.317-1.569l5.777,25.553c1.019,0.143,2.216,0.31,3.54,0.494V105.786z M297.969,132.643 c-0.067-0.136-0.112-0.284-0.112-0.446V86.842c0-0.18,0.058-0.34,0.139-0.487l-4.156,0.487v45.355 C295.255,132.37,296.648,132.517,297.969,132.643z M279.016,95.737v-7.146l-7.06,0.825v3.006c-0.001,0-0.002,0-0.003,0 c-0.285,0.018-0.588,0.037-0.906,0.057C273.836,93.133,276.473,94.409,279.016,95.737z M202.179,132.197h7.756v-17.391h-15.38 c-0.215,0-0.403-0.081-0.568-0.194v15.064c0,2.698,1.724,4.987,4.127,5.844C198.497,133.624,200.171,132.197,202.179,132.197z M193.987,112.946v-4.738v-23.35c0-0.946,0.767-1.712,1.713-1.712h0.898l9.101-14.681c0.498-0.803,1.336-1.3,2.255-1.397 c0.282,0.598,0.887,1.012,1.591,1.009l13.469-0.067c0.687-0.003,1.273-0.405,1.558-0.982h12.987c2.699,0,4.051,3.307,2.142,5.241 l-10.369,10.51c-0.387,0.392-0.871,0.655-1.392,0.79v11.793c-0.001,0-0.003,0-0.004,0v29.98l0.004,0v4.333 c0,2.698-1.724,4.987-4.127,5.844c-0.383-1.895-2.057-3.322-4.065-3.322h-7.756v-18.418c0-0.567-0.459-1.027-1.027-1.027h-16.407 C194.34,112.752,194.152,112.833,193.987,112.946z M208.355,100.618h-10.35v5.293h10.35V100.618z M221.973,90.939 c0-0.553-0.447-1-1-1s-1,0.447-1,1v35.458c0,0.553,0.447,1,1,1s1-0.447,1-1V90.939z M206.653,74.922 c0,2.947,2.389,5.336,5.336,5.336s5.336-2.389,5.336-5.336c0-2.947-2.389-5.336-5.336-5.336S206.653,71.974,206.653,74.922z M223.898,83.811c0.195,0.193,0.449,0.289,0.703,0.289c0.258,0,0.516-0.099,0.711-0.297l12.421-12.561 c0.284-0.287,0.367-0.716,0.212-1.089c-0.155-0.372-0.52-0.614-0.923-0.614H227.7c-0.553,0-1,0.447-1,1s0.447,1,1,1h6.927 L223.89,82.397C223.501,82.79,223.505,83.422,223.898,83.811z M210.962,136.911c-3.967,0-7.512,1.794-9.879,4.61 c-1.885,2.243-3.024,5.134-3.024,8.293c0,1.281,0.193,2.516,0.541,3.685c1.287,0.658,2.574,1.316,3.862,1.974 c0.026-0.016,0.047-0.034,0.075-0.048c6.8-3.467,13.599-6.933,20.399-10.4c-0.513-1.281-1.221-2.462-2.095-3.502 C218.474,138.705,214.929,136.911,210.962,136.911z M207.694,48.419C207.693,48.419,207.693,48.419,207.694,48.419l-0.05-9.896 l0.244-0.001l-0.245,0.001l-0.065-13.01c-0.008-1.519,1.218-2.756,2.736-2.764l21.921-0.109c5.333-0.027,9.679,4.275,9.705,9.609 l0.017,3.353c0.008,1.519-1.218,2.756-2.736,2.764l-7.778,0.039l0.108,21.756c0.006,1.129-0.905,2.049-2.034,2.054l-3.791,0.019 l-0.064-12.905c-0.001-0.266-0.108-0.52-0.297-0.706c-0.188-0.187-0.405-0.31-0.708-0.289L207.694,48.419z M210.891,30.627 c0.014,2.854,2.34,5.157,5.194,5.143c2.854-0.014,5.157-2.34,5.143-5.194c-0.014-2.854-2.34-5.157-5.194-5.143 C213.179,25.447,210.876,27.773,210.891,30.627z M223.668,50.339l-15.965,0.08l0,0l0.059,11.904l15.965-0.08L223.668,50.339z M16.651,404.818c0.529,0,73.706,0,73.706,0l-4.412-13.235l-26.899-8.589l-36.379-0.057 C22.666,382.938,16.121,404.818,16.651,404.818z M180.744,86.269c-0.184,0.044-0.338,0.115-0.479,0.217 c-0.297-1.345-0.594-2.691-0.892-4.036c-0.116-0.528-0.514-0.938-1.092-0.879c-0.49,0.05-0.996,0.583-0.881,1.105 c0.949,4.295,1.898,8.59,2.847,12.884c-0.95-0.089-1.9-0.178-2.85-0.267c-0.519-0.049-1.072,0.289-1.132,0.843 c-0.056,0.51,0.272,1.081,0.828,1.133l3.357,0.314c0.225,0.021,0.45-0.042,0.646-0.153c0.143,0.063,0.299,0.104,0.481,0.085 c0.129-0.013,0.259-0.061,0.379-0.133c0.335-0.199,0.587-0.588,0.502-0.973c-0.167-0.758-0.335-1.516-0.502-2.274 c-0.433-1.961-0.866-3.922-1.3-5.883c0.096,0.018,0.195,0.023,0.299-0.001c0.333-0.08,0.667-0.16,1.001-0.24 c0.998-0.239,1.997-0.478,2.995-0.717c0.263-0.063,0.48-0.143,0.659-0.361c0.157-0.192,0.26-0.495,0.222-0.745 c-0.072-0.479-0.549-1.008-1.091-0.879c-0.928,0.222-1.857,0.445-2.785,0.667C181.551,86.076,181.147,86.172,180.744,86.269z M175.369,105.59c-2.236,0.378-4.493,0.104-6.547-0.801c-0.493-0.218-1.093,0.02-1.311,0.511c-0.218,0.49,0.003,1.098,0.498,1.316 c2.366,1.043,5.02,1.389,7.571,0.958c0.531-0.09,0.94-0.551,0.881-1.105C176.406,105.956,175.902,105.5,175.369,105.59z M168.289,82.68c0.184-0.281,0.384-0.551,0.605-0.804c0.238-0.272,0.354-0.385,0.565-0.565c0.256-0.218,0.526-0.418,0.809-0.599 c0.313-0.202,0.41-0.254,0.754-0.41c1.175-0.533,2.365-0.719,3.584-0.547c1.259,0.177,1.575-1.797,0.304-1.976 c-3.11-0.437-6.422,0.997-8.15,3.64c-0.293,0.448-0.315,1.037,0.131,1.405C167.274,83.137,167.994,83.131,168.289,82.68z M184.116,80.296c0.238-0.027,0.513-0.166,0.659-0.361c0.157-0.21,0.262-0.478,0.222-0.745c-0.036-0.238-0.141-0.524-0.354-0.66 c-0.896-0.575-1.792-1.151-2.689-1.726c-0.285-0.183-0.569-0.365-0.854-0.548c-0.233-0.149-0.452-0.251-0.738-0.218 c-0.238,0.027-0.513,0.166-0.659,0.361c-0.157,0.21-0.262,0.478-0.222,0.745c0.036,0.238,0.141,0.524,0.354,0.66 c0.706,0.453,1.413,0.907,2.119,1.36c0.474,0.305,0.949,0.609,1.424,0.914C183.612,80.227,183.83,80.329,184.116,80.296z M172.905,85.801c-1.906,0-1.594,2.976,0.316,2.976C175.126,88.777,174.815,85.801,172.905,85.801z"/></g><g id="change1_2"><path fill="#ffe1bc" d="M246.044,98.924v-4.833v-0.373c0-0.567,0.459-1.027,1.027-1.027c0.568,0,1.027,0.46,1.027,1.027v0.237v2.879 c-0.339,0.238-0.677,0.479-1.017,0.715c-0.376,0.261-0.463,0.634-0.382,0.975C246.466,98.666,246.249,98.798,246.044,98.924z M279.677,96.083l0.529,0.158c0.254-0.001,0.508-0.001,0.762-0.002c0.408-0.001,0.694,0.211,0.869,0.488l3.877,1.156 c0,0-2.118,7.299-3.059,8.005c-0.306,0.23-1.786,0.132-3.64-0.103v24.478c4.257,0.576,9.818,1.325,14.825,1.933V86.842 l-14.825,1.749v7.146C279.237,95.852,279.458,95.967,279.677,96.083z M198.005,100.618v5.293h10.35v-5.293H198.005z M107.961,138.839c13.432,13.391,26.864,26.781,40.296,40.171c5.642-9.31,11.284-18.621,16.926-27.931 c0.02-0.034,0.045-0.06,0.067-0.09c2.122-4.013,3.954-7.5,5.109-9.702c-0.998-0.628-0.216-2.332,0.889-1.767 c0.01,0.005,0.019,0.01,0.029,0.015c0.243-0.464,0.375-0.717,0.375-0.717l-10.057-9.338c-0.25,0.554-0.925,0.909-1.486,0.38 c-11.114-10.474-22.228-20.949-33.342-31.423c-0.313-0.295-0.372-0.668-0.281-1l-0.717,0.205c0,0-23.547,2.739-45.473,11.988 c0.153,0.461,0.034,1.044-0.517,1.318c-15.116,7.516-28.801,17.795-40.242,30.207c-0.224,0.243-0.491,0.336-0.75,0.329 c-15.304,17.334-27.21,35.738-27.21,35.738c0.494,0.663,1.019,1.319,1.561,1.972c14.289,17.233,44.52,31.074,62.447,38.18 c8.464,3.355,14.184,5.208,14.184,5.208s0.388-5.002,0.951-11.07c-0.412-0.04-0.794-0.296-0.851-0.833 c-1.332-12.389,2.278-25.038,9.93-34.869c0.65-0.835,1.773-0.127,1.726,0.712c0.007,0.006,0.015,0.006,0.022,0.012 c4.667,4.047,11.481,4.268,16.397,0.524c0.439-0.334,0.889-0.217,1.192,0.074c6.935-4.826,9.213-14.641,9.213-14.641 s2.687,2.472,6.118,5.581l-27.772-27.686C105.8,139.495,107.054,137.936,107.961,138.839z M31.764,360.913 c9.769-0.282,19.539-0.565,29.308-0.847c2.583-0.075,5.167-0.149,7.75-0.224c0.577-0.017,0.836-0.437,0.843-0.885 c0.008-0.539-0.356-1.119-1.053-1.099c-12.353,0.357-24.706,0.714-37.059,1.072c-0.612,0.018-0.874,0.487-0.848,0.965 C30.735,360.408,31.101,360.932,31.764,360.913z M40.923,213.259c-0.185-0.234-0.262-0.548-0.185-0.858 c0.134-0.537,0.675-0.859,1.212-0.729c0.868,0.217,0.902,0.225,8.311,25.943c3.266,11.337,7.312,25.386,8.078,27.067 c0.516,0.538,0.565,1.369-7.293,42.484c-3.898,20.398-7.918,40.991-7.958,41.196c-0.093,0.478-0.512,0.809-0.98,0.809 c-0.063,0-0.128-0.006-0.192-0.019c-0.542-0.105-0.896-0.631-0.79-1.173c6.191-31.718,15.383-79.637,15.488-82.477 c-0.968-1.968-2.765-8.207-8.274-27.335C45.163,227.14,41.569,214.665,40.923,213.259z M57.423,264.368 c0.083-0.016,0.165-0.021,0.249-0.011c-0.027-0.003-0.055-0.004-0.082-0.004C57.536,264.353,57.48,264.358,57.423,264.368z M56.619,265.513c0.018,0.149,0.102,0.41,0.338,0.608l0.02-0.022C56.867,265.968,56.75,265.781,56.619,265.513z M43.658,261.74 l-13.543,70.184c-0.105,0.542,0.25,1.066,0.792,1.171c0.064,0.013,0.128,0.019,0.19,0.019c0.47,0,0.889-0.332,0.98-0.811 l13.588-70.412c0.029-0.15,0.023-0.306-0.017-0.453l-15.882-58.059c-0.146-0.533-0.699-0.842-1.229-0.701 c-0.533,0.146-0.847,0.696-0.701,1.229L43.658,261.74z M129.477,65.877c5.639-9.04,16.026-14.752,26.715-14.425 c1.256,0.038,1.583-1.937,0.303-1.976c-10.592-0.324-21.017,4.723-27.265,13.254c-0.448,0.612-0.878,1.238-1.282,1.885 c-0.275,0.441-0.173,0.908,0.081,1.24C128.393,66.331,129.076,66.519,129.477,65.877z M159.645,21.889 c-0.511,1.179,1.296,1.987,1.809,0.805c1.717-3.956-1.977-7.27-5.702-7.594c-3.444-0.299-6.869,1.283-8.958,4 c-5.277-3.693-12.843-1.517-15.156,4.704c-0.446,1.199,1.36,2.013,1.809,0.805c1.992-5.356,8.573-7.079,12.914-3.329 c0.37,0.32,1.116,0.307,1.397-0.143c1.428-2.288,3.784-3.831,6.496-4.059C156.838,16.863,161.076,18.592,159.645,21.889z M8.329,316.555c0.486,0,0.913-0.355,0.988-0.852l9.443-62.747c0.024-0.162,0.008-0.327-0.047-0.482l-9.965-28.162 c-0.182-0.519-0.752-0.792-1.276-0.609c0,0-0.001,0-0.001,0c-0.521,0.184-0.793,0.755-0.608,1.276l9.881,27.926l-9.406,62.501 c-0.082,0.546,0.294,1.054,0.84,1.137c0,0,0,0,0.001,0C8.229,316.551,8.28,316.555,8.329,316.555z"/></g></svg>