<?xml version="1.0" encoding="UTF-8" standalone="no"?><svg xmlns="http://www.w3.org/2000/svg" xmlns:xlink="http://www.w3.org/1999/xlink" contentScriptType="text/ecmascript" fill="#000000" width="175.2" zoomAndPan="magnify" contentStyleType="text/css" viewBox="0.0 -0.0 175.2 200.1" height="200.1" preserveAspectRatio="xMidYMid meet" version="1"><g data-name="Layer 2"><g><g><ellipse rx="80.17" ry="10.54" fill="#f4e5de" cx="95.05" cy="189.56"/></g><g><path fill="#ffb452" d="M55.08,27.09A70.3,70.3,0,0,1,76,10.41a53.31,53.31,0,0,1,24.75-6,57.11,57.11,0,0,1,16.42,2.28,38.08,38.08,0,0,1,13.25,6.85,32.78,32.78,0,0,1,8.87,11.23,35.42,35.42,0,0,1,3.24,15.63,22.76,22.76,0,0,1-2.1,10.09,35.58,35.58,0,0,1-5.18,7.81,43.94,43.94,0,0,1-6.67,6.23c-2.4,1.82-4.63,3.52-6.67,5.1a37.43,37.43,0,0,0-5.18,4.74,7.41,7.41,0,0,0-2.11,5L119,84.61l-4.44,4.44H82.12l-.18-14a16.11,16.11,0,0,1,4.3-10.88,70.2,70.2,0,0,1,9.57-9q5.26-4.12,9.65-7.73t4.39-7.28a6.73,6.73,0,0,0-1.14-4,8.52,8.52,0,0,0-3-2.55,13.21,13.21,0,0,0-4.22-1.31,30.91,30.91,0,0,0-4.65-.35A16,16,0,0,0,91,33.05a31.74,31.74,0,0,0-6.14,3.34A49.84,49.84,0,0,0,79,41a71,71,0,0,0-5,5.18Zm22.3,85a18.2,18.2,0,0,1,1.31-6.67,17.62,17.62,0,0,1,4-6A21.27,21.27,0,0,1,89,95.11a20.29,20.29,0,0,1,8.43-1.67,23,23,0,0,1,8.51,1.49,21.75,21.75,0,0,1,6.59,4,17.46,17.46,0,0,1,4.3,6,17.68,17.68,0,0,1,1.49,7.11,17,17,0,0,1-5.62,12.73q-5.62,5.35-15.27,5.35a19.9,19.9,0,0,1-7.9-1.58,22.77,22.77,0,0,1-6.41-4,17.26,17.26,0,0,1-4.21-5.7A16,16,0,0,1,77.38,112.05Z"/></g><g><path fill="#ffd766" d="M59.52,22.65A70.3,70.3,0,0,1,80.41,6a53.31,53.31,0,0,1,24.75-6,57.11,57.11,0,0,1,16.42,2.28,38,38,0,0,1,13.25,6.85,32.78,32.78,0,0,1,8.87,11.23A35.42,35.42,0,0,1,146.94,36a22.76,22.76,0,0,1-2.1,10.09,35.58,35.58,0,0,1-5.18,7.81A43.94,43.94,0,0,1,133,60.12c-2.4,1.82-4.63,3.52-6.67,5.1A37.43,37.43,0,0,0,121.14,70,7.46,7.46,0,0,0,119,75v9.65H86.56l-.18-14a16.11,16.11,0,0,1,4.3-10.88,70.88,70.88,0,0,1,9.57-9q5.27-4.11,9.65-7.72t4.39-7.28a6.73,6.73,0,0,0-1.14-4,8.52,8.52,0,0,0-3-2.55A13.15,13.15,0,0,0,106,27.74a31,31,0,0,0-4.66-.35,16,16,0,0,0-5.88,1.22A31.74,31.74,0,0,0,89.28,32a49.84,49.84,0,0,0-5.8,4.65,69,69,0,0,0-5,5.18Zm22.3,85a18.2,18.2,0,0,1,1.31-6.67,17.62,17.62,0,0,1,4-6,21.4,21.4,0,0,1,6.32-4.3A20.29,20.29,0,0,1,101.83,89a23,23,0,0,1,8.51,1.49,21.75,21.75,0,0,1,6.59,4,17.46,17.46,0,0,1,4.3,6,17.68,17.68,0,0,1,1.49,7.11,17,17,0,0,1-5.62,12.73q-5.62,5.35-15.27,5.35a19.9,19.9,0,0,1-7.9-1.58,22.77,22.77,0,0,1-6.41-4,17.26,17.26,0,0,1-4.21-5.7A16,16,0,0,1,81.82,107.61Z"/></g><g><path fill="#ffa895" d="M50.43,178.94v8.17s-8.93,2.12-9.35,6L56.42,192,56,179.44Z"/></g><g><path fill="#000013" d="M50.44,187.11s-8.93,2.12-9.35,6L56.42,192l.06-4.85C53.76,188.55,50.44,187.11,50.44,187.11Z"/></g><g><path fill="#ff807d" d="M50.43 178.94L56.12 182.92 56.01 179.44 50.43 178.94z"/></g><g><path fill="#ffa895" d="M74.91,178l.85,8.13s-8.67,3-8.68,7l15.12-2.78-1.69-12.41Z"/></g><g><path fill="#000013" d="M75.76,186.12s-8.67,3-8.68,7l15.12-2.78-.43-4.82C79.21,187.21,75.76,186.12,75.76,186.12Z"/></g><g><path fill="#ff807d" d="M74.91 177.99L80.98 181.36 80.51 177.91 74.91 177.99z"/></g><g><path fill="#2b2f59" d="M78.63 90.6L79.28 139.28 82.56 180.52 73.72 180.52 59.07 108.36 57.36 108.28 57.36 143.37 56.65 180.52 48.76 180.59 42.75 88.23 78.63 90.6z"/></g><g><path fill="#212644" d="M43,91.89l-.21-3.66L78.63,90.6l.14,11C72.28,103.63,52.85,108.14,43,91.89Z"/></g><g><path fill="#6f3c29" d="M67.73,26.53a17,17,0,0,0,8.13-8.79c2.33-6.2-2.44-8.63-3.56-9.14,0,0-4.87-8.53-20.41-4.37l1.77,1.22s-7.43,4.12-2.31,14.72S67.73,26.53,67.73,26.53Z"/></g><g><path fill="#5b3023" d="M63.09,20.17A33.15,33.15,0,0,1,50.83,19c.15.38.32.77.52,1.17,5.12,10.6,16.38,6.36,16.38,6.36a17,17,0,0,0,8.13-8.79,11.22,11.22,0,0,0,.46-1.65C72.73,18.91,67.34,19.78,63.09,20.17Z"/></g><g><path fill="#ff6c22" d="M57.73,35.72S47.09,34.79,41.3,46a95.38,95.38,0,0,0-7.94,21.1l15.18,4.28Z"/></g><g><path fill="#ff6c22" d="M66.58,34.7S76.93,38,82.35,44.64c4.07,5,12.75,20,12.75,20l-12,6.66-8.2-18Z"/></g><g><path fill="#ff6c22" d="M66.58,34.7,78.75,51.65l.69,15.23,1,27.33S59,101.75,41.93,93l2.35-37.22L56.87,35.81Z"/></g><g><path fill="#d6561e" d="M66.58,37.19a7.08,7.08,0,0,1-5.09,3.23c-3.43.35-5.32-3.23-5.32-3.23L59,36.32Z"/></g><g><path fill="#ffa895" d="M60.51,11.6l-7.38,1.52S48,24.21,55,30.17a2.43,2.43,0,0,0,2.25.52l-1.08,6.5s3.69,3.69,10.41,0V28.08s4.77,1.43,5-2.1a2.48,2.48,0,0,0-3.91-2.45s-2-5.86.65-10.41c0,0-8.6.78-9.16.35S60.51,11.6,60.51,11.6Z"/></g><g><path fill="#ff807d" d="M57.25 30.69L63.84 29.52 56.72 33.88 57.25 30.69z"/></g><g><path fill="#6f3c29" d="M63.65,18.3l0,0-2.5-1.46a.27.27,0,0,1,.27-.47l2.5,1.47a.27.27,0,0,1,.1.37A.28.28,0,0,1,63.65,18.3Z"/></g><g><path fill="#6f3c29" d="M53.88,15.46a.27.27,0,0,1-.22-.24.28.28,0,0,1,.24-.3l2.14-.2a.26.26,0,0,1,.29.24.28.28,0,0,1-.24.3l-2.13.2Z"/></g><g><path fill="#ffa895" d="M94.07,65.25s4.78,13,4.78,16.4S76.77,105,76.77,105l-1.68-4.26L89,80.89,84.83,70.4Z"/></g><g><path fill="#ffa895" d="M34.69,67.44s-.63,2.27-1.33,2.48c-.23.08-3.31-5-17.42-17.6A18.76,18.76,0,0,1,13.69,50L.4,53.66a.55.55,0,0,0-.08,1c1.52.66,4,1.57,5.87,1.33a18,18,0,0,0,5.3-1.65L27.24,73.54s5.82,6.44,8.94,5.52c4.36-1.27,7.21-9.17,7.21-9.17Z"/></g><g><path fill="#ff807d" d="M33.37 69.92L35.76 71.79 34.43 68.25 33.37 69.92z"/></g><g><path fill="#ff807d" d="M88.95 80.89L91.05 78.57 88.5 79.73 88.95 80.89z"/></g><g><path fill="#ff807d" d="M84.83 70.4L94.08 65.25 85.68 72.56 84.83 70.4z"/></g><g><path fill="#151516" d="M62.35,19.14a.95.95,0,1,1-1.83-.21c.08-.64.54-1.12,1-1.06A1.07,1.07,0,0,1,62.35,19.14Z"/></g><g><path fill="#151516" d="M55.19,19a.94.94,0,1,1-1.82-.21.94.94,0,1,1,1.82.21Z"/></g><g><path fill="#ff807d" d="M58.43,27.28a.36.36,0,0,1-.27-.11,3.43,3.43,0,0,0-2.4-.63.38.38,0,0,1-.42-.33.39.39,0,0,1,.33-.42,4.1,4.1,0,0,1,3,.86.38.38,0,0,1,0,.53A.35.35,0,0,1,58.43,27.28Z"/></g><g><path fill="#ff807d" d="M57.5,24.8a.42.42,0,0,1-.15,0c-.56-.25-1.86-.91-2-1.56s1.06-2.51,2.07-4a.37.37,0,0,1,.52-.1.38.38,0,0,1,.11.52,16.6,16.6,0,0,0-2,3.5,5,5,0,0,0,1.57,1,.38.38,0,0,1,.19.5A.4.4,0,0,1,57.5,24.8Z"/></g><g><path fill="#d6561e" d="M79.26 62.83L78.24 56.37 81.1 66.87 79.26 62.83z"/></g><g><path fill="#d6561e" d="M43.39,69.89V57.49S41.18,67.61,41.31,69.3Z"/></g><g><path fill="#ffa895" d="M119.17,70.92l8.2,4.42s-2.82,9.31-2.92,10.43,4,14.08,4,14.08l-1.13,9s-9.4-18.27-9.63-21.7S119.17,70.92,119.17,70.92Z"/></g><g><path fill="#ff807d" d="M128,98.15c-.08.09-1.93,4.45-2.74,6.48,1.25,2.52,2.15,4.26,2.15,4.26l1.13-9Z"/></g><g><path fill="#ff807d" d="M146.44,167.68s-4,7.28-4,9.65,2.61,6,6.37,6.24c2.83.18,3.52,4.54,3.52,4.54H141.48l-5.92-10.21,2.66-13.12Z"/></g><g><path fill="#322d2b" d="M138.82,181.53c.68-2,2.93-2.32,4.07-2.35a7.79,7.79,0,0,0,5.92,4.39c3.08.34,3.52,4.54,3.52,4.54H141.48l-4.57-7.87A12.29,12.29,0,0,1,138.82,181.53Z"/></g><g><path fill="#c69967" d="M157.51 87.08L165.73 122.7 148.68 166.41 139.6 163.15 151.49 121.11 137.37 84.64 157.51 87.08z"/></g><g><path fill="#b78858" d="M150.65 165.02L140.09 161.18 140.09 165.52 148.48 168.38 150.65 165.02z"/></g><g><path fill="#eab778" d="M129.06,89.94s-1.66,9.12-1.76,12c-.44,13.71,4.09,28.47,4.09,28.47v37.94h9.2l3.28-37.33,2.51-45.18Z"/></g><g><path fill="#c69967" d="M141.87 166.41L130.13 166.41 130.13 170.25 141.48 170.25 141.87 166.41z"/></g><g><path fill="#ffa895" d="M139.5,170.25s-1.15,7.46-.49,11.05c.59,3.26,10.65.69,11,6.81H132.4l-.79-17.86Z"/></g><g><path fill="#423b31" d="M137.33,185.94a4.62,4.62,0,0,1,3.13-3.22c2.43.84,9.39.32,9.5,5.39H132.4l-.15-3.46C134.88,187.77,137.33,185.94,137.33,185.94Z"/></g><g><path fill="#ff807d" d="M139.5 170.25L131.74 173.22 131.61 170.25 139.5 170.25z"/></g><g><path fill="#6f3c29" d="M150.66,31.09S153,26,151,22.92c0,0-7.12-9.14-16.56-3.4,0,0-4.15-.25-5,6.75s-.72,29.5-.72,29.5l24,.5Z"/></g><g><path fill="#5b3023" d="M128.88,41.71c-.11,7.28-.08,14.06-.08,14.06l24,.5-1.34-15.65C145.2,44.34,136.59,43.81,128.88,41.71Z"/></g><g><path fill="#ff807d" d="M127.3,75.31l-8.13-4.39s-.21,1.65-.48,3.93C121.57,74.93,124.44,75.12,127.3,75.31Z"/></g><g><path fill="#ff807d" d="M169.33,75.34s-5.82,2-15.53-10.34S159,58,159,58Z"/></g><g><path fill="#cc2b23" d="M153.75,47.93l9.39,14.48-7.82,8.8S142.17,52.52,153.75,47.93Z"/></g><g><path fill="#f73b29" d="M157.79,63.28c.78-3.83-5-15.79-5-15.79a20,20,0,0,0-6.63-2.66,64.24,64.24,0,0,0-9.61,0l-2,.35s-7.84,3.59-8.49,4.3l4,21.06L129.73,81l-1.38,11.77s20.45,3.78,31,0A60.22,60.22,0,0,1,157.79,63.28Z"/></g><g><path fill="#ffa895" d="M134,47.37c1.7,1.34,4,1.61,6.1,1.74,3.65.22,7.32-.6,9.95-3.09a15,15,0,0,0-3.84-1.19,64.24,64.24,0,0,0-9.61,0l-2,.35-1.92.89A9.39,9.39,0,0,0,134,47.37Z"/></g><g><path fill="#ffa895" d="M144.3,40.48l1,4.32s-2.84,2.76-8.29,0L136.88,37s-4.94-.58-4.94-4.21c0-3,3.13-3,4.11,0,0,0,1.77-2.05.7-6.24,0,0,10.3,2.71,7.82-.22-.4-.48,4.19,1.55,5.42,0,0,0,.86,1.63.64,7.25s-1.45,6.23-3.37,6.79A10.59,10.59,0,0,1,144.3,40.48Z"/></g><g><path fill="#ff807d" d="M144.35 40.5L139.41 39.3 145.03 43.67 144.35 40.5z"/></g><g><path fill="#ff807d" d="M145.28,35h0c.79-.23,1.25-.61,1.37-1.14.25-1.11-1.21-2.38-1.27-2.44a.22.22,0,0,0-.31,0,.22.22,0,0,0,0,.32c.36.32,1.28,1.3,1.12,2-.08.35-.43.62-1.05.8a.22.22,0,0,0-.16.27A.24.24,0,0,0,145.28,35Z"/></g><g><path fill="#6f3c29" d="M139.9,31.46h0l2.25-.86a.24.24,0,0,0,.13-.29.23.23,0,0,0-.29-.13l-2.25.86a.22.22,0,0,0-.13.29A.23.23,0,0,0,139.9,31.46Z"/></g><g><path fill="#ff807d" d="M145,37.13a4.24,4.24,0,0,0,1.47-.41.23.23,0,0,0,.09-.31.22.22,0,0,0-.3-.09,3.49,3.49,0,0,1-3.4-.16.22.22,0,0,0-.31.07.22.22,0,0,0,.06.31A3.75,3.75,0,0,0,145,37.13Z"/></g><g><path fill="#ffa895" d="M152.45,50.71s-2.93-3.42-3.13-4.2,1.27-2,1.54-2.31-1-4.15-.56-4.49,3.5,4.82,3.5,4.82,2,2.86,1.43,4.16S152.45,50.71,152.45,50.71Z"/></g><g><path fill="#ffa895" d="M155.3,47.93s16.66,19.36,15,25.88-13.54-6.15-17.88-23.1Z"/></g><g><path fill="#0e0e0f" d="M148.62,30.26c.06.49-.17.91-.52,1s-.69-.31-.75-.8.18-.91.53-1S148.56,29.78,148.62,30.26Z"/></g><g><path fill="#0e0e0f" d="M142.42,31.92a.8.8,0,0,1-.53,1c-.35,0-.68-.32-.74-.8s.17-.91.53-.95S142.36,31.44,142.42,31.92Z"/></g><g><path fill="#6f3c29" d="M149,28.35a.2.2,0,0,1-.14-.06,1.82,1.82,0,0,0-2.43-.14.2.2,0,1,1-.24-.31,2.24,2.24,0,0,1,2.95.17.19.19,0,0,1,0,.28A.2.2,0,0,1,149,28.35Z"/></g><g><path fill="#f73b29" d="M126.12,49.48s-5.29,5.88-7.62,21.07l8.87,4.79,3.33-11.12S135.44,52.69,126.12,49.48Z"/></g><g><path fill="#cc2b23" d="M129.67 67.97L127.66 60.3 128.14 72.76 129.67 67.97z"/></g></g></g></svg>