<?xml version="1.0" encoding="UTF-8" standalone="no"?><svg xmlns="http://www.w3.org/2000/svg" xmlns:xlink="http://www.w3.org/1999/xlink" contentScriptType="text/ecmascript" fill="#5f1a1f" width="163.4" zoomAndPan="magnify" contentStyleType="text/css" viewBox="229.0 269.2 163.4 110.6" height="110.6" preserveAspectRatio="xMidYMid meet" version="1"><g id="change1_1"><path fill="inherit" d="M 380.398438 312.46875 L 270.128906 312.46875 C 270.128906 312.46875 293.359375 289.40625 293.972656 288.617188 C 295.566406 286.574219 296.523438 284.011719 296.523438 281.222656 C 296.523438 278.140625 295.359375 275.339844 293.457031 273.203125 L 292.480469 272.226562 C 290.347656 270.324219 287.542969 269.15625 284.460938 269.15625 C 281.292969 269.15625 278.414062 270.394531 276.261719 272.394531 C 276.261719 272.394531 231.769531 316.816406 231.542969 317.109375 C 229.96875 319.148438 229.023438 321.691406 229.023438 324.46875 C 229.023438 327.238281 229.96875 329.785156 231.539062 331.820312 C 232.175781 332.644531 276.816406 377.09375 276.816406 377.09375 C 278.886719 378.773438 281.523438 379.78125 284.398438 379.78125 C 291.058594 379.78125 296.460938 374.382812 296.460938 367.722656 C 296.460938 364.800781 295.421875 362.121094 293.695312 360.035156 L 270.128906 336.46875 L 380.398438 336.46875 C 387.027344 336.46875 392.398438 331.09375 392.398438 324.46875 C 392.398438 317.839844 387.027344 312.46875 380.398438 312.46875"/></g></svg>