<?xml version="1.0" encoding="UTF-8" standalone="no"?><svg xmlns="http://www.w3.org/2000/svg" xmlns:xlink="http://www.w3.org/1999/xlink" contentScriptType="text/ecmascript" fill="#000000" width="408.2" zoomAndPan="magnify" contentStyleType="text/css" viewBox="-3.5 -1.1 408.2 507.5" height="507.5" preserveAspectRatio="xMidYMid meet" version="1"><defs><clipPath id="a"><path d="M 54 99 L 402.859375 99 L 402.859375 340 L 54 340 Z M 54 99"/></clipPath></defs><g><g id="change1_1"><path fill="#eba9ba" d="M 377.46875 210.589844 C 372.21875 205.355469 367.675781 200.839844 365.476562 197.476562 C 359.976562 189.066406 354.953125 180.484375 351.191406 173.953125 L 349.46875 170.960938 L 352.917969 170.8125 C 360.585938 170.484375 366.785156 169.109375 371.871094 166.601562 L 372.191406 166.4375 C 372.863281 166.09375 373.535156 165.746094 374.324219 165.261719 L 374.832031 164.933594 C 375.367188 164.59375 375.90625 164.261719 376.417969 163.878906 C 386.203125 156.601562 388.074219 145.539062 382.015625 131.074219 L 381.929688 130.878906 C 377.867188 121.230469 371.292969 112.65625 367.738281 108.40625 C 358.894531 97.863281 345.574219 89.746094 325.808594 82.863281 C 322.984375 81.878906 319.984375 80.898438 316.894531 79.945312 L 315.992188 79.667969 L 315.503906 78.585938 C 315.386719 78.328125 315.277344 78.082031 315.164062 77.828125 C 315.246094 77.851562 315.296875 77.863281 315.296875 77.863281 C 315.414062 77.894531 315.550781 77.828125 315.585938 77.710938 C 315.628906 77.589844 315.558594 77.457031 315.433594 77.417969 C 315.433594 77.417969 315.238281 77.359375 314.902344 77.253906 C 313.402344 73.921875 312.003906 70.761719 310.929688 67.929688 C 309.503906 63.835938 308.203125 59.539062 306.945312 55.382812 C 303.480469 43.941406 299.902344 32.113281 293.269531 22.636719 C 287.101562 13.875 280.898438 13.148438 274.554688 13.148438 C 273.484375 13.148438 272.40625 13.175781 271.320312 13.199219 C 270.175781 13.226562 269.023438 13.25 267.855469 13.25 C 263.308594 13.25 257.898438 12.867188 252.351562 10.089844 C 249.355469 8.839844 247.148438 7.25 245.199219 5.84375 C 242.289062 3.746094 239.996094 2.09375 235.933594 2.09375 C 235.179688 2.09375 234.367188 2.148438 233.71875 2.226562 C 224.605469 4.371094 217.183594 12.726562 210.628906 20.09375 C 209.582031 21.273438 208.558594 22.425781 207.53125 23.546875 C 205.902344 25.246094 204.019531 27.164062 201.960938 29.261719 C 194.722656 36.628906 184.929688 46.617188 176.734375 57.070312 C 176.421875 57.070312 176.246094 57.074219 176.246094 57.074219 C 176.113281 57.078125 176 57.1875 176 57.324219 C 175.996094 57.460938 176.109375 57.574219 176.246094 57.578125 C 176.246094 57.578125 176.285156 57.578125 176.328125 57.582031 C 176.148438 57.8125 175.960938 58.039062 175.78125 58.269531 L 175.148438 59.09375 L 171.851562 59.082031 C 166.808594 59.082031 162.277344 59.167969 157.996094 59.34375 C 120.859375 60.847656 99.414062 69.984375 92.433594 87.269531 C 91.375 89.917969 90.863281 92.015625 90.863281 93.679688 L 90.855469 93.890625 C 88.691406 115.472656 115.519531 139.285156 141.613281 148.96875 L 143.902344 149.820312 L 142.714844 151.953125 C 133.878906 167.839844 118.21875 175.351562 102.691406 181.070312 C 99.070312 182.578125 93.351562 183.699219 86.726562 184.996094 C 75.414062 187.210938 61.332031 189.96875 57.929688 195.308594 C 53.082031 201.972656 61.875 214.347656 67.128906 221.742188 C 68.0625 223.054688 68.910156 224.246094 69.554688 225.21875 C 75.214844 233.035156 83.691406 240.902344 94.742188 248.601562 L 95.367188 249.039062 C 94.75 249.460938 94.136719 249.882812 93.542969 250.320312 C 93.265625 250.53125 92.953125 250.71875 92.679688 250.929688 C 78.984375 261.585938 7.695312 322.804688 0.628906 371.695312 C -3.523438 403.234375 13.078125 423.980469 45.445312 428.964844 C 58.53125 430.800781 65.867188 429.425781 77.933594 423.984375 C 90.433594 418.351562 100.136719 410.445312 108.234375 401.351562 C 104.921875 418.929688 102.714844 435.902344 103.546875 449.625 L 206.820312 450.640625 L 234.980469 450.367188 C 234.710938 449.707031 234.425781 449.007812 234.136719 448.28125 L 235.222656 448.269531 C 235.921875 450.265625 236.589844 452.054688 237.125 453.566406 C 238.488281 457.335938 239.265625 459.488281 239.265625 459.488281 C 239.304688 459.59375 239.253906 459.695312 239.167969 459.761719 C 239.503906 460.589844 239.710938 461.101562 239.710938 461.101562 C 239.710938 461.101562 246.445312 477.054688 254.691406 485.941406 C 273.621094 506.335938 303.054688 503.632812 322.476562 483.691406 C 328.332031 477.675781 356.066406 436.433594 371.628906 382.898438 C 386.789062 330.753906 374.109375 293.53125 362.292969 279.40625 C 360.269531 276.988281 358.320312 274.796875 356.398438 272.714844 C 355.871094 272.144531 355.355469 271.628906 354.835938 271.082031 L 355.621094 270.769531 C 358.5 269.617188 361.359375 268.449219 364.195312 267.230469 C 365.652344 266.601562 367.3125 265.917969 369.097656 265.183594 C 379.574219 260.875 395.40625 254.363281 399.914062 246.179688 C 404.628906 237.628906 388.933594 222 377.46875 210.589844"/></g><g id="change2_1"><path fill="#783035" d="M 315.296875 77.863281 C 315.296875 77.863281 313.15625 77.300781 309.414062 76.316406 C 305.679688 75.316406 300.3125 73.976562 293.921875 72.199219 C 290.726562 71.316406 287.261719 70.359375 283.597656 69.347656 C 279.9375 68.355469 276.082031 67.308594 272.089844 66.230469 C 268.132812 65.050781 263.914062 64.347656 259.695312 63.367188 C 257.578125 62.929688 255.410156 62.628906 253.253906 62.253906 C 251.089844 61.902344 248.925781 61.492188 246.734375 61.269531 C 244.554688 60.988281 242.371094 60.707031 240.195312 60.429688 C 238.023438 60.148438 235.835938 60.019531 233.679688 59.808594 C 229.367188 59.363281 225.09375 59.199219 220.96875 58.957031 C 216.835938 58.800781 212.84375 58.644531 209.054688 58.5 C 205.257812 58.429688 201.664062 58.359375 198.347656 58.292969 C 191.726562 58.144531 186.195312 57.898438 182.328125 57.785156 C 178.460938 57.652344 176.25 57.578125 176.25 57.578125 C 176.109375 57.574219 176 57.460938 176.003906 57.324219 C 176.003906 57.1875 176.113281 57.078125 176.25 57.074219 C 176.25 57.074219 178.460938 57.054688 182.328125 57.011719 C 186.195312 56.984375 191.726562 56.941406 198.359375 56.890625 C 201.675781 56.875 205.269531 56.855469 209.070312 56.835938 C 212.875 56.90625 216.894531 56.875 221.046875 57.070312 C 225.199219 57.277344 229.492188 57.410156 233.84375 57.824219 C 236.019531 58.019531 238.21875 58.132812 240.414062 58.394531 C 242.609375 58.660156 244.816406 58.929688 247.019531 59.195312 C 249.226562 59.429688 251.410156 59.867188 253.589844 60.238281 C 255.769531 60.640625 257.949219 60.960938 260.085938 61.421875 C 264.335938 62.441406 268.585938 63.191406 272.570312 64.414062 C 280.621094 66.609375 287.949219 68.984375 294.316406 70.878906 C 306.988281 74.800781 315.4375 77.417969 315.4375 77.417969 C 315.558594 77.457031 315.628906 77.585938 315.589844 77.710938 C 315.550781 77.828125 315.414062 77.894531 315.296875 77.863281 Z M 383.914062 130.191406 C 383.902344 130.164062 383.890625 130.132812 383.878906 130.101562 C 383.871094 130.089844 383.867188 130.078125 383.863281 130.066406 C 380.214844 121.40625 374.453125 113.171875 369.34375 107.058594 C 358.707031 94.378906 343.113281 86.671875 326.5 80.886719 C 323.527344 79.851562 320.527344 78.871094 317.511719 77.945312 C 315.75 74.039062 314.105469 70.394531 312.90625 67.238281 C 307.597656 51.96875 304.277344 34.710938 294.980469 21.429688 C 282.367188 3.503906 269.089844 16.121094 253.15625 8.152344 C 245.191406 4.832031 243.199219 -1.140625 233.238281 0.1875 C 221.953125 2.84375 213.324219 14.128906 206.019531 22.097656 C 198.292969 30.175781 184.820312 43.085938 174.125 56.992188 C 168.941406 56.96875 163.476562 57.023438 157.914062 57.25 C 129.988281 58.382812 99.605469 63.921875 90.492188 86.492188 C 89.328125 89.40625 88.773438 91.757812 88.773438 93.679688 C 86.449219 116.886719 114.953125 141.308594 140.886719 150.933594 C 140.890625 150.925781 140.894531 150.921875 140.898438 150.914062 C 147 139.183594 152.894531 112.546875 159.667969 99.179688 C 159.667969 99.179688 159.667969 99.179688 159.671875 99.179688 C 180.410156 98.675781 205.855469 98.921875 236.355469 101.605469 C 252.40625 103.019531 267.707031 106.734375 281.640625 111.730469 C 303.699219 119.640625 322.308594 130.785156 334.890625 141.25 C 341.074219 151.714844 346.945312 162.367188 353.007812 172.90625 C 360.039062 172.605469 366.867188 171.402344 372.796875 168.480469 C 372.800781 168.484375 372.800781 168.484375 372.804688 168.488281 C 372.917969 168.429688 373.023438 168.363281 373.136719 168.304688 C 373.859375 167.941406 374.574219 167.566406 375.265625 167.144531 C 375.421875 167.054688 375.566406 166.941406 375.71875 166.847656 C 376.375 166.433594 377.039062 166.027344 377.667969 165.558594 C 389.996094 156.390625 389.21875 142.84375 383.914062 130.191406"/></g><g id="change2_2"><path fill="#783035" d="M 230.6875 197.871094 L 229.679688 196.035156 C 215.820312 203.644531 196.328125 206.738281 183.171875 192.605469 L 181.636719 194.03125 C 188.726562 201.648438 197.496094 204.578125 206.320312 204.578125 C 214.894531 204.578125 223.515625 201.808594 230.6875 197.871094"/></g><g id="change2_3"><path fill="#783035" d="M 198.765625 172.34375 C 199.003906 171.710938 199.402344 171.171875 199.804688 170.671875 C 200.035156 170.445312 200.269531 170.222656 200.484375 169.984375 C 200.722656 169.777344 200.996094 169.617188 201.242188 169.433594 C 201.722656 169.03125 202.320312 168.882812 202.808594 168.597656 C 203.320312 168.382812 203.820312 168.28125 204.269531 168.121094 C 204.707031 167.953125 205.160156 167.953125 205.5 167.871094 C 206.195312 167.742188 206.59375 167.664062 206.59375 167.664062 C 206.59375 167.664062 206.195312 167.589844 205.5 167.457031 C 205.144531 167.421875 204.742188 167.273438 204.226562 167.324219 C 203.722656 167.351562 203.117188 167.3125 202.488281 167.441406 C 201.878906 167.621094 201.148438 167.667969 200.496094 168.0625 C 200.160156 168.238281 199.796875 168.390625 199.457031 168.601562 C 199.132812 168.839844 198.816406 169.109375 198.488281 169.378906 C 197.914062 169.976562 197.28125 170.640625 196.9375 171.46875 C 196.5 172.257812 196.296875 173.160156 196.152344 174.042969 C 196.128906 174.492188 196.078125 174.941406 196.09375 175.386719 L 196.242188 176.703125 C 196.4375 177.546875 196.667969 178.382812 197.066406 179.09375 C 197.386719 179.851562 197.871094 180.472656 198.324219 181.050781 C 198.753906 181.652344 199.328125 182.0625 199.777344 182.5 C 200.257812 182.90625 200.769531 183.183594 201.1875 183.457031 C 201.59375 183.757812 202.035156 183.871094 202.355469 184.023438 C 203.023438 184.292969 203.398438 184.425781 203.398438 184.425781 C 203.398438 184.425781 203.101562 184.152344 202.582031 183.671875 C 202.328125 183.429688 201.984375 183.195312 201.679688 182.824219 C 201.367188 182.460938 200.988281 182.09375 200.628906 181.652344 C 200.320312 181.164062 199.898438 180.71875 199.605469 180.148438 C 199.292969 179.589844 198.976562 179.007812 198.761719 178.363281 C 198.460938 177.746094 198.40625 177.039062 198.238281 176.371094 L 198.152344 175.332031 C 198.152344 174.984375 198.214844 174.644531 198.230469 174.296875 C 198.324219 173.628906 198.445312 172.933594 198.765625 172.34375"/></g><g id="change2_4"><path fill="#783035" d="M 187.8125 161.496094 C 187.46875 160.78125 187.191406 159.980469 186.925781 159.128906 C 187.054688 159.441406 187.164062 159.738281 187.253906 160 C 187.59375 160.953125 187.816406 161.5 187.816406 161.5 C 187.816406 161.5 187.777344 160.921875 187.648438 159.902344 C 187.601562 159.386719 187.480469 158.777344 187.320312 158.074219 C 187.183594 157.367188 186.996094 156.570312 186.683594 155.738281 C 186.429688 154.882812 186.042969 153.996094 185.59375 153.070312 C 185.15625 152.140625 184.585938 151.199219 183.941406 150.269531 C 183.59375 149.816406 183.238281 149.359375 182.878906 148.894531 C 182.5 148.449219 182.058594 148.039062 181.628906 147.617188 C 181.21875 147.171875 180.703125 146.828125 180.21875 146.453125 C 179.738281 146.066406 179.226562 145.714844 178.664062 145.441406 C 177.59375 144.800781 176.390625 144.425781 175.21875 144.074219 C 174.007812 143.832031 172.808594 143.683594 171.648438 143.769531 C 170.476562 143.699219 169.40625 144.101562 168.378906 144.253906 C 167.390625 144.585938 166.472656 144.921875 165.652344 145.28125 C 164.851562 145.707031 164.140625 146.125 163.519531 146.488281 C 162.910156 146.863281 162.445312 147.277344 162.03125 147.570312 C 161.222656 148.191406 160.777344 148.570312 160.777344 148.570312 C 160.777344 148.570312 161.316406 148.351562 162.25 147.921875 C 162.714844 147.714844 163.253906 147.398438 163.914062 147.160156 C 164.578125 146.941406 165.316406 146.695312 166.09375 146.398438 C 166.90625 146.179688 167.800781 146.003906 168.722656 145.777344 C 169.28125 145.757812 169.851562 145.667969 170.433594 145.617188 C 168.34375 149.0625 167.121094 153.085938 167.117188 157.40625 C 168.203125 158.136719 169.460938 158.875 170.949219 159.597656 C 177.402344 162.722656 187.8125 161.496094 187.8125 161.496094"/></g><g id="change2_5"><path fill="#783035" d="M 226.335938 164.410156 L 226.324219 164.441406 C 226.28125 164.554688 226.328125 164.683594 226.4375 164.746094 C 226.558594 164.8125 226.707031 164.769531 226.773438 164.652344 C 226.777344 164.648438 226.777344 164.648438 226.777344 164.648438 C 226.777344 164.648438 227.105469 164.054688 227.773438 163.140625 C 228.394531 162.222656 229.453125 160.960938 230.90625 159.707031 C 231.640625 159.085938 232.449219 158.425781 233.371094 157.824219 C 234.144531 157.3125 234.996094 156.835938 235.890625 156.394531 C 235.382812 158.136719 235.097656 159.972656 235.097656 161.875 C 235.097656 164.042969 235.464844 166.121094 236.113281 168.074219 C 238.28125 168.574219 240.730469 168.964844 243.402344 169.078125 C 252.414062 169.464844 259.011719 164.429688 260.078125 163.558594 C 260.144531 163.621094 260.234375 163.65625 260.324219 163.621094 C 260.445312 163.574219 260.507812 163.441406 260.460938 163.320312 C 260.460938 163.320312 260.402344 163.164062 260.292969 162.867188 C 260.175781 162.570312 260.035156 162.125 259.761719 161.601562 C 259.519531 161.0625 259.171875 160.429688 258.75 159.710938 C 258.3125 159.003906 257.734375 158.257812 257.066406 157.472656 C 255.703125 155.929688 253.816406 154.296875 251.375 153.253906 C 250.167969 152.71875 248.835938 152.34375 247.460938 152.140625 C 246.78125 152.027344 246.054688 152.007812 245.324219 151.988281 C 244.972656 151.984375 244.660156 152.015625 244.328125 152.027344 C 244.011719 152.035156 243.578125 152.074219 243.269531 152.125 C 240.507812 152.476562 237.863281 153.386719 235.613281 154.621094 C 233.367188 155.859375 231.453125 157.320312 230.039062 158.800781 C 228.636719 160.289062 227.691406 161.695312 227.121094 162.753906 C 226.566406 163.800781 226.335938 164.410156 226.335938 164.410156"/></g><g id="change2_6"><path fill="#783035" d="M 236.238281 142.558594 C 240.933594 140.210938 245.039062 139.820312 250.125 140.015625 C 252.472656 140.015625 262.445312 140.015625 259.511719 135.125 C 257.164062 131.996094 247.191406 131.605469 243.671875 131.996094 C 238.976562 132.582031 230.566406 134.539062 228.417969 139.429688 C 225.679688 145.882812 232.71875 144.316406 236.238281 142.558594"/></g><g id="change2_7"><path fill="#783035" d="M 173.023438 134.34375 C 178.011719 135.351562 181.90625 136.695312 185.917969 140.082031 C 188.925781 142.621094 195.398438 145.800781 194.257812 138.882812 C 193.320312 133.625 185.605469 129.742188 181.179688 128.070312 C 177.855469 126.808594 173.816406 125.988281 170.257812 126.019531 C 168.890625 126.03125 166.671875 126.714844 165.355469 127.777344 C 164.113281 128.78125 163.679688 130.125 165.535156 131.566406 C 167.453125 133.058594 170.664062 133.867188 173.023438 134.34375"/></g><g id="change2_8"><path fill="#783035" d="M 319.121094 166.886719 L 319.09375 166.933594 C 319.09375 166.933594 318.992188 167.132812 318.8125 167.484375 C 318.613281 167.820312 318.433594 168.355469 318.03125 168.898438 C 317.667969 169.464844 317.246094 170.117188 316.683594 170.738281 C 316.183594 171.40625 315.496094 171.988281 314.871094 172.609375 C 314.171875 173.148438 313.507812 173.734375 312.785156 174.136719 C 312.433594 174.34375 312.105469 174.597656 311.773438 174.738281 C 311.445312 174.898438 311.140625 175.046875 310.855469 175.1875 C 310.390625 175.441406 309.886719 175.582031 309.519531 175.714844 C 309.523438 175.675781 309.523438 175.640625 309.527344 175.605469 C 309.679688 174.03125 309.917969 172.375 310.257812 170.742188 C 310.449219 169.9375 310.59375 169.113281 310.855469 168.34375 C 311.082031 167.558594 311.320312 166.800781 311.613281 166.089844 C 311.878906 165.363281 312.230469 164.714844 312.523438 164.074219 C 312.910156 163.503906 313.175781 162.863281 313.574219 162.410156 C 313.945312 161.925781 314.265625 161.457031 314.617188 161.136719 C 314.957031 160.789062 315.230469 160.449219 315.570312 160.246094 C 316.179688 159.796875 316.519531 159.519531 316.519531 159.519531 C 316.601562 159.453125 316.632812 159.339844 316.59375 159.234375 C 316.542969 159.105469 316.398438 159.035156 316.265625 159.085938 C 316.265625 159.085938 315.859375 159.242188 315.160156 159.546875 C 314.808594 159.667969 314.414062 159.964844 313.9375 160.277344 C 313.433594 160.578125 312.980469 161.007812 312.496094 161.492188 C 311.964844 161.949219 311.574219 162.578125 311.082031 163.195312 C 310.683594 163.859375 310.199219 164.546875 309.871094 165.324219 C 309.507812 166.09375 309.15625 166.894531 308.90625 167.742188 C 308.605469 168.574219 308.429688 169.449219 308.203125 170.316406 C 307.878906 172.066406 307.652344 173.832031 307.632812 175.492188 C 307.59375 177.148438 307.695312 178.695312 307.878906 180.003906 C 308.246094 182.632812 308.894531 184.28125 308.894531 184.28125 C 308.933594 184.371094 309.027344 184.4375 309.125 184.433594 C 309.257812 184.425781 309.355469 184.316406 309.351562 184.1875 C 309.351562 184.1875 309.34375 183.75 309.296875 183.007812 C 309.246094 182.261719 309.257812 181.191406 309.273438 179.925781 C 309.285156 179.320312 309.308594 178.660156 309.347656 177.976562 C 309.402344 177.960938 309.457031 177.964844 309.511719 177.941406 C 309.511719 177.941406 309.722656 177.847656 310.089844 177.679688 C 310.464844 177.488281 310.96875 177.339844 311.632812 176.933594 C 311.957031 176.742188 312.308594 176.535156 312.679688 176.316406 C 313.0625 176.109375 313.382812 175.8125 313.757812 175.550781 C 314.507812 175.039062 315.1875 174.347656 315.898438 173.695312 C 316.527344 172.96875 317.203125 172.285156 317.6875 171.523438 C 318.234375 170.808594 318.632812 170.070312 318.96875 169.4375 C 319.34375 168.824219 319.5 168.234375 319.679688 167.863281 C 319.835938 167.476562 319.925781 167.257812 319.925781 167.257812 C 320.011719 167.046875 319.921875 166.796875 319.714844 166.691406 C 319.5 166.578125 319.230469 166.664062 319.121094 166.886719"/></g><g id="change2_9"><path fill="#783035" d="M 147.074219 341.566406 C 147.015625 341.570312 146.960938 341.5625 146.902344 341.566406 C 146.613281 339.429688 145.996094 337.460938 145.320312 335.644531 C 144.964844 334.714844 144.582031 333.835938 144.195312 332.972656 C 143.894531 332.453125 143.628906 331.890625 143.398438 331.277344 C 143.390625 331.257812 143.382812 331.238281 143.371094 331.21875 C 142.933594 331.429688 142.492188 331.625 142.050781 331.808594 C 142.652344 333.191406 143.246094 334.636719 143.769531 336.195312 C 144.324219 337.898438 144.800781 339.722656 145.039062 341.582031 C 144.980469 341.578125 144.917969 341.585938 144.859375 341.582031 C 144.917969 342.039062 144.972656 342.492188 144.996094 342.953125 C 145.128906 345.242188 144.4375 347.519531 142.578125 348.46875 C 142.339844 348.570312 142.199219 348.699219 141.886719 348.800781 L 140.945312 349.089844 C 140.546875 349.113281 139.902344 349.300781 139.382812 349.210938 C 138.285156 349.207031 137.179688 348.816406 136.136719 348.253906 C 134.011719 347.164062 132.148438 345.359375 130.519531 343.433594 C 128.933594 341.558594 127.539062 339.527344 126.277344 337.503906 C 126.242188 337.445312 126.199219 337.390625 126.164062 337.332031 C 123.585938 333.160156 121.449219 329.054688 119.765625 325.472656 C 118.089844 321.882812 116.71875 318.863281 115.84375 316.714844 C 114.960938 314.574219 114.457031 313.347656 114.457031 313.347656 C 114.398438 313.210938 114.25 313.132812 114.105469 313.171875 C 114.101562 313.171875 114.101562 313.175781 114.097656 313.175781 C 113.941406 313.21875 113.847656 313.378906 113.890625 313.535156 C 113.890625 313.535156 114.226562 314.832031 114.941406 317.050781 C 115.675781 319.261719 116.707031 322.441406 118.242188 326.144531 C 119.800781 329.832031 121.652344 334.152344 124.25 338.496094 C 125.546875 340.664062 126.996094 342.859375 128.710938 344.949219 C 130.421875 347.023438 132.390625 349.058594 134.984375 350.457031 C 136.269531 351.132812 137.757812 351.632812 139.3125 351.632812 C 140.113281 351.699219 140.785156 351.535156 141.675781 351.363281 C 141.992188 351.265625 142.316406 351.164062 142.664062 351.027344 C 142.621094 351.097656 142.585938 351.152344 142.539062 351.222656 C 142.09375 351.972656 141.472656 352.769531 140.886719 353.683594 C 138.445312 357.28125 135.191406 362.078125 131.933594 366.878906 C 130.328125 369.292969 128.722656 371.714844 127.21875 373.980469 C 125.746094 376.273438 124.367188 378.40625 123.191406 380.242188 C 120.855469 383.925781 119.378906 386.4375 119.378906 386.4375 C 119.316406 386.542969 119.339844 386.683594 119.433594 386.761719 C 119.539062 386.851562 119.699219 386.835938 119.789062 386.730469 C 119.789062 386.730469 120.253906 386.167969 121.070312 385.1875 C 121.851562 384.183594 123.035156 382.792969 124.339844 381.042969 C 125.640625 379.289062 127.210938 377.285156 128.789062 375.058594 C 130.390625 372.851562 132.042969 370.457031 133.671875 368.042969 C 135.292969 365.625 136.882812 363.183594 138.304688 360.851562 C 139.777344 358.554688 140.984375 356.292969 142.070312 354.394531 C 142.601562 353.4375 143.113281 352.582031 143.472656 351.753906 C 143.742188 351.167969 143.980469 350.660156 144.199219 350.191406 C 145.34375 349.402344 146.226562 348.277344 146.675781 347.03125 C 147.195312 345.613281 147.304688 344.171875 147.222656 342.839844 C 147.195312 342.40625 147.132812 341.988281 147.074219 341.566406"/></g><g id="change2_10"><path fill="#783035" d="M 214.8125 343.925781 C 209.777344 341.941406 204.058594 340.617188 200.136719 336.671875 C 196.636719 333.152344 194.144531 328.15625 192.546875 323.523438 C 191.808594 321.382812 191.394531 319.082031 191.839844 316.839844 C 192.253906 314.757812 193.203125 313.722656 194.378906 313.367188 C 194.113281 312.730469 193.898438 312.070312 193.664062 311.417969 C 191.445312 312.355469 189.820312 314.648438 189.609375 317.429688 C 189.128906 323.871094 192.859375 330.4375 196.46875 335.488281 C 200.804688 341.558594 207.617188 343.328125 214.257812 345.945312 C 215.515625 346.4375 216.054688 344.414062 214.8125 343.925781"/></g><g id="change2_11"><path fill="#783035" d="M 233.804688 305.046875 C 229.351562 305.046875 225.742188 301.441406 225.742188 296.988281 C 225.742188 292.539062 229.351562 288.929688 233.804688 288.929688 C 238.253906 288.929688 241.863281 292.539062 241.863281 296.988281 C 241.863281 301.441406 238.253906 305.046875 233.804688 305.046875 Z M 233.804688 269.488281 C 218.636719 269.488281 206.300781 281.824219 206.300781 296.988281 C 206.300781 312.15625 218.636719 324.492188 233.804688 324.492188 C 248.96875 324.492188 261.304688 312.15625 261.304688 296.988281 C 261.304688 281.824219 248.96875 269.488281 233.804688 269.488281"/></g><g id="change2_12"><path fill="#783035" d="M 233.804688 326.585938 C 217.484375 326.585938 204.207031 313.308594 204.207031 296.988281 C 204.207031 280.671875 217.484375 267.394531 233.804688 267.394531 C 250.121094 267.394531 263.398438 280.671875 263.398438 296.988281 C 263.398438 313.308594 250.121094 326.585938 233.804688 326.585938 Z M 233.804688 260.6875 C 213.753906 260.6875 197.503906 276.941406 197.503906 296.988281 C 197.503906 317.035156 213.753906 333.289062 233.804688 333.289062 C 253.851562 333.289062 270.105469 317.039062 270.105469 296.988281 C 270.105469 276.941406 253.851562 260.6875 233.804688 260.6875"/></g><g id="change2_13"><path fill="#783035" d="M 233.804688 293.65625 C 235.640625 293.65625 237.132812 295.148438 237.132812 296.988281 C 237.132812 298.828125 235.640625 300.320312 233.804688 300.320312 C 231.964844 300.320312 230.472656 298.828125 230.472656 296.988281 C 230.472656 295.148438 231.964844 293.65625 233.804688 293.65625"/></g><g id="change2_14"><path fill="#783035" d="M 160.945312 279.296875 C 161.046875 279.167969 161 279.195312 161.019531 279.148438 C 161.019531 279.144531 161.015625 279.144531 161.019531 279.144531 C 161.03125 279.105469 161.019531 279.054688 161.015625 279.007812 C 161.011719 278.886719 160.980469 278.761719 160.953125 278.738281 C 160.871094 278.671875 160.96875 278.710938 160.746094 278.554688 L 160.433594 278.421875 C 158.757812 277.730469 157.089844 276.980469 155.421875 276.347656 C 154.585938 276.019531 153.761719 275.695312 152.945312 275.375 C 152.085938 275.003906 151.25 274.921875 150.421875 274.683594 C 148.726562 274.320312 147.011719 274.335938 145.476562 274.785156 C 143.984375 275.214844 142.617188 275.933594 141.519531 276.734375 C 140.464844 277.613281 139.472656 278.390625 138.730469 279.210938 C 137.933594 279.976562 137.320312 280.730469 136.78125 281.3125 C 135.726562 282.503906 135.125 283.1875 135.125 283.1875 C 135.125 283.1875 135.078125 283.261719 135.066406 283.394531 C 135.015625 283.460938 135.269531 283.804688 135.472656 283.675781 C 135.882812 283.453125 136.386719 283.125 137.035156 282.644531 C 138.304688 281.691406 140.15625 280.398438 142.378906 278.820312 C 143.484375 278.070312 144.816406 277.410156 146.300781 277.074219 C 147.066406 276.863281 147.804688 276.9375 148.652344 276.921875 C 149.488281 276.847656 150.210938 277.105469 151.085938 277.246094 C 152.703125 277.578125 154.382812 278.273438 156.148438 278.613281 C 157.027344 278.792969 157.90625 278.972656 158.792969 279.152344 L 160.125 279.421875 L 160.464844 279.492188 C 160.546875 279.515625 160.789062 279.453125 160.855469 279.386719 L 160.945312 279.296875"/></g><g id="change2_15"><path fill="#783035" d="M 149.773438 292.480469 C 150.015625 292.429688 150.296875 292.332031 150.507812 292.3125 L 151.285156 292.246094 C 151.796875 292.214844 152.328125 292.128906 152.828125 292.140625 L 154.375 292.1875 C 154.890625 292.195312 155.410156 292.289062 155.925781 292.339844 C 156.445312 292.382812 156.9375 292.480469 157.453125 292.585938 C 158.476562 292.789062 159.496094 292.960938 160.5 293.242188 C 160.667969 293.257812 160.761719 293.21875 160.847656 293.109375 C 160.902344 292.957031 160.890625 292.804688 160.808594 292.742188 C 160.621094 292.558594 160.433594 292.503906 160.242188 292.378906 C 159.871094 292.144531 159.480469 291.972656 159.082031 291.808594 C 158.28125 291.480469 157.527344 291.101562 156.6875 290.816406 C 155.851562 290.605469 155.015625 290.292969 154.164062 290.222656 C 153.339844 290.085938 152.429688 289.949219 151.574219 290.011719 L 150.285156 290.023438 C 149.8125 290.046875 149.421875 290.140625 148.988281 290.195312 C 148.105469 290.375 147.304688 290.613281 146.46875 290.960938 C 144.890625 291.695312 143.464844 292.6875 142.03125 293.65625 C 141.308594 294.117188 140.628906 294.6875 139.972656 295.226562 C 139.328125 295.757812 138.648438 296.363281 138.042969 296.964844 C 137.765625 297.257812 137.40625 297.589844 137.148438 297.925781 L 136.734375 298.417969 C 136.691406 298.476562 136.6875 298.464844 136.613281 298.578125 C 136.550781 298.683594 136.539062 298.914062 136.5625 298.929688 L 136.585938 299.003906 L 136.589844 299.023438 C 136.65625 299.171875 136.625 299.082031 136.652344 299.125 L 136.730469 299.191406 C 136.839844 299.277344 137.050781 299.324219 137.066406 299.300781 C 138.003906 298.878906 138.585938 298.40625 139.363281 297.964844 C 140.820312 297.050781 142.292969 296.195312 143.773438 295.3125 C 145.265625 294.472656 146.691406 293.4375 148.265625 292.863281 L 148.261719 292.863281 L 149.773438 292.480469"/></g><g id="change2_16"><path fill="#783035" d="M 161.25 305.484375 C 160.585938 305.339844 159.78125 305.164062 158.859375 304.96875 C 157.886719 304.886719 156.816406 304.777344 155.65625 304.871094 C 155.074219 304.871094 154.453125 304.941406 153.832031 305.046875 C 153.207031 305.148438 152.542969 305.203125 151.910156 305.402344 C 150.605469 305.679688 149.25 306.1875 147.925781 306.742188 C 146.519531 307.324219 145.296875 308.121094 144 309.023438 C 142.804688 309.945312 141.59375 311.050781 140.726562 312.402344 L 140.441406 312.910156 L 140.300781 313.164062 C 140.28125 313.15625 140.214844 313.414062 140.253906 313.503906 C 140.277344 313.636719 140.300781 313.613281 140.324219 313.675781 C 140.492188 313.9375 140.910156 313.882812 140.90625 313.839844 L 140.972656 313.808594 L 140.992188 313.800781 C 140.980469 313.8125 141.152344 313.691406 141.085938 313.734375 L 141.105469 313.71875 L 141.210938 313.621094 L 141.632812 313.222656 C 142.175781 312.757812 142.851562 312.308594 143.449219 311.855469 C 144.640625 311.039062 146.082031 310.339844 147.289062 309.679688 C 148.613281 309.082031 149.925781 308.5625 151.175781 308.136719 C 152.453125 307.800781 153.664062 307.484375 154.777344 307.191406 C 155.910156 306.953125 156.984375 306.871094 157.914062 306.726562 C 158.851562 306.566406 159.660156 306.589844 160.339844 306.550781 C 161.691406 306.472656 162.46875 306.546875 162.46875 306.546875 C 162.390625 306.539062 162.960938 306.589844 162.746094 306.054688 C 162.429688 305.804688 161.910156 305.652344 161.25 305.484375"/></g><g id="change2_17"><path fill="#783035" d="M 120.292969 271.769531 C 120.636719 271.535156 120.828125 271.40625 120.828125 271.40625 L 120.84375 271.394531 C 120.941406 271.324219 120.976562 271.191406 120.910156 271.085938 C 120.902344 271.066406 120.878906 271.0625 120.863281 271.050781 C 120.789062 270.976562 120.6875 270.949219 120.59375 271.003906 C 120.59375 271.003906 119.082031 271.898438 116.429688 273.464844 C 115.109375 274.257812 113.507812 275.222656 111.664062 276.324219 C 110.746094 276.882812 109.765625 277.472656 108.734375 278.097656 C 107.746094 278.785156 106.710938 279.511719 105.628906 280.265625 C 103.464844 281.78125 101.117188 283.421875 98.636719 285.15625 C 96.136719 286.871094 93.675781 288.90625 91.066406 290.929688 C 88.488281 292.988281 85.746094 295.023438 83.136719 297.308594 C 80.492188 299.550781 77.804688 301.824219 75.121094 304.101562 C 72.472656 306.417969 69.910156 308.835938 67.34375 311.160156 C 64.777344 313.488281 62.273438 315.800781 59.910156 318.101562 C 55.121094 322.636719 50.789062 327.011719 47.09375 330.777344 C 43.359375 334.507812 40.402344 337.753906 38.277344 339.976562 C 36.183594 342.226562 34.984375 343.511719 34.984375 343.511719 C 34.898438 343.605469 34.894531 343.757812 34.984375 343.859375 C 35.078125 343.957031 35.238281 343.964844 35.339844 343.867188 C 35.339844 343.867188 40.433594 339.027344 48.078125 331.769531 C 49.988281 329.960938 52.050781 327.996094 54.238281 325.917969 C 56.453125 323.867188 58.789062 321.710938 61.199219 319.472656 C 63.582031 317.203125 66.101562 314.925781 68.679688 312.628906 C 71.261719 310.339844 73.835938 307.953125 76.496094 305.671875 C 79.148438 303.378906 81.800781 301.085938 84.410156 298.828125 C 86.984375 296.523438 89.6875 294.472656 92.230469 292.394531 C 94.820312 290.378906 97.195312 288.253906 99.625 286.472656 C 102.035156 284.671875 104.316406 282.964844 106.417969 281.390625 C 107.46875 280.601562 108.476562 279.847656 109.4375 279.125 C 110.429688 278.453125 111.367188 277.816406 112.25 277.21875 C 114.023438 276.027344 115.570312 274.984375 116.839844 274.128906 C 118.484375 273.007812 119.660156 272.203125 120.292969 271.769531"/></g><g id="change2_18"><path fill="#783035" d="M 285.503906 355.53125 C 285.503906 355.53125 284.929688 355.570312 283.855469 355.648438 C 282.78125 355.757812 281.175781 355.730469 279.203125 356.183594 C 278.21875 356.386719 277.097656 356.523438 275.921875 356.839844 C 275.3125 357.011719 274.675781 357.191406 274.015625 357.378906 C 273.40625 357.550781 272.78125 357.726562 272.128906 357.90625 C 270.804688 358.382812 269.398438 358.882812 267.914062 359.414062 C 266.445312 359.988281 264.945312 360.695312 263.355469 361.371094 C 260.234375 362.839844 256.886719 364.527344 253.425781 366.402344 C 251.703125 367.308594 249.890625 368.320312 248.117188 369.339844 C 246.316406 370.355469 244.476562 371.390625 242.609375 372.449219 C 238.878906 374.597656 235.03125 376.886719 231.363281 379.628906 C 229.816406 380.796875 228.308594 382.070312 226.863281 383.433594 C 224.910156 385.277344 223.097656 387.304688 221.617188 389.632812 C 221.085938 390.726562 220.402344 391.683594 220.027344 392.898438 L 219.402344 394.648438 L 219.046875 396.320312 C 218.609375 398.824219 218.769531 401.066406 218.898438 403.402344 C 219.324219 408 220.410156 412.382812 221.671875 416.523438 C 224.234375 424.800781 227.542969 432.140625 230.175781 438.46875 C 231.492188 441.648438 232.722656 444.503906 233.683594 447.128906 C 234.136719 448.292969 234.570312 449.359375 234.984375 450.367188 C 235.507812 451.636719 235.992188 452.796875 236.410156 453.839844 C 237.929688 457.546875 238.800781 459.664062 238.800781 459.664062 C 238.847656 459.789062 238.988281 459.851562 239.121094 459.804688 C 239.144531 459.796875 239.152344 459.773438 239.175781 459.757812 C 239.257812 459.695312 239.308594 459.589844 239.269531 459.484375 C 239.269531 459.484375 238.492188 457.332031 237.132812 453.5625 C 236.464844 451.683594 235.59375 449.382812 234.703125 446.773438 C 233.863281 444.117188 232.734375 441.132812 231.476562 437.945312 C 228.960938 431.554688 225.941406 424.136719 223.484375 415.984375 C 222.273438 411.914062 221.253906 407.628906 220.882812 403.234375 C 220.851562 402.140625 220.753906 401.039062 220.769531 399.941406 L 220.851562 398.296875 L 220.890625 397.472656 L 221.042969 396.753906 L 221.410156 395.082031 L 221.96875 393.617188 C 222.261719 392.628906 222.933594 391.695312 223.402344 390.730469 C 225.726562 387.011719 229.050781 383.910156 232.558594 381.21875 C 236.089844 378.527344 239.863281 376.238281 243.546875 374.074219 C 245.402344 372.996094 247.226562 371.9375 249.011719 370.902344 C 250.792969 369.820312 252.484375 368.820312 254.222656 367.847656 C 257.632812 365.894531 260.890625 364.148438 263.945312 362.621094 C 265.492188 361.90625 266.976562 361.222656 268.386719 360.570312 C 269.824219 359.984375 271.191406 359.425781 272.472656 358.90625 C 273.785156 358.472656 275.015625 358.066406 276.152344 357.695312 C 277.296875 357.332031 278.382812 357.15625 279.34375 356.910156 C 281.269531 356.382812 282.839844 356.339844 283.894531 356.1875 C 284.953125 356.0625 285.519531 355.996094 285.519531 355.996094 L 285.550781 355.992188 C 285.671875 355.976562 285.765625 355.867188 285.753906 355.746094 C 285.742188 355.617188 285.632812 355.523438 285.503906 355.53125"/></g><g id="change2_19"><path fill="#783035" d="M 310.109375 386.714844 C 309.554688 385.496094 308.96875 384.207031 308.363281 382.875 C 307.738281 381.550781 307.089844 380.183594 306.433594 378.789062 C 305.632812 377.476562 304.820312 376.140625 304.007812 374.804688 C 303.148438 373.5 302.40625 372.113281 301.464844 370.894531 C 300.515625 369.679688 299.585938 368.484375 298.683594 367.328125 C 297.820312 366.140625 296.832031 365.121094 295.886719 364.160156 C 294.945312 363.199219 294.09375 362.261719 293.25 361.449219 C 292.382812 360.660156 291.5625 359.964844 290.839844 359.347656 C 290.132812 358.714844 289.433594 358.242188 288.890625 357.824219 C 287.796875 356.992188 287.125 356.617188 287.125 356.617188 L 287.109375 356.605469 C 287.007812 356.546875 286.875 356.570312 286.796875 356.664062 C 286.710938 356.773438 286.722656 356.929688 286.828125 357.015625 C 286.828125 357.015625 287.433594 357.519531 288.386719 358.457031 C 288.867188 358.921875 289.476562 359.441406 290.101562 360.152344 C 290.734375 360.839844 291.449219 361.613281 292.253906 362.429688 C 293.023438 363.277344 293.796875 364.257812 294.644531 365.261719 C 295.496094 366.257812 296.375 367.328125 297.1875 368.507812 C 298.035156 369.664062 298.90625 370.855469 299.796875 372.070312 C 300.703125 373.269531 301.410156 374.632812 302.234375 375.914062 C 303.046875 377.210938 303.855469 378.503906 304.65625 379.777344 C 305.339844 381.121094 306.011719 382.4375 306.664062 383.714844 C 307.335938 384.984375 307.984375 386.210938 308.601562 387.378906 C 309.246094 388.53125 309.609375 389.730469 310.078125 390.78125 C 311.84375 395.027344 313.15625 397.851562 313.15625 397.851562 L 313.164062 397.875 C 313.210938 397.976562 313.328125 398.03125 313.4375 398 C 313.5625 397.96875 313.636719 397.839844 313.601562 397.714844 C 313.601562 397.714844 312.785156 394.730469 311.355469 390.277344 C 310.964844 389.175781 310.675781 387.929688 310.109375 386.714844"/></g><g id="change3_1" clip-path="url(#a)"><path fill="#fffdef" d="M 291.710938 320.789062 C 291.710938 323.179688 289.222656 323.179688 287.734375 323.179688 L 286.1875 323.179688 C 285.203125 323.179688 284.171875 323.160156 283.3125 322.960938 C 281.503906 322.539062 281.234375 321.417969 281.234375 320.789062 L 281.234375 305.78125 C 281.234375 303.496094 284.480469 302.234375 286.722656 302.234375 L 287.230469 302.234375 C 289.742188 302.234375 291.710938 303.792969 291.710938 305.78125 Z M 277.78125 242.210938 C 277.78125 240.371094 279.273438 238.882812 281.109375 238.882812 C 282.949219 238.882812 284.441406 240.371094 284.441406 242.210938 C 284.441406 244.050781 282.949219 245.542969 281.109375 245.542969 C 279.273438 245.542969 277.78125 244.050781 277.78125 242.210938 Z M 279.140625 251.953125 L 255.777344 251.953125 L 255.511719 251.773438 C 250.496094 248.359375 242.660156 244.285156 233.792969 244.285156 C 225.054688 244.285156 217.300781 248.261719 212.277344 251.652344 L 212.277344 251.957031 L 184.875 251.957031 L 184.875 249.859375 L 211.1875 249.859375 C 218.648438 244.84375 226.457031 242.191406 233.792969 242.191406 C 241.144531 242.191406 248.964844 244.84375 256.425781 249.859375 L 279.140625 249.859375 Z M 159.828125 239.078125 C 154.234375 239.078125 148.285156 237.589844 148.285156 234.828125 C 148.285156 232.070312 154.234375 230.582031 159.828125 230.582031 C 165.425781 230.582031 171.371094 232.070312 171.371094 234.828125 C 171.371094 237.589844 165.425781 239.078125 159.828125 239.078125 Z M 168.117188 251.953125 L 151.359375 251.953125 C 150.203125 251.953125 149.261719 251.015625 149.261719 249.859375 C 149.261719 248.703125 150.199219 247.765625 151.359375 247.765625 L 168.117188 247.765625 C 169.273438 247.765625 170.210938 248.703125 170.210938 249.859375 C 170.210938 251.015625 169.273438 251.953125 168.117188 251.953125 Z M 367.230469 196.328125 C 362.226562 188.679688 357.5625 180.824219 353.007812 172.90625 C 346.945312 162.367188 341.074219 151.714844 334.890625 141.253906 C 322.308594 130.785156 303.699219 119.644531 281.640625 111.730469 C 283.859375 125.316406 288.003906 146.324219 293.71875 156.503906 C 296.222656 160.960938 298.125 164.929688 299.59375 168.359375 L 299.375 161.414062 C 302.808594 153.148438 312.222656 148.691406 321.035156 149.664062 C 323.253906 149.910156 325.445312 150.507812 327.460938 151.457031 C 330.449219 152.851562 333.113281 155.042969 335.132812 158.078125 C 348.621094 177.796875 323.511719 196.554688 304.664062 197.308594 C 298.984375 208.695312 292.910156 219.613281 282.972656 227.289062 C 281.539062 228.394531 280.042969 229.421875 278.558594 230.464844 C 278.925781 231.015625 279.140625 231.679688 279.140625 232.394531 L 279.140625 233.8125 C 279.140625 235.734375 277.582031 237.292969 275.660156 237.292969 L 255.390625 237.292969 C 253.507812 237.292969 251.988281 235.800781 251.921875 233.9375 C 250.863281 233.46875 249.929688 232.628906 249.175781 231.175781 C 247.234375 227.449219 244.261719 219.863281 239.367188 219.1875 C 234.675781 218.546875 230.175781 218 225.488281 218.347656 C 218.144531 218.933594 215.519531 220.105469 211.847656 227.425781 C 210.375 230.335938 209.09375 232.691406 207.480469 234.292969 C 206.644531 235.121094 203.800781 236.148438 202.59375 236.160156 C 201.382812 236.175781 200.683594 236.183594 200.683594 236.183594 C 191.796875 236.019531 184.945312 235.664062 181.183594 235.429688 C 181.148438 234.875 181.117188 234.335938 181.09375 233.808594 C 179.441406 232.828125 177.8125 231.8125 176.230469 230.730469 C 155.777344 216.398438 146.667969 193.15625 153.363281 170.046875 C 156.179688 160.316406 158.839844 143.175781 157.734375 132.417969 C 156.394531 119.335938 157.316406 108.347656 159.671875 99.179688 C 159.671875 99.179688 159.671875 99.179688 159.667969 99.179688 C 152.898438 112.550781 147 139.183594 140.898438 150.914062 C 140.894531 150.921875 140.890625 150.929688 140.890625 150.933594 C 132.585938 165.863281 117.652344 173.328125 101.890625 179.136719 C 91.929688 183.285156 62.050781 184.945312 56.242188 194.074219 C 49.601562 203.203125 62.882812 218.976562 67.859375 226.445312 C 74.1875 235.183594 83.261719 243.152344 93.546875 250.320312 C 106.207031 240.882812 125.453125 235.496094 143.171875 233.371094 C 142.277344 233.996094 141.730469 234.640625 141.730469 235.273438 C 141.730469 236.320312 141.769531 246.414062 141.8125 259.355469 C 149.632812 258.191406 159.570312 261.859375 165.589844 265.558594 C 172.691406 270.066406 172.941406 276.269531 164.25 278.660156 C 163.214844 278.949219 162.128906 279.027344 161.019531 279.011719 C 161.019531 279.058594 161.03125 279.105469 161.019531 279.144531 C 161.019531 279.148438 161.019531 279.148438 161.019531 279.148438 C 167.066406 280.785156 169.015625 289.636719 162.175781 292.8125 C 162.175781 292.8125 163.671875 292.996094 164.773438 293.867188 C 168.898438 297.421875 168.429688 303.34375 164.449219 305.84375 C 168.742188 306.738281 170.199219 314.476562 165.804688 316.503906 L 162.105469 319.402344 C 156.035156 322.855469 149.773438 328.1875 143.382812 331.21875 C 143.386719 331.238281 143.394531 331.261719 143.402344 331.28125 C 143.628906 331.890625 143.894531 332.457031 144.199219 332.976562 C 146.234375 336.464844 150.0625 337.992188 157.335938 339.359375 C 165.96875 340.433594 177.953125 339.425781 184.074219 332.019531 C 184.074219 332.019531 184.652344 332.03125 185.652344 332.054688 C 184.472656 329.113281 183.355469 325.921875 182.496094 322.78125 C 182.511719 324.570312 182.519531 326.277344 182.519531 327.878906 L 181.472656 327.878906 C 181.472656 324.898438 181.445312 321.550781 181.398438 317.976562 C 180.84375 314.820312 180.714844 311.957031 181.273438 309.804688 C 180.789062 283.210938 179.582031 249.652344 179.566406 249.230469 L 180.613281 249.191406 C 180.628906 249.601562 181.765625 281.265625 182.277344 307.464844 C 185.675781 301.484375 189.308594 303.304688 192.296875 306.828125 C 191.550781 303.664062 191.113281 300.382812 191.113281 296.992188 C 191.113281 273.414062 210.226562 254.300781 233.804688 254.300781 C 257.382812 254.300781 276.496094 273.414062 276.496094 296.992188 C 276.496094 304.1875 274.699219 310.957031 271.554688 316.90625 C 272.367188 317.199219 273.09375 317.726562 273.699219 318.539062 C 276.308594 322.046875 275.464844 327.71875 273.070312 333.519531 C 273.71875 333.472656 274.355469 333.433594 275.011719 333.386719 C 289.296875 332.25 297.96875 333.390625 296.4375 315.164062 C 295.519531 302.351562 294.640625 259.652344 294.476562 245.722656 C 294.738281 245.746094 295.007812 245.773438 295.261719 245.789062 C 322.972656 247.449219 337.757812 252.515625 356.402344 272.714844 C 359.296875 271.558594 362.179688 270.382812 365.027344 269.152344 C 375.46875 264.652344 396.101562 257.445312 401.753906 247.191406 C 409.503906 233.128906 374.308594 207.148438 367.230469 196.328125"/></g><g id="change3_2"><path fill="#fffdef" d="M 167.117188 157.40625 C 167.121094 153.085938 168.347656 149.0625 170.433594 145.617188 C 169.851562 145.667969 169.28125 145.757812 168.722656 145.777344 C 167.800781 146.003906 166.90625 146.183594 166.09375 146.398438 C 165.316406 146.695312 164.578125 146.941406 163.914062 147.164062 C 163.253906 147.402344 162.714844 147.714844 162.25 147.921875 C 161.316406 148.351562 160.777344 148.574219 160.777344 148.574219 C 160.777344 148.574219 160.441406 152.910156 167.117188 157.40625"/></g><g id="change3_3"><path fill="#fffdef" d="M 235.097656 161.875 C 235.097656 159.96875 235.382812 158.136719 235.890625 156.394531 C 234.996094 156.835938 234.144531 157.308594 233.371094 157.824219 C 232.445312 158.425781 231.640625 159.082031 230.90625 159.707031 C 229.449219 160.960938 228.394531 162.222656 227.769531 163.140625 C 227.105469 164.054688 226.777344 164.648438 226.777344 164.648438 C 226.777344 164.648438 226.773438 164.648438 226.773438 164.648438 C 227.621094 165.117188 231.070312 166.902344 236.113281 168.070312 C 235.464844 166.121094 235.097656 164.042969 235.097656 161.875"/></g><g id="change3_4"><path fill="#fffdef" d="M 159.828125 231.628906 C 153.644531 231.628906 149.335938 233.316406 149.335938 234.832031 C 149.335938 236.34375 153.644531 238.03125 159.828125 238.03125 C 166.015625 238.03125 170.324219 236.34375 170.324219 234.832031 C 170.324219 233.316406 166.015625 231.628906 159.828125 231.628906"/></g><g id="change3_5"><path fill="#fffdef" d="M 287.230469 304.328125 L 286.722656 304.328125 C 284.972656 304.328125 283.328125 305.328125 283.328125 305.78125 L 283.328125 320.789062 C 283.523438 320.964844 284.496094 321.082031 286.191406 321.082031 L 287.738281 321.082031 C 288.230469 321.082031 289.394531 321.082031 289.617188 320.890625 L 289.613281 305.78125 C 289.613281 304.980469 288.546875 304.328125 287.230469 304.328125"/></g><g id="change4_1"><path fill="#d88780" d="M 319.929688 167.257812 C 319.929688 167.257812 319.839844 167.476562 319.679688 167.859375 C 319.503906 168.234375 319.347656 168.824219 318.972656 169.4375 C 318.636719 170.070312 318.234375 170.804688 317.691406 171.519531 C 317.207031 172.285156 316.53125 172.964844 315.898438 173.695312 C 315.191406 174.34375 314.511719 175.039062 313.757812 175.550781 C 313.382812 175.8125 313.066406 176.105469 312.683594 176.3125 C 312.3125 176.53125 311.960938 176.738281 311.636719 176.929688 C 310.972656 177.339844 310.46875 177.484375 310.09375 177.679688 C 309.722656 177.84375 309.511719 177.9375 309.511719 177.9375 C 309.460938 177.960938 309.40625 177.960938 309.351562 177.972656 C 309.3125 178.660156 309.289062 179.316406 309.277344 179.921875 C 309.257812 181.191406 309.25 182.261719 309.300781 183.003906 C 309.347656 183.75 309.351562 184.183594 309.351562 184.183594 C 309.359375 184.3125 309.257812 184.425781 309.128906 184.429688 C 309.027344 184.433594 308.9375 184.367188 308.898438 184.28125 C 308.898438 184.28125 308.25 182.628906 307.882812 180.003906 C 307.695312 178.691406 307.597656 177.148438 307.636719 175.488281 C 307.65625 173.832031 307.882812 172.066406 308.207031 170.3125 C 308.433594 169.449219 308.609375 168.574219 308.90625 167.738281 C 309.160156 166.894531 309.507812 166.089844 309.875 165.324219 C 310.199219 164.546875 310.6875 163.859375 311.085938 163.191406 C 311.578125 162.574219 311.96875 161.949219 312.5 161.492188 C 312.984375 161.003906 313.4375 160.578125 313.941406 160.277344 C 314.417969 159.964844 314.8125 159.664062 315.164062 159.542969 C 315.859375 159.238281 316.269531 159.085938 316.269531 159.085938 C 316.402344 159.035156 316.546875 159.101562 316.597656 159.230469 C 316.636719 159.335938 316.601562 159.453125 316.519531 159.519531 C 316.519531 159.519531 316.183594 159.796875 315.570312 160.246094 C 315.234375 160.449219 314.960938 160.789062 314.621094 161.132812 C 314.269531 161.453125 313.949219 161.925781 313.574219 162.410156 C 313.175781 162.863281 312.910156 163.5 312.527344 164.070312 C 312.234375 164.714844 311.882812 165.359375 311.617188 166.085938 C 311.324219 166.800781 311.085938 167.558594 310.859375 168.339844 C 310.597656 169.109375 310.453125 169.933594 310.257812 170.742188 C 309.921875 172.375 309.683594 174.03125 309.53125 175.601562 C 309.527344 175.640625 309.523438 175.675781 309.523438 175.710938 C 309.886719 175.582031 310.394531 175.441406 310.855469 175.183594 C 311.140625 175.046875 311.449219 174.894531 311.777344 174.734375 C 312.109375 174.597656 312.433594 174.339844 312.785156 174.136719 C 313.511719 173.730469 314.171875 173.144531 314.875 172.605469 C 315.5 171.984375 316.1875 171.40625 316.6875 170.738281 C 317.246094 170.113281 317.671875 169.460938 318.035156 168.898438 C 318.4375 168.351562 318.617188 167.820312 318.816406 167.480469 C 318.996094 167.132812 319.097656 166.929688 319.097656 166.929688 L 319.121094 166.882812 C 319.234375 166.664062 319.503906 166.578125 319.722656 166.6875 C 319.925781 166.796875 320.015625 167.046875 319.929688 167.257812 Z M 260.324219 163.621094 C 260.234375 163.65625 260.140625 163.621094 260.078125 163.558594 C 259.007812 164.425781 252.414062 169.464844 243.402344 169.078125 C 240.730469 168.964844 238.28125 168.574219 236.113281 168.074219 C 231.070312 166.90625 227.621094 165.117188 226.773438 164.652344 C 226.707031 164.769531 226.558594 164.8125 226.4375 164.746094 C 226.328125 164.6875 226.28125 164.554688 226.324219 164.441406 L 226.335938 164.410156 C 226.335938 164.410156 226.566406 163.800781 227.121094 162.757812 C 227.691406 161.699219 228.636719 160.292969 230.039062 158.800781 C 231.453125 157.320312 233.367188 155.863281 235.613281 154.621094 C 237.863281 153.390625 240.507812 152.480469 243.269531 152.128906 C 243.574219 152.078125 244.011719 152.039062 244.324219 152.03125 C 244.660156 152.019531 244.972656 151.988281 245.324219 151.992188 C 246.050781 152.011719 246.78125 152.03125 247.460938 152.140625 C 248.835938 152.34375 250.167969 152.71875 251.371094 153.257812 C 253.8125 154.296875 255.703125 155.933594 257.066406 157.472656 C 257.734375 158.257812 258.3125 159.003906 258.75 159.714844 C 259.171875 160.433594 259.519531 161.0625 259.761719 161.605469 C 260.035156 162.128906 260.175781 162.574219 260.289062 162.867188 C 260.402344 163.164062 260.460938 163.320312 260.460938 163.320312 C 260.503906 163.441406 260.445312 163.574219 260.324219 163.621094 Z M 206.320312 204.578125 C 197.5 204.578125 188.726562 201.648438 181.640625 194.03125 L 183.171875 192.605469 C 196.328125 206.738281 215.824219 203.644531 229.679688 196.035156 L 230.6875 197.871094 C 223.515625 201.808594 214.894531 204.578125 206.320312 204.578125 Z M 170.949219 159.597656 C 169.457031 158.875 168.203125 158.140625 167.117188 157.40625 C 160.441406 152.910156 160.777344 148.570312 160.777344 148.570312 C 160.777344 148.570312 161.222656 148.191406 162.03125 147.570312 C 162.449219 147.277344 162.910156 146.863281 163.519531 146.488281 C 164.140625 146.125 164.851562 145.707031 165.652344 145.28125 C 166.472656 144.921875 167.394531 144.585938 168.378906 144.253906 C 169.40625 144.101562 170.480469 143.699219 171.648438 143.769531 C 172.808594 143.683594 174.007812 143.832031 175.21875 144.074219 C 176.390625 144.425781 177.597656 144.800781 178.664062 145.441406 C 179.230469 145.714844 179.738281 146.066406 180.21875 146.453125 C 180.703125 146.832031 181.222656 147.171875 181.628906 147.617188 C 182.058594 148.042969 182.5 148.449219 182.882812 148.894531 C 183.238281 149.359375 183.59375 149.816406 183.941406 150.269531 C 184.585938 151.199219 185.15625 152.136719 185.59375 153.070312 C 186.042969 153.996094 186.433594 154.882812 186.683594 155.738281 C 186.996094 156.570312 187.1875 157.367188 187.320312 158.074219 C 187.480469 158.777344 187.601562 159.386719 187.652344 159.902344 C 187.777344 160.921875 187.820312 161.5 187.820312 161.5 C 187.820312 161.5 187.59375 160.953125 187.253906 160 C 187.164062 159.738281 187.054688 159.441406 186.929688 159.128906 C 187.191406 159.980469 187.46875 160.78125 187.8125 161.496094 C 187.8125 161.496094 177.402344 162.722656 170.949219 159.597656 Z M 165.355469 127.777344 C 166.671875 126.714844 168.890625 126.03125 170.257812 126.019531 C 173.816406 125.984375 177.855469 126.808594 181.179688 128.066406 C 185.605469 129.742188 193.316406 133.621094 194.257812 138.882812 C 195.398438 145.796875 188.925781 142.621094 185.917969 140.082031 C 181.910156 136.695312 178.011719 135.347656 173.023438 134.339844 C 170.664062 133.863281 167.453125 133.058594 165.535156 131.566406 C 163.679688 130.125 164.113281 128.78125 165.355469 127.777344 Z M 196.152344 174.046875 C 196.296875 173.164062 196.5 172.257812 196.9375 171.472656 C 197.28125 170.640625 197.914062 169.980469 198.492188 169.382812 C 198.816406 169.113281 199.132812 168.84375 199.457031 168.605469 C 199.796875 168.394531 200.160156 168.238281 200.496094 168.066406 C 201.148438 167.671875 201.882812 167.625 202.488281 167.445312 C 203.117188 167.316406 203.722656 167.355469 204.226562 167.328125 C 204.742188 167.273438 205.144531 167.425781 205.5 167.460938 C 206.195312 167.59375 206.59375 167.667969 206.59375 167.667969 C 206.59375 167.667969 206.195312 167.742188 205.5 167.875 C 205.160156 167.953125 204.707031 167.953125 204.269531 168.125 C 203.824219 168.285156 203.320312 168.386719 202.808594 168.601562 C 202.320312 168.882812 201.722656 169.03125 201.242188 169.4375 C 200.996094 169.621094 200.722656 169.78125 200.484375 169.988281 C 200.269531 170.226562 200.039062 170.445312 199.808594 170.671875 C 199.40625 171.175781 199.003906 171.714844 198.765625 172.34375 C 198.449219 172.9375 198.324219 173.632812 198.230469 174.304688 C 198.214844 174.648438 198.152344 174.992188 198.15625 175.339844 L 198.242188 176.378906 C 198.410156 177.046875 198.464844 177.753906 198.761719 178.367188 C 198.980469 179.011719 199.296875 179.597656 199.605469 180.15625 C 199.902344 180.722656 200.324219 181.171875 200.632812 181.65625 C 200.988281 182.097656 201.371094 182.464844 201.679688 182.828125 C 201.984375 183.203125 202.332031 183.4375 202.582031 183.679688 C 203.105469 184.15625 203.402344 184.429688 203.402344 184.429688 C 203.402344 184.429688 203.023438 184.300781 202.359375 184.03125 C 202.039062 183.878906 201.59375 183.761719 201.191406 183.464844 C 200.773438 183.1875 200.261719 182.910156 199.777344 182.507812 C 199.332031 182.070312 198.757812 181.65625 198.328125 181.058594 C 197.871094 180.480469 197.386719 179.859375 197.070312 179.101562 C 196.667969 178.390625 196.441406 177.550781 196.242188 176.710938 L 196.09375 175.394531 C 196.078125 174.945312 196.128906 174.496094 196.152344 174.046875 Z M 228.417969 139.429688 C 230.566406 134.539062 238.976562 132.582031 243.671875 131.996094 C 247.191406 131.605469 257.164062 131.996094 259.511719 135.125 C 262.445312 140.015625 252.472656 140.015625 250.125 140.015625 C 245.039062 139.820312 240.933594 140.210938 236.238281 142.558594 C 232.71875 144.316406 225.679688 145.882812 228.417969 139.429688 Z M 335.132812 158.078125 C 333.113281 155.042969 330.449219 152.851562 327.460938 151.453125 C 325.445312 150.507812 323.253906 149.910156 321.035156 149.660156 C 312.222656 148.691406 302.808594 153.148438 299.375 161.414062 L 299.59375 168.359375 C 298.125 164.925781 296.222656 160.957031 293.71875 156.503906 C 288.003906 146.320312 283.859375 125.3125 281.640625 111.730469 C 267.707031 106.734375 252.40625 103.019531 236.355469 101.605469 C 205.855469 98.921875 180.410156 98.675781 159.671875 99.179688 C 157.3125 108.34375 156.390625 119.335938 157.734375 132.417969 C 158.839844 143.175781 156.179688 160.316406 153.359375 170.042969 C 146.667969 193.15625 155.777344 216.398438 176.230469 230.730469 C 177.8125 231.808594 179.4375 232.828125 181.09375 233.804688 C 181.117188 234.332031 181.148438 234.871094 181.179688 235.429688 C 184.945312 235.660156 191.796875 236.019531 200.679688 236.179688 C 200.679688 236.179688 201.378906 236.171875 202.589844 236.160156 C 203.800781 236.144531 206.640625 235.117188 207.476562 234.289062 C 209.09375 232.691406 210.371094 230.335938 211.847656 227.421875 C 215.519531 220.101562 218.140625 218.933594 225.484375 218.34375 C 230.171875 217.996094 234.671875 218.542969 239.363281 219.1875 C 244.261719 219.859375 247.234375 227.445312 249.171875 231.175781 C 249.925781 232.628906 250.863281 233.46875 251.917969 233.933594 C 251.914062 233.890625 251.90625 233.851562 251.90625 233.808594 L 251.90625 232.390625 C 251.90625 230.46875 253.464844 228.910156 255.386719 228.910156 L 275.65625 228.910156 C 276.867188 228.910156 277.929688 229.527344 278.554688 230.460938 C 280.039062 229.421875 281.539062 228.390625 282.96875 227.285156 C 292.910156 219.613281 298.984375 208.691406 304.664062 197.304688 C 323.511719 196.554688 348.621094 177.796875 335.132812 158.078125"/></g><g id="change4_2"><path fill="#d88780" d="M 273.695312 318.539062 C 273.089844 317.726562 272.367188 317.199219 271.550781 316.90625 C 264.394531 330.445312 250.183594 339.683594 233.800781 339.683594 C 216.027344 339.683594 200.800781 328.816406 194.378906 313.367188 C 193.199219 313.722656 192.25 314.757812 191.839844 316.839844 C 191.394531 319.085938 191.804688 321.382812 192.546875 323.523438 C 194.144531 328.15625 196.632812 333.152344 200.132812 336.671875 C 204.058594 340.617188 209.777344 341.945312 214.8125 343.925781 C 216.054688 344.414062 215.515625 346.441406 214.253906 345.945312 C 207.613281 343.332031 200.800781 341.558594 196.464844 335.488281 C 192.855469 330.4375 189.125 323.871094 189.609375 317.429688 C 189.820312 314.648438 191.445312 312.355469 193.664062 311.417969 C 193.125 309.921875 192.664062 308.394531 192.292969 306.828125 C 189.304688 303.300781 185.675781 301.480469 182.273438 307.460938 C 182.105469 307.757812 181.9375 308.066406 181.769531 308.402344 C 181.558594 308.824219 181.398438 309.300781 181.269531 309.804688 C 180.710938 311.953125 180.839844 314.820312 181.394531 317.976562 C 181.667969 319.523438 182.042969 321.140625 182.492188 322.777344 C 183.351562 325.917969 184.46875 329.113281 185.648438 332.050781 C 187.40625 336.433594 189.285156 340.222656 190.570312 342.222656 L 192.257812 344.453125 C 199.738281 352.308594 225.589844 363.394531 225.589844 363.394531 C 225.589844 363.394531 225.914062 371.3125 226.859375 383.433594 C 228.304688 382.074219 229.8125 380.800781 231.359375 379.628906 C 235.027344 376.886719 238.875 374.597656 242.605469 372.449219 C 244.472656 371.394531 246.3125 370.355469 248.113281 369.339844 C 249.886719 368.320312 251.699219 367.308594 253.421875 366.402344 C 256.886719 364.53125 260.230469 362.839844 263.351562 361.371094 C 264.941406 360.695312 266.441406 359.988281 267.910156 359.417969 C 269.394531 358.886719 270.800781 358.382812 272.125 357.910156 C 272.777344 357.726562 273.402344 357.550781 274.011719 357.378906 C 270.785156 349.976562 268.492188 344.808594 267.769531 343.191406 C 269.824219 340.171875 271.695312 336.832031 273.0625 333.519531 C 275.464844 327.71875 276.304688 322.046875 273.695312 318.539062"/></g><g id="change4_3"><path fill="#d88780" d="M 230.472656 296.988281 C 230.472656 295.148438 231.964844 293.65625 233.804688 293.65625 C 235.644531 293.65625 237.132812 295.148438 237.132812 296.988281 C 237.132812 298.828125 235.644531 300.320312 233.804688 300.320312 C 231.964844 300.320312 230.472656 298.828125 230.472656 296.988281 Z M 241.859375 296.988281 C 241.859375 292.539062 238.253906 288.929688 233.800781 288.929688 C 229.351562 288.929688 225.742188 292.539062 225.742188 296.988281 C 225.742188 301.441406 229.351562 305.046875 233.800781 305.046875 C 238.253906 305.046875 241.859375 301.441406 241.859375 296.988281"/></g><g id="change4_4"><path fill="#d88780" d="M 136.613281 298.578125 C 136.683594 298.464844 136.691406 298.476562 136.734375 298.417969 L 137.144531 297.925781 C 137.40625 297.589844 137.765625 297.257812 138.042969 296.964844 C 138.648438 296.363281 139.328125 295.757812 139.972656 295.222656 C 140.628906 294.6875 141.308594 294.117188 142.03125 293.65625 C 143.464844 292.683594 144.890625 291.695312 146.464844 290.960938 C 147.304688 290.609375 148.105469 290.375 148.984375 290.195312 C 149.421875 290.140625 149.8125 290.046875 150.285156 290.023438 L 151.574219 290.011719 C 152.429688 289.949219 153.339844 290.085938 154.160156 290.21875 C 155.015625 290.292969 155.851562 290.601562 156.6875 290.816406 C 157.527344 291.101562 158.28125 291.480469 159.078125 291.808594 C 159.476562 291.96875 159.871094 292.144531 160.242188 292.378906 C 160.429688 292.503906 160.621094 292.554688 160.808594 292.738281 C 160.886719 292.804688 160.902344 292.957031 160.847656 293.105469 C 160.761719 293.21875 160.667969 293.257812 160.496094 293.242188 C 159.496094 292.960938 158.476562 292.789062 157.453125 292.585938 C 156.9375 292.476562 156.445312 292.382812 155.921875 292.339844 C 155.40625 292.289062 154.890625 292.195312 154.375 292.183594 L 152.828125 292.140625 C 152.328125 292.128906 151.796875 292.214844 151.28125 292.246094 L 150.507812 292.3125 C 150.296875 292.332031 150.015625 292.429688 149.769531 292.480469 L 148.257812 292.859375 L 148.261719 292.859375 C 146.691406 293.433594 145.261719 294.46875 143.773438 295.308594 C 142.292969 296.195312 140.820312 297.046875 139.363281 297.960938 C 138.585938 298.402344 138.003906 298.878906 137.0625 299.296875 C 137.046875 299.320312 136.839844 299.273438 136.730469 299.1875 L 136.648438 299.121094 C 136.625 299.078125 136.65625 299.167969 136.589844 299.019531 L 136.582031 299.003906 L 136.5625 298.925781 C 136.539062 298.914062 136.550781 298.683594 136.613281 298.578125 Z M 161.25 305.484375 C 161.910156 305.652344 162.429688 305.808594 162.746094 306.050781 C 162.960938 306.589844 162.390625 306.535156 162.464844 306.546875 C 162.464844 306.546875 161.6875 306.472656 160.339844 306.550781 C 159.660156 306.589844 158.851562 306.5625 157.914062 306.726562 C 156.980469 306.871094 155.910156 306.953125 154.777344 307.191406 C 153.660156 307.480469 152.453125 307.800781 151.171875 308.132812 C 149.925781 308.558594 148.609375 309.082031 147.289062 309.679688 C 146.078125 310.339844 144.640625 311.039062 143.449219 311.851562 C 142.851562 312.308594 142.175781 312.757812 141.632812 313.222656 L 141.210938 313.617188 L 141.101562 313.714844 L 141.085938 313.734375 C 141.152344 313.6875 140.980469 313.808594 140.988281 313.800781 L 140.972656 313.808594 L 140.90625 313.835938 C 140.910156 313.882812 140.492188 313.933594 140.324219 313.675781 C 140.300781 313.609375 140.277344 313.636719 140.253906 313.5 C 140.214844 313.410156 140.28125 313.152344 140.300781 313.160156 L 140.722656 312.398438 C 141.589844 311.046875 142.804688 309.941406 143.996094 309.019531 C 145.296875 308.117188 146.519531 307.320312 147.925781 306.738281 C 149.246094 306.183594 150.605469 305.675781 151.90625 305.398438 C 152.542969 305.203125 153.207031 305.144531 153.832031 305.046875 C 154.453125 304.9375 155.074219 304.867188 155.65625 304.867188 C 156.816406 304.773438 157.882812 304.886719 158.859375 304.964844 C 159.78125 305.164062 160.585938 305.339844 161.25 305.484375 Z M 165.589844 265.558594 C 159.570312 261.859375 149.628906 258.191406 141.8125 259.351562 C 141 259.472656 140.203125 259.628906 139.445312 259.859375 C 135.363281 260.953125 129.0625 264.460938 124.519531 267.886719 C 123.078125 268.976562 121.820312 270.054688 120.863281 271.050781 C 120.878906 271.0625 120.902344 271.066406 120.910156 271.085938 C 120.976562 271.191406 120.941406 271.324219 120.84375 271.394531 L 120.828125 271.40625 C 120.828125 271.40625 120.640625 271.535156 120.292969 271.769531 C 110.164062 284.640625 109.953125 300.71875 114.097656 313.171875 C 114.101562 313.171875 114.101562 313.171875 114.105469 313.171875 C 114.25 313.132812 114.398438 313.210938 114.457031 313.347656 C 114.457031 313.347656 114.960938 314.570312 115.84375 316.714844 C 116.722656 318.859375 118.089844 321.878906 119.765625 325.46875 C 121.449219 329.054688 123.585938 333.15625 126.164062 337.332031 C 126.199219 337.386719 126.242188 337.445312 126.277344 337.503906 L 131.441406 333.214844 C 135.011719 333.980469 138.550781 333.28125 142.050781 331.808594 C 142.492188 331.625 142.933594 331.429688 143.371094 331.21875 C 143.375 331.21875 143.378906 331.21875 143.382812 331.214844 C 149.773438 328.183594 156.035156 322.851562 162.105469 319.398438 L 165.804688 316.5 C 170.199219 314.472656 168.742188 306.734375 164.449219 305.839844 C 168.429688 303.339844 168.898438 297.417969 164.773438 293.867188 C 163.671875 292.996094 162.175781 292.808594 162.175781 292.808594 C 169.015625 289.636719 167.066406 280.785156 161.019531 279.148438 C 161.003906 279.195312 161.050781 279.167969 160.945312 279.296875 L 160.917969 279.328125 L 160.859375 279.386719 C 160.792969 279.453125 160.550781 279.515625 160.464844 279.492188 L 160.125 279.421875 L 158.796875 279.152344 C 157.910156 278.972656 157.027344 278.792969 156.152344 278.613281 C 154.386719 278.273438 152.707031 277.578125 151.085938 277.246094 C 150.214844 277.105469 149.488281 276.847656 148.652344 276.921875 C 147.804688 276.9375 147.070312 276.863281 146.304688 277.074219 C 144.816406 277.410156 143.488281 278.070312 142.382812 278.820312 C 140.15625 280.398438 138.308594 281.691406 137.035156 282.644531 C 136.390625 283.125 135.882812 283.453125 135.472656 283.675781 C 135.273438 283.804688 135.015625 283.460938 135.066406 283.394531 C 135.078125 283.261719 135.128906 283.1875 135.128906 283.1875 C 135.128906 283.1875 135.730469 282.503906 136.78125 281.3125 C 137.320312 280.730469 137.9375 279.976562 138.734375 279.210938 C 139.476562 278.390625 140.46875 277.613281 141.523438 276.734375 C 142.617188 275.933594 143.984375 275.214844 145.480469 274.785156 C 147.011719 274.335938 148.726562 274.320312 150.425781 274.683594 C 151.253906 274.921875 152.085938 275.003906 152.945312 275.375 C 153.761719 275.695312 154.589844 276.019531 155.421875 276.347656 C 157.09375 276.980469 158.761719 277.730469 160.433594 278.421875 L 160.746094 278.554688 C 160.972656 278.710938 160.875 278.671875 160.953125 278.738281 C 160.984375 278.761719 161.011719 278.886719 161.019531 279.007812 C 162.128906 279.027344 163.214844 278.949219 164.25 278.65625 C 172.9375 276.269531 172.6875 270.066406 165.589844 265.558594"/></g></g></svg>