<?xml version="1.0" encoding="UTF-8" standalone="no"?><svg xmlns="http://www.w3.org/2000/svg" xmlns:xlink="http://www.w3.org/1999/xlink" contentScriptType="text/ecmascript" fill="#000000" width="1129.8" zoomAndPan="magnify" contentStyleType="text/css" viewBox="938.2 295.0 1129.8 2407.2" height="2407.2" preserveAspectRatio="xMidYMid meet" version="1"><g><g><path fill="#4c4348" d="M 1361.390625 1323.21875 L 1403.433594 2676.417969 L 1413.9375 2676.417969 L 1387.675781 1328.578125 L 1361.390625 1323.21875"/></g><g><path fill="#322d31" d="M 1381.007812 1323.21875 L 1361.386719 1323.21875 L 1361.386719 649.003906 L 1381.007812 649.003906 L 1381.007812 1323.21875"/></g><g><path fill="#685e67" d="M 1403.433594 1338.933594 L 1343.179688 1338.933594 L 1343.179688 1318.214844 L 1403.433594 1318.214844 L 1403.433594 1338.933594"/></g><g><path fill="#685e67" d="M 1461.585938 504.566406 C 1461.585938 504.566406 1243.316406 506.34375 1229.648438 515.277344 C 1215.988281 524.207031 1215.988281 641.179688 1225.097656 653.804688 C 1234.207031 666.441406 1448.628906 673.933594 1464.21875 660.359375 C 1479.808594 646.785156 1490.316406 502.773438 1461.585938 504.566406"/></g><g><path fill="#322d31" d="M 1291.671875 523.847656 C 1291.671875 523.847656 1415.34375 520.640625 1417.183594 523.847656 C 1419.023438 527.074219 1421.652344 646.328125 1420.34375 647.132812 C 1419.023438 647.9375 1223.261719 650.890625 1220.890625 647.132812 C 1218.53125 643.375 1225.101562 529.371094 1226.941406 526.269531 C 1228.773438 523.164062 1291.671875 523.847656 1291.671875 523.847656"/></g><g><path fill="#282826" d="M 1485.074219 557.976562 C 1485.074219 577.214844 1471.894531 592.820312 1455.644531 592.820312 C 1439.382812 592.820312 1426.214844 577.214844 1426.214844 557.976562 C 1426.214844 538.738281 1439.382812 523.132812 1455.644531 523.132812 C 1471.894531 523.132812 1485.074219 538.738281 1485.074219 557.976562"/></g><g><path fill="#040606" d="M 1481.925781 556.714844 C 1481.925781 570.339844 1473.996094 581.378906 1464.226562 581.378906 C 1454.453125 581.378906 1446.535156 570.339844 1446.535156 556.714844 C 1446.535156 543.101562 1454.453125 532.066406 1464.226562 532.066406 C 1473.996094 532.066406 1481.925781 543.101562 1481.925781 556.714844"/></g><g><path fill="#4a434a" d="M 1291.667969 523.867188 C 1291.667969 523.867188 1127.339844 520.65625 1122.4375 527.804688 C 1117.527344 534.953125 1114.027344 637.871094 1122.4375 647.148438 C 1130.847656 656.441406 1290.257812 651.4375 1295.167969 643.9375 C 1300.066406 636.441406 1294.808594 523.925781 1291.667969 523.867188"/></g><g><path fill="#faba41" d="M 1132.601562 536.007812 C 1132.601562 536.007812 1128.398438 636.40625 1132.601562 638.554688 C 1136.800781 640.703125 1283.960938 641.066406 1286.410156 633.199219 C 1288.859375 625.332031 1285.359375 538.140625 1283.960938 536.007812 C 1282.5625 533.859375 1132.601562 536.007812 1132.601562 536.007812"/></g><g><path fill="#ffffff" d="M 1260.652344 551.894531 C 1252.730469 557.628906 1248.109375 563.8125 1241.960938 571.703125 C 1234.601562 581.128906 1221.789062 592.503906 1216.648438 603.226562 C 1218.171875 597.117188 1219.820312 591.070312 1221.53125 585.003906 C 1224.660156 573.886719 1227.671875 563.058594 1229.371094 551.609375 C 1230.140625 546.421875 1225.019531 541.292969 1220.101562 544.414062 C 1194.332031 560.796875 1174.871094 590.738281 1156.351562 614.828125 C 1153.730469 618.234375 1158.101562 623.90625 1161.378906 620.210938 C 1176.570312 603.105469 1192.648438 581.6875 1211.570312 567.144531 C 1208.492188 578.324219 1205.308594 589.46875 1202.652344 600.753906 C 1200.761719 608.703125 1197.730469 616.484375 1202.398438 623.757812 C 1203.960938 626.199219 1206.539062 626.605469 1209.132812 626.261719 C 1220.417969 624.78125 1228.53125 612.066406 1235.191406 603.84375 C 1246.582031 589.773438 1260.160156 575.699219 1267.28125 558.894531 C 1268.949219 554.957031 1264.941406 548.789062 1260.652344 551.894531"/></g><g><path fill="#ffffff" d="M 1466.667969 547.75 C 1463.867188 550.808594 1462.238281 555.023438 1460.347656 558.714844 C 1459.238281 560.882812 1458.875 563.851562 1461.027344 565.550781 C 1462.90625 567.027344 1465.9375 566.167969 1467.035156 564.046875 C 1469.1875 559.917969 1471.867188 555.808594 1472.886719 551.226562 C 1473.695312 547.628906 1469.1875 545.007812 1466.667969 547.75"/></g><g><path fill="#ffffff" d="M 1468.101562 537.386719 C 1467.121094 535.996094 1464.921875 535.832031 1463.792969 537.175781 C 1462.441406 538.765625 1461.09375 540.351562 1459.75 541.9375 C 1458.589844 543.3125 1457.972656 545.355469 1459.113281 546.972656 C 1460.082031 548.363281 1462.292969 548.53125 1463.421875 547.199219 C 1464.761719 545.597656 1466.113281 544.011719 1467.453125 542.421875 C 1468.613281 541.046875 1469.242188 539.007812 1468.101562 537.386719"/></g><g><path fill="#685e67" d="M 1343.171875 1338.933594 L 938.152344 2676.417969 L 963.378906 2676.417969 L 1368.578125 1338.933594 L 1343.171875 1338.933594"/></g><g><path fill="#685e67" d="M 1403.425781 1338.941406 L 1808.453125 2676.421875 L 1783.222656 2676.421875 L 1378.03125 1338.941406 L 1403.425781 1338.941406"/></g><g><path fill="#f2866c" d="M 1702.195312 1200.871094 C 1700.628906 1200.871094 1482.714844 1331.613281 1473.046875 1333.058594 C 1463.375 1334.515625 1479.535156 1390.089844 1479.535156 1390.089844 C 1479.535156 1390.089844 1779.160156 1326.964844 1788.125 1281.566406 C 1797.097656 1236.179688 1702.195312 1200.871094 1702.195312 1200.871094"/></g><g><path fill="#f8a072" d="M 1545.421875 414.425781 C 1545.421875 414.425781 1527.34375 411.167969 1527.34375 496.28125 C 1523.875 507.859375 1505.445312 550.234375 1506.484375 559.289062 C 1507.535156 568.339844 1522.484375 573.058594 1522.484375 573.058594 C 1522.484375 573.058594 1510.3125 644.402344 1544.03125 658.886719 C 1577.753906 673.371094 1650.054688 653.453125 1650.054688 653.453125 L 1679.929688 709.234375 L 1771.03125 641.511719 L 1748.082031 595.152344 C 1748.082031 595.152344 1768.601562 466.582031 1756.433594 440.136719 C 1744.269531 413.710938 1545.421875 414.425781 1545.421875 414.425781"/></g><g><path fill="#d25e3c" d="M 1559.324219 376.769531 C 1559.324219 376.769531 1512.660156 397.132812 1512.390625 408.269531 C 1512.132812 419.402344 1557.242188 417.242188 1557.242188 417.242188 C 1557.242188 417.242188 1541.332031 429.730469 1545.25 433.796875 C 1549.164062 437.878906 1620.84375 446.304688 1620.84375 446.304688 C 1620.84375 446.304688 1605.734375 457.710938 1612.25 460.695312 C 1618.777344 463.683594 1626.074219 459.875 1625.023438 460.695312 C 1623.976562 461.503906 1615.648438 509.589844 1633.898438 522.886719 C 1640.417969 522.886719 1648.230469 497.085938 1648.230469 497.085938 C 1648.230469 497.085938 1651.617188 507.960938 1654.214844 505.234375 C 1656.828125 502.523438 1661.800781 481.882812 1661.800781 481.882812 C 1661.800781 481.882812 1677.695312 453.097656 1690.992188 476.996094 C 1704.289062 500.894531 1685.246094 551.417969 1661.007812 541.363281 C 1670.660156 591.339844 1713.40625 606.832031 1715.746094 605.476562 C 1718.101562 604.105469 1720.457031 599.214844 1720.457031 599.214844 C 1720.457031 599.214844 1748.601562 629.101562 1750.957031 626.390625 C 1753.296875 623.664062 1752.777344 613.078125 1752.777344 613.078125 C 1752.777344 613.078125 1781.195312 566.894531 1779.113281 528.328125 C 1777.015625 489.757812 1709.5 369.703125 1559.324219 376.769531"/></g><g><path fill="#d63644" d="M 1711.210938 473.28125 C 1711.210938 473.28125 1776.753906 545.992188 1823.6875 562.007812 C 1870.617188 578.042969 1902.433594 556.035156 1892.003906 535.671875 C 1881.574219 515.292969 1794.492188 470.207031 1793.714844 470.207031 C 1792.925781 470.207031 1711.210938 473.28125 1711.210938 473.28125"/></g><g><path fill="#304066" d="M 1559.316406 376.78125 C 1559.316406 376.78125 1703.753906 494.65625 1787.191406 493.027344 C 1799.175781 475.105469 1805.960938 427.292969 1795.007812 384.925781 C 1784.054688 342.542969 1689.679688 295 1634.40625 300.425781 C 1579.136719 305.867188 1559.316406 376.78125 1559.316406 376.78125"/></g><g><path fill="#d25e3c" d="M 1570.238281 468.667969 C 1565.324219 464.578125 1557.484375 464.5625 1551.390625 464.578125 C 1545.789062 464.59375 1539.28125 464.46875 1534.789062 468.171875 C 1532.757812 469.835938 1532.078125 473.476562 1532.960938 475.933594 C 1535.4375 482.777344 1541.398438 481.707031 1547.320312 481.582031 C 1553.777344 481.457031 1560.8125 483.789062 1567.035156 482.375 C 1572.527344 481.128906 1574.640625 472.339844 1570.238281 468.667969"/></g><g><path fill="#040606" d="M 1570.765625 509.382812 C 1566.054688 499.5625 1549.027344 499.933594 1540.285156 501.710938 C 1538.136719 502.140625 1537.753906 506.390625 1540.253906 506.453125 C 1545.867188 506.574219 1551.574219 507.417969 1556.957031 509.027344 C 1561.132812 510.269531 1564.9375 513.015625 1569.308594 512.449219 C 1570.457031 512.3125 1571.253906 510.410156 1570.765625 509.382812"/></g><g><path fill="#040606" d="M 1555.769531 513.890625 C 1555.234375 512.117188 1554.652344 510.496094 1552.894531 509.734375 C 1551.765625 509.230469 1550.542969 510.054688 1549.902344 510.988281 C 1547.730469 514.121094 1549.214844 520.15625 1551.152344 523.121094 C 1551.996094 524.433594 1553.722656 524.664062 1554.972656 523.929688 C 1556.441406 523.074219 1557.050781 521.332031 1556.992188 519.652344 C 1556.945312 517.726562 1556.320312 515.722656 1555.769531 513.890625"/></g><g><path fill="#e3706b" d="M 1679.726562 481.957031 C 1674.5625 485.789062 1666.769531 493.953125 1665.796875 500.804688 C 1665.410156 503.433594 1666.183594 505.75 1667.355469 508.054688 C 1669.058594 511.410156 1673.558594 514.78125 1669.953125 519.527344 C 1667.652344 522.558594 1662.71875 524.289062 1659.226562 525.078125 C 1657.695312 525.417969 1656.84375 528.710938 1658.746094 529.128906 C 1667.0625 530.984375 1675.117188 526.5625 1676.710938 517.222656 C 1677.46875 512.722656 1675.476562 510.21875 1674.050781 506.277344 C 1673.976562 506.089844 1673.929688 505.90625 1673.882812 505.71875 C 1675.628906 505.8125 1677.375 505.9375 1679.125 506 C 1680.390625 506.046875 1681.597656 504.964844 1681.984375 503.742188 C 1682.167969 503.167969 1682.261719 502.660156 1682.183594 502.070312 C 1682.03125 500.898438 1681.148438 499.550781 1679.851562 499.597656 C 1677.792969 499.675781 1675.738281 499.800781 1673.679688 499.90625 C 1675.074219 495.003906 1680.253906 491.667969 1682.820312 486.472656 C 1683.824219 484.445312 1682.617188 479.792969 1679.726562 481.957031"/></g><g><path fill="#ffffff" d="M 1538.863281 603.699219 C 1538.820312 604.199219 1536.246094 615.929688 1544.855469 618.238281 C 1553.464844 620.550781 1561.675781 611.984375 1562.191406 603.699219 C 1560.113281 602.476562 1539.042969 601.226562 1538.863281 603.699219"/></g><g><path fill="#ba5638" d="M 1743.355469 532.082031 C 1739.339844 543.019531 1736.554688 558.835938 1727.964844 567.550781 C 1729.226562 553.011719 1731.261719 538.335938 1730.351562 523.765625 C 1730.183594 520.964844 1726.929688 521.511719 1726.121094 523.582031 C 1719.339844 541.117188 1712.554688 559.046875 1702.714844 575.003906 C 1700.738281 578.226562 1704.664062 581.847656 1706.882812 578.378906 C 1714.6875 566.167969 1720.3125 553.191406 1725.179688 539.703125 C 1724.722656 551.109375 1724.253906 562.441406 1721.925781 573.800781 C 1721.421875 576.234375 1723.78125 577.753906 1725.742188 576.828125 C 1739.339844 570.316406 1746.394531 547.09375 1746.761719 532.769531 C 1746.820312 530.425781 1744.191406 529.832031 1743.355469 532.082031"/></g><g><path fill="#ba5638" d="M 1760.757812 550.070312 C 1758.457031 554.957031 1757.496094 560.464844 1755.480469 565.519531 C 1753.285156 571.054688 1750.425781 576.152344 1747.117188 581.042969 C 1745.101562 584.019531 1748.890625 587.449219 1751.058594 584.246094 C 1757.285156 574.996094 1764.699219 561.90625 1763.886719 550.191406 C 1763.738281 548.023438 1761.421875 548.640625 1760.757812 550.070312"/></g><g><path fill="#ba5638" d="M 1655.664062 456.300781 C 1651.3125 457.691406 1649.328125 463.308594 1647.503906 467.273438 C 1645.003906 472.707031 1643.414062 478.308594 1642.476562 484.222656 C 1641.992188 487.207031 1646.066406 487.953125 1646.800781 485.097656 C 1648.078125 480.058594 1649.75 475.0625 1651.980469 470.394531 C 1653.824219 466.554688 1657.398438 462.761719 1657.617188 458.394531 C 1657.664062 457.269531 1656.945312 455.894531 1655.664062 456.300781"/></g><g><path fill="#ba5638" d="M 1649.378906 451.875 C 1645.609375 453.59375 1642.871094 458.503906 1640.949219 462.117188 C 1638.820312 466.183594 1637.492188 470.5 1636.648438 475.035156 C 1636.164062 477.617188 1639.710938 478.210938 1640.386719 475.785156 C 1641.480469 471.84375 1643.011719 468.125 1645.09375 464.636719 C 1647.046875 461.351562 1650.082031 458.738281 1651.769531 455.347656 C 1652.707031 453.453125 1651.707031 450.828125 1649.378906 451.875"/></g><g><path fill="#ba5638" d="M 1592.527344 408.21875 C 1589.082031 406.230469 1583.671875 409.824219 1580.550781 411.527344 C 1576.269531 413.867188 1572.351562 416.8125 1568.722656 420.136719 C 1566.101562 422.523438 1568.800781 427.265625 1571.859375 424.703125 C 1575.390625 421.761719 1579.242188 419.261719 1583.371094 417.320312 C 1586.863281 415.667969 1591 415.269531 1593.355469 411.957031 C 1594.277344 410.652344 1593.800781 408.933594 1592.527344 408.21875"/></g><g><path fill="#ba5638" d="M 1576.671875 395.488281 C 1571 392.832031 1564.761719 394.558594 1558.910156 395.980469 C 1552.351562 397.566406 1546.050781 399.949219 1539.914062 402.8125 C 1536.191406 404.539062 1538.023438 411.433594 1542.28125 409.480469 C 1548.292969 406.746094 1554.480469 404.605469 1560.902344 403.195312 C 1566.363281 401.996094 1571.660156 401.917969 1576.632812 399.101562 C 1577.921875 398.382812 1578.082031 396.140625 1576.671875 395.488281"/></g><g><path fill="#ba5638" d="M 1557.152344 386.484375 C 1550.972656 385.121094 1544.433594 388.152344 1538.894531 390.785156 C 1537.261719 391.570312 1537.761719 395.277344 1539.722656 394.457031 C 1545.371094 392.050781 1551.601562 391.425781 1557.125 388.8125 C 1557.871094 388.457031 1558.152344 386.695312 1557.152344 386.484375"/></g><g><path fill="#1c273d" d="M 1731.980469 377.917969 C 1708.433594 351.371094 1670.296875 318.410156 1635.015625 312.457031 C 1634.375 312.359375 1634.035156 313.675781 1634.707031 313.84375 C 1664.34375 320.703125 1695.109375 348.878906 1716.578125 370.53125 C 1729.570312 383.605469 1743.472656 399.238281 1749.242188 417.507812 C 1755.605469 437.6875 1755.640625 461.746094 1755.410156 482.652344 C 1755.359375 487.21875 1761.246094 487.203125 1761.3125 482.867188 C 1761.789062 443.03125 1758.773438 408.125 1731.980469 377.917969"/></g><g><path fill="#d25e3c" d="M 1567.664062 361.011719 C 1567.664062 361.011719 1543.035156 361.011719 1548.835938 356.125 C 1554.636719 351.222656 1562.195312 349.046875 1562.195312 349.046875 C 1562.195312 349.046875 1550.515625 344.164062 1557.003906 340.355469 C 1563.503906 336.5625 1576.824219 336.417969 1582.566406 344.570312 C 1588.292969 352.707031 1567.664062 361.011719 1567.664062 361.011719"/></g><g><path fill="#f8a072" d="M 1847.296875 1931.167969 C 1847.457031 1933.507812 1837.085938 1977.527344 1859.671875 2012.65625 C 1867.324219 2094.148438 1863.15625 2214.378906 1874.96875 2273.050781 C 1886.792969 2331.730469 1940.328125 2566.410156 1935.449219 2575.820312 C 1930.582031 2585.238281 1986.902344 2570.027344 1986.902344 2570.027344 C 1986.902344 2570.027344 1993.164062 2210.757812 1993.164062 2157.15625 C 1993.164062 2103.558594 1968.816406 2007.226562 1965.359375 1990.566406 C 1961.871094 1973.90625 1986.902344 1887.707031 1986.21875 1872.496094 C 1985.507812 1857.289062 1872.179688 1855.835938 1872.179688 1855.835938 L 1847.296875 1931.167969"/></g><g><path fill="#f8a072" d="M 1660.960938 1900.601562 C 1660.960938 1900.601562 1639.300781 1959.421875 1639.289062 1986.222656 C 1639.277344 2013.019531 1635.113281 2075.3125 1635.113281 2075.3125 C 1635.113281 2075.3125 1607.296875 2501.21875 1595.472656 2587.410156 C 1602.425781 2592.480469 1660.960938 2595.160156 1660.960938 2595.160156 C 1660.960938 2595.160156 1743.550781 2286.820312 1758.859375 2187.582031 C 1774.164062 2088.351562 1770.683594 2040.550781 1765.808594 2032.582031 C 1760.945312 2024.609375 1801.246094 1915.441406 1801.246094 1915.441406 L 1660.960938 1900.601562"/></g><g><path fill="#c3563c" d="M 1759.546875 1416.265625 C 1759.546875 1416.265625 1633.363281 1868.84375 1646.921875 1918.660156 C 1691.765625 1929.363281 1884.699219 1950.550781 1888.351562 1947.832031 C 1892 1945.121094 1907.632812 1898.941406 1907.632812 1898.941406 C 1907.632812 1898.941406 2027.042969 1916.324219 2027.5625 1901.660156 C 2028.089844 1886.992188 2037.480469 1619.179688 2034.859375 1610.480469 C 2032.253906 1601.796875 2048.945312 1594.722656 2046.867188 1588.203125 C 2044.78125 1581.695312 2051.664062 1488.878906 2047.046875 1437.738281 C 2012.960938 1381.777344 1802.820312 1375.773438 1759.546875 1416.265625"/></g><g><path fill="#9a4532" d="M 2024.382812 1877.605469 C 1989.070312 1880.316406 1953.507812 1874.097656 1918.277344 1876.65625 C 1936.429688 1832.15625 1951.738281 1786.535156 1965.652344 1740.414062 C 1972.800781 1716.671875 1979.9375 1692.941406 1986.839844 1669.113281 C 1989.78125 1658.871094 1992.59375 1648.535156 1996.519531 1638.90625 C 1999.769531 1639.304688 2003.132812 1638.804688 2006.410156 1638.492188 C 2010.65625 1638.09375 2014.855469 1638.109375 2018.144531 1635.03125 C 2020.375 1632.949219 2020.859375 1628.417969 2018.28125 1626.375 C 2014.917969 1623.71875 2010.457031 1624.714844 2006.472656 1625.101562 C 2006.160156 1625.140625 2005.863281 1625.164062 2005.574219 1625.191406 C 2005.324219 1624.542969 2004.941406 1623.992188 2004.367188 1623.621094 C 2008.488281 1617.28125 2013.621094 1611.5625 2020.261719 1606.878906 C 2026.703125 1602.332031 2023.8125 1588.640625 2015.539062 1593.574219 C 1977.386719 1616.320312 1975.503906 1674.742188 1965.839844 1714.003906 C 1951.300781 1773.015625 1930.238281 1830.226562 1908.550781 1886.714844 C 1907.105469 1890.457031 1911.851562 1892.167969 1913.382812 1888.546875 C 1914.21875 1886.578125 1915.003906 1884.585938 1915.824219 1882.605469 C 1950.976562 1889.464844 1987.636719 1885.316406 2023.125 1888.628906 C 2029.15625 1889.1875 2030.425781 1877.136719 2024.382812 1877.605469"/></g><g><path fill="#9a4532" d="M 1989.601562 1432.84375 C 1987.128906 1456.125 1985.117188 1479.460938 1982.375 1502.730469 C 1981.234375 1512.445312 1981.933594 1526.542969 1978.285156 1535.53125 C 1970.210938 1555.410156 1951.398438 1549.9375 1934.949219 1545.699219 C 1925.519531 1543.273438 1916.257812 1540.0625 1907.023438 1536.917969 C 1904.207031 1535.949219 1897.863281 1535.101562 1895.609375 1532.898438 C 1889.714844 1527.117188 1889.753906 1511.574219 1889.445312 1503.503906 C 1888.480469 1477.730469 1891.542969 1451.449219 1891.957031 1425.652344 C 1892.03125 1421.574219 1886.898438 1421.5625 1886.691406 1425.457031 C 1885.589844 1445.628906 1885.148438 1465.800781 1884.4375 1486 C 1884.007812 1498.492188 1880.1875 1515.125 1883.089844 1527.558594 C 1887.988281 1548.503906 1926.460938 1553.21875 1942.652344 1556.574219 C 1957.695312 1559.722656 1976.789062 1564.4375 1983.355469 1546.054688 C 1989.136719 1529.847656 1988.597656 1507.644531 1990.484375 1490.652344 C 1992.589844 1471.496094 1994.734375 1452.304688 1996.117188 1433.074219 C 1996.472656 1427.992188 1990.105469 1428.101562 1989.601562 1432.84375"/></g><g><path fill="#9a4532" d="M 2041.597656 1560.585938 C 2038.4375 1556.394531 2034.949219 1556.394531 2031.515625 1552.222656 C 2024.667969 1543.894531 2029.132812 1523.292969 2029.632812 1512.335938 C 2030.75 1487.820312 2031.828125 1463.296875 2032.90625 1438.78125 C 2033.09375 1434.503906 2027.664062 1434.542969 2027.402344 1438.582031 C 2025.296875 1471.246094 2022.925781 1503.894531 2021.195312 1536.585938 C 2020.820312 1543.832031 2019.089844 1552.835938 2023.316406 1559.355469 C 2026.9375 1564.933594 2031.964844 1562.554688 2036.792969 1566.617188 C 2040.015625 1569.324219 2043.839844 1563.519531 2041.597656 1560.585938"/></g><g><path fill="#9a4532" d="M 1898.78125 1644.125 C 1896.074219 1631.832031 1874.671875 1623.839844 1865.300781 1617.816406 C 1845.738281 1605.242188 1825.800781 1593.367188 1805.757812 1581.644531 C 1804.066406 1580.65625 1802.332031 1583.578125 1803.925781 1584.570312 C 1822.640625 1596.328125 1841.074219 1608.5625 1859.371094 1621.019531 C 1867.574219 1626.601562 1876.136719 1631.878906 1883.96875 1638.007812 C 1887.640625 1640.863281 1890.554688 1645.386719 1894.140625 1647.75 C 1896.332031 1649.183594 1899.375 1646.796875 1898.78125 1644.125"/></g><g><path fill="#9a4532" d="M 1867.578125 1641.355469 C 1856.710938 1630.359375 1842.941406 1622.058594 1830.546875 1613.035156 C 1827.832031 1611.0625 1824.941406 1616.085938 1827.464844 1617.929688 C 1839.9375 1627.082031 1852.183594 1637.824219 1865.972656 1644.710938 C 1867.761719 1645.617188 1868.714844 1642.5 1867.578125 1641.355469"/></g><g><path fill="#9a4532" d="M 1879.746094 1923.117188 C 1845.15625 1918.328125 1809.335938 1916.109375 1774.503906 1913.429688 C 1736.683594 1910.527344 1699.941406 1903.726562 1662.816406 1895.296875 C 1659.886719 1894.636719 1658.046875 1899.90625 1660.964844 1900.597656 C 1731.050781 1917.167969 1806.238281 1936.21875 1878.53125 1933.667969 C 1884.074219 1933.46875 1885.761719 1923.949219 1879.746094 1923.117188"/></g><g><path fill="#9a4532" d="M 1802.472656 1542.949219 C 1784 1520.039062 1758.621094 1484.253906 1756.535156 1453.878906 C 1756.257812 1449.808594 1751.304688 1451.816406 1751.425781 1455.25 C 1752.589844 1489.53125 1779.144531 1521.992188 1794.828125 1550.527344 C 1798.007812 1556.324219 1806.464844 1547.890625 1802.472656 1542.949219"/></g><g><path fill="#aa56b2" d="M 1776.765625 636.445312 C 1774.195312 633.730469 1667.785156 704.355469 1668.832031 713.035156 C 1669.863281 721.730469 1655.273438 733.679688 1655.792969 774.964844 C 1656.300781 816.25 1671.953125 962.394531 1661.515625 977.054688 C 1666.21875 979.769531 1689.15625 977.054688 1689.15625 977.054688 C 1689.15625 977.054688 1727.683594 1244.820312 1739.730469 1263.347656 C 1751.796875 1281.855469 1752.246094 1304.09375 1742.867188 1320.933594 C 1733.476562 1337.773438 1748.601562 1379.597656 1755.382812 1386.117188 C 1738.179688 1408.9375 1751.722656 1422.511719 1749.648438 1427.953125 C 1747.554688 1433.382812 1832.554688 1394.8125 1912.324219 1427.953125 C 1992.109375 1461.082031 2067.945312 1454.027344 2061.472656 1444.242188 C 2054.984375 1434.472656 2040.089844 1377.421875 2035.386719 1361.667969 C 2030.695312 1345.917969 1920.164062 788.554688 1776.765625 636.445312"/></g><g><path fill="#d9cec4" d="M 1434.035156 1251.746094 L 1416.3125 1236.167969 C 1416.3125 1236.167969 1423.960938 1213.292969 1439.59375 1213.5 C 1455.246094 1213.71875 1476.28125 1241.582031 1472.632812 1256.808594 C 1468.96875 1272.054688 1459.773438 1274.203125 1459.773438 1274.203125 L 1434.035156 1251.746094"/></g><g><path fill="#d9cec4" d="M 1757.472656 1580.234375 L 1739.75 1564.65625 C 1739.75 1564.65625 1747.390625 1541.777344 1763.035156 1541.988281 C 1778.671875 1542.207031 1799.714844 1570.066406 1796.050781 1585.300781 C 1792.40625 1600.539062 1783.199219 1602.679688 1783.199219 1602.679688 L 1757.472656 1580.234375"/></g><g><path fill="#faba41" d="M 1306.089844 1169.234375 C 1306.089844 1169.234375 1331.976562 1157.316406 1350.054688 1169.234375 C 1368.128906 1181.125 1630.933594 1415.453125 1674.726562 1461.078125 C 1718.542969 1506.714844 1807.535156 1594.382812 1817.257812 1655.566406 C 1825.953125 1707.351562 1786.679688 1786.914062 1717.152344 1785.164062 C 1731.398438 1717.132812 1720.976562 1661.003906 1720.976562 1661.003906 L 1306.089844 1169.234375"/></g><g><path fill="#d9cec4" d="M 1298.613281 1367.570312 C 1298.613281 1367.570312 1287.476562 1383.875 1308.6875 1409.945312 C 1329.886719 1436.023438 1353.875 1424.4375 1355.617188 1418.265625 C 1357.347656 1412.117188 1298.613281 1367.570312 1298.613281 1367.570312"/></g><g><path fill="#d9cec4" d="M 1608.863281 1667.519531 C 1608.863281 1667.519531 1602.734375 1707.167969 1627.441406 1728.359375 C 1652.140625 1749.554688 1670.390625 1727.265625 1670.390625 1725.644531 C 1670.390625 1724.015625 1608.863281 1667.519531 1608.863281 1667.519531"/></g><g><path fill="#373636" d="M 1262.109375 1343.765625 C 1262.109375 1343.765625 1667.773438 1731.558594 1693.839844 1773.421875 C 1719.917969 1815.285156 1838.800781 1739.425781 1805.429688 1638.824219 C 1772.0625 1538.234375 1379.171875 1196.859375 1346.570312 1175.347656 C 1284.007812 1134.058594 1183.890625 1262.292969 1262.109375 1343.765625"/></g><g><path fill="#f8a072" d="M 1679.257812 971.046875 C 1679.257812 971.046875 1683.949219 1157.402344 1682.378906 1174.78125 C 1680.824219 1192.171875 1653.710938 1219.335938 1642.230469 1239.4375 C 1630.761719 1259.539062 1523.34375 1480.097656 1509.277344 1493.132812 C 1495.199219 1506.167969 1464.945312 1550.171875 1461.824219 1572.445312 C 1458.699219 1594.714844 1489.453125 1633.839844 1501.972656 1637.101562 C 1514.484375 1640.351562 1554.636719 1661.53125 1560.898438 1653.941406 C 1567.144531 1646.324219 1579.140625 1586.019531 1577.058594 1567.011719 C 1574.976562 1547.988281 1570.371094 1537.136719 1572.152344 1533.335938 C 1573.921875 1529.519531 1780.414062 1257.90625 1786.675781 1217.703125 C 1792.9375 1177.503906 1793.976562 972.164062 1792.9375 963.46875 C 1791.882812 954.773438 1679.257812 971.046875 1679.257812 971.046875"/></g><g><path fill="#9945a8" d="M 1815.085938 823.316406 C 1817.050781 818.9375 1818.703125 814.640625 1817.46875 809.816406 C 1816.902344 807.582031 1814.5 807.851562 1813.160156 808.910156 C 1809.769531 811.605469 1808.484375 815.996094 1806.898438 819.941406 C 1804.945312 811.621094 1802.640625 803.417969 1799.78125 795.449219 C 1798.101562 790.746094 1792.722656 794.433594 1793.03125 798.324219 C 1797.464844 851.277344 1810.136719 902.210938 1808.621094 955.871094 C 1804.648438 955.898438 1800.773438 954.894531 1796.988281 952.753906 C 1792.042969 950.667969 1789.101562 959.625 1793.75 961.996094 C 1800.3125 965.34375 1804.785156 966.226562 1812.265625 965.671875 C 1815.558594 965.425781 1817.28125 962.59375 1817.199219 959.339844 C 1816.332031 918.667969 1817.226562 874.523438 1809.691406 833.304688 C 1811.96875 830.324219 1813.566406 826.664062 1815.085938 823.316406"/></g><g><path fill="#9945a8" d="M 1787.949219 685.957031 C 1744.925781 663.917969 1701.34375 688.296875 1669.109375 717.875 C 1667.332031 719.507812 1669.140625 722.648438 1671.230469 720.972656 C 1708.738281 691.046875 1740.597656 684.210938 1786.402344 692.753906 C 1789.839844 693.398438 1790.757812 687.40625 1787.949219 685.957031"/></g><g><path fill="#9945a8" d="M 1961.777344 1386.53125 C 1942.871094 1369.878906 1909.09375 1373.457031 1886.195312 1372.398438 C 1850.03125 1370.699219 1813.796875 1371.109375 1777.65625 1373.046875 C 1774.355469 1373.230469 1773.316406 1379.496094 1776.921875 1379.398438 C 1807.710938 1378.628906 1838.476562 1378.53125 1869.253906 1379.542969 C 1895.292969 1380.398438 1936.734375 1374.832031 1958.523438 1391.703125 C 1961.34375 1393.894531 1964.246094 1388.703125 1961.777344 1386.53125"/></g><g><path fill="#9945a8" d="M 1902.414062 1339.144531 C 1868.832031 1319.246094 1828.171875 1325.496094 1791.132812 1322.363281 C 1787.78125 1322.085938 1786.824219 1328.300781 1790.398438 1328.707031 C 1827.960938 1333.078125 1864.148438 1329.492188 1900.25 1343.640625 C 1902.480469 1344.503906 1904.492188 1340.371094 1902.414062 1339.144531"/></g><g><path fill="#9945a8" d="M 1932.8125 1060.207031 C 1923.535156 1002.429688 1914.582031 944.550781 1897.378906 888.628906 C 1896.300781 885.140625 1892.019531 888.28125 1892.902344 891.277344 C 1910.277344 949.441406 1918.980469 1009.941406 1928.453125 1069.910156 C 1937.523438 1127.3125 1944.816406 1184.230469 1948.578125 1242.226562 C 1948.757812 1245.160156 1952.261719 1243.679688 1952.222656 1241.253906 C 1951.496094 1180.664062 1942.386719 1119.835938 1932.8125 1060.207031"/></g><g><path fill="#9945a8" d="M 1986.109375 1229.824219 C 1985.46875 1227.320312 1982.351562 1229.292969 1982.585938 1231.316406 C 1987.132812 1271.355469 1996.722656 1311.164062 2004.386719 1350.664062 C 2004.980469 1353.707031 2008.859375 1352.316406 2008.378906 1349.578125 C 2001.441406 1309.785156 1996.203125 1268.902344 1986.109375 1229.824219"/></g><g><path fill="#e3706b" d="M 1651.960938 597.699219 C 1646.117188 606.050781 1642.886719 615.316406 1635.804688 622.945312 C 1628.871094 630.410156 1620.769531 636.355469 1611.667969 640.558594 C 1609.070312 641.753906 1609.78125 647.480469 1612.96875 646.328125 C 1631.335938 639.734375 1654.925781 621.660156 1656.828125 599.546875 C 1657.109375 596.34375 1653.746094 595.164062 1651.960938 597.699219"/></g><g><path fill="#d9cec4" d="M 1353.460938 1368.832031 C 1353.382812 1368.632812 1353.300781 1368.441406 1353.21875 1368.261719 C 1351.542969 1364.195312 1346.878906 1365.5 1345.542969 1369.085938 C 1345.460938 1369.304688 1345.382812 1369.515625 1345.300781 1369.726562 C 1344.160156 1372.757812 1345.875 1376.78125 1349.335938 1376.410156 C 1352.519531 1376.070312 1354.734375 1371.894531 1353.460938 1368.832031"/></g><g><path fill="#d9cec4" d="M 1416.144531 1281.613281 C 1411.945312 1282.046875 1409.984375 1286.398438 1410.058594 1290.324219 C 1410.089844 1291.621094 1410.207031 1292.84375 1410.777344 1294.023438 C 1413.359375 1299.558594 1419.285156 1297.863281 1421.394531 1292.863281 C 1421.933594 1291.578125 1422.113281 1290.300781 1422.144531 1288.921875 C 1422.21875 1285.113281 1420.433594 1281.148438 1416.144531 1281.613281"/></g><g><path fill="#d9cec4" d="M 1662.824219 1674.332031 C 1661.566406 1672.515625 1659.199219 1672.097656 1657.371094 1673.1875 L 1656.984375 1673.421875 C 1654.207031 1675.054688 1652.992188 1679.386719 1654.921875 1682.171875 C 1656.859375 1684.96875 1660.863281 1684.214844 1662.464844 1681.40625 C 1662.546875 1681.253906 1662.628906 1681.109375 1662.710938 1680.96875 C 1663.84375 1678.988281 1664.179688 1676.300781 1662.824219 1674.332031"/></g><g><path fill="#d9cec4" d="M 1726.996094 1585.105469 C 1719.511719 1585.105469 1717.339844 1599.273438 1725.367188 1599.273438 C 1732.859375 1599.273438 1735.019531 1585.105469 1726.996094 1585.105469"/></g><g><path fill="#aa56b2" d="M 1595.484375 2587.410156 C 1595.484375 2587.410156 1565.9375 2572.558594 1562.109375 2572.929688 C 1558.289062 2573.289062 1565.582031 2601.167969 1565.582031 2601.167969 C 1565.582031 2601.167969 1419.238281 2662.839844 1417.152344 2684.46875 C 1426.882812 2690.988281 1687.609375 2693.886719 1689.332031 2680.488281 C 1691.074219 2667.089844 1670.210938 2595.019531 1667.785156 2591.027344 C 1665.355469 2587.046875 1595.484375 2587.410156 1595.484375 2587.410156"/></g><g><path fill="#aa56b2" d="M 1929.175781 2578.902344 C 1929.175781 2578.902344 1989.671875 2560.25 1996.277344 2561.339844 C 2002.886719 2562.421875 2020.613281 2662.378906 2018.183594 2667.453125 C 2015.742188 2672.519531 1980.289062 2696.789062 1980.289062 2696.789062 C 1980.289062 2696.789062 1830.8125 2702.222656 1829.757812 2698.960938 C 1828.730469 2695.699219 1914.933594 2588.859375 1914.933594 2588.859375 C 1914.933594 2588.859375 1902.078125 2570.390625 1904.507812 2567.492188 C 1906.9375 2564.601562 1929.175781 2578.902344 1929.175781 2578.902344"/></g><g><path fill="#9945a8" d="M 1549.679688 2602.570312 C 1543.71875 2604.011719 1541.039062 2609.019531 1539.851562 2614.589844 C 1536.910156 2612.039062 1533.929688 2610.410156 1529.328125 2611.128906 C 1527.921875 2611.339844 1526.679688 2612.898438 1526.25 2614.21875 C 1525.378906 2616.910156 1524.910156 2619.621094 1524.601562 2622.359375 C 1522.921875 2620.769531 1521.171875 2619.28125 1519.191406 2618.03125 C 1518.039062 2617.308594 1516.761719 2617.070312 1515.550781 2617.851562 C 1511.820312 2620.261719 1510.28125 2623.339844 1509.46875 2626.921875 C 1507.519531 2624.828125 1505.238281 2623.53125 1502.121094 2624.449219 C 1499.121094 2625.339844 1497.730469 2628.710938 1497.019531 2632.320312 C 1496.21875 2631.339844 1495.21875 2630.5 1493.429688 2630.109375 C 1491.738281 2629.75 1490.039062 2630.289062 1489.109375 2631.921875 C 1488.5 2632.980469 1488.011719 2633.96875 1487.621094 2634.941406 C 1487.601562 2634.878906 1487.589844 2634.820312 1487.570312 2634.761719 C 1486.140625 2629.558594 1478.691406 2634.550781 1481.421875 2639.539062 C 1482.738281 2642.398438 1484.410156 2645.019531 1486.410156 2647.398438 C 1488.671875 2650.480469 1492.769531 2647.878906 1493.058594 2644.578125 C 1493.691406 2637.410156 1493.730469 2642.671875 1498.390625 2644.929688 C 1500.738281 2646.070312 1503.339844 2643.199219 1503.460938 2640.949219 C 1504.621094 2634.730469 1506.429688 2634.371094 1508.878906 2639.859375 C 1511.230469 2642.820312 1515.050781 2640.378906 1515.441406 2637.078125 C 1515.609375 2633.640625 1516.28125 2630.289062 1517.441406 2627.058594 C 1520.050781 2629.679688 1522.628906 2632.320312 1525.199219 2634.988281 C 1527.589844 2637.449219 1530.929688 2633.910156 1531.199219 2631.429688 C 1531.191406 2627.808594 1531.839844 2624.351562 1533.140625 2621.03125 C 1535.589844 2623.398438 1538.03125 2625.78125 1540.460938 2628.179688 C 1543.019531 2630.691406 1547.011719 2627.179688 1547.101562 2624.238281 C 1547.339844 2615.359375 1557.710938 2617.789062 1561.199219 2623.660156 C 1563.308594 2627.199219 1567.941406 2623.199219 1567.359375 2620.011719 C 1565.730469 2611.191406 1560.320312 2600 1549.679688 2602.570312"/></g><g><path fill="#9945a8" d="M 1910.101562 2587.609375 C 1908.914062 2590.707031 1908.21875 2593.816406 1907.796875 2596.949219 C 1907.382812 2596.699219 1906.949219 2596.519531 1906.441406 2596.527344 C 1901.480469 2596.675781 1898.984375 2601.507812 1897.726562 2607.347656 C 1896.527344 2607.019531 1895.160156 2607.480469 1894.207031 2608.957031 C 1891.503906 2613.167969 1889.890625 2617.527344 1888.902344 2622.027344 C 1888.902344 2621.796875 1888.855469 2621.597656 1888.855469 2621.359375 C 1888.796875 2619.578125 1886.855469 2619.167969 1885.738281 2620.179688 C 1880.894531 2624.546875 1878.75 2629.007812 1877.621094 2633.859375 C 1875.894531 2633.199219 1873.433594 2634.410156 1872.882812 2637.167969 C 1871.492188 2644.089844 1872.613281 2648.957031 1875.90625 2655.058594 C 1877.847656 2658.679688 1882.035156 2655.039062 1882.445312 2652.289062 C 1883.585938 2644.507812 1882.609375 2637.398438 1884.761719 2630.449219 C 1885.105469 2634.300781 1886.035156 2638.027344 1887.703125 2641.976562 C 1889.164062 2645.417969 1893.9375 2643.886719 1893.972656 2640.296875 C 1894.054688 2634.058594 1894.183594 2627.96875 1895.691406 2622.15625 C 1895.949219 2623.398438 1896.230469 2624.636719 1896.492188 2625.886719 C 1897.375 2630.199219 1903.078125 2629.527344 1903.183594 2625.097656 C 1903.230469 2623.367188 1903.785156 2615.769531 1904.40625 2610.417969 C 1905.417969 2613.296875 1906.761719 2616.039062 1908.535156 2618.847656 C 1910.984375 2622.699219 1915.207031 2618.238281 1914.984375 2615.019531 C 1914.371094 2605.878906 1914.664062 2597.777344 1916.488281 2588.898438 C 1917.417969 2584.339844 1911.570312 2583.757812 1910.101562 2587.609375"/></g><g><path fill="#9945a8" d="M 2011.433594 2646.457031 C 1985.113281 2644.789062 1960.300781 2653.480469 1937.355469 2666.40625 C 1924.109375 2673.867188 1912.382812 2683.628906 1897.441406 2687.128906 C 1879.839844 2691.257812 1860.695312 2691.5 1842.722656 2692.769531 C 1840.507812 2692.929688 1839.691406 2696.96875 1842.226562 2697.109375 C 1866.308594 2698.410156 1894.449219 2698.578125 1916.03125 2685.910156 C 1946.644531 2667.929688 1974.117188 2652.570312 2010.480469 2654.738281 C 2014.871094 2655 2016.148438 2646.75 2011.433594 2646.457031"/></g><g><path fill="#9945a8" d="M 1684.050781 2669.4375 C 1600.414062 2685.070312 1518.144531 2677.800781 1433.929688 2677.597656 C 1431.351562 2677.597656 1430.585938 2682.417969 1433.359375 2682.480469 C 1518.09375 2684.179688 1600.425781 2687.5 1684.753906 2676.007812 C 1688.257812 2675.527344 1688.027344 2668.6875 1684.050781 2669.4375"/></g><g><path fill="#e3706b" d="M 1723.058594 2000.183594 C 1718.550781 1992.863281 1714.0625 1984.972656 1707.777344 1979.171875 C 1705.121094 1976.734375 1702.066406 1981.304688 1703.023438 1983.894531 C 1706.128906 1992.234375 1711.394531 1999.703125 1715.945312 2007.242188 C 1719.816406 2013.671875 1723.207031 2022.324219 1729.929688 2025.851562 C 1731.90625 2026.894531 1733.375 2024.074219 1733.300781 2022.460938 C 1732.96875 2014.304688 1727.152344 2006.84375 1723.058594 2000.183594"/></g><g><path fill="#e3706b" d="M 1952.390625 1946.105469 C 1944.300781 1950.125 1937.050781 1957.40625 1930.378906 1963.546875 C 1922.839844 1970.457031 1915.796875 1977.96875 1908.988281 1985.636719 C 1907.25 1987.597656 1909.289062 1991.335938 1911.34375 1989.085938 C 1917.929688 1981.898438 1924.832031 1975.195312 1932.140625 1968.808594 C 1939.378906 1962.464844 1947.816406 1957.234375 1954.5625 1950.386719 C 1956.324219 1948.585938 1955.113281 1944.757812 1952.390625 1946.105469"/></g></g></svg>