<?xml version="1.0" encoding="UTF-8" standalone="no"?><svg xmlns="http://www.w3.org/2000/svg" xmlns:xlink="http://www.w3.org/1999/xlink" contentScriptType="text/ecmascript" fill="#000000" width="443.1" zoomAndPan="magnify" contentStyleType="text/css" viewBox="0.0 -0.2 443.1 283.5" height="283.5" preserveAspectRatio="xMidYMid meet" version="1"><g id="change1_1"><path fill="#cc7c14" d="M8.9378662,94.1395187c0,3.3900146,2.6199951,6.1699829,5.9500122,6.4299927v7.4500122 c-7.4400024-0.2600098-13.3900146-6.3800049-13.3900146-13.8800049S7.447876,80.5295334,14.8878784,80.2695236v7.4500122 C11.5578613,87.9695358,8.9378662,90.7495041,8.9378662,94.1395187z M396.8878784,80.2695236v7.4500122 c3.3699951,0.1999512,6.0499878,2.9899902,6.0499878,6.4199829s-2.6799927,6.2299805-6.0499878,6.4299927v7.4500122 c7.4899902-0.210022,13.4899902-6.3500366,13.4899902-13.8800049 C410.3778687,86.6094894,404.3778687,80.4794846,396.8878784,80.2695236z M150.2178955,48.4595261 c-0.1699829-4.2600098-3.960022-7.8099976-9.0200195-8.4400024c-6.6599731-0.8400269-13.3999634-1.2600098-20.0299683-1.2600098 s-13.3400269,0.4199829-19.9299927,1.2600098c-5.0400391,0.6300049-8.5700073,4.2000122-8.4000244,8.4799805l0.1400146,3.8300171 h57.3900146L150.2178955,48.4595261z M374.8046265,76.8862762v-4.3026276c0-2.9658432-2.4042664-5.3701324-5.3701172-5.3701324 h-39.2773438c-2.9658203,0-5.3701172,2.4042892-5.3701172,5.3701324v4.3026276c0,2.9658432,2.4042969,5.3701324,5.3701172,5.3701324 h39.2773438C372.4003601,82.2564087,374.8046265,79.8521194,374.8046265,76.8862762z M323.1179199,165.0494995 c0,46.1600342-26.8200073,86.1799927-65.7000122,105.2800293c-15.5599976,7.6499634-33.0499878,11.9500122-51.5300293,11.9500122 c-18.4799805,0-35.9699707-4.3000488-51.5299683-11.9500122c-38.8800049-19.1000366-65.7000122-59.1199951-65.7000122-105.2800293 c0-25.5,8.039978-49.7399979,23.2600098-70.109993c14.4099731-19.2700195,34.789978-33.9000244,57.5299683-41.3499756 c0.4899902-0.1700439,0.9899902-0.3200073,1.4899902-0.4800415c0.8699951-0.2699585,1.7400513-0.5299683,2.6199951-0.7799683 h0.0100098c10.4700317-3,21.3200073-4.5200195,32.3200073-4.5200195s21.8500366,1.5200195,32.3200073,4.5200195h0.0100098 c0.8800049,0.25,1.75,0.5100098,2.6199951,0.7799683c0.5,0.1600342,1,0.3099976,1.4899902,0.4800415 c22.7399902,7.4499512,43.1199951,22.0799561,57.5300293,41.3499756 C315.0778809,115.3095016,323.1179199,139.5494995,323.1179199,165.0494995z"/></g><g id="change2_1"><path fill="#db982c" d="M76.7350693,223.5204468v-92.7160492 c0-6.8508301-5.5536957-12.4045258-12.4045181-12.4045258H15.3868494v117.5250854h48.9437027 C71.1813736,235.9249573,76.7350693,230.3712616,76.7350693,223.5204468z M70.6900558,91.2862167H42.3074837 c-1.9423523,0-3.5169373-1.574585-3.5169373-3.5169373v-6.6356354c0-1.9423447,1.574585-3.5169373,3.5169373-3.5169373h28.3825722 c1.9423523,0,3.5169373,1.5745926,3.5169373,3.5169373v6.6356354 C74.2069931,89.7116318,72.6324081,91.2862167,70.6900558,91.2862167z M205.8876953,56.009697 c-60.1191406,0-109.0297852,48.9150391-109.0297852,109.0395584c0,60.1191406,48.9106445,109.0302734,109.0297852,109.0302734 s109.0302734-48.9111328,109.0302734-109.0302734C314.9179688,104.924736,266.0068359,56.009697,205.8876953,56.009697z"/></g><g id="change3_1"><path fill="#e6c550" d="M85.3378906,49.9595261v2.3699951h-42v-2.3699951 c0-3.0900269,2.6199951-5.710022,6.1599731-6.1700439c9.8900146-1.2999878,19.7900391-1.2999878,29.6800537,0 C82.7178955,44.2495041,85.3378906,46.8694992,85.3378906,49.9595261z M248.5379028,48.9894943v3.3400269h-10.3300171 c-10.4699707-3-21.3200073-4.5200195-32.3200073-4.5200195s-21.8499756,1.5200195-32.3200073,4.5200195H163.237915v-3.3699951 c0-4.6700439,3.4799805-8.6000366,8.1099854-9.2000122c23.7199707-3.0800171,48.0100098-2.6600342,69.0999756,0.0299683 C245.0778809,40.379509,248.5379028,44.3195114,248.5379028,48.9894943z M373.2724609,34.4637985 c-0.1748047,0-0.3525391-0.0185547-0.5302734-0.0566406c-1.3496094-0.2910156-2.2080078-1.6210938-1.9160156-2.9707012 l6.3544922-29.4628906c0.2900391-1.3505859,1.6230469-2.2075195,2.9707031-1.9169922 c1.3496094,0.2910156,2.2080078,1.6210938,1.9160156,2.9707031l-6.3544922,29.4628887 C375.4609375,33.662529,374.4238281,34.4637985,373.2724609,34.4637985z M399.0717773,43.8070068 c-0.5882874,0.0260963-1.1876831-0.1540565-1.681427-0.5529785c-1.0737-0.8678169-1.2402954-2.4420586-0.3729858-3.5162201 l17.5184326-21.6770821c0.8683167-1.0737152,2.4435425-1.2398815,3.5162048-0.3729954 c1.0737,0.8678188,1.2403259,2.4420605,0.3730164,3.5162201L400.9065857,42.881031 C400.4376831,43.4609756,399.7625122,43.7763672,399.0717773,43.8070068z M414.9511719,62.393486 c-1.0957031,0-2.1005859-0.7246094-2.4082031-1.8310547c-0.3691406-1.3305664,0.4091797-2.7084961,1.7402344-3.078125 l25.4189453-7.0634766c1.3320312-0.3710938,2.7080078,0.4101562,3.078125,1.7392578 c0.3691406,1.3305664-0.4091797,2.7084961-1.7402344,3.078125l-25.4189453,7.0634766 C415.3974609,62.3637009,415.171875,62.393486,414.9511719,62.393486z M90.9832077,92.0917664 c-4.2196198,0-7.6403046-3.4206848-7.6403046-7.6403046s3.4206848-7.6403046,7.6403046-7.6403046 s7.6403046,3.4206848,7.6403046,7.6403046S95.2028275,92.0917664,90.9832077,92.0917664z M361.1867981,252.5937042 c-9.2542725,0-16.7563171-7.5020599-16.7563171-16.7563171s7.5020447-16.7563171,16.7563171-16.7563171 c9.2542419,0,16.7563171,7.5020599,16.7563171,16.7563171S370.44104,252.5937042,361.1867981,252.5937042z M297.4378662,165.0494995 c0,50.4800415-41.0699463,91.5499878-91.5499878,91.5499878c-50.4799805,0-91.5499878-41.0699463-91.5499878-91.5499878 c0-50.4799881,41.0700073-91.5499954,91.5499878-91.5499954 C256.3679199,73.4995041,297.4378662,114.5695114,297.4378662,165.0494995z M273.1878662,165.0494995 c0-37.1200027-30.1900024-67.3100052-67.2999878-67.3100052s-67.2999878,30.1900024-67.2999878,67.3100052 c0,37.1099854,30.1900024,67.2999878,67.2999878,67.2999878S273.1878662,202.1594849,273.1878662,165.0494995z"/></g><g id="change4_1"><path fill="#f7eaad" d="M378.4578857,52.3295212H238.2178955c0.8800049,0.25,1.75,0.5100098,2.6199951,0.7799683 c0.5,0.1600342,1,0.3099976,1.4899902,0.4800415c22.7399902,7.4499512,43.1199951,22.0799561,57.5300293,41.3499756 c15.2199707,20.3699951,23.2600098,44.609993,23.2600098,70.109993c0,46.1600342-26.8200073,86.1799927-65.7000122,105.2800293 h121.039978c10.1600342,0,18.4299927-8.2700195,18.4299927-18.4299927V70.7595139 C396.8878784,60.5994797,388.6179199,52.3295212,378.4578857,52.3295212z M325.2879028,76.8895187v-4.3099976 c0-2.6900024,2.1799927-4.8699951,4.8699951-4.8699951h39.2799683c2.6900024,0,4.8699951,2.1799927,4.8699951,4.8699951v4.3099976 c0,2.6900024-2.1799927,4.8699951-4.8699951,4.8699951h-39.2799683 C327.4678955,81.7595139,325.2879028,79.5795212,325.2879028,76.8895187z M361.1878662,252.0895386 c-8.9699707,0-16.2599487-7.2900391-16.2599487-16.25c0-8.9700317,7.289978-16.2600098,16.2599487-16.2600098 c8.9700317,0,16.2600098,7.289978,16.2600098,16.2600098C377.447876,244.7994995,370.1578979,252.0895386,361.1878662,252.0895386z M33.3178711,52.3295212c-10.1599731,0-18.4299927,8.2699585-18.4299927,18.4299927v48.1400146h49.4400024 c6.5700073,0,11.9100342,5.3399658,11.9100342,11.899971v92.7200317c0,6.5700073-5.3400269,11.9099731-11.9100342,11.9099731 H14.8878784v16.4700317c0,10.1599731,8.2700195,18.4299927,18.4299927,18.4299927h121.0400391 c-38.8800049-19.1000366-65.7000122-59.1199951-65.7000122-105.2800293c0-25.5,8.039978-49.7399979,23.2600098-70.109993 c14.4099731-19.2700195,34.789978-33.9000244,57.5299683-41.3499756c0.4899902-0.1700439,0.9899902-0.3200073,1.4899902-0.4800415 c0.8699951-0.2699585,1.7400513-0.5299683,2.6199951-0.7799683H33.3178711z M74.2078857,87.7695236 c0,1.9400024-1.5800171,3.5199585-3.5200195,3.5199585H42.3078613c-1.9399414,0-3.5199585-1.5799561-3.5199585-3.5199585V81.129509 c0-1.9400024,1.5800171-3.5100098,3.5199585-3.5100098h28.3800049c1.9400024,0,3.5200195,1.5700073,3.5200195,3.5100098V87.7695236z M90.987915,92.0895309c-4.2200317,0-7.6400146-3.4200439-7.6400146-7.6400146c0-4.2200317,3.4199829-7.6400146,7.6400146-7.6400146 c4.2099609,0,7.6399536,3.4199829,7.6399536,7.6400146C98.6278687,88.669487,95.197876,92.0895309,90.987915,92.0895309z M273.7880859,165.0453491c0,37.4414062-30.4599609,67.9013672-67.9013672,67.9013672 c-37.440918,0-67.9008789-30.4599609-67.9008789-67.9013672c0-37.4409256,30.4599609-67.9008865,67.9008789-67.9008865 C243.328125,97.1444626,273.7880859,127.6044235,273.7880859,165.0453491z"/></g><g id="change5_1"><path fill="#8c4c00" d="M205.8868561,223.1119232c-32.0691681,0-58.0663452-25.9971924-58.0663452-58.06633 s25.9971771-58.0663452,58.0663452-58.0663452s58.06633,25.9971924,58.06633,58.0663452 S237.9560089,223.1119232,205.8868561,223.1119232z M75.7070312,80.8207321v7.2612305 c0,2.59375-2.1103516,4.7041016-4.7041016,4.7041016H41.9946289c-2.59375,0-4.7041016-2.1103516-4.7041016-4.7041016v-7.2612305 c0-2.59375,2.1103516-4.7041016,4.7041016-4.7041016h29.0083008C73.5966797,76.1166306,75.7070312,78.2269821,75.7070312,80.8207321 z M72.7070312,80.8207321c0-0.9394531-0.7646484-1.7041016-1.7041016-1.7041016H41.9946289 c-0.9394531,0-1.7041016,0.7646484-1.7041016,1.7041016v7.2612305c0,0.9394531,0.7646484,1.7041016,1.7041016,1.7041016h29.0083008 c0.9394531,0,1.7041016-0.7646484,1.7041016-1.7041016V80.8207321z M90.9833984,93.5917282 c-5.0400391,0-9.140625-4.1000977-9.140625-9.1401367s4.1005859-9.140625,9.140625-9.140625s9.1401367,4.1005859,9.1401367,9.140625 S96.0234375,93.5917282,90.9833984,93.5917282z M90.9833984,90.5917282c3.3857422,0,6.1401367-2.7543945,6.1401367-6.1401367 s-2.7543945-6.140625-6.1401367-6.140625s-6.140625,2.7548828-6.140625,6.140625S87.5976562,90.5917282,90.9833984,90.5917282z M369.9257812,83.756279h-40.2597656c-3.5175781,0-6.3789062-2.8613281-6.3789062-6.378418v-5.2856445 c0-3.5175781,2.8613281-6.3789062,6.3789062-6.3789062h40.2597656c3.5175781,0,6.3789062,2.8613281,6.3789062,6.3789062v5.2856445 C376.3046875,80.8949509,373.4433594,83.756279,369.9257812,83.756279z M329.6660156,80.756279h40.2597656 c1.8632812,0,3.3789062-1.515625,3.3789062-3.378418v-5.2856445c0-1.8632812-1.515625-3.3789062-3.3789062-3.3789062h-40.2597656 c-1.8632812,0-3.3789062,1.515625-3.3789062,3.3789062v5.2856445 C326.2871094,79.240654,327.8027344,80.756279,329.6660156,80.756279z M379.4433594,235.8373413 c0,10.0664062-8.1904297,18.2568359-18.2568359,18.2568359s-18.2558594-8.1904297-18.2558594-18.2568359 s8.1894531-18.2558594,18.2558594-18.2558594S379.4433594,225.7709351,379.4433594,235.8373413z M376.4433594,235.8373413 c0-8.4121094-6.84375-15.2558594-15.2568359-15.2558594c-8.4121094,0-15.2558594,6.84375-15.2558594,15.2558594 c0,8.4130859,6.84375,15.2568359,15.2558594,15.2568359C369.5996094,251.0941772,376.4433594,244.2504272,376.4433594,235.8373413z M398.1367188,109.4390793v142.461731c0,10.8505859-8.828125,19.6787109-19.6787109,19.6787109H257.3828125v-0.1203003 c-15.5750122,7.567627-33.0480347,11.8175659-51.4960938,11.8175659c-18.3710938,0-35.7763672-4.2127686-51.3022461-11.7213135 v0.0240479H33.315918c-10.8510742,0-19.6791992-8.828125-19.6791992-19.6787109V109.4232101 C5.9744873,108.5506516,0,102.0353928,0,94.143486s5.9744873-14.4075928,13.6367188-15.2802124v-8.1050415 c0-10.8510742,8.828125-19.6787109,19.6791992-19.6787109h8.0219727v-1.621582c0-3.8701172,3.1401367-7.0898438,7.4663086-7.65625 c9.9750977-1.3061523,20.0913086-1.3061523,30.0673828,0c4.3261719,0.5664062,7.4663086,3.7861328,7.4663086,7.65625v1.621582 h5.602478l-0.1049194-2.7070312c-0.1826172-4.7299805,3.8037109-8.8183594,9.2739258-9.5102539 c13.2783203-1.6796875,26.8081055-1.6796875,40.215332,0c5.5478516,0.6948242,9.7080078,4.6455078,9.8920898,9.394043 l0.1091309,2.8232422h10.4108887v-3.1186523c0-5.3955078,4.050293-9.9907227,9.4213867-10.6889648 c28.3525391-3.6879883,53.4345703-2.0185547,69.4824219,0.0297852c5.3564453,0.684082,9.3964844,5.2783203,9.3964844,10.6870117 v3.0908203h128.4208984c10.8505859,0,19.6787109,8.8276367,19.6787109,19.6787109v8.0891724 c7.7125854,0.824707,13.7402344,7.3682251,13.7402344,15.2960815S405.8493042,108.6143723,398.1367188,109.4390793z M398.1367188,98.7855759c1.9154053-0.6821289,3.2988281-2.4951782,3.2988281-4.6420898s-1.3834229-3.9599609-3.2988281-4.6420898 V98.7855759z M164.7368164,51.0795212l9.4916992,0.0097656v0.0355835 c10.0803223-2.8048096,20.696167-4.3104858,31.6582031-4.3104858c10.9146729,0,21.4857788,1.4935303,31.5271606,4.2749023 l9.62323-0.0097656v-3.0908203c0-3.902832-2.9130859-7.2177734-6.7773438-7.7114258 c-15.8710938-2.0263672-40.6767578-3.6767578-68.7148438-0.0307617c-3.8813477,0.5048828-6.8081055,3.8212891-6.8081055,7.7143555 V51.0795212z M133.5917969,51.0795212v-9.97052c-1.9940796-0.1563721-3.9887085-0.2780762-5.9838867-0.3591309v10.3296509 H133.5917969z M115.6240234,51.0795212V40.7086105c-1.9981079,0.0702515-3.9923706,0.1873779-5.9838867,0.3335571v10.0373535 H115.6240234z M145.5756836,43.6975632v7.381958h2.7480469l-0.1049805-2.7070312 C148.149292,46.5759811,147.1455688,44.909111,145.5756836,43.6975632z M140.9516602,41.8387985 c-1.4518433-0.1818237-2.9055786-0.3355713-4.3598633-0.4772949v9.7180176h5.9838867v-8.8955078 C142.0548096,42.028801,141.5132446,41.9091721,140.9516602,41.8387985z M118.6240234,40.6426926v10.4368286h5.9838867V40.6565475 C122.6119385,40.6132126,120.6172485,40.6105881,118.6240234,40.6426926z M100.65625,41.981926v9.0975952h5.9838867v-9.8016357 c-1.7216797,0.159729-3.4403687,0.3441772-5.1542969,0.5609131C101.2025146,41.8746262,100.927002,41.9244308,100.65625,41.981926z M94.9424438,51.0795212H97.65625v-7.8717041c-1.8130493,1.1957397-2.9013672,3.0183716-2.8227539,5.0484619L94.9424438,51.0795212z M44.3378906,51.0795212h39v-1.621582c0-2.3066406-2.0874023-4.3193359-4.855957-4.6816406 c-9.7172852-1.2719727-19.5717773-1.2709961-29.2880859,0c-2.7685547,0.3623047-4.855957,2.375-4.855957,4.6816406V51.0795212z M13.6367188,89.5335007c-1.8626099,0.7097778-3.1953125,2.5010986-3.1953125,4.6099854s1.3327026,3.9002075,3.1953125,4.6099854 V89.5335007z M13.6367188,106.3976974v-4.510498c-3.5407715-0.7999878-6.1953125-3.9644165-6.1953125-7.7437134 s2.654541-6.9437256,6.1953125-7.7437134v-4.5109863C7.6340942,82.7427902,3,87.9080124,3,94.143486 C3,100.3784714,7.6340942,105.5436935,13.6367188,106.3976974z M147.9575195,268.0795288 c-35.9631348-20.2996826-60.3017578-58.8751221-60.3017578-103.0341797c0-50.3580399,31.6503906-93.4557571,76.1002197-110.4658279 H33.315918c-8.9213867,0-16.1791992,7.2578125-16.1791992,16.1787109v181.1425781 c0,8.9208984,7.2578125,16.1787109,16.1791992,16.1787109H147.9575195z M257.3828125,268.1087646v-0.0292358h0.0587769 c37.7249146-18.953125,63.6765747-58.0170288,63.6765747-103.0341797c0-52.1446609-34.8189087-96.3026199-82.4255371-110.4658279 l-0.5471191-0.1630859c-10.2409058-2.9910278-21.0645752-4.6020508-32.2587891-4.6020508 c-63.5385742,0-115.230957,51.6923828-115.230957,115.2309647c0,45.0171509,25.9516602,84.0810547,63.6763916,103.0341797h0.2523193 v0.1255493c15.4589844,7.7192993,32.8806152,12.0717163,51.3022461,12.0717163 C224.3853149,280.2767944,241.8757935,275.8884888,257.3828125,268.1087646z M394.6367188,70.7582321 c0-8.9208984-7.2578125-16.1787109-16.1787109-16.1787109H248.0177002 c44.4501343,17.0100708,76.1004639,60.1077881,76.1004639,110.4658279c0,44.1590576-24.338623,82.7344971-60.3019409,103.0341797 h114.6417847c8.9208984,0,16.1787109-7.2578125,16.1787109-16.1787109V70.7582321z M408.8769531,94.143486 c0-6.2716064-4.6868896-11.463623-10.7402344-12.2721558v4.5037842c3.5924072,0.7607422,6.2988281,3.9520874,6.2988281,7.7683716 s-2.7064209,7.0076294-6.2988281,7.7683716v4.5032959C404.1900635,105.6066208,408.8769531,100.4146042,408.8769531,94.143486z"/></g></svg>