<?xml version="1.0" encoding="UTF-8" standalone="no"?><svg xmlns="http://www.w3.org/2000/svg" xmlns:xlink="http://www.w3.org/1999/xlink" contentScriptType="text/ecmascript" fill="#000000" width="497.8" zoomAndPan="magnify" contentStyleType="text/css" viewBox="0.0 -0.3 497.8 268.8" height="268.8" preserveAspectRatio="xMidYMid meet" version="1"><g id="change1_1"><path fill="#1f222b" d="M460.9,268.4c0,0,0,0.1,0,0.1H36.8c0,0,0-0.1,0-0.1c0-20.4-16.4-37-36.8-37.2h1c2.1,0,3.9-1.7,3.9-3.9 c0-2.1-1.7-3.8-3.8-3.9c2.1-0.1,3.8-1.8,3.8-3.9s-1.7-3.8-3.8-3.9c2.1-0.1,3.8-1.8,3.8-3.9s-1.7-3.8-3.8-3.9 c2.1-0.1,3.8-1.8,3.8-3.9c0-2.1-1.7-3.8-3.8-3.9c2.1-0.1,3.8-1.8,3.8-3.9c0-2.1-1.7-3.8-3.8-3.9c2.1-0.1,3.8-1.8,3.8-3.9 c0-2.1-1.7-3.8-3.8-3.9c2.1-0.1,3.8-1.8,3.8-3.9c0-2.1-1.7-3.8-3.8-3.9c2.1-0.1,3.8-1.8,3.8-3.9s-1.7-3.8-3.8-3.9 c2.1-0.1,3.8-1.8,3.8-3.9s-1.7-3.8-3.8-3.9c2.1-0.1,3.8-1.8,3.8-3.9s-1.7-3.8-3.8-3.9c2.1-0.1,3.8-1.8,3.8-3.9 c0-2.1-1.7-3.8-3.8-3.9c2.1-0.1,3.8-1.8,3.8-3.9c0-2.1-1.7-3.8-3.8-3.9c2.1-0.1,3.8-1.8,3.8-3.9c0-2.1-1.7-3.8-3.8-3.9 c2.1-0.1,3.8-1.8,3.8-3.9c0-2.1-1.7-3.8-3.8-3.9c2.1-0.1,3.8-1.8,3.8-3.9c0-2.1-1.7-3.8-3.8-3.9c2.1-0.1,3.8-1.8,3.8-3.9 c0-2.1-1.7-3.8-3.8-3.9c2.1-0.1,3.8-1.8,3.8-3.9c0-2.1-1.7-3.8-3.8-3.9c2.1-0.1,3.8-1.8,3.8-3.9c0-2.1-1.7-3.8-3.8-3.9 c2.1-0.1,3.8-1.8,3.8-3.9S3.2,84.1,1.1,84c2.1-0.1,3.8-1.8,3.8-3.9c0-2.1-1.7-3.8-3.8-3.9c2.1-0.1,3.8-1.8,3.8-3.9 c0-2.1-1.7-3.8-3.8-3.9c2.1-0.1,3.8-1.8,3.8-3.9c0-2.1-1.7-3.8-3.8-3.9c2.1-0.1,3.8-1.8,3.8-3.9s-1.7-3.8-3.8-3.9 c2.1-0.1,3.8-1.8,3.8-3.9s-1.7-3.8-3.8-3.9c2.1-0.1,3.8-1.8,3.8-3.9c0-1.8-1.3-3.4-3-3.8c19.5-1.1,34.9-17.3,34.9-37.1 c0-0.2,0-0.4,0-0.5h424.2c0,0.2,0,0.4,0,0.5c0,19.9,15.6,36.1,35.2,37.1c-1.7,0.4-3,1.9-3,3.8c0,2.1,1.7,3.8,3.8,3.9 c-2.1,0.1-3.8,1.8-3.8,3.9s1.7,3.8,3.8,3.9c-2.1,0.1-3.8,1.8-3.8,3.9s1.7,3.8,3.8,3.9c-2.1,0.1-3.8,1.8-3.8,3.9 c0,2.1,1.7,3.8,3.8,3.9c-2.1,0.1-3.8,1.8-3.8,3.9c0,2.1,1.7,3.8,3.8,3.9c-2.1,0.1-3.8,1.8-3.8,3.9c0,2.1,1.7,3.8,3.8,3.9 c-2.1,0.1-3.8,1.8-3.8,3.9s1.7,3.8,3.8,3.9c-2.1,0.1-3.8,1.8-3.8,3.9c0,2.1,1.7,3.8,3.8,3.9c-2.1,0.1-3.8,1.8-3.8,3.9 c0,2.1,1.7,3.8,3.8,3.9c-2.1,0.1-3.8,1.8-3.8,3.9c0,2.1,1.7,3.8,3.8,3.9c-2.1,0.1-3.8,1.8-3.8,3.9c0,2.1,1.7,3.8,3.8,3.9 c-2.1,0.1-3.8,1.8-3.8,3.9c0,2.1,1.7,3.8,3.8,3.9c-2.1,0.1-3.8,1.8-3.8,3.9c0,2.1,1.7,3.8,3.8,3.9c-2.1,0.1-3.8,1.8-3.8,3.9 c0,2.1,1.7,3.8,3.8,3.9c-2.1,0.1-3.8,1.8-3.8,3.9c0,2.1,1.7,3.8,3.8,3.9c-2.1,0.1-3.8,1.8-3.8,3.9s1.7,3.8,3.8,3.9 c-2.1,0.1-3.8,1.8-3.8,3.9s1.7,3.8,3.8,3.9c-2.1,0.1-3.8,1.8-3.8,3.9s1.7,3.8,3.8,3.9c-2.1,0.1-3.8,1.8-3.8,3.9 c0,2.1,1.7,3.8,3.8,3.9c-2.1,0.1-3.8,1.8-3.8,3.9c0,2.1,1.7,3.8,3.8,3.9c-2.1,0.1-3.8,1.8-3.8,3.9c0,2.1,1.7,3.8,3.8,3.9 c-2.1,0.1-3.8,1.8-3.8,3.9c0,2.1,1.7,3.8,3.8,3.9c-2.1,0.1-3.8,1.8-3.8,3.9s1.7,3.8,3.8,3.9c-2.1,0.1-3.8,1.8-3.8,3.9 s1.7,3.8,3.8,3.9c-2.1,0.1-3.8,1.8-3.8,3.9c0,2.1,1.7,3.9,3.9,3.9h0.7C477.4,231.4,460.9,248,460.9,268.4z"/></g></svg>