<?xml version="1.0" encoding="UTF-8" standalone="no"?><svg xmlns="http://www.w3.org/2000/svg" xmlns:xlink="http://www.w3.org/1999/xlink" contentScriptType="text/ecmascript" fill="#000000" width="1068.2" zoomAndPan="magnify" contentStyleType="text/css" viewBox="538.5 352.7 1068.2 2115.3" height="2115.3" preserveAspectRatio="xMidYMid meet" version="1"><g><g><path fill="#e1eade" d="M 844.601562 964.988281 C 852.722656 999.726562 881.527344 1024.210938 909.753906 1019.183594 L 1174.792969 1004.109375 C 1217.902344 996.441406 1235.082031 922.164062 1224.332031 876.222656 C 1213.59375 830.269531 1168.5625 803.238281 1126.523438 815.472656 L 878.976562 887.535156 C 851.449219 895.550781 836.480469 930.265625 844.601562 964.988281"/></g><g><path fill="#f5805d" d="M 968.785156 975.199219 L 1068.078125 770.59375 C 1068.527344 769.632812 1068.898438 768.648438 1069.167969 767.632812 C 1070.117188 764.246094 1069.988281 760.53125 1068.957031 756.828125 C 1067.488281 751.464844 1064.117188 746.128906 1059.347656 741.765625 C 1057.539062 740.128906 1055.539062 738.621094 1053.378906 737.296875 L 1045.097656 732.285156 L 1029.507812 722.84375 C 1016.898438 715.167969 1001.398438 715.699219 994.082031 724.15625 C 993.730469 724.503906 993.464844 724.84375 993.199219 725.179688 L 987.90625 732.324219 L 918.527344 825.839844 L 857.699219 907.851562 C 854.9375 915.035156 852.945312 921.929688 851.660156 928.511719 C 834.890625 1013.992188 935.683594 1045.859375 968.785156 975.199219"/></g><g><path fill="#f5805d" d="M 1072.015625 762.898438 L 1098.734375 706.324219 C 1107.933594 686.84375 1092.59375 664.71875 1071.132812 666.488281 L 1008.773438 671.632812 C 987.304688 673.414062 975.808594 697.761719 988.074219 715.457031 L 1023.714844 766.886719 C 1035.984375 784.597656 1062.816406 782.378906 1072.015625 762.898438"/></g><g><path fill="#f5805d" d="M 1070.019531 654.507812 L 1010.75 634.453125 C 990.34375 627.554688 970.117188 645.328125 974.339844 666.449219 L 986.605469 727.808594 C 990.828125 748.933594 1016.332031 757.5625 1032.511719 743.335938 L 1079.519531 702.03125 C 1095.699219 687.820312 1090.421875 661.421875 1070.019531 654.507812"/></g><g><path fill="#f5805d" d="M 1113.910156 655.894531 L 1097.75 711.03125 C 1095.519531 718.652344 1085.800781 722.546875 1076.140625 719.730469 C 1066.492188 716.898438 1060.421875 708.363281 1062.652344 700.742188 L 1078.808594 645.605469 C 1081.039062 638.003906 1090.761719 634.089844 1100.410156 636.921875 C 1110.070312 639.753906 1116.140625 648.289062 1113.910156 655.894531"/></g><g><path fill="#f5805d" d="M 1124.414062 643.808594 L 1022.804688 699.351562 C 1015.703125 703.242188 1006.710938 700.605469 1002.832031 693.5 C 998.945312 686.398438 1001.582031 677.402344 1008.679688 673.527344 L 1110.292969 617.96875 C 1117.394531 614.089844 1126.382812 616.730469 1130.273438 623.835938 C 1134.152344 630.9375 1131.523438 639.929688 1124.414062 643.808594"/></g><g><path fill="#f5805d" d="M 1102.855469 629.691406 L 1025.136719 672.175781 C 1018.726562 675.679688 1010.617188 673.3125 1007.105469 666.890625 L 1005.738281 664.371094 C 1002.226562 657.960938 1004.605469 649.84375 1011.015625 646.339844 L 1088.738281 603.855469 C 1095.148438 600.351562 1103.257812 602.734375 1106.765625 609.140625 L 1108.148438 611.660156 C 1111.644531 618.066406 1109.265625 626.1875 1102.855469 629.691406"/></g><g><path fill="#f5805d" d="M 1077.230469 622.179688 L 999.507812 664.65625 C 993.097656 668.171875 984.984375 665.792969 981.480469 659.378906 L 980.101562 656.851562 C 976.597656 650.449219 978.976562 642.332031 985.382812 638.828125 L 1063.109375 596.339844 C 1069.519531 592.835938 1077.628906 595.214844 1081.128906 601.628906 L 1082.507812 604.140625 C 1086.019531 610.558594 1083.636719 618.664062 1077.230469 622.179688"/></g><g><path fill="#f89b73" d="M 1279.121094 2438.289062 C 1299.058594 2439.160156 1316.089844 2423.558594 1316.960938 2403.621094 L 1320.480469 2323.289062 C 1321.351562 2303.351562 1305.75 2286.320312 1285.808594 2285.449219 C 1265.871094 2284.578125 1248.839844 2300.179688 1247.96875 2320.121094 L 1248.378906 2355.128906 C 1248.511719 2365.949219 1247.808594 2376.761719 1246.289062 2387.480469 L 1244.449219 2400.449219 C 1243.578125 2420.390625 1259.179688 2437.421875 1279.121094 2438.289062"/></g><g><path fill="#1e2837" d="M 1322.109375 2468.019531 L 1255.011719 2466.769531 L 1256.371094 2451.871094 L 1228.671875 2466.769531 L 1119.660156 2466.769531 C 1119.660156 2466.769531 1105.289062 2431.988281 1150.800781 2423.300781 C 1152.269531 2423.019531 1153.761719 2422.730469 1155.210938 2422.429688 C 1198.699219 2413.800781 1233.609375 2401.648438 1238.261719 2386.03125 C 1238.261719 2386.03125 1246.269531 2391.160156 1257.839844 2397 C 1276.96875 2406.671875 1305.851562 2418.320312 1324.5 2412.128906 C 1331.679688 2440.691406 1322.109375 2468.019531 1322.109375 2468.019531"/></g><g><path fill="#f89b73" d="M 1477.480469 2411.601562 C 1495.871094 2403.828125 1504.558594 2382.429688 1496.789062 2364.039062 L 1465.488281 2289.980469 C 1457.71875 2271.589844 1436.320312 2262.898438 1417.941406 2270.671875 C 1399.550781 2278.441406 1390.871094 2299.839844 1398.628906 2318.230469 L 1414.03125 2349.671875 C 1418.789062 2359.390625 1422.800781 2369.460938 1426.03125 2379.789062 L 1429.929688 2392.289062 C 1437.699219 2410.679688 1459.101562 2419.371094 1477.480469 2411.601562"/></g><g><path fill="#1e2837" d="M 1310.46875 1293.851562 C 1296.960938 1289.71875 1235.179688 1254.800781 1208.699219 1420.828125 C 1182.21875 1586.859375 1090.21875 1723.460938 1145.148438 1855.851562 C 1200.089844 1988.238281 1393.800781 2354.730469 1393.800781 2354.730469 L 1511.800781 2331.128906 C 1511.800781 2331.128906 1473 1968.359375 1366.300781 1811.230469 C 1344.558594 1687.441406 1456.710938 1534.53125 1447.890625 1451.640625 C 1439.058594 1368.75 1471.058594 1272.058594 1471.058594 1272.058594 L 1310.46875 1293.851562"/></g><g><path fill="#1a2443" d="M 1107.453125 847.796875 L 1144.292969 991.582031 L 1228.660156 1320.804688 C 1230.402344 1327.570312 1241.664062 1337.550781 1259.152344 1347.144531 C 1285.8125 1361.804688 1315.902344 1369.058594 1346.332031 1369.085938 L 1382.34375 1369.148438 C 1450.3125 1369.226562 1513.984375 1335.285156 1551.179688 1278.402344 C 1551.4375 1278.015625 1551.679688 1277.605469 1551.9375 1277.230469 C 1557.042969 1269.363281 1560.15625 1262.957031 1559.796875 1259.703125 L 1558.753906 1250.570312 L 1504.210938 774.605469 C 1503.503906 768.332031 1492.46875 761.5 1477.421875 755.316406 C 1434.96875 737.863281 1387.769531 735.691406 1343.605469 748.191406 L 1131.652344 808.199219 C 1113.601562 811.542969 1102.75 829.433594 1107.453125 847.796875"/></g><g><path fill="#e1eade" d="M 1199.234375 844.519531 C 1210.453125 884.605469 1238.984375 924.023438 1303.578125 941.417969 C 1349.539062 926.507812 1422.859375 826.230469 1411.648438 786.148438 C 1400.425781 746.0625 1358.035156 745.84375 1283.636719 766.667969 C 1209.234375 787.476562 1188.011719 804.4375 1199.234375 844.519531"/></g><g><path fill="#f5805d" d="M 1221.242188 823.472656 C 1226.3125 848.660156 1268.292969 861.453125 1315.019531 852.066406 C 1361.761719 842.679688 1402.519531 812.160156 1390.480469 789.472656 C 1371.273438 753.226562 1345.960938 763.085938 1299.21875 772.484375 C 1252.496094 781.871094 1216.183594 798.296875 1221.242188 823.472656"/></g><g><path fill="#101010" d="M 1143.050781 555.140625 C 1165.769531 636.351562 1241.332031 686.179688 1311.8125 666.453125 C 1382.289062 646.738281 1405.339844 575.492188 1382.613281 494.28125 C 1359.890625 413.089844 1300 352.671875 1229.519531 372.398438 C 1159.042969 392.113281 1120.320312 473.929688 1143.050781 555.140625"/></g><g><path fill="#f5805d" d="M 1295.359375 591.890625 L 1338.179688 701.214844 C 1348.320312 727.082031 1361.941406 751.363281 1377.597656 774.300781 C 1403.3125 811.957031 1354.417969 825.949219 1329.617188 832.886719 L 1297.980469 841.738281 C 1269.167969 849.792969 1238.289062 825.398438 1232.070312 789.652344 L 1202.167969 617.960938 L 1295.359375 591.890625"/></g><g><path fill="#f89b73" d="M 1129.082031 567.324219 C 1127.171875 578.539062 1126.121094 589.636719 1125.871094 600.480469 C 1125.382812 622.289062 1129.78125 643.949219 1138.25 664.058594 C 1157.660156 710.160156 1177.460938 741.351562 1216.292969 747.957031 C 1241.5625 752.257812 1266.894531 744.730469 1289.160156 728.46875 C 1322.652344 704.015625 1349.230469 659.789062 1358.332031 606.328125 C 1361.191406 589.488281 1363.722656 573.214844 1365.210938 557.757812 C 1332.453125 583.835938 1358.8125 440.613281 1271.121094 425.695312 C 1162.953125 407.292969 1144.222656 478.339844 1129.082031 567.324219"/></g><g><path fill="#f89b73" d="M 1344.933594 567.839844 C 1339.171875 583.226562 1343.304688 599.011719 1354.152344 603.066406 C 1365.003906 607.125 1378.464844 597.929688 1384.222656 582.539062 C 1389.984375 567.136719 1385.851562 551.367188 1375.015625 547.308594 C 1364.164062 543.25 1350.691406 552.433594 1344.933594 567.839844"/></g><g><path fill="#101010" d="M 1317.4375 417.363281 L 1197.371094 387.734375 C 1172.039062 391.976562 1153.988281 420.453125 1137.28125 411.953125 C 1091.390625 388.601562 1047.28125 456.1875 1078.121094 487.421875 C 1083.441406 492.808594 1094.890625 505.117188 1085.109375 513.035156 C 1056.4375 536.234375 1083.351562 589.933594 1150.738281 571.625 C 1218.117188 553.3125 1235.460938 496.449219 1294.058594 518.269531 C 1326.449219 530.324219 1342.75 500.90625 1350.839844 472.171875 C 1357.71875 447.761719 1342.25 422.65625 1317.4375 417.363281"/></g><g><path fill="#f6f5fb" d="M 1181.335938 689.449219 C 1181.335938 689.449219 1214.597656 737.089844 1245.347656 682.128906 C 1213.667969 687.71875 1181.335938 689.449219 1181.335938 689.449219"/></g><g><path fill="#414448" d="M 1329.445312 1322.371094 C 1329.445312 1322.371094 1229 1533.007812 1193.648438 1797.648438 C 1178.5 1911.078125 1192.785156 2054.019531 1203.351562 2162.347656 C 1218.871094 2321.417969 1214.988281 2352.460938 1214.988281 2352.460938 L 1352.152344 2361.128906 C 1352.152344 2361.128906 1371.089844 1792.070312 1523.445312 1586.199219 C 1595.214844 1489.195312 1606.71875 1358.082031 1532.75 1257.984375 C 1458.769531 1157.910156 1329.445312 1322.371094 1329.445312 1322.371094"/></g><g><path fill="#e1eade" d="M 1309.140625 1356.269531 C 1309.140625 1356.269531 1321.558594 1417.128906 1340.191406 1427.070312 C 1358.820312 1437.011719 1579.921875 1347.570312 1573.710938 1302.859375 C 1548.871094 1246.960938 1548.871094 1246.960938 1548.871094 1246.960938 C 1548.871094 1246.960938 1312.859375 1366.210938 1309.140625 1356.269531"/></g><g><path fill="#e1eade" d="M 1314.101562 1340.121094 C 1311.621094 1343.851562 1279.320312 1414.648438 1279.320312 1414.648438 C 1279.320312 1414.648438 1237.089844 1403.46875 1220.941406 1378.628906 C 1204.800781 1353.789062 1244.539062 1289.191406 1244.539062 1289.191406 L 1314.101562 1340.121094"/></g><g><path fill="#1a2443" d="M 1144.292969 991.589844 L 1228.65625 1320.804688 C 1230.398438 1327.570312 1241.667969 1337.550781 1259.15625 1347.144531 C 1285.8125 1361.804688 1315.902344 1369.0625 1346.332031 1369.085938 L 1382.34375 1369.144531 C 1450.3125 1369.222656 1513.988281 1335.285156 1551.183594 1278.398438 C 1551.445312 1278.011719 1551.6875 1277.601562 1551.949219 1277.238281 C 1557.039062 1269.367188 1560.152344 1262.953125 1559.796875 1259.703125 L 1558.75 1250.578125 C 1518.691406 1217.8125 1451.625 1188.042969 1378.128906 1165.625 C 1254.015625 1127.730469 1293.390625 979.921875 1207.113281 976.175781 C 1179.40625 974.988281 1159.09375 981.78125 1144.292969 991.589844"/></g><g><path fill="#101010" d="M 1323.136719 480.894531 C 1323.136719 480.894531 1335.566406 580.386719 1320.335938 617.375 C 1355.144531 597.804688 1354.804688 590.835938 1354.804688 590.835938 C 1354.804688 590.835938 1371.285156 453.925781 1347.578125 440.382812 C 1328.4375 450.285156 1323.136719 480.894531 1323.136719 480.894531"/></g><g><path fill="#414448" d="M 1257.628906 2397.078125 C 1244.5 2404.339844 1218.308594 2418.25 1195.289062 2427.101562 C 1173.761719 2435.390625 1161.058594 2428.210938 1155 2422.511719 C 1198.488281 2413.871094 1233.398438 2401.730469 1238.050781 2386.109375 C 1238.050781 2386.109375 1246.058594 2391.238281 1257.628906 2397.078125"/></g><g><path fill="#1e2837" d="M 1514.320312 2413.699219 L 1457.429688 2430.871094 L 1457.601562 2413.359375 L 1435.21875 2438.011719 L 1343.328125 2467.570312 C 1343.328125 2467.570312 1322.039062 2442.898438 1358.101562 2423.410156 C 1360.878906 2421.921875 1363.601562 2420.410156 1366.261719 2418.898438 C 1398.308594 2400.839844 1422.171875 2382.53125 1421.96875 2369.089844 C 1421.96875 2369.089844 1441.078125 2373.910156 1461.570312 2374.769531 C 1476.429688 2375.410156 1492.050781 2373.980469 1501.570312 2367.128906 C 1515.160156 2388.640625 1514.320312 2413.699219 1514.320312 2413.699219"/></g><g><path fill="#414448" d="M 1461.570312 2374.769531 C 1451.089844 2382.53125 1424.121094 2401.929688 1400.160156 2414.789062 C 1385.128906 2422.851562 1373.851562 2421.921875 1366.261719 2418.898438 C 1398.308594 2400.839844 1422.171875 2382.53125 1421.96875 2369.089844 C 1421.96875 2369.089844 1441.078125 2373.910156 1461.570312 2374.769531"/></g><g><path fill="#6b737e" d="M 1226.191406 2462.230469 L 1123.460938 2462.230469 L 1123.460938 2460.128906 L 1225.691406 2460.128906 L 1252.789062 2446.578125 L 1253.730469 2448.460938 L 1226.191406 2462.230469"/></g><g><path fill="#6b737e" d="M 1344.878906 2461.558594 L 1344.25 2459.558594 L 1429.980469 2432.628906 L 1450.910156 2408.628906 L 1452.488281 2410.011719 L 1431.179688 2434.460938 L 1430.898438 2434.550781 L 1344.878906 2461.558594"/></g><g><path fill="#6b737e" d="M 1323.761719 2446.710938 L 1261.960938 2446.710938 L 1261.960938 2444.609375 L 1323.761719 2444.609375 L 1323.761719 2446.710938"/></g><g><path fill="#6b737e" d="M 1462.878906 2405.359375 L 1462.25 2403.351562 L 1507.28125 2389.378906 L 1507.910156 2391.378906 L 1462.878906 2405.359375"/></g><g><path fill="#6b8985" d="M 1413.539062 573.128906 C 1415.167969 609.71875 1404.226562 638.976562 1360.90625 641.855469 C 1315.679688 644.863281 1304.007812 614.664062 1302.378906 578.0625 C 1300.746094 541.464844 1305.4375 510.808594 1355.015625 509.324219 C 1402.316406 507.914062 1411.917969 536.53125 1413.539062 573.128906"/></g><g><path fill="#6b8985" d="M 1254.003906 733.015625 L 1251.605469 720.636719 C 1280.902344 714.945312 1304.425781 702.1875 1325.625 680.503906 C 1343.972656 661.726562 1351.304688 612.757812 1351.375 612.265625 L 1363.84375 614.078125 C 1363.53125 616.257812 1355.855469 667.597656 1334.636719 689.316406 C 1311.566406 712.917969 1285.945312 726.808594 1254.003906 733.015625"/></g><g><path fill="#90a8a2" d="M 1172.207031 397.976562 C 1172.207031 397.976562 1251.867188 384.011719 1285.867188 422.675781 C 1332.917969 404.042969 1332.917969 402.644531 1332.917969 402.644531 C 1332.917969 402.644531 1309.15625 352.800781 1244.40625 366.308594 C 1179.667969 379.816406 1187.585938 389.140625 1172.207031 397.976562"/></g><g><path fill="#90a8a2" d="M 1279.347656 417.550781 C 1280.277344 418.941406 1338.96875 462.738281 1336.636719 527.933594 C 1377.628906 543.316406 1384.617188 530.746094 1386.476562 524.675781 C 1388.347656 518.625 1396.269531 453.410156 1327.789062 395.65625 C 1277.015625 412.890625 1282.609375 396.117188 1282.609375 396.117188 L 1279.347656 417.550781"/></g><g><path fill="#90a8a2" d="M 1395.835938 628.554688 L 1324.957031 628.554688 C 1323.1875 628.554688 1321.738281 627.105469 1321.738281 625.332031 L 1321.738281 522.316406 C 1321.738281 520.542969 1323.1875 519.09375 1324.957031 519.09375 L 1395.835938 519.09375 C 1397.609375 519.09375 1399.054688 520.542969 1399.054688 522.316406 L 1399.054688 625.332031 C 1399.054688 627.105469 1397.609375 628.554688 1395.835938 628.554688"/></g><g><path fill="#6b8985" d="M 1391.996094 610.988281 L 1339.046875 610.988281 C 1337.726562 610.988281 1336.636719 609.898438 1336.636719 608.570312 L 1336.636719 531.621094 C 1336.636719 530.304688 1337.726562 529.21875 1339.046875 529.21875 L 1391.996094 529.21875 C 1393.316406 529.21875 1394.394531 530.304688 1394.394531 531.621094 L 1394.394531 608.570312 C 1394.394531 609.898438 1393.316406 610.988281 1391.996094 610.988281"/></g><g><path fill="#59565b" d="M 1254.425781 738.480469 L 1212.96875 738.480469 C 1205.925781 738.480469 1200.15625 732.722656 1200.15625 725.675781 C 1200.15625 718.628906 1205.925781 712.871094 1212.96875 712.871094 L 1254.425781 712.871094 C 1261.46875 712.871094 1267.238281 718.628906 1267.238281 725.675781 C 1267.238281 732.722656 1261.46875 738.480469 1254.425781 738.480469"/></g><g><path fill="#f6f5fb" d="M 1239.882812 723.101562 L 1208.421875 723.101562 C 1208.242188 723.101562 1208.082031 722.957031 1208.082031 722.761719 L 1208.082031 716.921875 C 1208.082031 716.742188 1208.242188 716.585938 1208.421875 716.585938 L 1239.882812 716.585938 C 1240.074219 716.585938 1240.222656 716.742188 1240.222656 716.921875 L 1240.222656 722.761719 C 1240.222656 722.957031 1240.074219 723.101562 1239.882812 723.101562"/></g><g><path fill="#59565b" d="M 1183.390625 611.417969 L 1121.910156 612.394531 L 1121.910156 557.285156 L 1183.390625 557.410156 L 1183.390625 611.417969"/></g><g><path fill="#59565b" d="M 839.628906 596.429688 L 793.421875 549.101562 C 788.570312 544.136719 788.664062 536.101562 793.636719 531.25 C 798.601562 526.398438 806.640625 526.496094 811.488281 531.460938 L 857.695312 578.789062 C 862.546875 583.753906 862.453125 591.789062 857.484375 596.640625 C 852.511719 601.492188 844.476562 601.394531 839.628906 596.429688"/></g><g><path fill="#616265" d="M 1145.835938 696.285156 L 1045.515625 706.914062 C 1044.496094 707.011719 1043.566406 706.269531 1043.46875 705.25 L 1028.648438 565.453125 C 1028.546875 564.449219 1029.285156 563.523438 1030.308594 563.414062 L 1130.636719 552.785156 C 1131.65625 552.671875 1132.578125 553.414062 1132.6875 554.433594 L 1147.496094 694.230469 C 1147.609375 695.25 1146.855469 696.171875 1145.835938 696.285156"/></g><g><path fill="#59565b" d="M 778.1875 700.757812 L 701.65625 708.867188 L 694.054688 637.117188 L 770.585938 629.007812 L 778.1875 700.757812"/></g><g><path fill="#59565b" d="M 708.945312 728.25 L 679.449219 731.378906 C 678.355469 731.503906 677.363281 730.699219 677.246094 729.609375 L 665.503906 618.785156 C 665.386719 617.699219 666.191406 616.703125 667.285156 616.582031 L 696.785156 613.464844 C 697.878906 613.34375 698.871094 614.144531 698.988281 615.234375 L 710.726562 726.042969 C 710.84375 727.148438 710.042969 728.140625 708.945312 728.25"/></g><g><path fill="#59565b" d="M 680.222656 727.273438 L 624.71875 743.632812 L 611.121094 615.28125 L 668.820312 619.648438 L 680.222656 727.273438"/></g><g><path fill="#59565b" d="M 801.808594 716.40625 L 739.03125 723.046875 L 727.625 615.433594 L 790.40625 608.777344 L 801.808594 716.40625"/></g><g><path fill="#59565b" d="M 830.617188 731.488281 L 783.980469 736.425781 L 767.636719 582.160156 L 814.273438 577.222656 L 830.617188 731.488281"/></g><g><path fill="#59565b" d="M 1103.261719 702.589844 L 816.265625 733 L 800.875 587.710938 L 1087.871094 557.300781 L 1103.261719 702.589844"/></g><g><path fill="#100d0d" d="M 1042.25 674.597656 L 884.40625 691.320312 L 875.472656 607.015625 L 1033.320312 590.292969 L 1042.25 674.597656"/></g><g><path fill="#59565b" d="M 796.921875 577.4375 L 689.496094 588.820312 L 680.148438 500.585938 L 787.570312 489.199219 L 796.921875 577.4375"/></g><g><path fill="#59565b" d="M 837.453125 528.753906 C 840.046875 553.246094 821.535156 575.273438 796.109375 577.964844 C 770.683594 580.667969 747.96875 563 745.375 538.511719 C 742.78125 514.035156 761.289062 491.992188 786.714844 489.300781 C 812.140625 486.609375 834.855469 504.277344 837.453125 528.753906"/></g><g><path fill="#616265" d="M 598.019531 509.675781 C 593.042969 508.492188 587.777344 508.109375 582.394531 508.679688 C 556.96875 511.375 538.542969 534.171875 541.238281 559.589844 C 543.929688 585.027344 566.726562 603.445312 592.152344 600.75 C 597.535156 600.179688 602.597656 598.710938 607.21875 596.503906 L 598.019531 509.675781"/></g><g><path fill="#59565b" d="M 624.53125 586 L 607.191406 596.257812 L 598.019531 509.691406 L 617.125 516.085938 L 624.53125 586"/></g><g><path fill="#616265" d="M 657.113281 582.234375 L 624.503906 585.691406 L 617.128906 516.082031 L 649.738281 512.625 L 657.113281 582.234375"/></g><g><path fill="#3d353b" d="M 759.835938 581.375 L 652.410156 592.753906 L 643.058594 504.507812 L 750.484375 493.128906 L 759.835938 581.375"/></g><g><path fill="#3d353b" d="M 800.363281 532.683594 C 802.957031 557.175781 784.449219 579.195312 759.023438 581.898438 C 733.597656 584.597656 710.882812 566.929688 708.289062 542.4375 C 705.695312 517.960938 724.203125 495.925781 749.628906 493.222656 C 775.054688 490.539062 797.769531 508.207031 800.363281 532.683594"/></g><g><path fill="#3d353b" d="M 646.035156 524.457031 L 622.589844 526.941406 L 621.914062 520.550781 L 645.355469 518.066406 L 646.035156 524.457031"/></g><g><path fill="#3d353b" d="M 647.796875 541.09375 L 624.351562 543.574219 L 623.671875 537.175781 L 647.117188 534.695312 L 647.796875 541.09375"/></g><g><path fill="#3d353b" d="M 649.558594 557.714844 L 626.109375 560.207031 L 625.433594 553.8125 L 648.878906 551.320312 L 649.558594 557.714844"/></g><g><path fill="#3d353b" d="M 651.316406 574.335938 L 627.875 576.820312 L 627.195312 570.433594 L 650.640625 567.945312 L 651.316406 574.335938"/></g><g><path fill="#59565b" d="M 806.933594 553.964844 L 762.175781 558.707031 C 750.21875 559.976562 739.398438 551.226562 738.128906 539.269531 C 736.863281 527.316406 745.609375 516.5 757.566406 515.230469 L 802.328125 510.484375 C 814.285156 509.21875 825.105469 517.96875 826.371094 529.921875 C 827.636719 541.878906 818.890625 552.695312 806.933594 553.964844"/></g><g><path fill="#59565b" d="M 983.515625 582.460938 C 983.515625 582.460938 1071.171875 553.765625 1070.011719 508.59375 C 1068.851562 463.433594 1001.03125 473.851562 1001.03125 473.851562 L 800.132812 495.140625 L 804.847656 534.285156 L 782.335938 532.609375 L 776.914062 481.414062 L 1010.101562 456.714844 L 1070.480469 461.640625 L 1098.710938 505.5625 L 1165.460938 553.476562 L 1178 671.832031 L 1134.570312 697.464844 L 1052.339844 701.324219 L 983.515625 582.460938"/></g><g><path fill="#f89b73" d="M 1158.386719 909.058594 L 1153.527344 905.011719 L 966.261719 750.132812 L 963.1875 747.578125 C 953.113281 739.238281 950.359375 721.625 956.652344 708.042969 L 968.117188 683.367188 C 974.40625 669.785156 988.140625 663.691406 999.121094 670.089844 L 1194.046875 783.8125 C 1212.96875 794.855469 1229.078125 810.378906 1239.816406 829.46875 C 1279.867188 900.648438 1250.207031 1003.917969 1158.386719 909.058594"/></g><g><path fill="#f89b73" d="M 948.515625 736.824219 L 896.660156 692.390625 C 880.542969 678.578125 885.027344 652.574219 904.835938 644.953125 L 955.542969 625.441406 C 973.699219 618.460938 993.277344 631.644531 993.628906 651.105469 L 994.773438 715.039062 C 995.203125 739.214844 966.875 752.550781 948.515625 736.824219"/></g><g><path fill="#f5805d" d="M 861.222656 655.0625 L 916.992188 716.058594 C 924.6875 724.472656 936.148438 725.652344 942.464844 718.691406 C 948.78125 711.714844 947.65625 699.125 939.960938 690.710938 L 884.191406 629.699219 C 876.496094 621.285156 865.035156 620.105469 858.71875 627.082031 C 852.402344 634.054688 853.53125 646.648438 861.222656 655.0625"/></g><g><path fill="#f89b73" d="M 846.484375 645.304688 L 960.519531 657.054688 C 968.496094 657.871094 974.375 651.378906 973.59375 642.621094 C 972.808594 633.867188 965.644531 626.023438 957.667969 625.207031 L 843.632812 613.457031 C 835.664062 612.640625 829.78125 619.136719 830.5625 627.890625 C 831.347656 636.644531 838.511719 644.488281 846.484375 645.304688"/></g><g><path fill="#f89b73" d="M 856.230469 621.945312 L 943.453125 630.929688 C 950.648438 631.671875 955.957031 625.8125 955.25 617.914062 L 954.972656 614.804688 C 954.261719 606.90625 947.800781 599.835938 940.605469 599.089844 L 853.375 590.109375 C 846.183594 589.363281 840.875 595.226562 841.582031 603.121094 L 841.859375 606.230469 C 842.566406 614.144531 849.03125 621.203125 856.230469 621.945312"/></g><g><path fill="#f89b73" d="M 873 603.433594 L 960.226562 612.421875 C 967.421875 613.15625 972.726562 607.304688 972.023438 599.394531 L 971.742188 596.289062 C 971.035156 588.382812 964.570312 581.308594 957.375 580.570312 L 870.152344 571.582031 C 862.953125 570.847656 857.648438 576.703125 858.355469 584.609375 L 858.632812 587.714844 C 859.34375 595.625 865.804688 602.699219 873 603.433594"/></g><g><path fill="#f89b73" d="M 894.296875 635.808594 L 931.082031 590.933594 C 945.207031 573.699219 972.71875 578.398438 980.332031 599.332031 L 1004.179688 664.933594 C 1012.417969 687.625 990.710938 709.765625 967.863281 701.964844 L 907.234375 681.238281 C 888.261719 674.753906 881.585938 651.328125 894.296875 635.808594"/></g><g><path fill="#f5805d" d="M 1153.535156 905.003906 L 966.265625 750.125 C 987.644531 733.816406 1038.863281 753.34375 1086.453125 797.417969 C 1125.503906 833.550781 1150.941406 875.898438 1153.535156 905.003906"/></g><g><path fill="#e1eade" d="M 1206.675781 945.148438 L 1400.460938 982.410156 C 1442.910156 992.316406 1483.652344 988.480469 1524.660156 973.726562 C 1555.726562 962.542969 1555.726562 963.78125 1574.53125 926.480469 C 1579.238281 879.527344 1547.949219 776.632812 1504.203125 774.613281 L 1226.558594 809.753906 C 1257.605469 849.511719 1232.765625 916.585938 1206.675781 945.148438"/></g><g><path fill="#242d32" d="M 1251.910156 575.441406 C 1244.429688 576.730469 1224.242188 579.515625 1210.679688 574.804688 C 1209.859375 574.515625 1209.289062 575.652344 1210.019531 576.136719 C 1227.621094 587.976562 1268.609375 588.574219 1257.941406 577.453125 C 1256.390625 575.832031 1254.121094 575.054688 1251.910156 575.441406"/></g></g></svg>