<?xml version="1.0" encoding="UTF-8" standalone="no"?><svg xmlns="http://www.w3.org/2000/svg" xmlns:xlink="http://www.w3.org/1999/xlink" contentScriptType="text/ecmascript" fill="#000000" width="500.7" zoomAndPan="magnify" contentStyleType="text/css" viewBox="0.0 -0.1 500.7 386.5" height="386.5" preserveAspectRatio="xMidYMid meet" version="1"><g id="change1_1"><path fill="#332a25" d="M500,112.2l0.7,274.2H0.7L0,112.2c0-28.5,23.1-51.7,51.7-51.7h15.7V29.5h80.2v30.9h97.2l6.5-39.5 c2-12.1,12.4-21,24.7-21h79.2c12.3,0,22.7,8.9,24.7,21l6.5,39.5h62C476.9,60.5,500,83.6,500,112.2z"/></g><g id="change2_1"><path fill="#a24a38" d="M98.2,184.6v201.8H0.6V184.6c0-27,21.9-48.8,48.8-48.8h0C76.4,135.8,98.2,157.7,98.2,184.6z M140.8,58 c-4.8-0.3-9.7-0.5-14.6-0.6c0.5-0.3,0.8-1.2,0.8-2.3c0.2-3.4,0.2-6.9,0.5-10.3c0.3-4.2,0.8-8.6-0.9-12.5c-0.2-0.4-0.5-0.9-1-0.9 c-0.3,0-0.5,0.2-0.7,0.4c-1.1,1.2-1.3,2.9-1.5,4.5c-0.4,3.7-0.5,7.4-0.5,11.1c0,2.5-0.6,6.8,1,8.9c0.4,0.6,0.8,0.9,1.1,1.1 c-3.8-0.1-7.5-0.1-11.3-0.1c0.1-2.1-0.1-4.7-0.1-5.5c0.1-3.7,0.1-7.4,0-11.1c-0.1-2.5-0.3-5.1-1.4-7.4c-0.3-0.6-0.7-1.3-1.4-1.3 c-1.1-0.1-1.5,1.4-1.5,2.5c0,6.8,0.2,13.7,0.9,20.6c0,0.4,0.2,1.3,0.4,2.2c-4,0-8.1,0.1-12,0.1c0.1-0.5,0.1-1,0-1.5 c-0.1-4-0.3-8-0.5-12c-0.1-2.9-0.2-5.9-0.7-8.8c-0.2-1.5-0.6-3-1.5-4.1c-1.7,0.8-1.9,3.1-1.9,4.9c0,4.1,0,8.2,0.2,12.3 c0.1,2.5-0.5,6.8,0.9,9.3c-1.7,0-3.4,0.1-5,0.1c-3.4,0.1-6.1,0-8.2,0c-0.2-3.5-0.7-7.1-0.7-10.7c0.1-4,0.2-8-0.4-11.9 c-0.1-0.8-0.6-1.8-1.3-1.5c-0.2,0.1-0.4,0.3-0.5,0.5c-2,3.2-1.8,7.3-1.6,11.1c0.2,4,0.3,8.4,1.3,12.3c0,0,0,0.1,0,0.1 c-4.3-0.1-4.9,0.2-4.3,2.2c6.1,6.4,22.2,1.5,30.8,1.9c13,0.7,26.1,0.4,39.1-0.9C145,59,142.6,58.1,140.8,58z M305,59.3 c12.9,0.3,25.8,1,38.6,2.2c3.3,0.3,6.7,0.6,9.7-0.8c-0.3-1.5-2.2-1.9-3.6-2c-7.7-0.7-70.9-9.6-72.9-3.2 C274.9,61.2,301.6,59.3,305,59.3z M137.9,54.2c1.1-1.6,0.4-6.8,0.5-8.7c0.1-3.1,0.2-6.1,0.2-9.2c0-0.7,0-1.5-0.1-2.2 c-0.1-1.4-2.2-1.6-2.6-0.2c-1,3.5-1.1,7.2-1.1,10.9c0,2.2-0.8,7,0.2,9C135.5,55.1,137.1,55.5,137.9,54.2z M405,305.6l8.8,9.9 l-31.5,34l-10.9-12.1c-20.2,13.5-44.2,21.4-69.8,21.4c-72.4,0-138.1-60.8-138.1-133.2S233.8,92.5,306.2,92.5s126.4,58.7,126.4,131 C432.6,253.9,422.3,282.5,405,305.6z M368.4,322.7c52.6-38.2,72.4-113.8,34.2-166.4c-38.2-52.6-120.8-69.4-173.4-31.2 c-52.6,38.2-66.7,121.3-28.4,173.9S315.9,360.9,368.4,322.7z M369.1,279.6c-27.5,36.3-80.9,45.5-117.1,18 c-36.3-27.5-46.1-83-18.5-119.3s85.9-40,122.2-12.5C391.8,193.4,396.6,243.4,369.1,279.6z M374,256c10.9-37.4-11.3-82.6-48.7-93.6 c-37.4-10.9-81.9,12.8-92.8,50.2c-10.9,37.4,12.7,77.2,50.1,88.1C320,311.6,363.1,293.3,374,256z"/></g><g id="change3_1"><path fill="#f4b54e" d="M351.2,39.6h-64.1V11.2l64.1,3.8V39.6z M337.4,206.3c2.5,1.9,5.6,3.3,8.8,3.2c3.2-0.2,6.4-2.3,7-5.5 c0.3-1.7-0.2-3.5-0.8-5.1c-2.3-5.8-14.9-21.2-23-16.4C321.7,187,332.9,202.9,337.4,206.3z"/></g></svg>