<?xml version="1.0" encoding="UTF-8" standalone="no"?><svg xmlns="http://www.w3.org/2000/svg" xmlns:xlink="http://www.w3.org/1999/xlink" contentScriptType="text/ecmascript" fill="#000000" width="460.6" zoomAndPan="magnify" contentStyleType="text/css" viewBox="-1.6 -7.8 460.6 413.4" height="413.4" preserveAspectRatio="xMidYMid meet" version="1"><g id="change1_1"><path fill="#383936" d="M453.988,62.457l-7.093,0.558c-0.052-0.221-0.166-0.43-0.362-0.577c-0.441-0.331-1.066-0.242-1.398,0.2 c-0.042,0.056-0.177,0.239-0.383,0.545l-30.602,2.407l-19.032,1.498l-4.663,0.365c-2.388,0.187-4.22,2.109-4.22,4.404v6.164h-41.721 c-0.595,0-1.158,0.128-1.671,0.353h-0.01c-0.541,0.99-1.089,2.037-1.632,3.1h-29.239V71.182c1.196-1.586,2.23-3.287,2.68-5.199 c0.566-2.407,0.052-5.221-1.897-7.024c-3.407-3.152-6.645-1.313-8.345,1.466c-0.206-0.155-0.467-0.241-0.728-0.231 c0.203-1.251,0.271-2.51,0.109-3.767c-0.392-3.03-2.31-6.074-5.547-7.336c-3.481-1.357-6.018-0.547-7.657,1.192 c-0.468-0.527-1.365-0.631-1.615,0.213c-0.005,0.018-0.01,0.037-0.015,0.055c-0.949-1.503-2.328-2.771-4.135-3.476 c-6.032-2.352-9.247,1.788-9.821,6.03c-0.67,4.953-1.383,9.903-2.102,14.852h-3.988c-1.474,0-2.884,0.267-4.205,0.738 c-0.681-1.335-1.372-2.664-2.031-3.994c-0.72-1.453-1.489-2.973-2.912-3.855c-1.346-0.833-2.895-0.906-4.261-0.098 c-0.293,0.174-0.427,0.413-0.451,0.662c-2.039,0.362-3.948,1.173-5.289,2.644c-2.437,2.673-3.443,6.58-2.601,10.098 c0.3,1.253,1.22,2.589,2.505,3.85c-0.014,0.275,0.084,0.559,0.353,0.788c1.646,1.402,3.34,2.795,5.233,3.821 c-0.215,0.183-0.358,0.447-0.358,0.751c0,0.552,0.447,1,1,1v49.473c-0.024-0.047-0.048-0.095-0.075-0.122 c-0.899-0.924-3.117,0.947-6.401,5.454c-0.386-0.563-1.411-0.714-1.828,0.104c-0.76,1.492-1.362,3.048-1.841,4.637l-58.956-1.277 c-0.89-0.531-1.78-1.062-2.669-1.594c-0.727-0.434-1.327,0.202-1.36,0.885l-0.266-0.146v-6.471l9.219,3.205 c0.108,0.038,0.219,0.056,0.328,0.056c0.395,0,0.766-0.235,0.924-0.619l4.35-10.55c0.211-0.511-0.033-1.095-0.543-1.306 c-0.002-0.001-0.004,0-0.006-0.001c6.09-15.056,16.17-40.961,18.458-52.904c0.062-0.324,0.115-0.646,0.171-0.969 c0.381,0.107,0.806,0,1.074-0.328c0.339-0.416,0.307-1.108-0.135-1.446c-0.197-0.15-0.394-0.301-0.591-0.451 c0.645-4.78,0.681-9.36,0.412-13.439c6.363-6.243,23.184-26.676-9.838-42.481c-39.454-18.883-88.911-21.909-96.138,10.652 c-0.111,0.5-0.217,1.007-0.318,1.518c-0.388-0.517-1.291-0.57-1.679,0.005c-5.905-3.128-13.2-4.779-18.616-4.475 c-10.045,0.564-19.613,6.608-24.438,15.436c-3.538,6.474-4.77,14.391-10.024,19.569c-5.005,4.933-12.435,6.182-18.991,8.713 c-10.213,3.943-19.468,12.512-20.688,23.392c-0.576,5.142,1.697,10.849,0.971,15.715c-0.819,5.489-7.198,9.555-10.44,13.628 c-7.13,8.956-7.573,22.097-2.816,32.51c9.868,21.603,39.011,30.685,58.72,16.223c9.558-7.013,8.541-14.658,9.848-24.833 c1.264-9.838,12.78-9.115,16.298-16.844c2.196-4.825-1.077-10.835,1.107-15.666c3.65-8.073,17.474-4.728,22.872-11.753 c1.262-1.642,1.85-3.624,2.003-5.695c3.165,12.28,7.099,21.141,10.46,22.303l-1.871,5.434l-6.415-3.426l-10.586,27.235l5.134,1.28 l-15.08,42.577c-0.409-0.085-0.842,0.057-1.029,0.579c-6.188,17.249-12.377,34.499-18.565,51.748 c-0.223,0.621,0.135,1.141,0.602,1.348C84.16,265,91.689,288.756,99.218,312.511c-0.178,0.095-0.335,0.247-0.422,0.51 c-6.675,20.154-13.351,40.309-20.026,60.463c-0.181,0.547,0.084,1.002,0.464,1.25l-5.297,15.548c0,0,58.394,15.252,103.619,8.715 c45.225-6.536,57.118-24.702,57.118-24.702l-3.959-46.006c0.626,0.21,1.482-0.187,1.404-1.053l-0.237-2.624 c10.908-11.104,21.981-41.654,30.835-71.776c0.223-0.132,0.408-0.343,0.491-0.649c4.332-15.852,8.664-31.705,12.996-47.557 l38.486-5.965c7.021-1.088,11.875-7.601,10.912-14.639l-3.22-23.534c4.795-6.182,3.828-14.724,2.398-21.977 c-0.175-0.889-1.181-1.042-1.714-0.638c-0.481-1.062-1.117-2.036-2.001-2.788c-1.595-1.357-6.469-2.044-7.121,0.803 c-0.037,0.161-0.04,0.325-0.028,0.487c-0.631-0.164-1.283-0.276-1.955-0.317v-3.895H334.1c0.444,0.599,0.769,0.918,0.815,0.96 c0.288,0.271,0.654,0.404,1.02,0.404c0.396,0,0.791-0.156,1.087-0.465c0.242-0.254,0.355-0.574,0.384-0.899h3.131 c0.637,1.642,2.171,2.798,3.977,2.798h37.67c0.428,0.645,0.74,0.988,0.784,1.035c0.294,0.31,0.688,0.466,1.082,0.466 c0.366,0,0.734-0.135,1.024-0.405c0.316-0.294,0.466-0.694,0.466-1.096h0.694v6.16c0,2.306,1.831,4.217,4.22,4.404l4.663,0.365 l19.032,1.498l30.578,2.413c0.23,0.322,0.383,0.516,0.428,0.572c0.197,0.244,0.486,0.371,0.777,0.371 c0.221,0,0.442-0.072,0.627-0.222c0.179-0.145,0.28-0.342,0.329-0.55l7.098,0.56c2.681,0.207,4.975-1.823,4.975-4.404V66.861 C458.962,64.28,456.668,62.24,453.988,62.457z M228.212,218.918c-1.206,2.365-2.434,4.719-3.679,7.063 c0.357-1.188,0.722-2.507,1.066-3.926c0.074-0.087,0.144-0.184,0.191-0.315c1.121-3.131,1.766-6.357,2.015-9.609l4.102-0.636 C230.694,213.978,229.468,216.455,228.212,218.918z M318.336,143.872c-0.136,1.701-0.557,3.481-1.449,4.944 C317.69,147.467,318.18,145.713,318.336,143.872z M316.815,148.935c-0.087,0.138-0.175,0.274-0.272,0.405 C316.637,149.209,316.728,149.075,316.815,148.935z M318.364,143.411c0.007-0.12,0.017-0.239,0.021-0.359c0,0.006,0,0.013,0,0.019 C318.38,143.184,318.37,143.299,318.364,143.411z M318.384,143.041c0.04-1.337-0.094-2.692-0.408-3.945 c0.001,0.001,0.001,0.002,0.002,0.003C318.463,140.218,318.423,141.84,318.384,143.041z"/></g><g fill="#fec782" id="change2_1"><path fill="inherit" d="M317.581,138.486c-0.583-0.555-1.363-0.146-2.423-0.48c-0.852-0.268-1.411-1.245-1.212-2.115 c0.651-2.848,5.526-2.16,7.121-0.803c0.884,0.752,1.519,1.726,2.001,2.788c-0.241,0.183-0.395,0.468-0.315,0.871 c1.427,7.239,2.647,16.17-3.211,21.888c-5.445,5.316-13.92,2.078-20.32,5.183c-1.173,0.569-0.469,2.494,0.724,1.915 c3.666-1.779,7.777-1.441,11.726-1.816c2.302-0.219,4.484-0.752,6.433-1.78c0.47,2.756-0.486,5.461-2.927,7.031 c-2.922,1.878-6.628,1.687-9.948,1.527c-0.482-0.023-0.911,0.218-1.086,0.656c-3.053,0.21-6.082,0.533-9.272,1.349 c2.304-3.855,2.98-8.501,1.853-12.886c-0.139-0.54-0.839-0.765-1.316-0.586c-0.565,0.213-0.729,0.796-0.592,1.329 c1.073,4.176,0.133,8.782-2.432,12.235c-0.173,0.233-0.217,0.476-0.195,0.705c-1.119,0.38-2.262,0.825-3.438,1.36 c-8.835,4.017-7.867,3.775-7.867,3.775s-1.042,4.993-2.899,13.128c-0.469-0.013-0.97,0.227-1.126,0.799 c-5.222,19.11-10.444,38.219-15.666,57.329c-0.264,0.965,0.829,1.36,1.526,0.948c-8.854,30.122-19.927,60.672-30.835,71.776 l-3.788-41.929c-0.07-0.78-0.804-1.003-1.371-0.794l-4.143-48.153c0.083-0.077,0.159-0.166,0.222-0.279 c8.734-15.863,16.587-32.206,23.494-48.946c1.969-4.772,3.858-9.577,5.675-14.409c0.233-0.314,0.297-0.739-0.008-1.143 c-6.2-8.222-7.192-19.689-2.519-28.86c0.183-0.36,0.136-0.685-0.033-0.932c3.284-4.507,5.502-6.378,6.401-5.454 c0.027,0.027,0.051,0.075,0.075,0.122c0.97,1.888-0.009,19.116,9.253,21.343c0.506,0.122,1.035,0.211,1.604,0.238 c0.624,0.03,1.249,0.067,1.873,0.107c4.783,0.309,9.562,0.87,14.36,0.723c9.343-0.287,18.232,1.109,27.293-2.637 c2.133-0.882,4.234-1.985,5.802-3.68c1.663-1.796,2.237-4.482,2.314-6.855c0.039-1.204,0.083-2.845-0.406-3.973 C317.857,138.819,317.725,138.623,317.581,138.486z M122.571,119.904l1.871-5.434l7.965-23.136c0,0-10.381-8.637-5.638-17.772 s14.945-2.016,14.945-2.016l-2.319,18.669l14.874-17.432c0,0,20.336-1.093,34.619-18.039c14.283-16.946,23.667-16.141,24.298-14.66 c0,0,2.33,6.832,2.964,16.47c0.268,4.079,0.233,8.659-0.412,13.439c-2.132-1.628-4.264-3.255-6.396-4.883 c-0.44-0.336-1.079-0.292-1.437,0.147c-0.339,0.415-0.307,1.108,0.135,1.445c2.329,1.778,4.658,3.556,6.986,5.334 c0.111,0.085,0.234,0.145,0.363,0.181c-0.056,0.323-0.109,0.645-0.171,0.969c-2.288,11.942-12.368,37.848-18.458,52.904 c-0.51-0.207-1.09,0.036-1.299,0.544l-3.99,9.676l-40.077-13.931l-7.441-13.82c-0.262-0.487-0.869-0.667-1.354-0.406 c-0.486,0.262-0.668,0.868-0.406,1.354l7.626,14.163c0.119,0.22,0.315,0.388,0.552,0.47l32.118,11.165v6.471v6.58 c0,0,23.938,25.165,21.256,24.528c-1.097-0.26-15.295-7.993-31.687-17.039c-0.401-3.36-0.801-6.72-1.201-10.08 c-0.091-0.761-0.805-0.988-1.364-0.801L122.571,119.904z M186.489,78.332c-1.339,0-2.425,1.086-2.425,2.425 s1.086,2.425,2.425,2.425s2.425-1.086,2.425-2.425S187.828,78.332,186.489,78.332z M193.532,116.121 c-3.975,0.633-8.02-0.753-10.81-3.644c-0.385-0.399-1.117-0.246-1.437,0.147c-0.382,0.468-0.252,1.045,0.135,1.445 c3.135,3.249,7.877,4.802,12.329,4.093C195.037,117.957,194.84,115.913,193.532,116.121z M204.974,96.161 c0.21-7.582,0.42-15.164,0.63-22.746c0.036-1.305-1.981-1.619-2.017-0.299l-0.531,19.168c-0.079,2.87,0.114,5.901-0.325,8.742 c-0.585,3.784-4.248,2.709-6.754,1.562c-1.194-0.546-2.032,1.333-0.837,1.88c2.5,1.144,5.726,2.245,8.056,0.115 C205.394,102.574,204.9,98.827,204.974,96.161z M206.397,84.958c0,1.339,1.086,2.425,2.425,2.425s2.425-1.086,2.425-2.425 s-1.086-2.425-2.425-2.425S206.397,83.619,206.397,84.958z M176.45,73.251c3.646-5.067,9.78-8.169,16.046-7.927 c1.294,0.05,1.629-1.982,0.312-2.033c-6.969-0.269-13.841,2.979-17.93,8.662C174.11,73.019,175.675,74.328,176.45,73.251z M273.503,80.072c1.607,1.086,4.051,0.788,5.712-0.236c1.661-1.024,2.707-2.613,3.641-4.174c0.768-1.285,1.481-2.594,2.168-3.913 c0.568-7.177,1.878-14.264,3.922-21.198c-0.949-1.503-2.328-2.771-4.135-3.476c-6.032-2.352-9.247,1.788-9.821,6.03 c-0.67,4.953-1.383,9.903-2.102,14.852c-0.299,2.061-0.598,4.122-0.898,6.183C271.684,76.245,271.559,78.758,273.503,80.072z M290.823,51.324c-2.596,8.786-3.974,17.929-4.089,27.089c-0.01,0.81-0.799,1.212-1.39,1.084c0.183,1.023,0.634,1.95,1.581,2.589 c0.16,0.108,0.333,0.192,0.508,0.273c1.396,0.649,3.209,0.472,4.646-0.213c0.192-0.092,0.382-0.188,0.558-0.297 c0.92-0.568,1.648-1.311,2.276-2.124c-0.049-0.802,0.025-1.614,0.216-2.368c0.73-2.89,2.374-5.599,3.664-8.268 c1.341-2.774,2.681-5.548,4.022-8.322c0.19-0.393,0.52-0.563,0.856-0.575c0.203-1.251,0.271-2.51,0.109-3.767 c-0.392-3.03-2.31-6.074-5.547-7.336c-3.481-1.357-6.018-0.547-7.657,1.192C290.811,50.546,290.946,50.908,290.823,51.324z M304.676,61.598c-2.042,4.224-4.084,8.447-6.125,12.672c-0.906,1.877-2.044,4.012-1.487,6.158 c0.222,0.855,0.983,1.772,1.848,2.087c0.245-0.016,0.489-0.045,0.722-0.1c0.424-0.1,0.819-0.259,1.2-0.443 c0.126-0.11,0.262-0.183,0.401-0.22c0.774-0.437,1.483-0.99,2.149-1.563c2.775-2.385,5.328-4.995,7.624-7.795 c0.325-0.396,0.643-0.801,0.953-1.212c1.196-1.586,2.23-3.287,2.68-5.199c0.566-2.407,0.052-5.221-1.897-7.024 c-3.407-3.152-6.645-1.313-8.345,1.466C304.732,60.676,304.915,61.104,304.676,61.598z M251.311,77.197 c2.409,2.052,4.979,4.281,8.211,4.803c2.641,0.426,6.07-0.745,6.472-3.774c0.219-1.647-0.555-3.243-1.252-4.686 c-0.77-1.597-1.566-3.182-2.349-4.772c-0.708-1.439-1.36-2.928-2.151-4.324c-0.641-1.132-2.057-2.926-3.567-2.033 c-0.839,0.496-1.704-0.289-1.635-1.002c-2.039,0.362-3.948,1.173-5.289,2.644c-2.437,2.673-3.443,6.58-2.601,10.098 c0.3,1.253,1.22,2.589,2.505,3.85C249.694,77.256,250.578,76.572,251.311,77.197z"/><path fill="inherit" d="M317.581,138.486c-0.583-0.555-1.363-0.146-2.423-0.48c-0.852-0.268-1.411-1.245-1.212-2.115 c0.651-2.848,5.526-2.16,7.121-0.803c0.884,0.752,1.519,1.726,2.001,2.788c-0.241,0.183-0.395,0.468-0.315,0.871 c1.427,7.239,2.647,16.17-3.211,21.888c-5.445,5.316-13.92,2.078-20.32,5.183c-1.173,0.569-0.469,2.494,0.724,1.915 c3.666-1.779,7.777-1.441,11.726-1.816c2.302-0.219,4.484-0.752,6.433-1.78c0.47,2.756-0.486,5.461-2.927,7.031 c-2.922,1.878-6.628,1.687-9.948,1.527c-0.482-0.023-0.911,0.218-1.086,0.656c-3.053,0.21-6.082,0.533-9.272,1.349 c2.304-3.855,2.98-8.501,1.853-12.886c-0.139-0.54-0.839-0.765-1.316-0.586c-0.565,0.213-0.729,0.796-0.592,1.329 c1.073,4.176,0.133,8.782-2.432,12.235c-0.173,0.233-0.217,0.476-0.195,0.705c-1.119,0.38-2.262,0.825-3.438,1.36 c-8.835,4.017-7.867,3.775-7.867,3.775s-1.042,4.993-2.899,13.128c-0.469-0.013-0.97,0.227-1.126,0.799 c-5.222,19.11-10.444,38.219-15.666,57.329c-0.264,0.965,0.829,1.36,1.526,0.948c-8.854,30.122-19.927,60.672-30.835,71.776 l-3.788-41.929c-0.07-0.78-0.804-1.003-1.371-0.794l-4.143-48.153c0.083-0.077,0.159-0.166,0.222-0.279 c8.734-15.863,16.587-32.206,23.494-48.946c1.969-4.772,3.858-9.577,5.675-14.409c0.233-0.314,0.297-0.739-0.008-1.143 c-6.2-8.222-7.192-19.689-2.519-28.86c0.183-0.36,0.136-0.685-0.033-0.932c3.284-4.507,5.502-6.378,6.401-5.454 c0.027,0.027,0.051,0.075,0.075,0.122c0.97,1.888-0.009,19.116,9.253,21.343c0.506,0.122,1.035,0.211,1.604,0.238 c0.624,0.03,1.249,0.067,1.873,0.107c4.783,0.309,9.562,0.87,14.36,0.723c9.343-0.287,18.232,1.109,27.293-2.637 c2.133-0.882,4.234-1.985,5.802-3.68c1.663-1.796,2.237-4.482,2.314-6.855c0.039-1.204,0.083-2.845-0.406-3.973 C317.857,138.819,317.725,138.623,317.581,138.486z M122.571,119.904l1.871-5.434l7.965-23.136c0,0-10.381-8.637-5.638-17.772 s14.945-2.016,14.945-2.016l-2.319,18.669l14.874-17.432c0,0,20.336-1.093,34.619-18.039c14.283-16.946,23.667-16.141,24.298-14.66 c0,0,2.33,6.832,2.964,16.47c0.268,4.079,0.233,8.659-0.412,13.439c-2.132-1.628-4.264-3.255-6.396-4.883 c-0.44-0.336-1.079-0.292-1.437,0.147c-0.339,0.415-0.307,1.108,0.135,1.445c2.329,1.778,4.658,3.556,6.986,5.334 c0.111,0.085,0.234,0.145,0.363,0.181c-0.056,0.323-0.109,0.645-0.171,0.969c-2.288,11.942-12.368,37.848-18.458,52.904 c-0.51-0.207-1.09,0.036-1.299,0.544l-3.99,9.676l-40.077-13.931l-7.441-13.82c-0.262-0.487-0.869-0.667-1.354-0.406 c-0.486,0.262-0.668,0.868-0.406,1.354l7.626,14.163c0.119,0.22,0.315,0.388,0.552,0.47l32.118,11.165v6.471v6.58 c0,0,23.938,25.165,21.256,24.528c-1.097-0.26-15.295-7.993-31.687-17.039c-0.401-3.36-0.801-6.72-1.201-10.08 c-0.091-0.761-0.805-0.988-1.364-0.801L122.571,119.904z M186.489,78.332c-1.339,0-2.425,1.086-2.425,2.425 s1.086,2.425,2.425,2.425s2.425-1.086,2.425-2.425S187.828,78.332,186.489,78.332z M193.532,116.121 c-3.975,0.633-8.02-0.753-10.81-3.644c-0.385-0.399-1.117-0.246-1.437,0.147c-0.382,0.468-0.252,1.045,0.135,1.445 c3.135,3.249,7.877,4.802,12.329,4.093C195.037,117.957,194.84,115.913,193.532,116.121z M204.974,96.161 c0.21-7.582,0.42-15.164,0.63-22.746c0.036-1.305-1.981-1.619-2.017-0.299l-0.531,19.168c-0.079,2.87,0.114,5.901-0.325,8.742 c-0.585,3.784-4.248,2.709-6.754,1.562c-1.194-0.546-2.032,1.333-0.837,1.88c2.5,1.144,5.726,2.245,8.056,0.115 C205.394,102.574,204.9,98.827,204.974,96.161z M206.397,84.958c0,1.339,1.086,2.425,2.425,2.425s2.425-1.086,2.425-2.425 s-1.086-2.425-2.425-2.425S206.397,83.619,206.397,84.958z M176.45,73.251c3.646-5.067,9.78-8.169,16.046-7.927 c1.294,0.05,1.629-1.982,0.312-2.033c-6.969-0.269-13.841,2.979-17.93,8.662C174.11,73.019,175.675,74.328,176.45,73.251z M273.503,80.072c1.607,1.086,4.051,0.788,5.712-0.236c1.661-1.024,2.707-2.613,3.641-4.174c0.768-1.285,1.481-2.594,2.168-3.913 c0.568-7.177,1.878-14.264,3.922-21.198c-0.949-1.503-2.328-2.771-4.135-3.476c-6.032-2.352-9.247,1.788-9.821,6.03 c-0.67,4.953-1.383,9.903-2.102,14.852c-0.299,2.061-0.598,4.122-0.898,6.183C271.684,76.245,271.559,78.758,273.503,80.072z M290.823,51.324c-2.596,8.786-3.974,17.929-4.089,27.089c-0.01,0.81-0.799,1.212-1.39,1.084c0.183,1.023,0.634,1.95,1.581,2.589 c0.16,0.108,0.333,0.192,0.508,0.273c1.396,0.649,3.209,0.472,4.646-0.213c0.192-0.092,0.382-0.188,0.558-0.297 c0.92-0.568,1.648-1.311,2.276-2.124c-0.049-0.802,0.025-1.614,0.216-2.368c0.73-2.89,2.374-5.599,3.664-8.268 c1.341-2.774,2.681-5.548,4.022-8.322c0.19-0.393,0.52-0.563,0.856-0.575c0.203-1.251,0.271-2.51,0.109-3.767 c-0.392-3.03-2.31-6.074-5.547-7.336c-3.481-1.357-6.018-0.547-7.657,1.192C290.811,50.546,290.946,50.908,290.823,51.324z M304.676,61.598c-2.042,4.224-4.084,8.447-6.125,12.672c-0.906,1.877-2.044,4.012-1.487,6.158 c0.222,0.855,0.983,1.772,1.848,2.087c0.245-0.016,0.489-0.045,0.722-0.1c0.424-0.1,0.819-0.259,1.2-0.443 c0.126-0.11,0.262-0.183,0.401-0.22c0.774-0.437,1.483-0.99,2.149-1.563c2.775-2.385,5.328-4.995,7.624-7.795 c0.325-0.396,0.643-0.801,0.953-1.212c1.196-1.586,2.23-3.287,2.68-5.199c0.566-2.407,0.052-5.221-1.897-7.024 c-3.407-3.152-6.645-1.313-8.345,1.466C304.732,60.676,304.915,61.104,304.676,61.598z M251.311,77.197 c2.409,2.052,4.979,4.281,8.211,4.803c2.641,0.426,6.07-0.745,6.472-3.774c0.219-1.647-0.555-3.243-1.252-4.686 c-0.77-1.597-1.566-3.182-2.349-4.772c-0.708-1.439-1.36-2.928-2.151-4.324c-0.641-1.132-2.057-2.926-3.567-2.033 c-0.839,0.496-1.704-0.289-1.635-1.002c-2.039,0.362-3.948,1.173-5.289,2.644c-2.437,2.673-3.443,6.58-2.601,10.098 c0.3,1.253,1.22,2.589,2.505,3.85C249.694,77.256,250.578,76.572,251.311,77.197z"/></g><g id="change3_1"><path fill="#93261e" d="M200.076,150.565c-4.431-2.645-8.861-5.29-13.292-7.935l58.956,1.277c-2.604,8.64-1.097,18.39,4.215,25.764 c-5.359,14.215-11.383,28.174-18.048,41.824l-4.102,0.636c0.506-6.608-0.651-13.325-2.968-19.588 c-3.612-9.762-9.993-18.141-17.067-25.657c-3.025-3.214-6.195-6.286-9.402-9.318c0.009-0.016,0.023-0.026,0.032-0.043 c0.871-1.682,1.743-3.364,2.614-5.047c0.238-0.458-0.005-1.103-0.467-1.323C200.474,150.926,200.326,150.714,200.076,150.565z M319.925,162.951c0.86,3.618-0.072,7.406-3.215,9.645c-3.436,2.447-7.775,2.326-11.795,2.132c-0.553-0.027-0.935-0.663-0.852-1.166 c0.013-0.08,0.051-0.141,0.079-0.211c-3.053,0.21-6.082,0.533-9.272,1.349c-0.284,0.474-0.582,0.942-0.915,1.391 c-0.617,0.83-1.69,0.217-1.767-0.594c-1.119,0.38-2.262,0.825-3.438,1.36c-8.835,4.017-7.867,3.775-7.867,3.775 s-1.042,4.993-2.899,13.128c0.564,0.016,1.081,0.403,0.891,1.098c-0.89,3.257-1.78,6.514-2.67,9.771l38.486-5.965 c7.021-1.088,11.875-7.601,10.912-14.639l-3.22-23.534c-0.302,0.39-0.624,0.772-0.974,1.142 C320.941,162.127,320.44,162.554,319.925,162.951z M286.005,142.486h-4.249v6.074h4.249V142.486z M336.979,130.949 c-0.13-0.126-3.179-3.182-3.179-10.454V84.491c0-0.829-0.672-1.5-1.5-1.5s-1.5,0.671-1.5,1.5v19.993h-25.858 c-0.828,0-1.5,0.671-1.5,1.5s0.672,1.5,1.5,1.5h25.858v5.199h-22.067c-0.828,0-1.5,0.671-1.5,1.5s0.672,1.5,1.5,1.5h22.067v4.813 c0,6.326,2.098,10.052,3.299,11.671c0.444,0.599,0.769,0.918,0.815,0.96c0.288,0.271,0.654,0.404,1.02,0.404 c0.396,0,0.791-0.156,1.087-0.465c0.242-0.254,0.355-0.574,0.384-0.899C337.446,131.729,337.317,131.279,336.979,130.949z M381.916,122.006v-40.45c0-0.829-0.672-1.5-1.5-1.5s-1.5,0.671-1.5,1.5v22.497h-22.982c-0.828,0-1.5,0.671-1.5,1.5 s0.672,1.5,1.5,1.5h22.982v5.63h-20.161c-0.828,0-1.5,0.671-1.5,1.5s0.672,1.5,1.5,1.5h20.161v6.323 c0,7.047,2.089,11.182,3.268,12.959c0.428,0.645,0.74,0.988,0.784,1.035c0.294,0.31,0.688,0.466,1.082,0.466 c0.366,0,0.734-0.135,1.024-0.405c0.316-0.294,0.466-0.694,0.466-1.096c0-0.364-0.122-0.73-0.386-1.019 C385.123,133.91,381.916,130.311,381.916,122.006z M449.784,125.9c-3.036-16.128-2.462-32.887,1.667-48.747 c0.319-1.225-1.554-1.493-1.868-0.285c-1.206,4.63-2.123,9.337-2.723,14.095c-2.087,16.544-0.476,33.513,4.678,49.307 c0.393,1.203,2.141,0.457,1.75-0.738C451.833,135.073,450.654,130.524,449.784,125.9z M230.46,328.159 c0.078,0.057,0.164,0.099,0.255,0.13l3.959,46.006c0,0-11.893,18.166-57.118,24.702c-45.225,6.536-103.619-8.715-103.619-8.715 l5.297-15.548c0.485,0.315,1.163,0.284,1.397-0.421c6.502-19.633,13.005-39.265,19.507-58.898c0.238,0.75,0.475,1.499,0.713,2.249 c2.303,7.267,4.606,14.534,6.909,21.801c0.401,1.264,2.303,0.504,1.908-0.743l-24.454-77.16c-2.303-7.267-4.606-14.534-6.909-21.801 c-0.01-0.031-0.03-0.046-0.041-0.074c6.064-16.903,12.128-33.806,18.192-50.708c0.258-0.719-0.264-1.289-0.832-1.408l15.08-42.577 l-5.134-1.28l10.586-27.235l6.415,3.426l46.921,25.06c-0.406,0.136-0.731,0.483-0.666,1.035c0.652,5.475,1.305,10.95,1.958,16.424 c-16.51-6.211-33.02-12.422-49.531-18.633c-1.223-0.46-2.068,1.417-0.837,1.88c16.88,6.35,33.761,12.701,50.641,19.052 c0.006,0.051,0.012,0.102,0.018,0.152c0.157,1.315,2.186,1.077,2.029-0.233c-0.349-2.931-0.699-5.863-1.048-8.794 c16.393,9.046,30.59,16.778,31.687,17.039c2.682,0.636-21.256-24.528-21.256-24.528v-6.58l0.266,0.146 c-0.018,0.373,0.13,0.76,0.523,0.995c5.194,3.1,10.388,6.201,15.581,9.302c-0.675,1.302-1.349,2.604-2.024,3.907 c-0.673-0.632-1.345-1.265-2.019-1.896c-0.963-0.901-2.255,0.701-1.302,1.593c14.255,13.343,29.863,28.27,32.153,48.771 c0.615,5.502,0.133,11.091-1.737,16.318c-0.396,1.107,1.041,1.883,1.67,1.144c-0.345,1.419-0.71,2.738-1.066,3.926 c-1.021,1.923-2.06,3.836-3.106,5.746c-22.087-7.342-43.769-15.892-64.909-25.632c-6.006-2.767-11.966-5.63-17.882-8.584 c-1.175-0.586-2.01,1.294-0.837,1.88c20.963,10.463,42.5,19.766,64.498,27.831c0.295,0.108,0.593,0.21,0.888,0.318 c-0.024,0.069-0.06,0.125-0.07,0.206c-2.211,17.2-4.422,34.4-6.632,51.6c-0.168,1.311,1.848,1.613,2.017,0.299 c2.203-17.139,4.406-34.279,6.609-51.418c5.283,1.908,10.586,3.759,15.917,5.527c0.049,0.016,0.093,0.008,0.142,0.017 c0.387,0.295,1,0.345,1.412-0.036l4.143,48.153c-0.392,0.145-0.707,0.49-0.659,1.027c1.336,14.791,2.673,29.583,4.01,44.374 c-0.064-0.039-0.114-0.088-0.195-0.116c-23.553-8.075-46.799-17.039-69.669-26.884c-6.458-2.78-12.885-5.632-19.282-8.549 c-1.194-0.545-2.033,1.335-0.837,1.88c22.654,10.331,45.697,19.806,69.072,28.382c6.601,2.422,13.228,4.77,19.879,7.051 C229.773,329.304,230.356,328.744,230.46,328.159z M203.267,174.572c8.555,11.938,13.018,26.479,12.7,41.158 c-0.029,1.321,2.001,1.067,2.029-0.233c0.326-15.005-4.328-29.934-13.067-42.13C204.159,172.292,202.504,173.507,203.267,174.572z M125.976,185.228c-13.568,17.47-19.765,40.236-17.405,62.194c0.66,6.141,2.007,12.201,4.004,18.045 c0.429,1.255,2.332,0.497,1.908-0.743c-6.957-20.358-5.448-43.24,3.613-62.706c2.562-5.504,5.728-10.696,9.453-15.491 C128.357,185.485,126.789,184.18,125.976,185.228z M195.46,126.633l-3.99,9.676l-40.077-13.931l-7.441-13.82 c-0.262-0.487-0.869-0.667-1.354-0.406c-0.486,0.262-0.668,0.868-0.406,1.354l7.626,14.163c0.119,0.22,0.315,0.388,0.552,0.47 l32.118,11.165l9.219,3.205c0.108,0.038,0.219,0.056,0.328,0.056c0.395,0,0.766-0.235,0.924-0.619l4.35-10.55 c0.211-0.511-0.033-1.095-0.543-1.306c-0.002-0.001-0.004,0-0.006-0.001C196.25,125.882,195.67,126.125,195.46,126.633z"/></g><g id="change1_2"><path fill="#383936" d="M340.219,83.435c0.319-0.661,0.651-1.312,0.982-1.961h-29.239V71.182c-0.31,0.411-0.628,0.816-0.953,1.212 c-2.296,2.8-4.848,5.41-7.624,7.795c-0.667,0.573-1.375,1.126-2.149,1.563c-0.139,0.037-0.275,0.11-0.401,0.22 c-0.382,0.184-0.777,0.343-1.2,0.443c-0.233,0.055-0.476,0.084-0.722,0.1c-0.865-0.316-1.626-1.232-1.848-2.087 c-0.557-2.146,0.581-4.281,1.487-6.158c2.04-4.225,4.083-8.448,6.125-12.672c0.239-0.494,0.056-0.922-0.277-1.173 c-0.206-0.155-0.467-0.241-0.728-0.231c-0.336,0.013-0.666,0.182-0.856,0.575c-1.341,2.774-2.681,5.548-4.022,8.322 c-1.29,2.669-2.934,5.378-3.664,8.268c-0.19,0.754-0.265,1.566-0.216,2.368c-0.628,0.813-1.356,1.557-2.276,2.124 c-0.177,0.109-0.366,0.205-0.558,0.297v1.213c0,0.552-0.447,1-1,1h-35.194c0,0,0,0,0,0v49.473c0.97,1.888-0.009,19.116,9.253,21.343 v-17.432h3.477v17.777c4.783,0.309,9.562,0.87,14.36,0.723c9.343-0.287,18.232,1.109,27.293-2.637 c2.133-0.882,4.234-1.985,5.802-3.68c2.304-2.489,2.948-7.713,1.686-11.605c-1.595-1.31-3.601-2.13-5.794-2.261v-3.895H334.1 c-1.201-1.618-3.299-5.345-3.299-11.671v-4.813h-22.067c-0.828,0-1.5-0.671-1.5-1.5s0.672-1.5,1.5-1.5h22.067v-5.199h-25.858 c-0.828,0-1.5-0.671-1.5-1.5s0.672-1.5,1.5-1.5h25.858V84.491c0-0.829,0.672-1.5,1.5-1.5s1.5,0.671,1.5,1.5v36.005 c0,7.271,3.049,10.327,3.179,10.454c0.338,0.33,0.466,0.779,0.426,1.217h3.131c-0.202-0.52-0.318-1.087-0.318-1.685V83.435z M259.936,96.01h32.384c5.848,0,10.588,4.74,10.588,10.588v8.871c0,5.848-4.74,10.588-10.588,10.588h-32.265 c-0.066,0-0.12-0.054-0.12-0.12V96.01z M286.005,148.559h-4.249v-6.074h4.249V148.559z M434.263,107.014 c0,26.554,8.428,39.943,10.465,42.79l-30.578-2.413c-6.036-19.03-8.052-37.635-5.944-55.802h14.393V76.198l-12.077,2.077 c0.983-4.252,2.175-8.482,3.628-12.685l30.602-2.407C442.795,66.088,434.263,80.294,434.263,107.014z M453.988,62.457l-7.093,0.558 c0.065,0.277,0.023,0.577-0.16,0.823c-0.104,0.14-10.472,14.369-10.472,43.177c0,28.778,10.345,41.976,10.449,42.105 c0.201,0.251,0.247,0.565,0.178,0.855l7.098,0.56c2.681,0.207,4.975-1.823,4.975-4.404V66.861 C458.962,64.28,456.668,62.24,453.988,62.457z M451.537,140.271c-5.154-15.794-6.765-32.763-4.678-49.307 c0.6-4.758,1.517-9.465,2.723-14.095c0.314-1.208,2.187-0.94,1.868,0.285c-4.129,15.859-4.703,32.619-1.667,48.747 c0.87,4.624,2.048,9.173,3.504,13.632C453.678,140.728,451.93,141.474,451.537,140.271z M395.118,145.894l-4.663-0.365 c-2.388-0.187-4.22-2.099-4.22-4.404v-6.16V78.021v-6.164c0-2.296,1.831-4.217,4.22-4.404l4.663-0.365v13.836l-2.954,0.508v10.158 h2.954V145.894z M272.787,121.117h-8.344V100.95h8.344V121.117z M323.066,137.875c0.533-0.405,1.539-0.251,1.714,0.638 c1.43,7.253,2.397,15.795-2.398,21.977c-0.302,0.39-0.624,0.772-0.974,1.142c-0.467,0.495-0.968,0.922-1.484,1.319 c0.86,3.618-0.072,7.406-3.215,9.645c-3.436,2.447-7.775,2.326-11.795,2.132c-0.553-0.027-0.935-0.663-0.852-1.166 c0.013-0.08,0.051-0.141,0.079-0.211c0.175-0.439,0.604-0.68,1.086-0.656c3.32,0.16,7.027,0.351,9.948-1.527 c2.441-1.569,3.398-4.275,2.927-7.031c-1.949,1.029-4.131,1.562-6.433,1.78c-3.949,0.375-8.06,0.037-11.726,1.816 c-1.193,0.579-1.898-1.346-0.724-1.915c6.4-3.106,14.875,0.132,20.32-5.183c5.858-5.718,4.638-14.649,3.211-21.888 C322.671,138.344,322.825,138.058,323.066,137.875z M292.187,175.497c-0.022-0.229,0.022-0.472,0.195-0.705 c2.565-3.452,3.505-8.059,2.432-12.235c-0.137-0.533,0.027-1.117,0.592-1.329c0.477-0.179,1.177,0.046,1.316,0.586 c1.127,4.385,0.452,9.032-1.853,12.886c-0.284,0.474-0.582,0.942-0.915,1.391C293.338,176.92,292.265,176.307,292.187,175.497z M245.74,143.907c0.479-1.589,1.08-3.145,1.841-4.637c0.417-0.817,1.442-0.667,1.828-0.104c0.169,0.247,0.217,0.573,0.033,0.932 c-4.673,9.172-3.681,20.638,2.519,28.86c0.305,0.404,0.241,0.829,0.008,1.143c-1.817,4.832-3.706,9.637-5.675,14.409 c-6.906,16.74-14.76,33.083-23.494,48.946c-0.062,0.113-0.139,0.202-0.222,0.279c-0.411,0.382-1.024,0.331-1.412,0.036 c1.153,0.223,1.892-1.5,0.695-1.897c-0.146-0.048-0.29-0.1-0.436-0.148c1.046-1.909,2.085-3.823,3.106-5.746 c1.245-2.344,2.473-4.698,3.679-7.063c1.256-2.463,2.482-4.939,3.695-7.423c6.665-13.65,12.689-27.609,18.048-41.824 C244.643,162.297,243.137,152.547,245.74,143.907z M278.874,194.857c-0.89,3.257-1.78,6.514-2.67,9.771 c-4.332,15.852-8.664,31.705-12.996,47.557c-0.084,0.306-0.268,0.517-0.491,0.649c-0.697,0.411-1.79,0.017-1.526-0.948 c5.222-19.11,10.444-38.219,15.666-57.329c0.156-0.573,0.657-0.812,1.126-0.799C278.547,193.775,279.064,194.162,278.874,194.857z M255.243,82.61c-1.893-1.026-3.587-2.419-5.233-3.821c-0.269-0.229-0.367-0.513-0.353-0.788c0.038-0.745,0.922-1.428,1.655-0.804 c2.409,2.052,4.979,4.281,8.211,4.803c2.641,0.426,6.07-0.745,6.472-3.774c0.219-1.647-0.555-3.243-1.252-4.686 c-0.77-1.597-1.566-3.182-2.349-4.772c-0.708-1.439-1.36-2.928-2.151-4.324c-0.641-1.132-2.057-2.926-3.567-2.033 c-0.839,0.496-1.704-0.289-1.635-1.002c0.024-0.249,0.157-0.489,0.451-0.662c1.366-0.808,2.915-0.735,4.261,0.098 c1.423,0.882,2.193,2.402,2.912,3.855c0.659,1.33,1.35,2.659,2.031,3.994c1.32-0.471,2.731-0.738,4.205-0.738h3.988 c-0.299,2.061-0.598,4.122-0.898,6.183c-0.307,2.106-0.432,4.619,1.512,5.932c1.607,1.086,4.051,0.788,5.712-0.236 c1.661-1.024,2.707-2.613,3.641-4.174c0.768-1.285,1.481-2.594,2.168-3.913c0.568-7.177,1.878-14.264,3.922-21.198 c0.005-0.018,0.01-0.037,0.015-0.055c0.25-0.845,1.147-0.74,1.615-0.213c0.234,0.264,0.369,0.625,0.246,1.042 c-2.596,8.786-3.974,17.929-4.089,27.089c-0.01,0.81-0.799,1.212-1.39,1.084c0.183,1.023,0.634,1.95,1.581,2.589 c0.16,0.108,0.333,0.192,0.508,0.273h-21.646c-2.119,1.794-5.017,2.15-7.662,1.433C257.103,83.517,256.152,83.102,255.243,82.61z M204.974,96.161c-0.074,2.666,0.42,6.414-1.778,8.422c-2.33,2.13-5.556,1.029-8.056-0.115c-1.195-0.547-0.357-2.426,0.837-1.88 c2.506,1.147,6.169,2.222,6.754-1.562c0.439-2.841,0.245-5.872,0.325-8.742l0.531-19.168c0.036-1.32,2.053-1.006,2.017,0.299 C205.394,80.997,205.184,88.579,204.974,96.161z M208.822,82.533c1.339,0,2.425,1.086,2.425,2.425s-1.086,2.425-2.425,2.425 s-2.425-1.086-2.425-2.425S207.482,82.533,208.822,82.533z M186.489,78.332c1.339,0,2.425,1.086,2.425,2.425 s-1.086,2.425-2.425,2.425s-2.425-1.086-2.425-2.425S185.15,78.332,186.489,78.332z M174.877,71.952 c4.09-5.683,10.961-8.931,17.93-8.662c1.317,0.051,0.982,2.083-0.312,2.033c-6.266-0.242-12.399,2.86-16.046,7.927 C175.675,74.328,174.11,73.019,174.877,71.952z M209.342,65.109c2.132,1.628,4.264,3.255,6.396,4.883 c0.197,0.15,0.394,0.301,0.591,0.451c0.442,0.338,0.474,1.03,0.135,1.446c-0.268,0.328-0.693,0.435-1.074,0.328 c-0.128-0.036-0.252-0.096-0.363-0.181c-2.329-1.778-4.657-3.556-6.986-5.334c-0.442-0.338-0.474-1.03-0.135-1.445 C208.263,64.818,208.902,64.774,209.342,65.109z M193.748,118.162c-4.452,0.709-9.194-0.844-12.329-4.093 c-0.387-0.401-0.517-0.977-0.135-1.445c0.32-0.393,1.052-0.546,1.437-0.147c2.79,2.891,6.835,4.277,10.81,3.644 C194.84,115.913,195.037,117.957,193.748,118.162z"/></g><g id="change4_1"><path fill="#575853" d="M386.235,78.021v56.944h-0.694c0-0.364-0.122-0.73-0.386-1.019c-0.032-0.035-3.239-3.635-3.239-11.939 v-40.45c0-0.829-0.672-1.5-1.5-1.5s-1.5,0.671-1.5,1.5v22.497h-22.982c-0.828,0-1.5,0.671-1.5,1.5s0.672,1.5,1.5,1.5h22.982v5.63 h-20.161c-0.828,0-1.5,0.671-1.5,1.5s0.672,1.5,1.5,1.5h20.161v6.323c0,7.047,2.089,11.182,3.268,12.959h-37.67 c-1.806,0-3.341-1.156-3.977-2.798c-0.202-0.52-0.318-1.087-0.318-1.685V83.435c0.319-0.661,0.651-1.312,0.982-1.961 c0.543-1.063,1.091-2.11,1.632-3.1h0.01c0.513-0.225,1.076-0.353,1.671-0.353H386.235z M408.206,91.589h-13.088v54.304l19.032,1.498 C408.113,128.361,406.098,109.757,408.206,91.589z M395.118,80.923l15.403-2.648c0.983-4.252,2.175-8.482,3.628-12.685 l-19.032,1.498V80.923z M259.936,125.937V96.01h32.384c5.848,0,10.588,4.74,10.588,10.588v8.871c0,5.848-4.74,10.588-10.588,10.588 h-32.265C259.99,126.057,259.936,126.003,259.936,125.937z M264.443,121.117h8.344V100.95h-8.344V121.117z M125.976,185.228 c-13.568,17.47-19.765,40.236-17.405,62.194c0.66,6.141,2.007,12.201,4.004,18.045c0.429,1.255,2.332,0.497,1.908-0.743 c-6.957-20.358-5.448-43.24,3.613-62.706c2.562-5.504,5.728-10.696,9.453-15.491C128.357,185.485,126.789,184.18,125.976,185.228z M108.011,26.674c-2.134,13.703-1.212,27.741,2.655,41.056c0.37,1.273,2.272,0.51,1.908-0.743 c-3.767-12.971-4.624-26.67-2.546-40.014c0.047-0.302-0.033-0.544-0.173-0.731c-0.388-0.517-1.291-0.57-1.679,0.005 C108.097,26.364,108.038,26.504,108.011,26.674z M139.832,52.737c2.412-2.674,6.558-2.155,9.784-1.882 c3.47,0.293,6.909,0.281,10.35-0.315c6.855-1.187,13.4-4.219,18.717-8.711c3.008-2.541,5.61-5.515,7.683-8.864 c0.685-1.107-0.876-2.422-1.572-1.299C181.03,37.745,175.49,42.595,169,45.59c-3.237,1.494-6.669,2.544-10.197,3.059 c-3.563,0.521-7.005,0.275-10.574,0.04c-3.58-0.236-7.401-0.097-9.969,2.75C137.374,52.42,138.947,53.718,139.832,52.737z M93.958,93.539c-1.519,2.292-3.896,3.978-6.632,4.445c-2.893,0.494-5.859-0.351-8.107-2.219c-1.014-0.843-2.31,0.755-1.302,1.592 c2.642,2.197,6.218,3.25,9.625,2.668c3.233-0.552,6.175-2.453,7.987-5.187C96.252,93.747,94.689,92.434,93.958,93.539z M38.52,126.998c-6.369-1.998-8.959-9.624-4.804-14.97c0.446-0.574,0.205-1.245-0.367-1.589c-3.978-2.392-6.494-7.123-6.089-11.772 c0.393-4.511,3.345-8.58,7.459-10.431c1.193-0.537,0.486-2.459-0.724-1.915c-4.875,2.193-8.449,7.027-8.78,12.419 c-0.314,5.117,2.19,9.983,6.297,12.917c-3.973,6.259-1.156,14.923,6.171,17.222C38.921,129.267,39.771,127.391,38.52,126.998z"/></g><g id="change5_1"><path fill="#000000" d="M446.89,149.975c-0.049,0.208-0.15,0.406-0.329,0.55c-0.185,0.149-0.406,0.222-0.627,0.222 c-0.291,0-0.58-0.126-0.777-0.371c-0.045-0.056-0.198-0.25-0.428-0.572c-2.037-2.847-10.465-16.236-10.465-42.79 c0-26.72,8.532-40.925,10.488-43.831c0.206-0.306,0.34-0.489,0.383-0.545c0.332-0.442,0.957-0.531,1.398-0.2 c0.196,0.147,0.311,0.355,0.362,0.577c0.065,0.277,0.023,0.577-0.16,0.823c-0.104,0.14-10.472,14.369-10.472,43.177 c0,28.778,10.345,41.976,10.449,42.105C446.913,149.37,446.959,149.684,446.89,149.975z M268.615,155.522v-17.777h-3.477v17.432 c0.506,0.122,1.035,0.211,1.604,0.238C267.366,155.444,267.991,155.481,268.615,155.522z M291.079,84.361c0.553,0,1-0.448,1-1 v-1.213c-1.437,0.685-3.25,0.862-4.646,0.213h-21.646c-2.119,1.794-5.017,2.15-7.662,1.433c-1.022-0.277-1.973-0.692-2.882-1.184 c-0.215,0.183-0.358,0.447-0.358,0.751c0,0.552,0.447,1,1,1c0,0,0,0,0,0H291.079z M395.118,80.923l-2.954,0.508v10.158h2.954h13.088 h14.393V76.198l-12.077,2.077L395.118,80.923z M132.406,91.334l-7.965,23.136c-3.361-1.161-7.294-10.023-10.46-22.303 c-0.154,2.071-0.741,4.053-2.003,5.695c-5.399,7.025-19.222,3.68-22.872,11.753c-2.184,4.831,1.089,10.841-1.107,15.666 c-3.518,7.729-15.034,7.006-16.298,16.844c-1.307,10.175-0.29,17.82-9.848,24.833c-19.709,14.462-48.852,5.38-58.72-16.223 c-4.757-10.413-4.314-23.554,2.816-32.51c3.243-4.073,9.621-8.139,10.44-13.628c0.726-4.866-1.547-10.573-0.971-15.715 c1.219-10.88,10.474-19.448,20.688-23.392c6.556-2.531,13.985-3.78,18.991-8.713c5.254-5.178,6.486-13.096,10.024-19.569 c4.825-8.828,14.393-14.872,24.438-15.436c5.417-0.304,12.712,1.348,18.616,4.475c-0.079,0.117-0.138,0.257-0.165,0.427 c-2.134,13.703-1.212,27.741,2.655,41.056c0.37,1.273,2.272,0.51,1.908-0.743c-3.767-12.971-4.624-26.67-2.546-40.014 c0.047-0.302-0.033-0.544-0.173-0.731c0.101-0.511,0.207-1.018,0.318-1.518c7.228-32.561,56.684-29.535,96.138-10.652 c33.022,15.805,16.201,36.238,9.838,42.481c-0.634-9.638-2.964-16.47-2.964-16.47c-0.63-1.481-10.014-2.286-24.298,14.66 c-14.283,16.946-34.619,18.039-34.619,18.039l-14.874,17.432l2.319-18.669c0,0-10.202-7.119-14.945,2.016 S132.406,91.334,132.406,91.334z M139.832,52.737c2.412-2.674,6.558-2.155,9.784-1.882c3.47,0.293,6.909,0.281,10.35-0.315 c6.855-1.187,13.4-4.219,18.717-8.711c3.008-2.541,5.61-5.515,7.683-8.864c0.685-1.107-0.876-2.422-1.572-1.299 C181.03,37.745,175.49,42.595,169,45.59c-3.237,1.494-6.669,2.544-10.197,3.059c-3.563,0.521-7.005,0.275-10.574,0.04 c-3.58-0.236-7.401-0.097-9.969,2.75C137.374,52.42,138.947,53.718,139.832,52.737z M38.52,126.998 c-6.369-1.998-8.959-9.624-4.804-14.97c0.446-0.574,0.205-1.245-0.367-1.589c-3.978-2.392-6.494-7.123-6.089-11.772 c0.393-4.511,3.345-8.58,7.459-10.431c1.193-0.537,0.486-2.459-0.724-1.915c-4.875,2.193-8.449,7.027-8.78,12.419 c-0.314,5.117,2.19,9.983,6.297,12.917c-3.973,6.259-1.156,14.923,6.171,17.222C38.921,129.267,39.771,127.391,38.52,126.998z M93.958,93.539c-1.519,2.292-3.896,3.978-6.632,4.445c-2.893,0.494-5.859-0.351-8.107-2.219c-1.014-0.843-2.31,0.755-1.302,1.592 c2.642,2.197,6.218,3.25,9.625,2.668c3.233-0.552,6.175-2.453,7.987-5.187C96.252,93.747,94.689,92.434,93.958,93.539z M183.278,142.916c5.194,3.1,10.388,6.201,15.581,9.302c-0.675,1.302-1.349,2.604-2.024,3.907c-0.673-0.632-1.345-1.265-2.019-1.896 c-0.963-0.901-2.255,0.701-1.302,1.593c14.255,13.343,29.863,28.27,32.153,48.771c0.615,5.502,0.133,11.091-1.737,16.318 c-0.396,1.107,1.041,1.883,1.67,1.144c0.074-0.087,0.144-0.184,0.191-0.315c1.121-3.131,1.766-6.357,2.015-9.609 c0.506-6.608-0.651-13.325-2.968-19.588c-3.612-9.762-9.993-18.141-17.067-25.657c-3.025-3.214-6.195-6.286-9.402-9.318 c0.009-0.016,0.023-0.026,0.032-0.043c0.871-1.682,1.743-3.364,2.614-5.047c0.238-0.458-0.005-1.103-0.467-1.323 c-0.073-0.23-0.221-0.441-0.471-0.591c-4.431-2.645-8.861-5.29-13.292-7.935c-0.89-0.531-1.78-1.062-2.669-1.594 c-0.727-0.434-1.327,0.202-1.36,0.885C182.736,142.294,182.884,142.681,183.278,142.916z M221.863,231.875 c-0.146-0.048-0.29-0.1-0.436-0.148c-22.087-7.342-43.769-15.892-64.909-25.632c-6.006-2.767-11.966-5.63-17.882-8.584 c-1.175-0.586-2.01,1.294-0.837,1.88c20.963,10.463,42.5,19.766,64.498,27.831c0.295,0.108,0.593,0.21,0.888,0.318 c-0.024,0.069-0.06,0.125-0.07,0.206c-2.211,17.2-4.422,34.4-6.632,51.6c-0.168,1.311,1.848,1.613,2.017,0.299 c2.203-17.139,4.406-34.279,6.609-51.418c5.283,1.908,10.586,3.759,15.917,5.527c0.049,0.016,0.093,0.008,0.142,0.017 C222.32,233.995,223.059,232.271,221.863,231.875z M226.722,281.888c-0.392,0.145-0.707,0.49-0.659,1.027 c1.336,14.791,2.673,29.583,4.01,44.374c-0.064-0.039-0.114-0.088-0.195-0.116c-23.553-8.075-46.799-17.039-69.669-26.884 c-6.458-2.78-12.885-5.632-19.282-8.549c-1.194-0.545-2.033,1.335-0.837,1.88c22.654,10.331,45.697,19.806,69.072,28.382 c6.601,2.422,13.228,4.77,19.879,7.051c0.731,0.251,1.315-0.31,1.419-0.895c0.078,0.057,0.164,0.099,0.255,0.13 c0.626,0.21,1.482-0.187,1.404-1.053l-0.237-2.624l-3.788-41.929C228.023,281.902,227.289,281.679,226.722,281.888z M170.856,145.765c-0.091-0.761-0.805-0.988-1.364-0.801c-0.406,0.136-0.731,0.483-0.666,1.035 c0.652,5.475,1.305,10.95,1.958,16.424c-16.51-6.211-33.02-12.422-49.531-18.633c-1.223-0.46-2.068,1.417-0.837,1.88 c16.88,6.35,33.761,12.701,50.641,19.052c0.006,0.051,0.012,0.102,0.018,0.152c0.157,1.315,2.186,1.077,2.029-0.233 c-0.349-2.931-0.699-5.863-1.048-8.794C171.657,152.485,171.256,149.125,170.856,145.765z M215.967,215.73 c-0.029,1.321,2.001,1.067,2.029-0.233c0.326-15.005-4.328-29.934-13.067-42.13c-0.771-1.075-2.426,0.139-1.662,1.205 C211.822,186.511,216.286,201.051,215.967,215.73z M80.631,374.313c6.502-19.633,13.005-39.265,19.507-58.898 c0.238,0.75,0.475,1.499,0.713,2.249c2.303,7.267,4.606,14.534,6.909,21.801c0.401,1.264,2.303,0.504,1.908-0.743l-24.454-77.16 c-2.303-7.267-4.606-14.534-6.909-21.801c-0.01-0.031-0.03-0.046-0.041-0.074c6.064-16.903,12.128-33.806,18.192-50.708 c0.258-0.719-0.264-1.289-0.832-1.408c-0.409-0.085-0.842,0.057-1.029,0.579c-6.188,17.249-12.377,34.499-18.565,51.748 c-0.223,0.621,0.135,1.141,0.602,1.348C84.16,265,91.689,288.756,99.218,312.511c-0.178,0.095-0.335,0.247-0.422,0.51 c-6.675,20.154-13.351,40.309-20.026,60.463c-0.181,0.547,0.084,1.002,0.464,1.25C79.72,375.049,80.398,375.017,80.631,374.313z M300.959,138.7c-2.723,0-4.93,2.207-4.93,4.93s2.207,4.93,4.93,4.93c2.723,0,4.93-2.207,4.93-4.93S303.682,138.7,300.959,138.7z"/></g></svg>