<?xml version="1.0" encoding="UTF-8" standalone="no"?><svg xmlns="http://www.w3.org/2000/svg" xmlns:xlink="http://www.w3.org/1999/xlink" contentScriptType="text/ecmascript" fill="#000000" width="313.9" zoomAndPan="magnify" contentStyleType="text/css" viewBox="0.0 -8.3 313.9 409.2" height="409.2" preserveAspectRatio="xMidYMid meet" version="1"><g id="change1_1"><path fill="#a24a38" d="M307.468,59.284c-0.295-0.033-0.596-0.123-0.898-0.24c2.095-2.038,3.615-8.12,3.615-15.308 c0-6.986-1.438-12.91-3.442-15.106c0.244-0.085,0.486-0.151,0.726-0.179c3.239-0.37,4.924-2.618,5.797-4.722 c0.664-1.6-0.006-3.873-1.12-3.873h-9.737c-0.032-0.031-0.052-0.071-0.089-0.099c-0.398-0.296-0.931-0.233-1.276,0.099h-2.81 h-11.207h-4.688c-4.01,0-7.303,3.239-7.673,7.378h-0.033h-16.04h-4.904c-0.035-0.078-0.064-0.159-0.121-0.228 c-0.349-0.428-0.979-0.491-1.407-0.142c-0.067,0.055-1.08,0.905-1.83,2.71c-0.223-0.015-0.445-0.034-0.671-0.034h-14.067v-7.551 h3.303c1.44,0,2.607-1.167,2.607-2.607c0-3.513-2.848-6.362-6.362-6.362h-16.613c-4.062,0-7.356,3.293-7.356,7.356v1.13h-4.034 c-3.567,0-6.458,2.891-6.458,6.458v7.154c-0.102-0.164-0.21-0.325-0.351-0.471c-1.442-1.492-3.724-0.226-4.682,1.219 c-2.118,3.191,1.235,25.149,1.235,25.149L182.519,78.82c-0.379-0.355-0.986-0.454-1.397,0.081c-0.84,1.091-1.679,2.182-2.519,3.274 l-30.792-6.678l1.888-2.205c2.254,0.747,4.567,1.262,6.971,1.319c4.978,0.118,9.645-1.905,12.745-5.994 c0.68-0.898-0.266-1.982-1.092-1.745c2.717-4.951,4.16-12.728,4.924-19.498c3.131-2.434,7.969-8.151,8.634-20.512 c0.994-18.476-4.46-32.16-19.642-24.862c0,0-46.436-10.296-60.58,16.068c-7.184,13.391-1.806,23.498,5.533,30.312 c-6.383-2.003-15.564-2.25-26.608,6.127C60.118,70.027,54,80.853,49.529,91.087c-3.438,7.87,0.231,22.613,12.484,23.875 c-0.397,0.831-0.783,1.662-1.153,2.493c-2.199,4.934-4.325,9.743-6.316,14.305c-0.438-0.146-0.98-0.043-1.27,0.471 c-6.065,10.773-10.462,22.417-13.073,34.5c-0.207,0.958,0.878,1.346,1.528,0.926c0.191,0.094,0.426,0.209,0.718,0.351l-3.006,6.205 c-0.391-0.009-0.755,0.202-0.94,0.584l-3.178,6.53c-0.004,0.008-0.002,0.018-0.006,0.027c-0.108,0.126-0.198,0.275-0.232,0.479 c-2.943,17.562-5.886,35.123-8.829,52.685c-0.151,0.899,0.785,1.292,1.421,1.002l-17.15,102.515l8.057,0.026v14.553l0.17,0.018 c-0.098,0.158-2.887,4.665-6.094,9.873c-0.41-0.49-1.326-0.598-1.707,0.165c-2.407,4.814-4.813,9.629-7.22,14.443 c-0.445,0.749-0.702,1.199-0.702,1.238c0,0.021-0.015,0.109-0.04,0.248c-0.403,0.806-0.806,1.612-1.208,2.417 c-0.287,0.109-0.524,0.339-0.578,0.741c-0.35,2.628-0.7,5.256-1.05,7.884c-0.053,0.395,0.11,0.682,0.35,0.871 C0.204,391.927,0,392.882,0,392.882s6.762,1.06,14.21,1.575c0.093,0.322,0.324,0.603,0.743,0.688 c6.944,1.398,14.188,0.735,20.771-1.877c0.717-0.284,0.741-1.074,0.388-1.553c2.515-1.17,2.47-1.778,2.47-1.778l-0.204-0.908 c0.491-0.223,0.678-0.763,0.529-1.263c-0.927-3.11-1.855-6.221-2.782-9.331c-0.039-0.131-0.113-0.241-0.205-0.333l-0.013-0.058 l1.808-25.428l-0.066,0.257l3.319-14.737L46,338.152l2.823-5.357c0.429,0.446,1.3,0.517,1.669-0.219 c7.916-15.797,15.832-31.593,23.748-47.389c2.084-4.16,4.169-8.32,6.254-12.481l22.672-43.016 c7.704,10.349,15.407,20.699,23.111,31.048c0.46,0.618,1.214,0.435,1.588-0.025l0.655,0.843l27.833,87.307l6.38-3.366l7.018,20.999 l-0.576,0.028l-3.763,34.417h80.127l-1.158-14.562c0.653-0.342,0.88-1.438,0.005-1.804c-6.849-2.87-13.698-5.741-20.546-8.611 l-0.647-0.317c-0.15-0.179-0.355-0.293-0.601-0.295l-21.172-10.387l-0.44,0.021l-6.043-36.482l6.169-3.255 c0.334,1.11,2.141,0.871,1.926-0.346c-2.515-14.227-5.031-28.455-7.546-42.682c-0.19-1.073-1.635-1.063-1.928-0.26l-10.19-49.689 l-45.86-42.877l-11.439-20.292c0.991-0.927,1.238-1.486,1.234-1.491c-0.013-0.018-6.951-13.349-3.421-23.937 c0,0,8.328-5.189,15.105-13.418c0.155-0.189,0.284-0.372,0.431-0.559c2.227,0.539,3.617,0.878,3.778,0.922 c0.092,0.026,0.185,0.038,0.274,0.038c0.434,0,0.834-0.285,0.961-0.723l6.039,1.74l0.535-2.61c2.959,0.036,7.446,0.081,12.212,0.095 c-0.197,0.598,0.168,1.431,1.006,1.395c3.37-0.144,6.741-0.288,10.111-0.432c2.442-0.104,4.885-0.209,7.327-0.313 c1.167-0.05,2.378-0.02,3.532-0.18c0.701-0.097,1.688-0.203,2.002-0.963l0.436-1.056l40.117,0.958l29.883-29.519 c0.446,0.358,1,0.213,1.375-0.154c4.444-4.357,8.887-8.715,13.33-13.072c0.276-0.076,0.502-0.274,0.608-0.597 c0.075-0.074,0.15-0.147,0.226-0.221c0.325-0.319,0.266-0.858,0.017-1.215c0.936-6.567,1.872-13.133,2.808-19.7 c1.391,2.128,3.712,3.524,6.343,3.524h4.688h11.207h2.824c0.189,0.177,0.419,0.295,0.668,0.295c0.194,0,0.392-0.057,0.564-0.175 c0.048-0.033,0.076-0.081,0.117-0.12h9.738c1.114,0,1.784-2.203,1.12-3.754C312.393,61.821,310.707,59.642,307.468,59.284z M228.26,91.991c-0.297-0.377-0.836-0.599-1.37-0.298c-3.861,2.177-7.722,4.354-11.583,6.531l-14.192-3.272l3.141-7.606 c0.278-0.673-0.186-1.21-0.727-1.344c2.315-5.96,3.881-10.102,3.881-10.102s8.992-0.056,11.322-3.535 c1.663-2.483,1.829-5.101,1.789-6.4h8.615c0.778,0,1.521-0.145,2.212-0.397c0.389,0.552,0.921,1.019,1.479,1.387 c2.655,1.754,6.052,2.717,9.161,3.243c1.58,0.267,3.179,0.394,4.778,0.397c-0.495,2.177-0.772,4.53,0.563,6.475 c0.677,0.987,1.699,1.54,2.785,1.972c0.013,0.005,0.027,0.01,0.04,0.015L228.26,91.991z"/></g><g id="change2_1"><path fill="#e1bfae" d="M18.584,338.062l22.384,0.073l-3.319,14.737l-0.069,0.271c-1.673-0.118-18.814-0.528-18.814-0.528 s-0.009,0.015-0.011,0.018l-0.17-0.018V338.062z M169.751,366.496l31.229-1.511l-6.043-36.482l-32.204,16.994L169.751,366.496z M173.972,38.239c-0.116,2.418-0.331,5.638-0.725,9.134c-0.763,6.77-2.207,14.547-4.924,19.498c-0.184,0.053-0.363,0.17-0.515,0.371 c-2.963,3.909-7.47,5.563-12.191,5.144c-4.81-0.427-9.214-2.631-13.503-4.765c-1.21-0.602-2.064,1.387-0.855,1.988 c2.738,1.363,5.539,2.72,8.441,3.682l-1.888,2.205l-6.475,7.559l-13.146-4.218c-0.52-0.165-1.069,0.116-1.246,0.625L114.98,75.3 l2.858-6.304l5.598-12.349c0,0-9.126-3.154-7.031-9.13s10.603-4.436,10.603-4.436c12.428-2.025,24.43-7.451,34.545-27.967 c0,0,3.487,16.08,12.555,18.773c0,0-0.004,0.681-0.038,1.833c-1.419-0.902-3.142-1.356-4.812-0.99 c-0.525,0.115-0.942,0.533-0.881,1.105c0.052,0.491,0.563,0.995,1.091,0.879c0.334-0.073,0.668-0.11,1.009-0.121 c0.019-0.001,0.017-0.001,0.02-0.002c0.011,0.001,0.011,0.001,0.032,0.003c0.088,0.006,0.176,0.01,0.264,0.019 c0.175,0.017,0.35,0.043,0.523,0.077c0.072,0.014,0.144,0.03,0.216,0.047c0.021,0.005,0.151,0.042,0.188,0.051 c0.043,0.015,0.098,0.033,0.109,0.037c0.084,0.029,0.167,0.06,0.249,0.094c0.165,0.066,0.327,0.14,0.485,0.22 c0.066,0.034,0.131,0.069,0.196,0.105c0.019,0.011,0.14,0.084,0.17,0.102c0.038,0.026,0.085,0.057,0.094,0.064 c0.073,0.051,0.145,0.103,0.216,0.156c0.13,0.098,0.255,0.202,0.376,0.311c0.066,0.059,0.131,0.12,0.194,0.182 c0.023,0.023,0.049,0.049,0.067,0.066C173.91,38.161,173.939,38.201,173.972,38.239z M170.687,44.66 c0,0.628,0.509,1.137,1.137,1.137s1.137-0.509,1.137-1.137c0-0.628-0.509-1.137-1.137-1.137S170.687,44.032,170.687,44.66z M161.333,43.523c0-0.628-0.509-1.137-1.137-1.137s-1.137,0.509-1.137,1.137s0.509,1.137,1.137,1.137S161.333,44.151,161.333,43.523 z M149.525,37.902c0.379,0.312,1.106,0.311,1.397-0.143c1.896-2.958,5.579-4.167,8.833-2.75c1.169,0.509,1.985-1.317,0.813-1.827 c-3.993-1.74-8.807-0.377-11.174,3.314C149.105,36.948,149.076,37.531,149.525,37.902z M156.16,62.152 c0.059-0.544-0.278-1.039-0.829-1.134c-0.284-0.049-0.561-0.119-0.842-0.184c-0.01-0.002-0.013-0.003-0.019-0.004 c-0.011-0.004-0.017-0.005-0.031-0.01c-0.058-0.018-0.115-0.036-0.173-0.055c-0.144-0.048-0.286-0.099-0.427-0.154 c-0.268-0.104-0.531-0.221-0.787-0.35c-0.122-0.061-0.242-0.125-0.361-0.191c-0.066-0.037-0.13-0.077-0.197-0.113 c-0.015-0.008-0.008-0.003-0.014-0.006c-0.013-0.008-0.01-0.007-0.031-0.021c-0.47-0.304-0.915-0.646-1.324-1.029 c-0.111-0.104-0.214-0.213-0.323-0.318c-0.013-0.012-0.008-0.006-0.013-0.011c-0.011-0.012-0.009-0.011-0.029-0.033 c-0.04-0.045-0.08-0.09-0.12-0.136c-0.198-0.229-0.382-0.469-0.556-0.717c-0.3-0.427-0.965-0.555-1.383-0.223 c-0.425,0.336-0.552,0.939-0.232,1.395c1.534,2.184,3.928,3.685,6.556,4.136C155.543,63.083,156.103,62.677,156.16,62.152z M167.764,44.829c-0.537-0.042-1.046,0.286-1.132,0.843c-0.077,0.502,0.289,1.091,0.828,1.133c0.099,0.008,0.196,0.017,0.294,0.035 c0.03,0.005,0.156,0.044,0.171,0.046c0.075,0.028,0.15,0.057,0.222,0.092c0.022,0.01,0.111,0.062,0.144,0.079 c0.142,0.096,0.276,0.208,0.399,0.328c0.021,0.027,0.113,0.129,0.115,0.133c0.061,0.079,0.114,0.162,0.171,0.244 c0.029,0.042,0.038,0.051,0.046,0.06c0.004,0.013,0.006,0.022,0.025,0.065c0.041,0.091,0.08,0.182,0.113,0.276 c0.001,0.003,0.044,0.16,0.053,0.179c0.017,0.09,0.031,0.182,0.04,0.272c0.027,0.284-0.033,0.772-0.12,0.995 c-0.178,0.457-0.274,0.653-0.578,1.013c-0.246,0.292-0.543,0.54-0.945,0.767c-0.702,0.397-1.577,0.556-2.453,0.564 c-0.538,0.005-0.934,0.611-0.881,1.105c0.062,0.579,0.552,0.884,1.092,0.879c2.541-0.026,5.013-1.448,5.718-3.991 C171.717,47.685,170.229,45.022,167.764,44.829z M164.013,128.57c6.984-0.298,13.969-0.597,20.953-0.895 c0.176-0.007,0.326,0.029,0.46,0.088c5.674-13.741,11.347-27.482,17.021-41.223c0.213-0.515,0.669-0.641,1.082-0.539 c2.315-5.96,3.881-10.102,3.881-10.102s8.992-0.056,11.322-3.535c1.663-2.483,1.829-5.101,1.789-6.4 c-0.016-0.521-0.064-0.836-0.064-0.836c1.867-1.427,2.667-10.825,2.667-10.825s1.246-1.368,2.216-3.183 c0.936-1.752,1.616-3.922,0.662-5.687c-0.166-0.306-0.399-0.525-0.662-0.708c-1.622-1.128-4.987-0.14-8.915,0.434 c-1.881,0.275-3.884,0.442-5.885,0.233c-0.334-0.035-0.667-0.09-1-0.147c-0.754-0.13-1.505-0.302-2.244-0.571 c-2.318-0.843-4.374-2.367-5.445-4.634c-0.704-1.492-0.292-3.51-1.169-4.922c-0.102-0.164-0.21-0.325-0.351-0.471 c-1.442-1.492-3.724-0.226-4.682,1.219c-2.118,3.191,1.235,25.149,1.235,25.149L182.519,78.82c0.345,0.324,0.503,0.859,0.131,1.343 c-3.956,5.141-7.912,10.282-11.868,15.423c-0.786,1.022-2.309-0.247-1.528-1.262c0.088-0.115,0.177-0.23,0.265-0.345l-9.735-2.742 l-6.898,33.639c-0.097,0.473-0.514,0.799-0.979,0.799c-0.066,0-0.134-0.007-0.202-0.021l-0.699,3.411 c2.959,0.036,7.446,0.081,12.212,0.095C163.321,128.844,163.573,128.589,164.013,128.57z M257.478,97.633 c4.547-4.459,9.094-8.918,13.64-13.376c1.211-8.496,2.423-16.993,3.634-25.489c0.087-0.611,0.583-0.853,1.056-0.808 c-0.244-0.296-0.645-0.659-1.176-1.072c-3.093-2.41-10.508-6.511-16.04-8.931c-3.98-1.741-6.983-2.613-6.672-1.341 c0.191,0.782,0.608,1.697,1.131,2.644c0.42-0.225,0.962-0.086,1.248,0.287l4.761,6.22c0.119,0.155,0.158,0.333,0.165,0.512 c2.573,0.646,5.111,1.447,7.555,2.25c1.212,0.398,0.387,2.222-0.813,1.827c-7.11-2.338-15.349-4.899-22.677-2.517 c-0.109,0.14-0.241,0.265-0.409,0.347c-1.648,0.802-3.296,1.605-4.944,2.407c0.001,0,0.001,0,0.002,0 c1.964,0.12,3.928,0.24,5.892,0.36c3.928,0.24,7.856,0.48,11.784,0.72c1.28,0.078,0.957,2.053-0.304,1.976 c-4.085-0.25-8.17-0.499-12.255-0.749c-2.042-0.125-4.085-0.25-6.127-0.374c-1-0.061-5.508-0.276-3.925,1.939 c0.892,1.249,2.852,1.865,4.221,2.386c1.704,0.649,3.469,1.112,5.268,1.404c3.57,0.58,7.191,0.424,10.712-0.389 c1.251-0.289,1.437,1.701,0.21,1.984c-1.517,0.35-3.059,0.572-4.609,0.678c-0.447,1.818-1.042,4.263,0.442,5.747 c0.727,0.727,1.818,0.943,2.722,1.369c1.013,0.477,1.874,1.16,2.335,2.201c0.517,1.169-1.335,1.896-1.854,0.723 c-0.381-0.862-1.488-1.193-2.298-1.512L228.26,91.991c0.321,0.406,0.36,0.994-0.219,1.32c-5.246,2.958-10.491,5.915-15.737,8.873 c-1.11,0.626-2.266-0.989-1.151-1.618c1.385-0.781,2.769-1.562,4.154-2.342l-14.192-3.272l-13.484,32.659l40.117,0.958 l29.883-29.519c-0.007-0.005-0.015-0.006-0.021-0.011C257.23,98.718,257.092,98.012,257.478,97.633z M250.583,54.947 c0,0-0.002,0.001-0.002,0.001c0.513,0.017,1.027,0.049,1.542,0.092C251.283,54.9,250.665,54.839,250.583,54.947z"/></g><g id="change3_1"><path fill="#575853" d="M250.331,29.574c0.75-1.806,1.763-2.655,1.83-2.71c0.428-0.35,1.059-0.286,1.407,0.142 c0.057,0.069,0.085,0.15,0.121,0.228c0.18,0.4,0.097,0.881-0.255,1.173c-0.094,0.081-1.906,1.686-1.906,5.476v19.486 c0,0.553-0.447,1-1,1s-1-0.447-1-1V33.883C249.527,32.08,249.882,30.656,250.331,29.574z M226,45.433 c0.953,1.766,0.274,3.935-0.662,5.687v0.985c0,0.553,0.447,1,1,1s1-0.447,1-1V35.017c0-3.23,1.768-4.602,1.856-4.669 c0.443-0.323,0.544-0.943,0.225-1.39c-0.321-0.448-0.947-0.553-1.396-0.231c-0.11,0.079-2.686,1.974-2.686,6.29v9.708 C225.601,44.908,225.835,45.126,226,45.433z M246.336,49.078h-15.243c-0.553,0-1,0.447-1,1s0.447,1,1,1h15.243c0.553,0,1-0.447,1-1 S246.889,49.078,246.336,49.078z M246.336,44.159h-15.243c-0.553,0-1,0.447-1,1s0.447,1,1,1h15.243c0.553,0,1-0.447,1-1 S246.889,44.159,246.336,44.159z M246.336,39.241h-15.243c-0.553,0-1,0.447-1,1s0.447,1,1,1h15.243c0.553,0,1-0.447,1-1 S246.889,39.241,246.336,39.241z M219.435,21.506v-3.623h-2.646v3.623H219.435z M204.256,87.346c0.278-0.673-0.186-1.21-0.727-1.344 c-0.413-0.102-0.869,0.023-1.082,0.539c-5.674,13.741-11.347,27.482-17.021,41.223c-0.134-0.059-0.285-0.096-0.46-0.088 c-6.984,0.298-13.969,0.597-20.953,0.895c-0.439,0.019-0.691,0.273-0.795,0.589c-0.197,0.598,0.168,1.431,1.006,1.395 c3.37-0.144,6.741-0.288,10.111-0.432c2.442-0.104,4.885-0.209,7.327-0.313c1.167-0.05,2.378-0.02,3.532-0.18 c0.701-0.097,1.688-0.203,2.002-0.963l0.436-1.056l13.484-32.659L204.256,87.346z M141.335,83.055l-13.146-4.218 c-0.52-0.165-1.069,0.116-1.246,0.625c-0.003,0.008-0.009,0.013-0.012,0.021c-0.169,0.526,0.121,1.089,0.646,1.258l30.32,9.729 l-6.972,34.003c-0.111,0.541,0.237,1.07,0.778,1.181h0c0.068,0.014,0.135,0.021,0.202,0.021c0.465,0,0.882-0.326,0.979-0.799 l6.898-33.639l0.435-2.122L141.335,83.055z M143.747,128.696c-0.837-0.241-46.397-11.177-48.337-11.643 c-0.537-0.128-1.077,0.201-1.206,0.739c-0.129,0.537,0.202,1.077,0.739,1.206c13.069,3.136,35.573,8.543,44.475,10.698 c2.227,0.539,3.617,0.878,3.778,0.922c0.092,0.026,0.185,0.038,0.274,0.038c0.434,0,0.834-0.285,0.961-0.723c0,0,0,0,0-0.001 C144.584,129.402,144.278,128.849,143.747,128.696z M232.826,66.955c2.655,1.754,6.052,2.717,9.161,3.243 c1.58,0.267,3.179,0.394,4.778,0.397c-0.495,2.177-0.772,4.53,0.563,6.475c0.677,0.987,1.699,1.54,2.785,1.972 c0.013,0.005,0.027,0.01,0.04,0.015c0.809,0.318,1.916,0.65,2.298,1.512c0.519,1.174,2.371,0.447,1.854-0.723 c-0.46-1.041-1.322-1.725-2.335-2.201c-0.904-0.426-1.995-0.642-2.722-1.369c-1.484-1.484-0.89-3.93-0.442-5.747 c1.55-0.105,3.093-0.327,4.609-0.678c1.226-0.283,1.041-2.273-0.21-1.984c-3.521,0.813-7.141,0.969-10.712,0.389 c-1.799-0.292-3.564-0.755-5.268-1.404c-1.369-0.522-3.329-1.137-4.221-2.386c-1.582-2.215,2.925-2,3.925-1.939 c2.042,0.125,4.085,0.25,6.127,0.374c4.085,0.25,8.17,0.499,12.255,0.749c1.26,0.077,1.584-1.898,0.304-1.976 c-3.928-0.24-7.856-0.48-11.784-0.72c-1.964-0.12-3.928-0.24-5.892-0.36c-0.001,0-0.001,0-0.002,0 c1.648-0.802,3.296-1.605,4.944-2.407c0.168-0.082,0.3-0.207,0.409-0.347c7.328-2.381,15.567,0.18,22.677,2.517 c1.201,0.395,2.026-1.429,0.813-1.827c-2.444-0.803-4.981-1.605-7.555-2.25c-0.007-0.179-0.046-0.357-0.165-0.512l-4.761-6.22 c-0.286-0.374-0.827-0.512-1.248-0.287c-0.045,0.024-0.094,0.031-0.135,0.064c-0.41,0.325-0.57,0.952-0.232,1.394 c1.26,1.647,2.521,3.293,3.781,4.94c-1.445-0.284-2.896-0.497-4.343-0.618c-0.515-0.043-1.029-0.075-1.542-0.092 c-4.181-0.14-8.303,0.612-12.138,2.952c-0.188,0.115-0.29,0.262-0.357,0.416c-1.192,0.58-2.384,1.161-3.575,1.741 c-0.209,0.102-0.37,0.264-0.484,0.45c-0.405,0.062-0.801,0.161-1.179,0.319c-1.175,0.492-2.105,1.601-2.114,2.908 c-0.005,0.685,0.238,1.298,0.614,1.832C231.736,66.12,232.268,66.586,232.826,66.955z M276.713,59.059 c0.094-0.662-0.392-1.051-0.905-1.099c-0.473-0.045-0.969,0.198-1.056,0.808c-1.211,8.496-2.422,16.993-3.634,25.489 c-4.547,4.459-9.094,8.918-13.64,13.376c-0.386,0.378-0.248,1.085,0.131,1.405c0.007,0.006,0.014,0.006,0.021,0.011 c0.446,0.358,1,0.213,1.375-0.154c4.444-4.357,8.887-8.715,13.33-13.072c0.276-0.076,0.502-0.274,0.608-0.597 c0.075-0.074,0.15-0.147,0.226-0.221c0.325-0.319,0.266-0.858,0.017-1.215c0.936-6.567,1.872-13.133,2.808-19.7 C276.235,62.413,276.474,60.736,276.713,59.059z M226.89,91.693c-3.861,2.177-7.722,4.354-11.583,6.531 c-1.385,0.781-2.769,1.562-4.154,2.342c-1.114,0.628,0.041,2.244,1.151,1.618c5.246-2.958,10.491-5.915,15.737-8.873 c0.578-0.326,0.539-0.913,0.219-1.32C227.963,91.615,227.424,91.392,226.89,91.693z M169.253,94.323 c-0.781,1.016,0.742,2.284,1.528,1.262c3.956-5.141,7.912-10.282,11.868-15.423c0.372-0.484,0.215-1.019-0.131-1.343 c-0.379-0.355-0.986-0.454-1.397,0.081c-0.84,1.091-1.679,2.182-2.519,3.274c-3.028,3.935-6.055,7.87-9.083,11.805 C169.43,94.093,169.342,94.208,169.253,94.323z M42.162,167.022c2.574-11.911,6.944-23.367,12.921-33.985 c0.339-0.602-0.03-1.107-0.539-1.277c-0.438-0.146-0.98-0.043-1.27,0.471c-6.065,10.773-10.462,22.417-13.073,34.5 c-0.207,0.958,0.878,1.346,1.528,0.926C41.933,167.526,42.098,167.321,42.162,167.022z"/></g><g id="change1_2"><path fill="#a24a38" d="M210.538,45.159h1h4.885c-1.881,0.275-3.884,0.442-5.885,0.233V45.159z M274.632,29.755v-2.521h-16.04v2.056 C263.938,29.493,269.284,29.67,274.632,29.755z M274.632,33.714V37.3c-5.35-0.108-10.695-0.377-16.04-0.658v-3.389 C263.938,33.455,269.284,33.63,274.632,33.714z M258.592,47.956v-7.35c5.345,0.281,10.69,0.548,16.04,0.653v15.628 C271.54,54.478,264.125,50.377,258.592,47.956z M302.408,67.615c-0.041,0.039-0.069,0.087-0.117,0.12 c-0.173,0.118-0.37,0.175-0.564,0.175c-0.25,0-0.48-0.118-0.668-0.295c-0.052-0.049-0.116-0.078-0.158-0.139 c-0.22-0.321-5.404-8.064-5.404-24.02c0-15.976,5.204-23.191,5.426-23.49c0.034-0.046,0.082-0.072,0.122-0.11 c0.345-0.332,0.878-0.394,1.276-0.099c0.037,0.027,0.057,0.067,0.089,0.099c0.352,0.343,0.421,0.891,0.122,1.298 c-0.051,0.068-5.035,7.059-5.035,22.303c0,15.341,5.004,22.814,5.055,22.889C302.829,66.752,302.75,67.282,302.408,67.615z M210.538,45.392c-0.334-0.035-0.667-0.09-1-0.147v-7.3c0-3.663,0.428-6.356,1.273-8.042h-8.778c-0.553,0-1-0.447-1-1s0.447-1,1-1 h11.234c0.036,0,0.065,0.001,0.088,0.002c0.54,0.031,0.957,0.487,0.941,1.027c-0.016,0.523-0.432,0.943-0.949,0.97 c-0.152,0.063-1.81,0.943-1.81,8.043v7.215h-1V45.392z M141.335,83.055l6.475-7.559l30.792,6.678 c-3.028,3.935-6.055,7.87-9.083,11.805l-9.735-2.742l0.435-2.122L141.335,83.055z M151.705,125.653l-0.699,3.411l-0.535,2.61 l-6.039-1.74c0,0,0,0,0-0.001c0.152-0.531-0.153-1.085-0.685-1.237c-0.837-0.241-46.397-11.177-48.337-11.643 c-0.537-0.128-1.077,0.201-1.206,0.739c-0.129,0.537,0.202,1.077,0.739,1.206c13.069,3.136,35.573,8.543,44.475,10.698 c-0.146,0.187-0.275,0.371-0.431,0.559c-6.777,8.229-15.105,13.418-15.105,13.418c-3.53,10.588,3.408,23.919,3.421,23.937 c0.004,0.005-0.244,0.564-1.234,1.491c-2.321,2.172-8.745,6.379-25.759,10.337c-22.157,5.154-51.53-8.358-57.863-11.43 c-0.292-0.142-0.527-0.257-0.718-0.351c0.204-0.131,0.368-0.337,0.433-0.636c2.574-11.911,6.944-23.367,12.921-33.985 c0.339-0.602-0.03-1.107-0.539-1.277c1.991-4.563,4.116-9.371,6.316-14.305c0.37-0.831,0.756-1.663,1.153-2.493 c12.193-25.477,36.462-50.165,36.462-50.165l19.363,4.199L114.98,75.3l11.963,4.162c-0.003,0.008-0.009,0.013-0.012,0.021 c-0.169,0.526,0.121,1.089,0.646,1.258l30.32,9.729l-6.972,34.003C150.815,125.014,151.164,125.543,151.705,125.653L151.705,125.653 z M3.733,377.113c-0.248,0.495-0.495,0.99-0.743,1.485c0.026-0.138,0.04-0.227,0.04-0.248 C3.031,378.312,3.288,377.862,3.733,377.113z M37.58,353.143l0.069-0.271l0.066-0.257l-1.808,25.428l0.013,0.058 c-0.259-0.258-0.681-0.357-1.028-0.244c-0.108-0.063-0.234-0.11-0.386-0.128c-6.232-0.729-12.465-1.459-18.698-2.188 c-1.261-0.147-1.579,1.827-0.303,1.976l18.698,2.188c0.083,0.01,0.151-0.012,0.226-0.019c0.875,2.934,1.75,5.868,2.624,8.802 c0.154,0.515,0.804,0.754,1.279,0.569c0.018-0.007,0.028-0.022,0.046-0.029l0.204,0.908c0,0,0.045,0.608-2.47,1.778 c-0.231-0.314-0.618-0.497-1.092-0.309c-6.284,2.494-13.136,3.097-19.763,1.763c-0.831-0.167-1.232,0.647-1.046,1.288 C6.762,393.942,0,392.882,0,392.882s0.204-0.955,0.504-2.371c0.534,0.42,1.493,0.301,1.611-0.58 c0.319-2.396,0.638-4.792,0.957-7.187c0.056-0.065,0.118-0.121,0.162-0.208c3.176-6.353,6.352-12.706,9.528-19.06 c0.193-0.386,0.105-0.723-0.101-0.971c3.208-5.207,5.997-9.715,6.094-9.873c0.002-0.003,0.011-0.018,0.011-0.018 S35.907,353.025,37.58,353.143z M223.263,375.721c-0.02-0.029-0.047-0.049-0.07-0.075l0.647,0.317 C223.648,375.882,223.455,375.802,223.263,375.721z M169.751,366.496l31.229-1.511l0.44-0.021l21.172,10.387 c-0.131-0.001-0.269,0.019-0.419,0.092c-4.499,2.176-8.999,4.352-13.498,6.528c-1.141,0.552-0.456,2.423,0.704,1.862 c4.344-2.101,8.687-4.202,13.03-6.302c0.002,0.001,0.003,0.003,0.006,0.004c7.053,2.956,14.105,5.912,21.158,8.868 c0.303,0.127,0.581,0.096,0.808-0.023l1.158,14.562h-80.127l3.763-34.417L169.751,366.496z M27.677,235.521 c-0.637,0.29-1.572-0.103-1.421-1.002c2.943-17.562,5.886-35.124,8.829-52.685c0.034-0.204,0.124-0.353,0.232-0.479 c0.004-0.008,0.002-0.018,0.006-0.027l3.178-6.53c0.186-0.381,0.549-0.593,0.94-0.584c0.123,0.003,0.248,0.024,0.371,0.073 c0.49,0.192,0.725,0.849,0.498,1.316c-1.059,2.177-2.119,4.353-3.178,6.53c-0.03,0.06-0.076,0.103-0.114,0.154 c-2.934,17.507-5.868,35.015-8.802,52.522C28.154,235.178,27.939,235.401,27.677,235.521z M127.864,260.713 c-0.373,0.46-1.128,0.643-1.588,0.025c-7.703-10.349-15.407-20.699-23.111-31.048c-2.215-2.976-4.429-5.951-6.644-8.927 c-0.761-1.023,0.848-2.202,1.615-1.171c9.918,13.325,19.837,26.65,29.755,39.975C128.197,259.977,128.114,260.405,127.864,260.713z M81.041,271.615c-0.182,0.364-0.365,0.727-0.547,1.091c-2.085,4.16-4.17,8.32-6.254,12.481 c-7.916,15.796-15.832,31.593-23.748,47.389c-0.369,0.736-1.24,0.665-1.669,0.219c-0.24-0.249-0.347-0.612-0.14-1.025 c0.785-1.566,1.569-3.132,2.354-4.697c-0.103,0.043-0.214,0.078-0.351,0.08c-8.823,0.177-17.645,0.355-26.467,0.533 c-1.277,0.026-1.482-1.958-0.21-1.984c3.765-0.076,7.53-0.152,11.295-0.227c-0.042-0.143-0.057-0.301-0.005-0.49l8.345-30.387 c0.336-1.225,2.3-0.948,1.96,0.291c-2.782,10.129-5.564,20.258-8.345,30.387c-0.017,0.063-0.055,0.106-0.081,0.161 c4.432-0.089,8.864-0.178,13.296-0.268c0.619-0.012,0.98,0.449,1.049,0.929c1.32-2.633,2.639-5.267,3.959-7.9 c7.916-15.797,15.832-31.593,23.748-47.389C79.807,269.662,81.618,270.464,81.041,271.615z M193.513,282.447 c-0.033-0.188-0.007-0.346,0.045-0.486c0.293-0.803,1.738-0.813,1.928,0.26c2.515,14.227,5.031,28.455,7.546,42.682 c0.215,1.217-1.592,1.456-1.926,0.346c-0.013-0.042-0.038-0.073-0.046-0.119c-0.865-4.892-1.73-9.784-2.594-14.676 c-9.632,5.367-19.263,10.734-28.895,16.1c-1.113,0.62-2.268-0.995-1.151-1.618c5.942-3.311,11.884-6.622,17.826-9.933 c-0.159-0.101-0.298-0.248-0.372-0.49c-1.608-5.306-3.215-10.612-4.823-15.918c-0.368-1.216,1.481-1.956,1.854-0.723 c1.608,5.306,3.215,10.612,4.823,15.918c0.039,0.13,0.042,0.25,0.035,0.367c3.446-1.92,6.892-3.841,10.339-5.761L193.513,282.447z M64.099,264.992c-8.258,1.865-16.874,1.327-24.863-1.452c-1.207-0.42-0.383-2.243,0.813-1.827 c7.664,2.666,15.931,3.08,23.839,1.295C65.142,262.724,65.327,264.714,64.099,264.992z M166.678,236.504 c3.914-2.54,7.827-5.08,11.741-7.62c1.077-0.699,2.227,0.92,1.151,1.618l-11.741,7.62 C166.752,238.82,165.602,237.202,166.678,236.504z"/></g><g id="change4_1"><path fill="#383936" d="M295.496,43.456c0-15.976,5.204-23.191,5.426-23.49c0.034-0.046,0.082-0.072,0.122-0.11h-2.81h-11.207 h-4.688c-4.01,0-7.303,3.239-7.673,7.378h-0.033v2.521c-5.348-0.085-10.695-0.262-16.04-0.465v-2.056h-4.904 c0.18,0.4,0.097,0.881-0.255,1.173c-0.094,0.081-1.906,1.686-1.906,5.476v19.486c0,0.553-0.447,1-1,1s-1-0.447-1-1V33.883 c0-1.802,0.355-3.227,0.804-4.308c-0.223-0.015-0.445-0.034-0.671-0.034h-14.067v-7.551h3.303c1.44,0,2.607-1.167,2.607-2.607 c0-3.513-2.848-6.362-6.362-6.362h-16.613c-4.062,0-7.356,3.293-7.356,7.356v1.13h-4.034c-3.567,0-6.458,2.891-6.458,6.458v7.154 c0.877,1.412,0.464,3.43,1.169,4.922c1.07,2.267,3.127,3.791,5.445,4.634c0.739,0.269,1.49,0.44,2.244,0.571v-7.3 c0-3.663,0.428-6.356,1.273-8.042h-8.778c-0.553,0-1-0.447-1-1s0.447-1,1-1h11.234c0.036,0,0.065,0.001,0.088,0.002 c0.54,0.031,0.957,0.487,0.941,1.027c-0.016,0.523-0.432,0.943-0.949,0.97c-0.152,0.063-1.81,0.943-1.81,8.043v7.215h4.885 c3.928-0.574,7.293-1.563,8.915-0.434v-9.708c0-4.316,2.575-6.211,2.686-6.29c0.448-0.321,1.074-0.217,1.396,0.231 c0.319,0.446,0.219,1.066-0.225,1.39c-0.089,0.067-1.856,1.438-1.856,4.669v17.089c0,0.553-0.447,1-1,1s-1-0.447-1-1V51.12 c-0.97,1.815-2.216,3.183-2.216,3.183s-0.799,9.398-2.667,10.825c0,0,0.048,0.315,0.064,0.836h8.615 c0.778,0,1.521-0.145,2.212-0.397c-0.376-0.534-0.619-1.148-0.614-1.832c0.009-1.307,0.939-2.416,2.114-2.908 c0.378-0.159,0.774-0.258,1.179-0.319c0.113-0.187,0.275-0.349,0.484-0.45c1.192-0.58,2.384-1.161,3.575-1.741 c0.067-0.155,0.168-0.302,0.357-0.416c3.835-2.34,7.957-3.092,12.138-2.952c0,0,0.002-0.001,0.002-0.001 c0.083-0.108,0.7-0.047,1.54,0.093c1.447,0.12,2.898,0.333,4.343,0.618c-1.26-1.647-2.521-3.293-3.781-4.94 c-0.338-0.442-0.178-1.069,0.232-1.394c0.041-0.033,0.091-0.04,0.135-0.064c-0.523-0.947-0.94-1.862-1.131-2.644 c-0.31-1.272,2.692-0.4,6.672,1.341v-7.35c5.345,0.281,10.69,0.548,16.04,0.653v15.628c0.53,0.413,0.932,0.776,1.176,1.072 c0.513,0.049,0.999,0.437,0.905,1.099c-0.239,1.677-0.478,3.355-0.718,5.032c1.391,2.128,3.712,3.524,6.343,3.524h4.688h11.207 h2.824c-0.052-0.049-0.116-0.078-0.158-0.139C300.68,67.154,295.496,59.411,295.496,43.456z M216.789,17.883h2.646v3.623h-2.646 V17.883z M246.336,51.078h-15.243c-0.553,0-1-0.447-1-1s0.447-1,1-1h15.243c0.553,0,1,0.447,1,1S246.889,51.078,246.336,51.078z M246.336,46.159h-15.243c-0.553,0-1-0.447-1-1s0.447-1,1-1h15.243c0.553,0,1,0.447,1,1S246.889,46.159,246.336,46.159z M246.336,41.241h-15.243c-0.553,0-1-0.447-1-1s0.447-1,1-1h15.243c0.553,0,1,0.447,1,1S246.889,41.241,246.336,41.241z M274.632,37.3c-5.35-0.108-10.695-0.377-16.04-0.658v-3.389c5.345,0.203,10.692,0.377,16.04,0.461V37.3z M313.266,63.861 c0.664,1.551-0.006,3.754-1.12,3.754h-9.738c0.343-0.333,0.421-0.863,0.143-1.27c-0.051-0.074-5.055-7.548-5.055-22.889 c0-15.244,4.984-22.234,5.035-22.303c0.299-0.407,0.23-0.955-0.122-1.298h9.737c1.114,0,1.784,2.273,1.12,3.873 c-0.873,2.104-2.558,4.352-5.797,4.722c-0.239,0.027-0.482,0.094-0.726,0.179c2.004,2.196,3.442,8.12,3.442,15.106 c0,7.188-1.52,13.27-3.615,15.308c0.302,0.117,0.603,0.207,0.898,0.24C310.707,59.642,312.393,61.821,313.266,63.861z M98.475,64.797c0,0-24.269,24.689-36.462,50.165C49.76,113.7,46.091,98.957,49.529,91.087C54,80.853,60.118,70.027,80.583,54.505 c11.044-8.377,20.225-8.13,26.608-6.127c-7.339-6.814-12.718-16.921-5.533-30.312c14.144-26.363,60.58-16.068,60.58-16.068 c15.182-7.298,20.635,6.386,19.642,24.862c-0.665,12.361-5.502,18.078-8.634,20.512c0.394-3.497,0.609-6.716,0.725-9.134 c-0.033-0.038-0.062-0.078-0.096-0.115c-0.017-0.017-0.044-0.044-0.067-0.066c-0.063-0.062-0.128-0.123-0.194-0.182 c-0.121-0.109-0.247-0.213-0.376-0.311c-0.071-0.054-0.143-0.106-0.216-0.156c-0.009-0.006-0.056-0.038-0.094-0.064 c-0.031-0.017-0.151-0.091-0.17-0.102c-0.065-0.036-0.13-0.071-0.196-0.105c-0.158-0.081-0.32-0.154-0.485-0.22 c-0.082-0.033-0.165-0.064-0.249-0.094c-0.011-0.004-0.065-0.022-0.109-0.037c-0.037-0.009-0.167-0.046-0.188-0.051 c-0.072-0.017-0.144-0.033-0.216-0.047c-0.173-0.034-0.348-0.06-0.523-0.077c-0.088-0.009-0.176-0.013-0.264-0.019 c-0.021-0.001-0.021-0.002-0.032-0.003c-0.003,0.001-0.001,0.002-0.02,0.002c-0.342,0.011-0.675,0.047-1.009,0.121 c-0.528,0.116-1.039-0.387-1.091-0.879c-0.061-0.573,0.355-0.99,0.881-1.105c1.67-0.366,3.393,0.087,4.812,0.99 c0.034-1.151,0.038-1.833,0.038-1.833c-9.068-2.693-12.555-18.773-12.555-18.773c-10.115,20.517-22.117,25.943-34.545,27.967 c0,0-8.507-1.54-10.603,4.436s7.031,9.13,7.031,9.13l-5.598,12.349L98.475,64.797z M42.447,168.009l-3.006,6.205 c0.123,0.003,0.248,0.024,0.371,0.073c0.49,0.192,0.725,0.849,0.498,1.316c-1.059,2.177-2.119,4.353-3.178,6.53 c-0.03,0.06-0.076,0.103-0.114,0.154c-2.934,17.507-5.868,35.015-8.802,52.522c-0.062,0.369-0.278,0.592-0.539,0.711l-17.15,102.515 l8.057,0.026l22.384,0.073L46,338.152l2.823-5.357c-0.24-0.249-0.347-0.612-0.14-1.025c0.785-1.566,1.569-3.132,2.354-4.697 c-0.103,0.043-0.214,0.078-0.351,0.08c-8.823,0.177-17.645,0.355-26.467,0.533c-1.277,0.026-1.482-1.958-0.21-1.984 c3.765-0.076,7.53-0.152,11.295-0.227c-0.042-0.143-0.057-0.301-0.005-0.49l8.345-30.387c0.336-1.225,2.3-0.948,1.96,0.291 c-2.782,10.129-5.564,20.258-8.345,30.387c-0.017,0.063-0.055,0.106-0.081,0.161c4.432-0.089,8.864-0.178,13.296-0.268 c0.619-0.012,0.98,0.449,1.049,0.929c1.32-2.633,2.639-5.267,3.959-7.9c7.916-15.797,15.832-31.593,23.748-47.389 c0.575-1.147,2.385-0.345,1.809,0.805c-0.182,0.364-0.365,0.727-0.547,1.091l22.672-43.016c-2.215-2.976-4.429-5.951-6.644-8.927 c-0.761-1.023,0.848-2.202,1.615-1.171c9.918,13.325,19.837,26.65,29.755,39.975c0.305,0.41,0.222,0.838-0.028,1.146l0.655,0.843 l27.833,87.307l6.38-3.366l32.204-16.994l6.169-3.255c-0.013-0.042-0.038-0.073-0.046-0.119c-0.865-4.892-1.73-9.784-2.594-14.676 c-9.632,5.367-19.263,10.734-28.895,16.1c-1.113,0.62-2.268-0.995-1.151-1.618c5.942-3.311,11.884-6.622,17.826-9.933 c-0.159-0.101-0.298-0.248-0.372-0.49c-1.608-5.306-3.215-10.612-4.823-15.918c-0.368-1.216,1.481-1.956,1.854-0.723 c1.608,5.306,3.215,10.612,4.823,15.918c0.039,0.13,0.042,0.25,0.035,0.367c3.446-1.92,6.892-3.841,10.339-5.761l-4.588-25.95 c-0.033-0.188-0.007-0.346,0.045-0.486l-10.19-49.689l-45.86-42.877l-11.439-20.292c-2.321,2.172-8.745,6.379-25.759,10.337 C78.153,184.592,48.78,171.08,42.447,168.009z M64.099,264.992c-8.258,1.865-16.874,1.327-24.863-1.452 c-1.207-0.42-0.383-2.243,0.813-1.827c7.664,2.666,15.931,3.08,23.839,1.295C65.142,262.724,65.327,264.714,64.099,264.992z M166.678,236.504c3.914-2.54,7.827-5.08,11.741-7.62c1.077-0.699,2.227,0.92,1.151,1.618l-11.741,7.62 C166.752,238.82,165.602,237.202,166.678,236.504z M168.323,66.871c0.825-0.237,1.772,0.847,1.092,1.745 c-3.1,4.089-7.767,6.112-12.745,5.994c-2.403-0.057-4.717-0.572-6.971-1.319c-2.902-0.962-5.703-2.319-8.441-3.682 c-1.209-0.602-0.354-2.59,0.855-1.988c4.289,2.135,8.693,4.338,13.503,4.765c4.721,0.419,9.228-1.235,12.191-5.144 C167.96,67.041,168.138,66.924,168.323,66.871z M171.088,49.949c-0.705,2.542-3.177,3.965-5.718,3.991 c-0.54,0.005-1.03-0.3-1.092-0.879c-0.053-0.494,0.343-1.1,0.881-1.105c0.875-0.009,1.751-0.168,2.453-0.564 c0.402-0.227,0.699-0.475,0.945-0.767c0.304-0.361,0.4-0.557,0.578-1.013c0.087-0.223,0.147-0.711,0.12-0.995 c-0.009-0.091-0.023-0.182-0.04-0.272c-0.009-0.019-0.052-0.176-0.053-0.179c-0.033-0.094-0.072-0.185-0.113-0.276 c-0.019-0.043-0.021-0.052-0.025-0.065c-0.009-0.009-0.017-0.018-0.046-0.06c-0.057-0.082-0.11-0.165-0.171-0.244 c-0.003-0.004-0.095-0.106-0.115-0.133c-0.123-0.12-0.257-0.232-0.399-0.328c-0.033-0.017-0.122-0.069-0.144-0.079 c-0.072-0.035-0.147-0.064-0.222-0.092c-0.015-0.002-0.141-0.041-0.171-0.046c-0.097-0.018-0.195-0.027-0.294-0.035 c-0.54-0.042-0.906-0.631-0.828-1.133c0.086-0.557,0.595-0.885,1.132-0.843C170.229,45.022,171.717,47.685,171.088,49.949z M149.525,37.902c-0.449-0.37-0.42-0.954-0.131-1.405c2.367-3.692,7.182-5.054,11.174-3.314c1.172,0.51,0.355,2.336-0.813,1.827 c-3.254-1.417-6.937-0.208-8.833,2.75C150.631,38.213,149.904,38.214,149.525,37.902z M170.687,44.66 c0-0.628,0.509-1.137,1.137-1.137s1.137,0.509,1.137,1.137c0,0.628-0.509,1.137-1.137,1.137S170.687,45.288,170.687,44.66z M161.333,43.523c0,0.628-0.509,1.137-1.137,1.137s-1.137-0.509-1.137-1.137s0.509-1.137,1.137-1.137S161.333,42.895,161.333,43.523 z M156.16,62.152c-0.057,0.525-0.617,0.931-1.132,0.843c-2.628-0.452-5.022-1.953-6.556-4.136c-0.32-0.456-0.193-1.058,0.232-1.395 c0.418-0.331,1.083-0.203,1.383,0.223c0.174,0.248,0.358,0.488,0.556,0.717c0.04,0.046,0.08,0.091,0.12,0.136 c0.02,0.022,0.018,0.021,0.029,0.033c0.005,0.004,0-0.001,0.013,0.011c0.109,0.105,0.213,0.215,0.323,0.318 c0.409,0.383,0.853,0.724,1.324,1.029c0.021,0.014,0.018,0.012,0.031,0.021c0.006,0.003-0.001-0.002,0.014,0.006 c0.066,0.036,0.131,0.076,0.197,0.113c0.119,0.066,0.239,0.13,0.361,0.191c0.257,0.129,0.52,0.246,0.787,0.35 c0.141,0.055,0.283,0.106,0.427,0.154c0.057,0.019,0.115,0.037,0.173,0.055c0.014,0.005,0.02,0.006,0.031,0.01 c0.006,0.001,0.009,0.001,0.019,0.004c0.281,0.064,0.558,0.135,0.842,0.184C155.882,61.113,156.22,61.608,156.16,62.152z M222.592,375.351c0.246,0.002,0.451,0.116,0.601,0.295c0.022,0.026,0.05,0.047,0.07,0.075c0.192,0.081,0.385,0.161,0.577,0.242 c6.849,2.87,13.698,5.741,20.546,8.611c0.875,0.367,0.648,1.462-0.005,1.804c-0.228,0.119-0.505,0.15-0.808,0.023 c-7.053-2.956-14.105-5.912-21.158-8.868c-0.002-0.001-0.003-0.003-0.006-0.004c-4.344,2.101-8.687,4.202-13.03,6.302 c-1.16,0.561-1.845-1.309-0.704-1.862c4.499-2.176,8.999-4.352,13.498-6.528C222.323,375.37,222.461,375.349,222.592,375.351z M35.92,378.102c0.092,0.092,0.166,0.202,0.205,0.333c0.927,3.111,1.855,6.221,2.782,9.331c0.149,0.5-0.038,1.039-0.529,1.263 c-0.017,0.008-0.028,0.022-0.046,0.029c-0.475,0.185-1.125-0.054-1.279-0.569c-0.875-2.934-1.75-5.868-2.624-8.802 c-0.075,0.008-0.143,0.029-0.226,0.019l-18.698-2.188c-1.275-0.149-0.958-2.123,0.303-1.976c6.233,0.729,12.465,1.459,18.698,2.188 c0.152,0.018,0.278,0.065,0.386,0.128C35.239,377.745,35.661,377.844,35.92,378.102z M0.504,390.511 c-0.24-0.189-0.403-0.476-0.35-0.871c0.35-2.628,0.7-5.256,1.05-7.884c0.054-0.402,0.292-0.632,0.578-0.741 c0.403-0.806,0.806-1.612,1.208-2.417c0.247-0.495,0.495-0.99,0.743-1.485c2.407-4.814,4.813-9.628,7.22-14.443 c0.381-0.763,1.297-0.656,1.707-0.165c0.207,0.247,0.294,0.585,0.101,0.971c-3.176,6.353-6.352,12.706-9.528,19.06 c-0.044,0.087-0.106,0.143-0.162,0.208c-0.319,2.396-0.638,4.792-0.957,7.187C1.998,390.812,1.038,390.931,0.504,390.511z M36.112,391.715c0.352,0.479,0.328,1.268-0.388,1.553c-6.582,2.612-13.827,3.275-20.771,1.877c-0.419-0.084-0.65-0.366-0.743-0.688 c-0.185-0.641,0.216-1.455,1.046-1.288c6.627,1.334,13.479,0.731,19.763-1.763C35.494,391.218,35.882,391.401,36.112,391.715z"/></g></svg>