<?xml version="1.0" encoding="UTF-8" standalone="no"?><svg xmlns="http://www.w3.org/2000/svg" xmlns:xlink="http://www.w3.org/1999/xlink" contentScriptType="text/ecmascript" fill="#000000" width="254.3" zoomAndPan="magnify" contentStyleType="text/css" viewBox="-1.8 -4.9 254.3 427.4" height="427.4" preserveAspectRatio="xMidYMid meet" version="1"><g id="change1_1"><path fill="#4b635a" d="M214.244,286.282l2.739-3.503c2.434-2.272,4.843-4.57,7.205-6.918c0.631-0.627,0.227-1.591-0.385-1.806 l28.723-36.743l-28.24-55.811l-20.222-0.794c-2.277-7.958-5.769-16.076-9.25-24.08c0,0-14.639-28.587-13.325-63.538 c23.791-2.841,36.801-13.013,36.801-13.013s-12.02-15.228-33.884-31.026c0.948-8.368,2.145-39.905-32.283-47.316 c-30.84-6.639-43.873,7.457-48.178,14.137c-0.363-0.019-0.695,0.165-0.897,0.449c-26.988-2.951-46.052,1.991-46.052,1.991 s-4.584,11.04,6.14,26.532c-5.987,5.163-10.616,11.344-13.118,18.394c-6.925,19.512-7.596,42.648-16.872,61.058 c-12.946,25.692-32.967,44.279-31.963,75.522c0.371,11.527,3.899,22.675,9.697,32.605c-0.844,1.895-1.688,3.789-2.531,5.684 c-0.067,0.15-0.134,0.3-0.201,0.45c-0.037-0.026-0.064-0.062-0.106-0.082c-0.497-0.245-1.096-0.041-1.341,0.452 c-4.573,9.231-8.467,18.269-5.896,27.331c2.168,7.642,8.25,12.895,15.385,18.49l17.124,13.429c0.18,0.141,0.398,0.213,0.617,0.213 c0.17,0,0.341-0.043,0.495-0.131c2.562-1.46,5.225-2.767,7.8-4.029c2.601-1.275,5.288-2.594,7.9-4.082 c0.479-0.273,0.647-0.885,0.374-1.364c-0.274-0.479-0.885-0.647-1.364-0.374c-0.171,0.098-0.346,0.189-0.518,0.286 c1.299-0.792,2.598-1.584,3.897-2.376c4.142-2.525,8.284-5.051,12.425-7.576c0.912-0.556,2.477-1.201,3.615-1.932 c0.255,0.519,0.521,1.034,0.809,1.54c-0.108,0.102-0.201,0.231-0.252,0.42c-4.367,16.424-8.735,32.848-13.103,49.273 c-0.699,2.629-1.398,5.257-2.097,7.886c-6.787,18.071-15.319,38.617-20.87,53.336c-9.709,25.744,52.049,28.031,77.513,22.818 s30.928,10.412,83.09,4.608c52.161-5.803,26.966-57.659,20.529-70.217C207.737,333.914,214.244,286.282,214.244,286.282z"/></g><g id="change2_1"><path fill="#fec782" d="M94.882,98.729c1.466,1.273,1.802,3.14,1.376,4.881c0.686-0.906,0.874-1.934,0.225-3.092 c-0.017-0.03-0.041-0.055-0.059-0.085h2.661l6.087-13.764h40.945l6.087,13.764h1.314l-6.092-22.414 c-4.352,2.748-8.995,5.003-13.865,6.683c-1.212,0.418-2-1.42-0.781-1.841c4.959-1.711,9.696-4.005,14.099-6.855l-0.589-2.166 c0,0-17.635,1.576-22.053-22.123l-0.516-0.054c0.047,0.477-0.198,0.955-0.816,0.993c-15.049,0.914-27.922,11.275-32.046,25.767 c-0.221,0.776-1.03,0.766-1.517,0.349C87.525,84.36,86.465,90.297,86,96.311c1.539,0.078,3.073,0.281,4.575,0.629 C92.082,97.289,93.687,97.691,94.882,98.729z M89.469,84.293c5.418,1.161,11.04,0.542,16.064-1.8 c1.17-0.545,1.947,1.298,0.781,1.841c-5.304,2.473-11.351,3.173-17.075,1.946C87.988,86.012,88.213,84.024,89.469,84.293z M96.174,64.148c4.114-5.535,9.219-8.653,13.822-10.409C104.648,56.09,99.905,59.671,96.174,64.148z M118.263,185.299 c-1.167,10.912-2.335,21.824-3.502,32.736c-6.022-1.542-11.104-3.031-14.23-4.191c-13.126-4.868-1.472-36.8-1.305-37.256 c0.001-0.003,0.008-0.021,0.008-0.021s3.333-0.147,7.026-0.253c0.145,0.109,0.282,0.228,0.43,0.332 c-0.315,0.238-0.476,0.637-0.228,1.098C108.844,182.177,113.31,184.986,118.263,185.299z M157.868,178.032 c4.8,0.235,21.663,1.073,23.471,1.317c0.125,0.017,0.213,0.184,0.268,0.475c0.519,2.743-1.985,16.95-5.42,28.833 c-5.433,4.441-10.865,8.882-16.298,13.323c-0.319-2.752-0.62-5.506-0.887-8.264C157.859,201.868,157.224,189.926,157.868,178.032z M162.672,321.644c-13.796,7.965-30.216,14.348-41.954,9.091c-10.214-4.574-11.901-31.247-10.44-60.544 c0.468,0.017,0.941-0.239,1.005-0.842l7.064-66.028c0.673-6.288,1.345-12.577,2.018-18.865c0.075-0.703-0.5-1.119-1.138-1.104 c-4.077,0.091-8.045-2.035-10.314-5.393c0.614,0.297,1.246,0.557,1.895,0.77c2.941,0.964,6.001,0.859,9.054,0.945 c1.275,0.036,1.52-1.951,0.229-1.987c-2.698-0.076-5.499,0.087-8.119-0.683c-2.196-0.645-4.211-1.814-5.867-3.394 c-2.986-2.848-4.477-7.028-4.165-11.106c0.549,0.707,1.131,1.394,1.791,2.033c3.691,3.572,8.825,5.602,13.971,5.052 c1.28-0.137,0.992-2.116-0.289-1.979c-4.734,0.506-9.45-1.548-12.728-4.925c-0.915-0.943-1.684-1.981-2.365-3.074 c-0.058-0.235-0.185-0.44-0.363-0.587c-1.349-2.329-2.286-4.905-3.096-7.495c2.77,2.953,5.931,5.537,9.393,7.642 c1.09,0.663,2.314-0.921,1.215-1.589c-5.36-3.259-9.953-7.622-13.468-12.82c-1.763-2.607-3.226-5.412-4.365-8.345 c-1.118-2.878-1.941-5.912-1.693-8.979c0.423-0.49,0.772-1.037,1.059-1.615c0.55-0.055,1.146,0.106,1.758,0.549 c1.595,1.155,2.439,2.177,2.891,2.941c0.711,15.931,13.89,28.674,29.993,28.674c13.795,0,25.441-9.355,28.944-22.052 c0.018-0.038,0.041-0.075,0.059-0.113c1.392-2.939,2.103-5.429,5.385-6.942c4.393-2.025,2.531,3.364,2.229,5.421 c-0.74,5.028-1.291,10.113-1.92,15.183c-6.652,23.969-5.386,49.457-2.324,74.041c-0.581,0.522-0.32,1.316,0.205,1.63 c0.327,2.558,0.671,5.105,1.027,7.64c1.162,8.274,2.566,16.514,4.195,24.709c0.25,1.257,2.231,0.978,1.979-0.289 c-1.878-9.441-3.443-18.943-4.7-28.485c1.753,0.956,15.409,9.031,23.84,32.885c9.022,25.526,4.434,41.345,4.434,41.345 s-2.285,2-6.092,4.958c-1.875,1.323-3.762,2.63-5.667,3.911c-4.639,3.12-9.364,6.11-14.163,8.978 C162.709,321.023,162.616,321.339,162.672,321.644z M65.285,263.771c0.291,4.533,1.278,8.977,3.27,13.037 c-1.138,0.731-2.703,1.376-3.615,1.932c-4.142,2.526-8.284,5.051-12.425,7.576c-1.299,0.792-2.598,1.584-3.897,2.376 c-2.398,1.342-4.872,2.562-7.273,3.739c-2.408,1.182-4.894,2.4-7.323,3.757l-16.598-13.017 c-6.854-5.375-12.691-10.399-14.695-17.461c-2.376-8.378,1.371-17.031,5.765-25.897c0.224-0.453,0.06-0.982-0.346-1.259 c0.067-0.15,0.134-0.301,0.201-0.45c0.844-1.895,1.688-3.789,2.531-5.684c3.821-8.579,7.641-17.158,11.462-25.737 c5.807-13.04,11.615-26.08,17.422-39.12l17.15-59.152l0.102-0.056c0.006,0.185,0.054,0.375,0.205,0.56 c5.845,7.149,4.375,17.307,8.306,25.328c0.565,1.153,2.409,0.377,1.841-0.781c-4.027-8.216-2.544-18.407-8.564-25.77 c-0.072-0.088-0.155-0.138-0.236-0.193l6.709-3.698c-0.383,0.864,0.65,1.975,1.487,1.226c5.357-4.792,12.593-7.257,19.768-6.688 c2.637,0.209,8.565,0.651,7.867,4.525c-0.723,4.015-5.585,4.35-8.831,4.533c-0.342,0.019-0.565,0.178-0.694,0.394 c-0.401-0.174-0.811-0.334-1.237-0.461c-3.314-0.989-6.763-0.605-10.135-0.175c-1.277,0.163-0.99,2.142,0.289,1.979 c3.122-0.397,6.436-0.855,9.49,0.174c2.799,0.944,4.519,2.929,5.428,5.697c0.421,1.282,0.692,2.631,0.912,3.962 c0.112,0.676,0.107,0.98-0.644,0.946c-0.709-0.033-1.431-0.248-2.124-0.39c-3.234-0.662-6.46-1.366-9.688-2.055 c-1.256-0.268-1.481,1.72-0.229,1.987c3.015,0.644,6.029,1.298,9.048,1.923c1.209,0.25,2.607,0.733,3.854,0.468 c0.005,0.061,0.017,0.122,0.02,0.184c0.003,0.048,0.004,0.096,0.006,0.144c0,0.013,0,0.027,0,0.056 c-0.003,0.123-0.006,0.245-0.015,0.368c-0.016,0.245-0.045,0.489-0.087,0.731c-0.021,0.121-0.046,0.241-0.072,0.361 c-0.006,0.027-0.007,0.032-0.01,0.045c-0.017,0.062-0.034,0.123-0.053,0.185c-0.065,0.213-0.143,0.42-0.228,0.624 c-0.487-0.039-1.029,0.213-1.17,0.818c-0.408,1.755-0.425,3.524-0.205,5.272c-2.458-1.781-5.488-2.684-8.571-2.499 c-0.539,0.032-0.919,0.632-0.845,1.134c0.084,0.572,0.593,0.877,1.134,0.845c3.33-0.2,6.71,1.236,8.897,3.749 c0.018,0.021,0.038,0.035,0.057,0.054c0.242,0.863,0.521,1.716,0.828,2.553c0.134,0.366,0.291,0.723,0.435,1.084 c0.778,3.106-0.343,6.349-1.856,9.071c-0.903,1.623-3.247,6.06-5.722,5.377c-2.258-0.623-3.734-1.788-4.242-2.235 c-0.068-0.906-0.046-1.826-0.05-2.721c-0.003-0.707-0.006-1.415-0.008-2.122c0.073-0.031,0.148-0.053,0.214-0.1 c1.156-0.828,2.664-1.29,4.067-1.214c0.175,0.01,0.351,0.026,0.525,0.052c0.085,0.013,0.17,0.029,0.255,0.046 c0.028,0.006,0.033,0.005,0.032,0.003c0.01,0.004,0.023,0.01,0.057,0.022c0.08,0.029,0.16,0.056,0.239,0.089 c0.034,0.015,0.1,0.047,0.118,0.053c0.057,0.036,0.114,0.075,0.167,0.117c0.024,0.02,0.067,0.065,0.087,0.085 c0.03,0.046,0.073,0.124,0.066,0.103c0.012,0.028,0.024,0.056,0.036,0.085c-0.076-0.187-0.001,0.036,0.009,0.081 c0.004,0.017,0.005,0.016,0.008,0.025c-0.001,0.004-0.002,0-0.003,0.007c-0.006,0.044-0.012,0.088-0.018,0.131c0,0-0.001,0-0.001,0 c-0.002-0.016-0.008-0.012-0.011-0.006c0.003-0.006,0.009-0.009,0.011,0.006c0,0.003-0.002,0.014-0.002,0.019 c-0.021,0.022-0.041,0.044-0.049,0.052c0.11-0.129,0.02-0.037-0.066,0.016c-0.462,0.281-0.484,1.01-0.18,1.403 c0.361,0.468,0.94,0.461,1.403,0.18c0.917-0.557,1.105-1.847,0.71-2.775c-0.435-1.023-1.495-1.534-2.535-1.714 c-1.741-0.302-3.584,0.106-5.147,0.941c-0.002-0.399-0.003-0.799-0.005-1.198c-0.002-0.54-0.297-1.041-0.879-1.108 c-0.487-0.057-1.111,0.335-1.108,0.879c0.008,2.018,0.016,4.035,0.024,6.053c0.008,1.89-0.019,3.777,0.648,5.575 c0.23,0.62,0.822,0.711,1.288,0.495c-0.005,0.532-0.018,1.101-0.044,1.709c-0.201,4.651-1.127,11.251-4.473,15.598 c-5.627,7.31-10.42,8.714-10.441,8.72c-0.272,0.079-0.572,1.411-0.853,3.17c-0.546,3.427-1.019,8.482-1.067,9.098 c-0.214,2.734-0.298,5.54-0.331,8.361c-0.622-0.247-1.522,0.148-1.424,1.03c2.269,20.387,2.319,40.976,0.155,61.375 c-0.136,1.278,1.851,1.514,1.987,0.229c0.479-4.518,0.831-9.048,1.095-13.582c0.401,0.194,0.845,0.387,1.298,0.659 c0.777,0.466,1.303,1.15,1.671,1.965C65.176,255.693,65.026,259.744,65.285,263.771z M62.914,243.179 c0.015-0.389,0.031-0.778,0.044-1.167C62.989,242.442,62.975,242.835,62.914,243.179z M83.933,144.529 c0.001-0.006,0.002-0.012,0.003-0.019c0.004-0.003,0.004,0,0.012-0.007C84.02,144.438,83.976,144.484,83.933,144.529z M83.933,144.529C83.933,144.53,83.933,144.53,83.933,144.529c-0.001,0.014-0.001,0.023-0.007,0.052 C83.93,144.564,83.931,144.547,83.933,144.529z M181.658,63.448c12.271,5.324,24.482,10.864,36.631,16.627 c0,0-12.02-15.228-33.884-31.026c0.948-8.368,2.145-39.905-32.283-47.316c-30.84-6.639-43.873,7.457-48.178,14.137 c0.172,0.009,0.348,0.049,0.522,0.17c1.508,1.051,3.035,2.075,4.572,3.085c-0.045-0.236,0.014-0.495,0.227-0.739 c3.954-4.534,8.716-8.266,14.06-11.027c1.146-0.592,1.919,1.253,0.781,1.841c-5.023,2.595-9.536,6.141-13.252,10.402 c-0.166,0.19-0.361,0.294-0.561,0.333c3.348,2.164,6.753,4.237,10.231,6.185c19.511,10.928,40.867,18.484,62.916,22.222 c1.268,0.215,1.039,2.202-0.229,1.987c-6.267-1.063-12.479-2.426-18.616-4.082c-21.902-5.911-42.732-15.652-61.343-28.618 c-0.514-0.358-0.485-0.915-0.203-1.31c-26.988-2.951-46.052,1.991-46.052,1.991c12.305,3.549,24.537,7.364,36.706,11.407 C123.401,39.585,152.704,50.886,181.658,63.448z M172.799,42.702c-1.331,0.07-2.653-0.489-3.63-1.373 c-0.958-0.866-1.589-2.128-1.635-3.426c-0.885,0.87-2.103,1.431-3.349,1.437c-1.33,0.007-2.641-0.556-3.593-1.477 c-0.952-0.921-1.58-2.244-1.531-3.585c0.055-1.501,0.731-2.852,1.909-3.782c0.547-0.432,1.216-0.702,1.912-0.806 c0.242-0.227,0.561-0.376,0.894-0.399c-0.793-0.871-1.294-2.031-1.299-3.211c-0.007-1.33,0.556-2.641,1.477-3.593 c0.921-0.952,2.244-1.58,3.585-1.531c1.501,0.055,2.852,0.731,3.782,1.908c0.432,0.547,0.702,1.217,0.806,1.912 c0.207,0.221,0.336,0.508,0.377,0.809c0.054-0.046,0.103-0.096,0.159-0.14c0.547-0.432,1.217-0.702,1.912-0.806 c0.246-0.23,0.57-0.383,0.908-0.402c1.315-0.076,2.577,0.433,3.571,1.272c1.025,0.865,1.682,2.167,1.752,3.507 c0.07,1.331-0.489,2.653-1.373,3.63c-0.841,0.93-2.055,1.55-3.313,1.628c0.085,0.093,0.171,0.184,0.249,0.283 c0.432,0.547,0.702,1.216,0.806,1.912c0.23,0.246,0.383,0.57,0.402,0.908c0.075,1.315-0.433,2.577-1.272,3.571 C175.441,41.975,174.139,42.632,172.799,42.702z M166.816,27.971c0.547-0.432,1.216-0.702,1.912-0.806 c0.246-0.23,0.57-0.383,0.908-0.402c1.315-0.075,2.577,0.433,3.571,1.272c1.025,0.865,1.682,2.167,1.752,3.507 c0.07,1.331-0.489,2.653-1.373,3.63c-0.895,0.989-2.212,1.637-3.556,1.643c-1.33,0.007-2.641-0.556-3.593-1.477 c-0.952-0.921-1.58-2.244-1.531-3.585C164.963,30.252,165.639,28.9,166.816,27.971z"/></g><g id="change3_1"><path fill="#575853" d="M93.701,29.718c-11.46,2.821-22.307,8.003-30.565,15.125c-10.724-15.492-6.14-26.532-6.14-26.532 C69.301,21.859,81.533,25.675,93.701,29.718z M182.507,81.561c-0.554,3.899-0.876,7.749-1.018,11.527 c23.791-2.841,36.801-13.013,36.801-13.013c-12.149-5.763-24.361-11.303-36.631-16.627 C183.073,68.441,183.523,74.412,182.507,81.561z M155.672,127.959c0,2.761-0.382,5.434-1.083,7.975 c-3.503,12.697-15.148,22.052-28.944,22.052c-16.103,0-29.282-12.742-29.993-28.674c-0.02-0.449-0.034-0.9-0.034-1.354 c0-16.558,13.471-30.028,30.027-30.028S155.672,111.401,155.672,127.959z M101.617,127.959c0,13.249,10.778,24.027,24.027,24.027 s24.027-10.778,24.027-24.027s-10.778-24.028-24.027-24.028S101.617,114.71,101.617,127.959z M160.882,147.573 c-0.188,0.635-0.365,1.273-0.542,1.91c-6.652,23.969-5.386,49.457-2.324,74.041c0.014-0.013,0.018-0.028,0.033-0.04 c0.613-0.501,1.226-1.003,1.84-1.504c-0.319-2.752-0.62-5.506-0.887-8.264c-1.143-11.847-1.778-23.79-1.134-35.683 c0.119-2.191,0.266-4.38,0.477-6.567c0.52-5.375,1.351-10.718,2.538-15.983c0.542-2.405,1.152-4.795,1.853-7.161 C163.099,147.099,161.248,146.337,160.882,147.573z M159.272,225.066c-0.361,0.295-0.748,0.27-1.052,0.088 c0.327,2.558,0.671,5.105,1.027,7.64c1.162,8.274,2.566,16.514,4.195,24.709c0.25,1.257,2.231,0.978,1.979-0.289 c-1.878-9.441-3.443-18.943-4.7-28.485c-0.193-1.462-0.383-2.925-0.56-4.389C159.865,224.582,159.569,224.824,159.272,225.066z M111.283,269.349l7.064-66.028c0.673-6.288,1.345-12.577,2.018-18.865c0.075-0.703-0.5-1.119-1.138-1.104 c-4.077,0.091-8.045-2.035-10.314-5.393c0.614,0.297,1.246,0.557,1.895,0.77c2.941,0.964,6.001,0.859,9.054,0.945 c1.275,0.036,1.52-1.951,0.229-1.987c-2.698-0.076-5.499,0.087-8.119-0.683c-2.196-0.645-4.211-1.814-5.867-3.394 c-2.986-2.848-4.477-7.028-4.165-11.106c0.549,0.707,1.131,1.394,1.791,2.033c3.691,3.572,8.825,5.602,13.971,5.052 c1.28-0.137,0.992-2.116-0.289-1.979c-4.734,0.506-9.45-1.548-12.728-4.925c-0.915-0.943-1.684-1.981-2.365-3.074 c-0.058-0.235-0.185-0.44-0.363-0.587c-1.349-2.329-2.286-4.905-3.096-7.495c2.77,2.953,5.931,5.537,9.393,7.642 c1.09,0.663,2.314-0.921,1.215-1.589c-5.36-3.259-9.953-7.622-13.468-12.82c-1.763-2.607-3.226-5.412-4.365-8.345 c-1.118-2.878-1.941-5.912-1.693-8.979c0.423-0.49,0.772-1.037,1.059-1.615c0.732-1.478,1.013-3.183,0.751-4.812 c-0.032-0.197-0.139-0.37-0.274-0.517c0.145-0.357,0.214-0.758,0.194-1.181c-0.06-1.26-0.427-2.59-0.75-3.805 c-0.332-1.248-0.743-2.47-1.384-3.596c-0.586-1.03-1.348-1.906-2.23-2.634c2.817-0.233,5.787-0.806,7.654-3.071 c0.62-0.752,1.067-1.656,1.297-2.595c0.425-1.741,0.089-3.608-1.376-4.881c-1.196-1.038-2.8-1.44-4.308-1.789 c-1.502-0.348-3.035-0.551-4.575-0.629c-0.196-0.01-0.392-0.026-0.589-0.031c-3.339-0.096-6.657,0.388-9.836,1.412 c-3.702,1.192-7.138,3.161-10.036,5.754c-0.122,0.109-0.208,0.231-0.264,0.357c-0.383,0.864,0.65,1.975,1.487,1.226 c5.357-4.792,12.593-7.257,19.768-6.688c2.637,0.209,8.565,0.651,7.867,4.525c-0.723,4.015-5.585,4.35-8.831,4.533 c-0.342,0.019-0.565,0.178-0.694,0.394c-0.401-0.174-0.811-0.334-1.237-0.461c-3.314-0.989-6.763-0.605-10.135-0.175 c-1.277,0.163-0.99,2.142,0.289,1.979c3.122-0.397,6.436-0.855,9.49,0.174c2.799,0.944,4.519,2.929,5.428,5.697 c0.421,1.282,0.692,2.631,0.912,3.962c0.112,0.676,0.107,0.98-0.644,0.946c-0.709-0.033-1.431-0.248-2.124-0.39 c-3.234-0.662-6.46-1.366-9.688-2.055c-1.256-0.268-1.481,1.72-0.229,1.987c3.015,0.644,6.029,1.298,9.048,1.923 c1.209,0.25,2.607,0.733,3.854,0.468c0.005,0.061,0.017,0.122,0.02,0.184c0.003,0.048,0.004,0.096,0.006,0.144 c0,0.013,0,0.027,0,0.056c-0.003,0.123-0.006,0.245-0.015,0.368c-0.016,0.245-0.045,0.489-0.087,0.731 c-0.021,0.121-0.046,0.241-0.072,0.361c-0.006,0.027-0.007,0.032-0.01,0.045c-0.017,0.062-0.034,0.123-0.053,0.185 c-0.065,0.213-0.143,0.42-0.228,0.624c-0.487-0.039-1.029,0.213-1.17,0.818c-0.408,1.755-0.425,3.524-0.205,5.272 c-2.458-1.781-5.488-2.684-8.571-2.499c-0.539,0.032-0.919,0.632-0.845,1.134c0.084,0.572,0.593,0.877,1.134,0.845 c3.33-0.2,6.71,1.236,8.897,3.749c0.018,0.021,0.038,0.035,0.057,0.054c0.242,0.863,0.521,1.716,0.828,2.553 c0.134,0.366,0.291,0.723,0.435,1.084c1.085,2.718,2.439,5.33,4.035,7.781c0.726,1.115,1.516,2.187,2.338,3.232 c-0.177,0.244-0.27,0.554-0.165,0.91c0.595,2.016,1.223,4.042,1.983,6.004c0.615,1.59,1.315,3.138,2.167,4.599 c-1.106,5.168,0.249,10.681,3.98,14.526c0.605,0.623,1.271,1.185,1.966,1.706c0.145,0.109,0.282,0.228,0.43,0.332 c-0.315,0.238-0.476,0.637-0.228,1.098c2.382,4.432,6.849,7.241,11.802,7.554c-1.167,10.912-2.335,21.824-3.502,32.736 c-1.149,10.74-2.298,21.479-3.447,32.219c-0.673,6.288-1.345,12.577-2.018,18.865c-0.073,0.678,0.452,1.052,0.982,1.071 C110.747,270.208,111.219,269.951,111.283,269.349z M57.015,108.357c0.006,0.185,0.054,0.375,0.205,0.56 c5.845,7.149,4.375,17.307,8.306,25.328c0.565,1.153,2.409,0.377,1.841-0.781c-4.027-8.216-2.544-18.407-8.564-25.77 c-0.072-0.088-0.155-0.138-0.236-0.193C57.895,107.046,56.99,107.633,57.015,108.357z M78.59,152.052 c-0.272-0.734-0.396-1.504-0.454-2.284c-0.068-0.906-0.046-1.826-0.05-2.721c-0.003-0.707-0.006-1.415-0.008-2.122 c0.073-0.031,0.148-0.053,0.214-0.1c1.156-0.828,2.664-1.29,4.067-1.214c0.175,0.01,0.351,0.026,0.525,0.052 c0.085,0.013,0.17,0.029,0.255,0.046c0.028,0.006,0.033,0.005,0.032,0.003c0.01,0.004,0.023,0.01,0.057,0.022 c0.08,0.029,0.16,0.056,0.239,0.089c0.034,0.015,0.1,0.047,0.118,0.053c0.057,0.036,0.114,0.075,0.167,0.117 c0.024,0.02,0.067,0.065,0.087,0.085c0.03,0.046,0.073,0.124,0.066,0.103c0.012,0.028,0.024,0.056,0.036,0.085 c-0.076-0.187-0.001,0.036,0.009,0.081c0.004,0.017,0.005,0.016,0.008,0.025c-0.001,0.004-0.002,0-0.003,0.007 c-0.006,0.044-0.012,0.088-0.018,0.131c0.004-0.003,0.004,0,0.012-0.007c0.072-0.065,0.028-0.02-0.015,0.026 c-0.003,0.018-0.003,0.035-0.007,0.052c0.007-0.03,0.006-0.039,0.006-0.052c-0.021,0.022-0.041,0.044-0.049,0.052 c0.11-0.129,0.02-0.037-0.066,0.016c-0.462,0.281-0.484,1.01-0.18,1.403c0.361,0.468,0.94,0.461,1.403,0.18 c0.917-0.557,1.105-1.847,0.71-2.775c-0.435-1.023-1.495-1.534-2.535-1.714c-1.741-0.302-3.584,0.106-5.147,0.941 c-0.002-0.399-0.003-0.799-0.005-1.198c-0.002-0.54-0.297-1.041-0.879-1.108c-0.487-0.057-1.111,0.335-1.108,0.879 c0.008,2.018,0.016,4.035,0.024,6.053c0.008,1.89-0.019,3.777,0.648,5.575c0.23,0.62,0.822,0.711,1.288,0.495 C78.48,153.123,78.808,152.639,78.59,152.052z M83.936,144.51C83.935,144.51,83.935,144.511,83.936,144.51 c-0.001,0.003-0.003,0.015-0.003,0.02c0,0,0.001,0,0.001-0.001C83.934,144.523,83.935,144.517,83.936,144.51z M59.404,201.014 c2.269,20.387,2.319,40.976,0.155,61.375c-0.136,1.278,1.851,1.514,1.987,0.229c0.479-4.518,0.831-9.048,1.095-13.582 c0.113-1.952,0.2-3.904,0.273-5.858c0.015-0.389,0.031-0.778,0.044-1.167c0.461-13.776-0.049-27.581-1.575-41.288 c-0.044-0.399-0.274-0.629-0.556-0.741C60.206,199.737,59.306,200.132,59.404,201.014z M34.022,296.189l-16.598-13.017 c-6.854-5.375-12.691-10.399-14.695-17.461c-2.376-8.378,1.371-17.031,5.765-25.897c0.224-0.453,0.06-0.982-0.346-1.259 c-0.037-0.026-0.064-0.062-0.106-0.082c-0.497-0.245-1.096-0.041-1.341,0.452c-4.573,9.231-8.467,18.269-5.896,27.331 c2.168,7.642,8.25,12.895,15.385,18.49l17.124,13.429c0.18,0.141,0.398,0.213,0.617,0.213c0.17,0,0.341-0.043,0.495-0.131 c2.562-1.46,5.225-2.767,7.8-4.029c2.601-1.275,5.288-2.594,7.9-4.082c0.479-0.273,0.647-0.885,0.374-1.364 c-0.274-0.479-0.885-0.647-1.364-0.374c-0.171,0.098-0.346,0.189-0.518,0.286c-2.398,1.342-4.872,2.562-7.273,3.739 C38.937,293.614,36.451,294.833,34.022,296.189z"/></g><g id="change4_1"><path fill="#ffe1bc" d="M22.341,206.685c-3.821,8.579-7.641,17.158-11.462,25.737c-5.798-9.93-9.326-21.077-9.697-32.605 c-1.004-31.243,19.017-49.831,31.963-75.522c9.276-18.41,9.947-41.546,16.872-61.058c2.502-7.049,7.131-13.23,13.118-18.394 c8.258-7.122,19.106-12.304,30.565-15.125c29.699,9.867,59.003,21.167,87.957,33.73c1.414,4.993,1.864,10.963,0.849,18.113 c-0.554,3.899-0.876,7.749-1.018,11.527c-1.315,34.951,13.325,63.538,13.325,63.538c3.482,8.004,6.973,16.122,9.25,24.08 l-22.457-0.882c-0.055-0.29-0.142-0.458-0.268-0.475c-1.807-0.244-18.67-1.082-23.471-1.317c0.119-2.191,0.266-4.38,0.477-6.567 c0.52-5.375,1.351-10.718,2.538-15.983h10.529c2.404,0,4.352-1.949,4.352-4.352v-46.345c0-2.404-1.949-4.352-4.352-4.352h-17.895 l-6.092-22.414c0.342-0.216,0.686-0.428,1.024-0.65c1.078-0.708-0.153-2.285-1.223-1.583c-0.115,0.075-0.233,0.146-0.348,0.221 l-0.589-2.166c0,0-17.635,1.576-22.053-22.123l-0.516-0.054c-0.05-0.514-0.441-1.027-1.105-0.987 c-4.423,0.269-8.684,1.334-12.619,3.063c-4.603,1.756-9.708,4.874-13.822,10.409c-3.25,3.9-5.734,8.479-7.17,13.526 c-0.13,0.457,0.047,0.849,0.337,1.098C87.525,84.36,86.465,90.297,86,96.311c-0.196-0.01-0.392-0.026-0.589-0.031 c-3.339-0.096-6.657,0.388-9.836,1.412c-3.702,1.192-7.138,3.161-10.036,5.754c-0.122,0.109-0.208,0.231-0.264,0.357l-6.709,3.698 c-0.673-0.454-1.577,0.132-1.552,0.856l-0.102,0.056l-17.15,59.152C33.955,180.605,28.148,193.645,22.341,206.685z M106.259,176.314 c-0.695-0.522-1.361-1.083-1.966-1.706c-3.731-3.845-5.086-9.358-3.98-14.526c-0.852-1.461-1.551-3.009-2.167-4.599H79.877 c-0.679,0-1.313-0.169-1.885-0.446c-0.201,4.651-1.127,11.251-4.473,15.598c-5.627,7.31-10.42,8.714-10.441,8.72 c-0.272,0.079-0.572,1.411-0.853,3.17c7.107-3.553,13.476-6.86,13.476-6.86l23.524,0.924c0.001-0.003,0.008-0.021,0.008-0.021 S102.566,176.42,106.259,176.314z M100.195,268.378c1.245-7.565,3.56-14.996,6.441-22.089c0.484-1.192-1.369-1.943-1.854-0.749 c-3.043,7.489-5.496,15.4-6.7,23.409c-1.026,6.826-0.809,14.181,3.3,20.014c0.743,1.055,2.323-0.173,1.583-1.223 C99.003,282.118,99.123,274.89,100.195,268.378z M118.665,145.952c1.19,0.492,1.94-1.362,0.749-1.854 c-6.043-2.499-10.385-8.541-10.67-15.105c-0.291-6.706,3.823-13.241,9.843-16.099c1.161-0.551,0.384-2.395-0.781-1.841 c-6.748,3.204-11.279,10.363-11.054,17.868C106.974,136.311,111.874,143.144,118.665,145.952z M139.173,91.725V90.93 c0-1.283-1.04-2.324-2.324-2.324h-21.882c-1.284,0-2.324,1.04-2.324,2.324v0.795c0,1.283,1.04,2.324,2.324,2.324h21.882 C138.132,94.049,139.173,93.009,139.173,91.725z M172.556,104.077h-10.913v6.873h10.913V104.077z"/></g><g id="change1_2"><path fill="#4b635a" d="M214.244,286.282l2.739-3.503c-1.652,1.543-3.31,3.08-4.996,4.586 c-14.737,13.159-30.729,24.89-47.689,35.023c-0.732,0.437-1.511-0.126-1.625-0.744c-13.796,7.965-30.216,14.348-41.954,9.091 c-10.214-4.574-11.901-31.247-10.44-60.544c-0.53-0.02-1.055-0.393-0.982-1.071c0.673-6.288,1.346-12.577,2.018-18.865 c1.149-10.74,2.298-21.48,3.447-32.219c-6.022-1.542-11.104-3.031-14.23-4.191c-13.126-4.868-1.472-36.8-1.305-37.256l-23.524-0.924 c0,0-6.369,3.308-13.476,6.86c-0.546,3.427-1.019,8.482-1.067,9.098c-0.214,2.734-0.298,5.54-0.331,8.361 c0.281,0.112,0.511,0.342,0.556,0.741c1.525,13.706,2.035,27.512,1.575,41.288c0.031,0.43,0.018,0.822-0.044,1.167 c-0.073,1.953-0.16,3.906-0.273,5.858c0.401,0.194,0.845,0.387,1.298,0.659c0.777,0.466,1.303,1.15,1.671,1.965 c0.651-6.053,1.948-12.063,3.513-17.879c2.76-10.263,6.594-20.192,10.429-30.09c0.466-1.203,2.319-0.45,1.854,0.749 c-2.062,5.319-4.119,10.642-6.012,16.024c-3.349,9.522-6.198,19.27-7.497,29.303c-1.192,9.207-1.615,19.614,3.336,27.875 c0.314,0.524,0.109,1.074-0.256,1.39c0.03,0.15,0.035,0.31-0.011,0.483c-1.257,4.727-2.514,9.454-3.771,14.181 c-4.367,16.424-8.735,32.848-13.102,49.273c-0.331,1.243-2.181,0.478-1.854-0.749c0.558-2.098,1.116-4.197,1.674-6.295 c-6.787,18.071-15.319,38.617-20.87,53.336c-9.709,25.744,52.049,28.031,77.513,22.818s30.928,10.412,83.09,4.608 c52.161-5.803,26.966-57.659,20.529-70.217C207.737,333.914,214.244,286.282,214.244,286.282z M101.381,288.964 c-4.109-5.833-4.326-13.189-3.3-20.014c1.204-8.009,3.657-15.92,6.7-23.409c0.485-1.194,2.339-0.443,1.854,0.749 c-2.881,7.093-5.196,14.524-6.441,22.089c-1.072,6.512-1.192,13.74,2.769,19.363C103.704,288.791,102.125,290.019,101.381,288.964z M181.606,179.825l22.457,0.882l20.222,0.794l28.24,55.811l-28.723,36.743c-0.263-0.093-0.564-0.049-0.838,0.223 c-12.384,12.31-25.794,23.574-40.06,33.638c3.807-2.958,6.092-4.958,6.092-4.958s4.588-15.82-4.434-41.345 c-8.431-23.854-22.087-31.93-23.84-32.885c-0.193-1.462-0.383-2.925-0.56-4.389c14.399-11.77,28.798-23.541,43.197-35.311 c0.997-0.815-0.225-2.398-1.223-1.583c-8.65,7.071-17.299,14.141-25.949,21.212C179.622,196.775,182.125,182.568,181.606,179.825z M103.048,16.32c0.202-0.284,0.534-0.468,0.897-0.449c0.172,0.009,0.348,0.049,0.522,0.17c1.508,1.051,3.035,2.075,4.572,3.085 c-0.045-0.236,0.014-0.495,0.227-0.739c3.954-4.534,8.716-8.266,14.06-11.027c1.146-0.592,1.919,1.253,0.781,1.841 c-5.023,2.595-9.536,6.141-13.252,10.402c-0.166,0.19-0.361,0.294-0.561,0.333c3.348,2.164,6.753,4.237,10.231,6.185 c19.511,10.928,40.867,18.484,62.916,22.222c1.268,0.215,1.039,2.202-0.229,1.987c-6.267-1.063-12.479-2.426-18.616-4.082 c-21.902-5.911-42.732-15.652-61.343-28.618C102.737,17.272,102.766,16.715,103.048,16.32z M177.578,37.378 c-0.019-0.338-0.172-0.662-0.402-0.908c-0.104-0.696-0.374-1.365-0.806-1.912c-0.079-0.1-0.165-0.191-0.249-0.283 c1.258-0.078,2.472-0.698,3.313-1.628c0.884-0.977,1.442-2.299,1.373-3.63c-0.07-1.339-0.727-2.641-1.752-3.507 c-0.994-0.839-2.257-1.347-3.571-1.272c-0.338,0.019-0.662,0.172-0.908,0.402c-0.696,0.104-1.365,0.374-1.912,0.806 c-0.056,0.044-0.105,0.094-0.159,0.14c-0.041-0.301-0.171-0.588-0.377-0.809c-0.104-0.696-0.374-1.365-0.806-1.912 c-0.929-1.177-2.281-1.853-3.782-1.908c-1.341-0.049-2.664,0.579-3.585,1.531c-0.921,0.952-1.484,2.263-1.477,3.593 c0.006,1.181,0.507,2.34,1.299,3.211c-0.333,0.023-0.652,0.172-0.894,0.399c-0.696,0.104-1.365,0.374-1.912,0.806 c-1.177,0.929-1.853,2.281-1.909,3.782c-0.049,1.341,0.579,2.664,1.531,3.585c0.952,0.921,2.263,1.484,3.593,1.477 c1.246-0.006,2.464-0.567,3.349-1.437c0.046,1.298,0.678,2.56,1.635,3.426c0.977,0.884,2.299,1.442,3.63,1.373 c1.339-0.07,2.641-0.727,3.507-1.752C177.145,39.955,177.653,38.693,177.578,37.378z M166.816,27.971 c0.547-0.432,1.216-0.702,1.912-0.806c0.246-0.23,0.57-0.383,0.908-0.402c1.315-0.075,2.577,0.433,3.571,1.272 c1.025,0.865,1.682,2.167,1.752,3.507c0.07,1.331-0.489,2.653-1.373,3.63c-0.895,0.989-2.212,1.637-3.556,1.643 c-1.33,0.007-2.641-0.556-3.593-1.477c-0.952-0.921-1.58-2.244-1.531-3.585C164.963,30.252,165.639,28.9,166.816,27.971z M89.341,78.772c-0.29-0.248-0.467-0.64-0.337-1.098c1.436-5.047,3.92-9.626,7.17-13.526c3.731-4.477,8.473-8.059,13.822-10.409 c3.935-1.729,8.196-2.794,12.619-3.063c0.664-0.04,1.055,0.473,1.105,0.987c0.047,0.477-0.198,0.955-0.816,0.993 c-15.049,0.914-27.922,11.275-32.046,25.767C90.638,79.2,89.829,79.189,89.341,78.772z"/></g><g id="change5_1"><path fill="#383936" d="M79.877,155.483c-0.679,0-1.313-0.169-1.885-0.446c0.026-0.608,0.039-1.177,0.044-1.709 c0.443-0.205,0.771-0.689,0.553-1.276c-0.272-0.734-0.396-1.504-0.454-2.284c0.508,0.447,1.984,1.612,4.242,2.235 c2.476,0.683,4.819-3.753,5.722-5.377c1.514-2.722,2.635-5.965,1.856-9.071c1.085,2.718,2.439,5.33,4.035,7.781 c0.726,1.115,1.516,2.187,2.338,3.232c-0.177,0.244-0.27,0.554-0.165,0.91c0.595,2.016,1.223,4.042,1.983,6.004H79.877z M101.617,127.959c0-13.249,10.778-24.028,24.027-24.028s24.027,10.779,24.027,24.028s-10.778,24.027-24.027,24.027 S101.617,141.208,101.617,127.959z M106.752,128.921c0.222,7.39,5.122,14.223,11.913,17.031c1.19,0.492,1.94-1.362,0.749-1.854 c-6.043-2.499-10.385-8.541-10.67-15.105c-0.291-6.706,3.823-13.241,9.843-16.099c1.161-0.551,0.384-2.395-0.781-1.841 C111.058,114.257,106.527,121.416,106.752,128.921z M152.204,100.433h1.314h17.895c2.404,0,4.352,1.949,4.352,4.352v46.345 c0,2.404-1.949,4.352-4.352,4.352h-10.529c0.542-2.405,1.152-4.795,1.853-7.161c0.362-1.223-1.488-1.985-1.854-0.749 c-0.188,0.635-0.365,1.273-0.542,1.91c0.629-5.07,1.18-10.155,1.92-15.183c0.303-2.057,2.164-7.445-2.229-5.421 c-3.282,1.512-3.993,4.002-5.385,6.942c-0.018,0.038-0.04,0.075-0.059,0.113c0.701-2.541,1.083-5.214,1.083-7.975 c0-16.558-13.471-30.028-30.027-30.028s-30.027,13.471-30.027,30.028c0,0.454,0.014,0.905,0.034,1.354 c-0.452-0.765-1.296-1.786-2.891-2.941c-0.612-0.443-1.208-0.605-1.758-0.549c0.732-1.478,1.013-3.183,0.751-4.812 c-0.032-0.197-0.139-0.37-0.274-0.517c0.145-0.357,0.214-0.758,0.194-1.181c-0.06-1.26-0.427-2.59-0.75-3.805 c-0.332-1.248-0.743-2.47-1.384-3.596c-0.586-1.03-1.348-1.906-2.23-2.634c2.817-0.233,5.787-0.806,7.654-3.071 c0.62-0.752,1.067-1.656,1.297-2.595c0.686-0.906,0.874-1.934,0.225-3.092c-0.017-0.03-0.041-0.055-0.059-0.085h2.661l6.087-13.764 h40.945L152.204,100.433z M136.849,94.049c1.283,0,2.324-1.04,2.324-2.324V90.93c0-1.283-1.04-2.324-2.324-2.324h-21.882 c-1.284,0-2.324,1.04-2.324,2.324v0.795c0,1.283,1.04,2.324,2.324,2.324H136.849z M161.643,110.95h10.913v-6.873h-10.913V110.95z M222.964,274.278c-12.384,12.31-25.794,23.574-40.06,33.638c-1.875,1.323-3.762,2.63-5.667,3.911 c-4.639,3.12-9.364,6.11-14.163,8.978c-0.365,0.218-0.458,0.534-0.402,0.839c0.114,0.618,0.893,1.181,1.625,0.744 c16.96-10.133,32.952-21.864,47.689-35.023c1.686-1.506,3.344-3.043,4.996-4.586c2.434-2.272,4.843-4.57,7.205-6.918 c0.631-0.627,0.227-1.591-0.385-1.806C223.539,273.962,223.238,274.006,222.964,274.278z M158.049,223.484 c-0.015,0.012-0.019,0.028-0.033,0.04c-0.581,0.522-0.32,1.316,0.205,1.63c0.304,0.182,0.691,0.207,1.052-0.088 c0.297-0.242,0.593-0.485,0.89-0.727c14.399-11.77,28.798-23.541,43.197-35.311c0.997-0.815-0.225-2.398-1.223-1.583 c-8.65,7.071-17.299,14.141-25.949,21.212c-5.433,4.441-10.865,8.882-16.298,13.323 C159.276,222.481,158.662,222.982,158.049,223.484z M54.093,342.971c4.367-16.424,8.735-32.848,13.102-49.273 c1.257-4.727,2.514-9.454,3.771-14.181c0.046-0.173,0.041-0.333,0.011-0.483c0.365-0.316,0.57-0.866,0.256-1.39 c-4.951-8.26-4.527-18.668-3.336-27.875c1.298-10.033,4.147-19.781,7.497-29.303c1.893-5.382,3.95-10.705,6.012-16.024 c0.465-1.199-1.388-1.952-1.854-0.749c-3.836,9.898-7.669,19.827-10.429,30.09c-1.564,5.816-2.861,11.826-3.513,17.879 c-0.434,4.032-0.584,8.082-0.325,12.11c0.291,4.533,1.278,8.977,3.27,13.037c0.255,0.519,0.521,1.034,0.809,1.54 c-0.108,0.102-0.201,0.231-0.252,0.42c-4.367,16.424-8.735,32.848-13.103,49.273c-0.699,2.629-1.398,5.257-2.097,7.886 c-0.558,2.098-1.116,4.197-1.674,6.295C51.913,343.449,53.763,344.214,54.093,342.971z M106.314,84.335 c1.166-0.543,0.388-2.386-0.781-1.841c-5.024,2.342-10.646,2.961-16.064,1.8c-1.256-0.269-1.481,1.719-0.229,1.987 C94.963,87.508,101.01,86.807,106.314,84.335z M133.561,84.702c4.869-1.68,9.512-3.935,13.865-6.683 c0.342-0.216,0.686-0.428,1.024-0.65c1.078-0.708-0.153-2.285-1.223-1.583c-0.115,0.075-0.233,0.146-0.348,0.221 c-4.403,2.85-9.14,5.144-14.099,6.855C131.561,83.282,132.349,85.121,133.561,84.702z"/></g></svg>