<?xml version="1.0" encoding="UTF-8" standalone="no"?><svg xmlns="http://www.w3.org/2000/svg" xmlns:xlink="http://www.w3.org/1999/xlink" contentScriptType="text/ecmascript" fill="#000000" width="284.4" zoomAndPan="magnify" contentStyleType="text/css" viewBox="0.0 -2.7 284.4 463.4" height="463.4" preserveAspectRatio="xMidYMid meet" version="1"><g id="change1_1"><path fill="#8c4c00" d="M262.675,262.786c-0.26-0.457-0.824-0.618-1.288-0.4l-16.712-35.672l5.468-3.425l1.413-0.888l-35.782-54.521 l-14.955-4.988l0,0c0,0-5.156-1.275-12.687-2.823v0l-20.853-7.645l-0.251,3.935c-1.047-0.148-2.095-0.289-3.143-0.423 c-0.32-3.639-0.874-10.11-1.077-12.484c5.719-2.251,10.771-4.532,13.341-5.726c11.008-5.112,7.826-14.838,7.793-14.936 c-0.171-0.498-0.696-0.76-1.197-0.632c-0.701-13.765-2.693-44.881-3.756-61.267c8.549-7.329,11.283-20.957,25.115-22.83 c17.065-2.31,11.514-13.915-0.371-16.166c-11.885-2.252-33.068-4.621-33.068-4.621c-0.485-0.034-1.045-0.007-1.646,0.055 c0.08-0.045,0.13-0.073,0.13-0.073s2.558-19.975-33.089-16.943c-35.648,3.032-56.743,27.234-67.355,39.701 c-10.612,12.467,5.003,39.092,5.003,39.092l0.81-0.364c1.026,3.953,2.856,10.959,4.491,16.979c-1.593,1.661-2.674,3.846-2.747,6.736 c-0.309,12.088,20.64,17.745,20.64,17.745l4.08,35.61c-1.219,0.182-2.419,0.378-3.596,0.591l-0.469-3.979l-21.312,10.166l0,0 c-18.747,6.423-41.45,15.47-41.45,15.47L0,262.322l11.646,2.513l-3.027,20.474c-0.541-0.08-1.045,0.286-1.133,0.826 c-5.708,35.018-5.173,35.906-4.982,36.214c0.053,0.127,0.217,0.687,0.39,1.279c7.831,26.793,19.09,35.07,27.157,37.297 c0.089,0.024,0.178,0.036,0.267,0.036c0.379,0,0.72-0.226,0.887-0.572c1.922,0.683,3.782,1.257,5.576,1.709l0.812,56.934 c0,0,44.1,12.376,99.44,10.355c1.543-0.056,3.06-0.131,4.564-0.213l1.336,5.082l-0.186,0.092c-0.494,0.246-0.696,0.846-0.45,1.341 c0.175,0.352,0.528,0.555,0.896,0.555c0.084,0,0.169-0.014,0.253-0.036l6.443,24.504l68.592-35.268l-7.796-11.319 c7.903-3.374,12-5.964,12-5.964l-6.766-75.889c6.438-0.578,13.932-1.455,21.412-2.779c0.087,0.48,0.501,0.824,0.979,0.824 c0.049,0,0.099-0.004,0.148-0.011c13.07-1.948,27.785-5.042,36.974-17.171C284.406,301.29,263.567,264.352,262.675,262.786z"/></g><g id="change2_1"><path fill="#ebbb98" d="M134.522,180.913c19.098-3.222,29.666-21.959,29.598-22.419c-0.017-0.112-0.107-1.113-0.235-2.559 c-0.32-3.639-0.874-10.11-1.077-12.484c-7.959,3.132-17.213,6.206-22.894,6.206c-0.298,0-0.586-0.008-0.864-0.025 c-8.236-0.515-27.922-12.386-28.755-12.891c-0.473-0.286-0.624-0.901-0.338-1.373c0.287-0.473,0.903-0.622,1.373-0.338 c0.2,0.121,20.096,12.122,27.845,12.605c7.101,0.44,23.304-5.767,36.132-11.725c9.394-4.362,6.855-12.144,6.742-12.473 c-0.179-0.522,0.1-1.092,0.622-1.271c0.024-0.008,0.049-0.003,0.073-0.009c-0.701-13.765-2.693-44.881-3.756-61.267 c-1.998,1.713-4.313,3.083-7.162,3.878c-12.583,3.507-42.121-2.582-51.442-4.666l-0.412,19.004l-11.749,8.961l-2.464,24.13h-4.359 L94.389,90.51c0,0-10.311-0.076-15.38,5.211c-1.593,1.661-2.674,3.846-2.747,6.736c-0.309,12.088,20.64,17.745,20.64,17.745 l4.08,35.61l0.046,0.402C101.028,156.214,115.424,184.134,134.522,180.913z M169.189,91.079c-1.663,0-3.012-1.348-3.012-3.012 c0-1.663,1.348-3.012,3.012-3.012s3.012,1.348,3.012,3.012C172.201,89.731,170.853,91.079,169.189,91.079z M164.98,69.985 c4.489-0.797,9.087-0.479,13.439,0.865c0.557,0.172,0.797,0.895,0.593,1.398c-0.23,0.57-0.844,0.765-1.398,0.593 c-3.988-1.231-8.219-1.46-12.324-0.731C163.924,72.353,163.622,70.226,164.98,69.985z M161.265,107.862 c2.266,0.195,3.639-2.073,3.841-4.055c0.236-2.32-0.531-4.716-1.049-6.953c-1.101-4.754-2.203-9.508-3.304-14.263 c-0.313-1.351,1.816-1.647,2.126-0.31c1.362,5.879,2.914,11.749,4.072,17.672c0.484,2.478,0.595,5.154-0.815,7.361 c-1.126,1.763-3.008,2.864-5.117,2.682C159.636,109.877,159.892,107.744,161.265,107.862z M147.483,125.43 c0.235-0.581,0.839-0.75,1.398-0.593c3.754,1.052,7.83,1.006,11.56-0.126c0.557-0.169,1.161-0.012,1.408,0.569 c0.21,0.494-0.013,1.24-0.569,1.408c-4.327,1.314-8.849,1.361-13.204,0.141C147.514,126.671,147.284,125.923,147.483,125.43z M142.185,94.091c-1.663,0-3.012-1.348-3.012-3.012c0-1.663,1.348-3.012,3.012-3.012c1.663,0,3.012,1.348,3.012,3.012 C145.197,92.742,143.849,94.091,142.185,94.091z M144.019,73.324c1.353-0.303,1.65,1.825,0.31,2.126 c-5.713,1.281-10.943,4.431-14.758,8.87c-0.898,1.044-2.609-0.255-1.706-1.305C132.064,78.128,137.735,74.733,144.019,73.324z M36.78,362.098c-1.794-0.452-3.654-1.026-5.576-1.709c0.026-0.054,0.059-0.103,0.076-0.162c0.147-0.532-0.165-1.083-0.698-1.229 c-7.576-2.091-18.196-10.022-25.769-35.931c-0.251-0.858-0.365-1.243-0.458-1.472c-0.104-2.139,3.058-22.58,5.105-35.138 c0.089-0.545-0.281-1.06-0.826-1.148c-0.005-0.001-0.01,0.001-0.015,0l3.027-20.474l49.439,10.667l-5.141,45.936 c-2.277-1.963-4.982-3.938-8.228-5.886c-0.475-0.285-1.088-0.131-1.372,0.343s-0.131,1.088,0.343,1.372 c22.63,13.578,18.336,28.174,18.134,28.813c-0.17,0.525,0.117,1.089,0.643,1.259c0.037,0.012,0.073,0.01,0.11,0.017 c-0.315,1.295-0.798,2.605-1.482,3.922C58.172,362.674,48.962,365.167,36.78,362.098z M237.321,329.465 c0.002,0.01,0.008,0.018,0.01,0.029c-7.48,1.323-14.974,2.201-21.412,2.779c-10.643,0.956-18.401,1.097-18.432,1.098 c-0.147,0.003-1.386,6.392-1.488,6.798c-1.012,4.052-1.431,6.538-4.358,9.57c-5.093,5.275-11.087,9.672-17.64,12.96l-5.085-8.865 l14.961-6.631c2.217-0.983,3.137-3.639,2.002-5.782l-6.882-12.997c5.998-5.948,7.357-15.093,5.759-23.176 c-0.204-1.032-0.458-2.045-0.736-3.05c1.352,0.155,2.428,0.304,3.14,0.412c-0.047,0.294,0.022,0.604,0.242,0.838 c0.196,0.21,0.463,0.316,0.729,0.316c0.245,0,0.49-0.09,0.684-0.271l32.739-30.655c0.403-0.377,0.424-1.01,0.046-1.413 c-0.377-0.403-1.009-0.423-1.413-0.046l-8.949,8.38l-2.231-25.029l0.313-0.226c-0.06,0.031-0.169,0.088-0.319,0.165l-0.474-5.316 l36.148-22.641l16.712,35.672c-0.024,0.011-0.051,0.011-0.075,0.025c-0.48,0.273-0.648,0.884-0.375,1.363 c0.212,0.373,21.088,37.349,12.901,48.155c-8.734,11.528-22.994,14.51-35.675,16.399 C237.617,328.411,237.24,328.919,237.321,329.465z M179.443,301.782c1.237,3.994,1.936,8.101,1.509,12.364 c-0.375,3.743-1.621,7.438-4.069,10.287l-4.529-8.553c-1.05-1.983-3.47-2.785-5.495-1.82c-4.583,2.185-12.755,6.401-22.155,11.342 c-1.34-1.046-1.928-2.871-1.857-4.585c0.226-5.474,5.107-8.921,8.406-12.781C156.864,301.48,170.423,301.164,179.443,301.782z"/></g><g id="change1_2"><path fill="#8c4c00" d="M197.487,333.37c0.032-0.001,7.789-0.142,18.432-1.098l6.766,75.889c0,0-4.098,2.589-12,5.964l-5.824-8.456 c0.402-0.278,0.563-0.803,0.339-1.254c-0.246-0.494-0.845-0.697-1.341-0.45l-0.128,0.064l-6.791-9.859l-3.837,1.818l-6.184-10.781 l-9.149-15.936L174,362.699c6.553-3.288,12.547-7.685,17.64-12.96c2.928-3.032,3.347-5.518,4.358-9.57 C196.1,339.762,197.34,333.373,197.487,333.37z M105.562,270.836c0.258,3.685,0.091,7.41-0.422,11.084 c-2.142,15.339-9.908,28.884-15.748,42.99c-2.865,6.92-5.815,14.455-5.517,22.077c0.182,4.673,1.844,9.652,5.236,12.954 l-0.211-0.555c-0.745-1.96,0.07-4.166,1.914-5.164c8.829-4.776,34.095-18.415,53.891-28.82c-1.34-1.046-1.928-2.871-1.857-4.585 c0.226-5.474,5.107-8.921,8.406-12.781c5.61-6.557,19.17-6.873,28.19-6.255c-1.569-5.068-4.003-9.956-6.107-14.748 c-2.921-6.654-5.418-13.981-5.141-21.251l-8.096-0.666l6.928-108.758c-1.047-0.148-2.095-0.289-3.143-0.423 c0.127,1.446,0.218,2.448,0.235,2.559c0.068,0.46-10.5,19.197-29.598,22.419c-19.098,3.222-33.494-24.699-33.494-24.699 l-0.046-0.402c-1.219,0.182-2.419,0.378-3.596,0.591l13.301,112.756L105.562,270.836z M172.458,266.133 c-0.113,3.324,0.433,6.688,1.333,9.901c2.534,9.049,7.727,17.118,10.229,26.164c1.352,0.155,2.428,0.304,3.14,0.412 c0.034-0.212,0.119-0.417,0.288-0.575l23.79-22.276l-2.231-25.029l-0.005-0.061l-0.474-5.316l-7.708-86.463l0,0 c0,0-5.156-1.275-12.687-2.823l-9.602,106.564L172.458,266.133z M139.544,421.369l2.052,7.805c-1.504,0.082-3.021,0.157-4.564,0.213 c-55.34,2.021-99.44-10.355-99.44-10.355l-0.812-56.934c12.182,3.069,21.392,0.576,27.312-10.819 c0.684-1.317,1.167-2.627,1.482-3.922c0.066,0.014,0.133,0.031,0.199,0.031c0.422,0,0.813-0.269,0.951-0.691 c0.189-0.584,3.844-12.652-10.779-25.259l5.141-45.936l10.271,2.216l4.248-73.591l-41.45-26.068c0,0,22.703-9.047,41.45-15.47 L90.22,275.855l11.137-3.643c0.461,10.527-2.936,21.266-6.998,30.88c-3.128,7.403-6.726,14.601-9.706,22.068 c-2.901,7.272-5.494,15.011-5.003,22.946c0.46,7.434,4.272,14.685,11.049,18.13c0.316,0.16,0.616,0.233,0.896,0.238l7.786,20.468 c2.271,5.97,9.064,8.838,14.926,6.302l0,0c5.323-2.303,8.001-8.295,6.164-13.797c-0.683-2.045,0.301-4.275,2.273-5.149l7.784-3.45 c1.164,4.986,2.862,11.72,4.663,18.674c1.622,6.282,3.329,12.736,4.789,18.245c1.35,5.061,2.492,9.306,3.188,11.884L139.544,421.369 z M75.132,336.103c-0.361-1.315-2.491-1.024-2.126,0.31c2.053,7.485,0.668,15.627-3.86,21.949c-0.805,1.123,0.9,2.43,1.706,1.305 C75.689,352.916,77.332,344.127,75.132,336.103z M169.019,17.329c0.08-0.045,0.13-0.073,0.13-0.073s2.558-19.975-33.089-16.943 c-35.648,3.032-56.743,27.234-67.355,39.701c-10.612,12.467,5.003,39.092,5.003,39.092l0.81-0.364l42.991-19.303 C128.044,35.744,157.904,18.477,169.019,17.329z"/></g><g id="change3_1"><path fill="#777771" d="M142.932,434.256l-1.336-5.082l-2.052-7.805l3.624-1.717l49.935-23.665l3.837-1.818l6.791,9.859 L142.932,434.256z M204.748,405.755l-61.111,30.384c-0.062,0.031-0.127,0.052-0.191,0.069l6.443,24.504l68.592-35.268l-7.796-11.319 l-5.824-8.456C204.821,405.696,204.792,405.733,204.748,405.755z M121.331,344.479l31.113-16.091l9.401,30.167 c1.287,4.13-2.04,9.319-7.293,12.035l0,0c-5.253,2.717-11.41,2.433-14.036-1.004L121.331,344.479z M138.86,356.964l14.529-7.707 l-4.011-15.413c0,0-19.487,9.854-20.399,10.107C128.066,344.204,138.86,356.964,138.86,356.964z M142.296,386.143l-7.105,3.38 c1.622,6.282,3.329,12.736,4.789,18.245c2.619-1.246,5.846-2.782,9.397-4.475C146.965,397.596,145.062,391.686,142.296,386.143z M174.293,391.358c5.023-2.423,9.484-4.592,12.626-6.152l-9.149-15.936l-11.432,5.438 C169.176,380.167,171.813,385.727,174.293,391.358z M151.238,381.89c0.329,0.756,0.64,1.521,0.936,2.292 c0.893,2.322,1.877,4.594,2.867,6.876c1.142,2.632,2.274,5.269,3.409,7.905c4.664-2.23,9.465-4.531,13.918-6.676 c-2.483-5.634-5.123-11.196-7.966-16.658L151.238,381.89z M150.39,385.474c-0.343-0.896-0.697-1.789-1.082-2.666l-5.077,2.415 c2.757,5.546,4.656,11.457,7.073,17.151c1.689-0.806,3.439-1.641,5.217-2.49c-1.122-2.607-2.242-5.215-3.371-7.818 C152.201,389.877,151.242,387.702,150.39,385.474z M112.582,360.649l-4.043-6.738l-14.15,6.717l3.537,6.759L112.582,360.649z"/></g><g id="change4_1"><path fill="#383936" d="M79.009,95.721c-1.636-6.02-3.466-13.026-4.491-16.979l42.991-19.303c0,0,1.054,0.255,2.876,0.663 l-0.412,19.004l-11.749,8.961l-2.464,24.13h-4.359L94.389,90.51C94.389,90.51,84.078,90.435,79.009,95.721z M90.22,275.855 L75.604,162.59l0,0l21.312-10.166l0.469,3.979l13.301,112.756l-5.124,1.676c0.258,3.685,0.091,7.41-0.422,11.084 c-2.142,15.339-9.908,28.884-15.748,42.99c-2.865,6.92-5.815,14.455-5.517,22.077c0.182,4.673,1.844,9.652,5.236,12.954 l-0.211-0.555c-0.745-1.96,0.07-4.166,1.914-5.164c8.829-4.776,34.095-18.415,53.891-28.82c9.4-4.941,17.572-9.157,22.155-11.342 c2.025-0.966,4.446-0.163,5.495,1.82l4.529,8.553c2.448-2.849,3.694-6.545,4.069-10.287c0.427-4.263-0.273-8.37-1.509-12.364 c-1.569-5.068-4.003-9.956-6.107-14.748c-2.921-6.654-5.418-13.981-5.141-21.251l-8.096-0.666l6.928-108.758l0.251-3.935 l20.853,7.645v0l-9.602,106.564l-6.072-0.499c-0.113,3.324,0.433,6.688,1.333,9.901c2.534,9.049,7.727,17.118,10.229,26.164 c0.278,1.005,0.532,2.018,0.736,3.05c1.597,8.083,0.238,17.228-5.759,23.176l6.882,12.997c1.135,2.143,0.215,4.799-2.002,5.782 l-14.961,6.631l5.085,8.865l3.769,6.571l-11.432,5.438c2.839,5.459,5.475,11.019,7.956,16.65c5.023-2.423,9.484-4.592,12.626-6.152 l6.184,10.781l-49.935,23.665c-0.696-2.577-1.838-6.823-3.188-11.884c2.619-1.246,5.846-2.782,9.397-4.475 c-2.412-5.697-4.315-11.607-7.081-17.15l-7.105,3.38c-1.801-6.954-3.499-13.688-4.663-18.674l-7.784,3.45 c-1.971,0.874-2.956,3.103-2.273,5.149c1.836,5.502-0.841,11.494-6.164,13.797l0,0c-5.862,2.536-12.655-0.332-14.926-6.302 l-7.786-20.468c-0.28-0.005-0.581-0.077-0.896-0.238c-6.778-3.445-10.589-10.696-11.049-18.13 c-0.491-7.934,2.102-15.674,5.003-22.946c2.979-7.467,6.578-14.665,9.706-22.068c4.062-9.614,7.459-20.352,6.998-30.88 L90.22,275.855z M171.584,164.546c0.067-1.372-2.066-1.632-2.134-0.247l-2.119,43.215c-0.067,1.372,2.066,1.632,2.134,0.246 L171.584,164.546z M115.708,384.714c0-2.774-2.248-5.022-5.022-5.022c-2.773,0-5.022,2.248-5.022,5.022s2.248,5.022,5.022,5.022 C113.46,389.736,115.708,387.488,115.708,384.714z M127.886,366.956c-0.239-0.499-0.836-0.71-1.333-0.472L100.78,378.79 c-0.499,0.238-0.71,0.835-0.472,1.333c0.172,0.359,0.529,0.569,0.903,0.569c0.145,0,0.291-0.031,0.43-0.098l25.772-12.306 C127.913,368.051,128.124,367.454,127.886,366.956z M156.521,399.883c-1.122-2.607-2.242-5.215-3.371-7.818 c-0.949-2.188-1.908-4.363-2.76-6.591c-0.343-0.896-0.697-1.789-1.082-2.666l-5.077,2.415c2.757,5.546,4.656,11.457,7.073,17.151 C152.993,401.568,154.743,400.733,156.521,399.883z M164.401,375.628l-13.163,6.261c0.329,0.756,0.64,1.521,0.936,2.292 c0.893,2.322,1.877,4.594,2.867,6.876c1.142,2.632,2.274,5.269,3.409,7.905c4.664-2.23,9.465-4.531,13.918-6.676 C169.884,386.652,167.245,381.09,164.401,375.628z M121.331,344.479l19.185,25.106c2.627,3.438,8.784,3.721,14.036,1.004l0,0 c5.252-2.716,8.58-7.905,7.293-12.035l-9.401-30.167L121.331,344.479z M94.389,360.628l3.537,6.759l14.655-6.738l-4.043-6.738 L94.389,360.628z M88.362,165.784c1.236-0.476,2.472-0.952,3.708-1.428c0.99,10.567,1.981,21.133,2.971,31.7 c0.129,1.377,2.254,1.065,2.125-0.31c-1.042-11.115-2.084-22.229-3.126-33.344c-0.104-1.111-1.491-1.109-1.962-0.349 c-1.519,0.585-3.038,1.17-4.557,1.755c-0.526,0.202-0.812,0.896-0.569,1.408C87.211,165.755,87.801,166,88.362,165.784z M153.389,349.257l-4.011-15.413c0,0-19.487,9.854-20.399,10.107c-0.912,0.253,9.882,13.013,9.882,13.013L153.389,349.257z M161.019,109.997c2.108,0.182,3.991-0.919,5.117-2.682c1.41-2.207,1.299-4.883,0.815-7.361c-1.158-5.922-2.71-11.793-4.072-17.672 c-0.31-1.336-2.438-1.04-2.126,0.31c1.101,4.754,2.203,9.508,3.304,14.263c0.518,2.237,1.286,4.633,1.049,6.953 c-0.202,1.981-1.574,4.25-3.841,4.055C159.892,107.744,159.636,109.877,161.019,109.997z M142.185,88.067 c-1.663,0-3.012,1.348-3.012,3.012c0,1.663,1.348,3.012,3.012,3.012c1.663,0,3.012-1.348,3.012-3.012 C145.197,89.416,143.849,88.067,142.185,88.067z M169.189,85.055c-1.663,0-3.012,1.348-3.012,3.012c0,1.663,1.348,3.012,3.012,3.012 s3.012-1.348,3.012-3.012C172.201,86.404,170.853,85.055,169.189,85.055z M129.572,84.319c3.815-4.439,9.045-7.589,14.758-8.87 c1.34-0.3,1.043-2.429-0.31-2.126c-6.284,1.409-11.955,4.805-16.154,9.691C126.962,84.065,128.674,85.364,129.572,84.319z M165.291,72.111c4.105-0.729,8.336-0.501,12.324,0.731c0.554,0.171,1.167-0.023,1.398-0.593c0.203-0.503-0.036-1.226-0.593-1.398 c-4.352-1.344-8.95-1.662-13.439-0.865C163.622,70.226,163.924,72.353,165.291,72.111z M148.076,126.828 c4.355,1.22,8.877,1.173,13.204-0.141c0.555-0.169,0.779-0.914,0.569-1.408c-0.247-0.581-0.851-0.738-1.408-0.569 c-3.73,1.132-7.806,1.178-11.56,0.126c-0.558-0.156-1.163,0.013-1.398,0.593C147.284,125.923,147.514,126.671,148.076,126.828z M182.049,123.438c0.113,0.329,2.651,8.11-6.742,12.473c-12.828,5.958-29.031,12.165-36.132,11.725 c-7.749-0.483-27.645-12.484-27.845-12.605c-0.47-0.284-1.086-0.135-1.373,0.338c-0.286,0.472-0.135,1.087,0.338,1.373 c0.833,0.505,20.519,12.376,28.755,12.891c0.278,0.018,0.566,0.025,0.864,0.025c5.681,0,14.935-3.074,22.894-6.206 c5.719-2.251,10.771-4.532,13.341-5.726c11.008-5.112,7.826-14.838,7.793-14.936c-0.171-0.498-0.696-0.76-1.197-0.632 c-0.024,0.006-0.049,0.001-0.073,0.009C182.149,122.346,181.87,122.915,182.049,123.438z M46.345,315.895 c-0.284,0.474-0.131,1.088,0.343,1.372c22.63,13.578,18.336,28.174,18.134,28.813c-0.17,0.525,0.117,1.089,0.643,1.259 c0.037,0.012,0.073,0.01,0.11,0.017c0.066,0.014,0.133,0.031,0.199,0.031c0.422,0,0.813-0.269,0.951-0.691 c0.189-0.584,3.844-12.652-10.779-25.259c-2.277-1.963-4.982-3.938-8.228-5.886C47.242,315.267,46.629,315.421,46.345,315.895z M30.581,358.997c-7.576-2.091-18.196-10.022-25.769-35.931c-0.251-0.858-0.365-1.243-0.458-1.472 c-0.104-2.139,3.058-22.58,5.105-35.138c0.089-0.545-0.281-1.06-0.826-1.148c-0.005-0.001-0.01,0.001-0.015,0 c-0.541-0.08-1.045,0.286-1.133,0.826c-5.708,35.018-5.173,35.906-4.982,36.214c0.053,0.127,0.217,0.687,0.39,1.279 c7.831,26.793,19.09,35.07,27.157,37.297c0.089,0.024,0.178,0.036,0.267,0.036c0.379,0,0.72-0.226,0.887-0.572 c0.026-0.054,0.059-0.103,0.076-0.162C31.427,359.695,31.114,359.144,30.581,358.997z M187.447,302.036 c-0.169,0.158-0.254,0.363-0.288,0.575c-0.047,0.294,0.022,0.604,0.242,0.838c0.196,0.21,0.463,0.316,0.729,0.316 c0.245,0,0.49-0.09,0.684-0.271l32.739-30.655c0.403-0.377,0.424-1.01,0.046-1.413c-0.377-0.403-1.009-0.423-1.413-0.046 l-8.949,8.38L187.447,302.036z M262.675,262.786c-0.26-0.457-0.824-0.618-1.288-0.4c-0.024,0.011-0.051,0.011-0.075,0.025 c-0.48,0.273-0.648,0.884-0.375,1.363c0.212,0.373,21.088,37.349,12.901,48.155c-8.734,11.528-22.994,14.51-35.675,16.399 c-0.546,0.082-0.923,0.591-0.842,1.137c0.002,0.01,0.008,0.018,0.01,0.029c0.087,0.48,0.501,0.824,0.979,0.824 c0.049,0,0.099-0.004,0.148-0.011c13.07-1.948,27.785-5.042,36.974-17.171C284.406,301.29,263.567,264.352,262.675,262.786z"/></g><g id="change5_1"><path fill="#ac8e6f" d="M200.819,162.892l14.955,4.988l35.782,54.521l-1.413,0.888l-5.468,3.425l-36.148,22.641L200.819,162.892z M209.319,254.505c-0.06,0.031-0.169,0.088-0.319,0.165l0.005,0.061L209.319,254.505z M61.085,275.502l10.271,2.216l4.248-73.591 l-41.45-26.068L0,262.322l11.646,2.513L61.085,275.502z M117.509,59.439c0,0,1.054,0.255,2.876,0.663 c9.321,2.084,38.859,8.173,51.442,4.666c2.849-0.794,5.164-2.164,7.162-3.878c8.549-7.329,11.283-20.957,25.115-22.83 c17.065-2.31,11.514-13.915-0.371-16.166c-11.885-2.252-33.068-4.621-33.068-4.621c-0.485-0.034-1.045-0.007-1.646,0.055 C157.904,18.477,128.044,35.744,117.509,59.439z M204.748,405.755c0.044-0.022,0.072-0.06,0.112-0.087 c0.402-0.278,0.563-0.803,0.339-1.254c-0.246-0.494-0.845-0.697-1.341-0.45l-0.128,0.064l-60.797,30.228l-0.186,0.092 c-0.494,0.246-0.696,0.846-0.45,1.341c0.175,0.352,0.528,0.555,0.896,0.555c0.084,0,0.169-0.014,0.253-0.036 c0.065-0.017,0.129-0.038,0.191-0.069L204.748,405.755z M110.686,379.693c-2.773,0-5.022,2.248-5.022,5.022s2.248,5.022,5.022,5.022 c2.774,0,5.022-2.248,5.022-5.022S113.46,379.693,110.686,379.693z M126.553,366.485L100.78,378.79 c-0.499,0.238-0.71,0.835-0.472,1.333c0.172,0.359,0.529,0.569,0.903,0.569c0.145,0,0.291-0.031,0.43-0.098l25.772-12.306 c0.499-0.238,0.71-0.835,0.472-1.333C127.647,366.457,127.05,366.246,126.553,366.485z M169.45,164.3l-2.119,43.215 c-0.067,1.372,2.066,1.632,2.134,0.246l2.119-43.215C171.652,163.174,169.518,162.914,169.45,164.3z M95.042,196.056 c0.129,1.377,2.254,1.065,2.125-0.31c-1.042-11.115-2.084-22.229-3.126-33.344c-0.104-1.111-1.491-1.109-1.962-0.349 c-1.519,0.585-3.038,1.17-4.557,1.755c-0.526,0.202-0.812,0.896-0.569,1.408c0.257,0.54,0.847,0.785,1.408,0.569 c1.236-0.476,2.472-0.952,3.708-1.428C93.061,174.922,94.051,185.489,95.042,196.056z M73.006,336.413 c2.053,7.485,0.668,15.627-3.86,21.949c-0.805,1.123,0.9,2.43,1.706,1.305c4.836-6.751,6.48-15.541,4.279-23.565 C74.771,334.787,72.641,335.079,73.006,336.413z"/></g></svg>