<?xml version="1.0" encoding="UTF-8" standalone="no"?><svg xmlns="http://www.w3.org/2000/svg" xmlns:xlink="http://www.w3.org/1999/xlink" contentScriptType="text/ecmascript" fill="#000000" width="500" zoomAndPan="magnify" contentStyleType="text/css" viewBox="0.0 0.0 500.0 350.0" height="350" preserveAspectRatio="xMidYMid meet" version="1"><defs><clipPath id="a"><path d="M 0 0 L 500 0 L 500 348.679688 L 0 348.679688 Z M 0 0"/></clipPath></defs><g><g id="change1_1" clip-path="url(#a)"><path fill="#f6e9da" d="M 499.4375 278.195312 C 496.171875 237.335938 495.734375 205.621094 490.835938 164.757812 C 487.566406 132.070312 500.003906 82.785156 470.511719 50.34375 C 464.339844 43.550781 455.9375 40.152344 446.570312 38.742188 C 448.53125 36.289062 445.953125 31.746094 445.417969 30.003906 C 444.753906 27.835938 442.917969 24.671875 437.917969 24.171875 C 432.917969 23.671875 373.585938 26.421875 365.667969 27.085938 C 357.753906 27.753906 357.085938 36.085938 358 41.171875 C 358.429688 43.546875 360.675781 44.894531 362.949219 45.664062 C 360.085938 45.925781 357.222656 46.183594 354.367188 46.421875 C 347.925781 39.945312 344.03125 35.617188 340.1875 26.371094 C 334.914062 13.726562 333.464844 4.796875 316.574219 2.722656 C 301.546875 0.871094 287.121094 -0.6875 272.105469 0.308594 C 248.570312 1.992188 240.164062 5.351562 228.398438 26.359375 C 223.675781 34.71875 219.570312 41.484375 214.398438 46.074219 C 211.722656 48.453125 202.613281 51.402344 198.738281 51.441406 C 194.859375 51.480469 192.617188 51.503906 192.617188 51.503906 C 148.441406 50.785156 119.800781 48.703125 119.800781 48.703125 C 92.015625 24.195312 29.898438 25.828125 2.113281 50.34375 C 2.113281 82.785156 -1.1875 145.105469 0.460938 176.285156 C 3.320312 215.71875 4.632812 253.433594 4.304688 291.0625 C 5.449219 332.039062 11.554688 340.539062 53.734375 347.644531 C 81.402344 350.726562 119.800781 347.828125 139.417969 326.578125 C 139.417969 326.578125 235.851562 328.207031 279.984375 331.484375 C 332.289062 336.382812 378.492188 333.765625 430.792969 330.5 C 476.558594 327.234375 504.347656 330.5 499.4375 278.195312"/></g><g id="change2_1"><path fill="#8c5243" d="M 375.65625 134.964844 C 356.058594 120.671875 320.949219 114.769531 297.289062 114.382812 C 253.394531 113.664062 213.0625 127.316406 187.546875 164.460938 C 156.0625 210.300781 167.628906 285.136719 213.398438 317.941406 C 225.695312 326.761719 242.082031 332.296875 256.621094 335.464844 C 289.113281 342.539062 321.558594 338.078125 352.878906 327.832031 C 367.222656 323.140625 382.101562 317.664062 393.402344 307.128906 C 447.242188 256.9375 427.886719 173.03125 375.65625 134.964844"/></g><g id="change3_1"><path fill="#eeaa94" d="M 124.378906 89.515625 C 134.632812 164.644531 125.628906 239.554688 131.0625 314.671875 C 131.21875 316.839844 134.253906 316.835938 134.421875 314.671875 C 140.074219 240.460938 139.285156 161.980469 128.902344 88.265625 C 128.480469 85.273438 123.976562 86.558594 124.378906 89.515625"/></g><g id="change3_2"><path fill="#eeaa94" d="M 390.4375 304.632812 C 379.480469 314.839844 365.0625 320.148438 351.164062 324.695312 C 320.816406 334.625 289.378906 338.945312 257.894531 332.089844 C 243.804688 329.019531 227.929688 323.65625 216.011719 315.109375 C 171.660156 283.324219 160.453125 210.808594 190.960938 166.390625 C 215.6875 130.398438 254.769531 117.167969 297.300781 117.867188 C 320.230469 118.242188 354.246094 123.960938 373.238281 137.808594 C 423.847656 174.695312 442.605469 255.996094 390.4375 304.632812 Z M 352.671875 108.210938 C 329.191406 101.765625 303.847656 99.167969 279.5 102.023438 C 253.3125 105.082031 228.273438 114.4375 207.953125 132.0625 C 163.28125 170.789062 147.917969 242.152344 181.726562 295.269531 C 190.835938 309.578125 202.339844 320.453125 215.34375 328.46875 C 244.738281 346.582031 281.84375 349.996094 316.546875 344.878906 C 329.675781 342.945312 345.257812 339.378906 359.871094 333.949219 C 372.566406 329.234375 384.53125 323.117188 393.527344 315.433594 C 458.398438 260.058594 437.554688 131.523438 352.671875 108.210938"/></g><g id="change3_3"><path fill="#eeaa94" d="M 302.949219 226.652344 C 302.09375 233.828125 290.085938 234.363281 285.6875 230.613281 C 280.988281 226.601562 282.5 217.296875 288.644531 215.605469 C 290.347656 215.140625 292.183594 214.949219 293.945312 215.160156 C 295.84375 215.378906 297.652344 216.058594 299.128906 217.332031 C 301.65625 219.53125 303.355469 223.246094 302.949219 226.652344 Z M 309.136719 192.652344 C 302.777344 190.902344 295.910156 190.203125 289.324219 190.976562 C 282.234375 191.796875 275.460938 194.332031 269.953125 199.109375 C 260.496094 207.308594 254.140625 221.191406 255.664062 233.917969 C 258.867188 260.769531 303.765625 262.773438 320.195312 248.746094 C 337.753906 233.757812 332.113281 198.960938 309.136719 192.652344"/></g><g id="change3_4"><path fill="#eeaa94" d="M 380.503906 289.535156 C 359.085938 313.433594 327.058594 318.449219 303.964844 318.449219 C 292.769531 318.449219 281.167969 317.304688 269.488281 315.042969 C 261.121094 313.429688 252.09375 310.320312 244.070312 306.296875 C 226.683594 297.558594 213.046875 283.1875 203.546875 263.574219 C 193.6875 243.257812 194.507812 226.667969 199.242188 204.871094 C 201.472656 194.632812 204.410156 185.96875 208.238281 178.386719 C 222.539062 150.050781 250.179688 134.445312 286.070312 134.445312 C 309.023438 134.445312 334.101562 141.1875 354.875 152.945312 C 379.429688 166.84375 396.761719 191.449219 401.238281 218.75 C 405.496094 244.730469 398.132812 269.867188 380.503906 289.535156 Z M 356.804688 149.527344 C 335.464844 137.445312 309.683594 130.515625 286.070312 130.515625 C 248.621094 130.515625 219.734375 146.886719 204.734375 176.617188 C 200.753906 184.5 197.703125 193.46875 195.40625 204.035156 C 190.488281 226.671875 189.664062 243.949219 200.011719 265.28125 C 209.898438 285.6875 224.132812 300.660156 242.308594 309.796875 C 250.644531 313.980469 260.03125 317.199219 268.746094 318.882812 C 280.671875 321.191406 292.519531 322.335938 303.964844 322.335938 C 303.96875 322.335938 303.96875 322.335938 303.96875 322.335938 C 327.863281 322.335938 361.046875 317.113281 383.425781 292.140625 C 401.867188 271.566406 409.566406 245.289062 405.109375 218.121094 C 400.445312 189.648438 382.386719 164.003906 356.804688 149.527344"/></g><g id="change3_5"><path fill="#eeaa94" d="M 360.738281 33.628906 C 361.664062 33.460938 362.230469 33.492188 363.058594 33.96875 C 363.75 34.371094 363.988281 35.296875 363.582031 35.988281 C 363.097656 36.816406 362.605469 37.136719 361.703125 37.441406 C 361.113281 37.636719 360.339844 37.425781 359.925781 36.96875 C 359.90625 36.949219 359.890625 36.929688 359.867188 36.90625 C 358.964844 35.910156 359.191406 33.902344 360.738281 33.628906 Z M 363.441406 29.351562 C 363.648438 29.398438 363.855469 29.449219 364.0625 29.496094 C 365.628906 29.882812 365.628906 32.273438 364.0625 32.65625 C 363.855469 32.707031 363.648438 32.753906 363.441406 32.808594 C 360.554688 33.515625 360.554688 28.640625 363.441406 29.351562 Z M 363.574219 41.976562 C 362.847656 42.320312 362.46875 42.425781 361.65625 42.34375 C 359.277344 42.101562 359.804688 38.605469 362.089844 39.148438 C 362.882812 39.335938 363.242188 39.523438 363.8125 40.09375 C 364.324219 40.605469 364.273438 41.636719 363.574219 41.976562 Z M 369.105469 40.472656 C 370.382812 40.335938 373.277344 40.273438 373.277344 42.25 C 373.277344 44.230469 370.382812 44.167969 369.105469 44.03125 C 366.8125 43.785156 366.8125 40.71875 369.105469 40.472656 Z M 368.664062 34.316406 C 368.851562 34.265625 369.035156 34.214844 369.226562 34.160156 C 369.773438 34.003906 370.382812 34.171875 370.78125 34.574219 C 370.871094 34.65625 370.960938 34.746094 371.046875 34.835938 C 371.546875 35.324219 371.464844 36.023438 371.046875 36.523438 C 370.695312 36.953125 370.445312 37.097656 369.933594 37.320312 C 367.707031 38.277344 366.421875 34.957031 368.664062 34.316406 Z M 372.394531 29.46875 C 373.054688 29.601562 373.414062 29.761719 373.867188 30.253906 C 374.3125 30.734375 374.3125 31.421875 373.867188 31.902344 C 373.414062 32.394531 373.054688 32.558594 372.394531 32.6875 C 369.699219 33.222656 369.699219 28.933594 372.394531 29.46875 Z M 379.925781 33.785156 C 380.0625 33.8125 380.199219 33.839844 380.339844 33.867188 C 382.140625 34.207031 382.140625 37.152344 380.339844 37.492188 C 380.199219 37.519531 380.0625 37.546875 379.925781 37.574219 C 376.757812 38.175781 376.757812 33.183594 379.925781 33.785156 Z M 381.554688 29.835938 C 382.242188 29.9375 382.433594 30 382.984375 30.410156 C 383.640625 30.902344 383.640625 31.699219 382.984375 32.191406 C 382.433594 32.601562 382.242188 32.664062 381.554688 32.765625 C 379.105469 33.121094 379.105469 29.480469 381.554688 29.835938 Z M 388.429688 41.710938 C 389.441406 41.347656 390.28125 41.230469 391.222656 41.8125 C 392.0625 42.335938 392.019531 43.480469 391.222656 44.011719 C 390.464844 44.515625 389.707031 44.496094 388.820312 44.605469 C 387.070312 44.8125 386.96875 42.234375 388.429688 41.710938 Z M 389.699219 34.664062 C 390.691406 34.605469 391.460938 34.4375 392.410156 34.804688 C 393.238281 35.132812 393.488281 36.007812 392.910156 36.703125 C 392.046875 37.742188 391 37.933594 389.699219 38.011719 C 387.546875 38.140625 387.558594 34.796875 389.699219 34.664062 Z M 390.792969 29.785156 C 390.976562 29.796875 391.160156 29.8125 391.347656 29.824219 C 393.523438 29.980469 393.523438 33.058594 391.347656 33.214844 C 391.160156 33.226562 390.976562 33.242188 390.792969 33.253906 C 388.558594 33.410156 388.558594 29.628906 390.792969 29.785156 Z M 399.558594 28.71875 C 400.296875 28.742188 400.742188 28.8125 401.347656 29.242188 C 402.21875 29.867188 402.21875 30.976562 401.347656 31.597656 C 400.742188 32.03125 400.296875 32.101562 399.558594 32.121094 C 397.359375 32.195312 397.359375 28.652344 399.558594 28.71875 Z M 403.382812 36.160156 C 402.652344 37.199219 402.113281 37.390625 400.871094 37.550781 C 398.523438 37.851562 398.398438 33.695312 400.871094 33.808594 C 401.65625 33.84375 402.171875 33.96875 402.886719 34.273438 C 403.542969 34.550781 403.773438 35.601562 403.382812 36.160156 Z M 404.769531 42.425781 C 403.757812 43.679688 401.875 43.4375 400.433594 43.410156 C 398.097656 43.367188 398.097656 39.832031 400.433594 39.789062 C 401.875 39.765625 403.757812 39.523438 404.769531 40.777344 C 405.199219 41.316406 405.199219 41.882812 404.769531 42.425781 Z M 410.511719 39.320312 C 411.503906 39.238281 412.222656 39.167969 413.066406 39.738281 C 413.460938 40.003906 413.769531 40.527344 413.585938 41.023438 C 413.046875 42.488281 411.984375 42.824219 410.511719 43 C 408.179688 43.269531 408.140625 39.511719 410.511719 39.320312 Z M 410.503906 33.179688 C 411.292969 33.066406 411.8125 33.03125 412.589844 33.199219 C 413.378906 33.371094 413.667969 34.324219 413.3125 34.984375 C 412.816406 35.902344 412.40625 36.164062 411.398438 36.429688 C 409.246094 37.015625 408.40625 33.480469 410.503906 33.179688 Z M 411.550781 28.605469 C 412.273438 28.839844 412.808594 28.875 413.445312 29.3125 C 414.09375 29.765625 414.117188 30.648438 413.445312 31.089844 C 412.554688 31.675781 411.808594 31.65625 410.792969 31.359375 C 409.027344 30.835938 409.800781 28.035156 411.550781 28.605469 Z M 419.699219 38.542969 C 420.160156 38.289062 420.570312 38.121094 421.078125 37.980469 C 421.757812 37.78125 422.703125 38.082031 423.011719 38.761719 C 423.074219 38.898438 423.136719 39.03125 423.1875 39.167969 C 423.445312 39.894531 423.011719 40.722656 422.398438 41.105469 C 422.113281 41.300781 421.808594 41.460938 421.480469 41.589844 C 419.453125 42.511719 417.671875 39.652344 419.699219 38.542969 Z M 420.59375 32.804688 C 421.589844 32.726562 422.328125 32.53125 423.296875 32.878906 C 424.089844 33.171875 424.339844 34.054688 423.777344 34.703125 C 422.90625 35.703125 421.867188 35.882812 420.59375 35.933594 C 418.558594 36.007812 418.609375 32.964844 420.59375 32.804688 Z M 420.863281 28.136719 C 421.433594 28.027344 421.847656 27.941406 422.40625 28.105469 C 422.890625 28.242188 423.132812 28.636719 423.175781 29.109375 C 423.183594 29.210938 423.195312 29.308594 423.203125 29.410156 C 423.261719 30.050781 422.722656 30.609375 422.15625 30.785156 C 421.980469 30.839844 421.808594 30.894531 421.636719 30.949219 C 419.828125 31.515625 419.027344 28.507812 420.863281 28.136719 Z M 428.828125 26.359375 C 428.894531 26.332031 428.964844 26.296875 429.023438 26.273438 C 430.15625 25.789062 431.832031 26.316406 431.726562 27.824219 C 431.722656 27.886719 431.71875 27.949219 431.714844 28.015625 C 431.609375 29.425781 430.148438 30.445312 428.828125 29.671875 C 427.703125 29.011719 427.460938 26.945312 428.828125 26.359375 Z M 433.148438 31.386719 C 434.074219 31.925781 434.074219 33.304688 433.148438 33.847656 C 432.675781 34.121094 432.351562 34.226562 431.800781 34.316406 C 428.953125 34.777344 428.953125 30.453125 431.800781 30.917969 C 432.351562 31.003906 432.675781 31.109375 433.148438 31.386719 Z M 434.894531 39.3125 C 433.890625 39.875 432.925781 40.183594 431.769531 40.1875 C 429.582031 40.1875 429.695312 37.105469 431.769531 36.871094 C 432.570312 36.785156 433.371094 36.738281 434.179688 36.679688 C 435.609375 36.578125 436.066406 38.648438 434.894531 39.3125 Z M 436.148438 25.476562 C 436.296875 25.46875 436.441406 25.457031 436.589844 25.449219 C 438.484375 25.328125 438.484375 28.511719 436.589844 28.386719 C 436.441406 28.382812 436.296875 28.367188 436.148438 28.363281 C 434.296875 28.242188 434.296875 25.597656 436.148438 25.476562 Z M 440.503906 30.257812 C 441.492188 29.882812 443.554688 29.261719 443.976562 30.792969 C 444.433594 32.453125 442.730469 33.261719 441.4375 33.65625 C 439.230469 34.328125 438.410156 31.039062 440.503906 30.257812 Z M 445.808594 36.769531 C 445.234375 37.566406 444.613281 37.765625 443.894531 38.386719 C 442.285156 39.765625 439.945312 37.46875 441.550781 36.039062 C 442.605469 35.101562 443.613281 34.414062 445.035156 34.875 C 445.765625 35.117188 446.316406 36.0625 445.808594 36.769531 Z M 381.613281 43.699219 C 380.867188 44.269531 379 44.25 379 44.25 C 378 44.25 378 42.007812 379 42.007812 C 380 42.007812 380.714844 41.992188 381.464844 42.558594 C 381.882812 42.882812 382.03125 43.378906 381.613281 43.699219 Z M 360.574219 45.875 C 362.070312 46.703125 363.8125 47.234375 365.628906 47.542969 C 389.894531 51.660156 442.132812 43.269531 446.148438 41.203125 C 447.164062 40.683594 447.769531 39.90625 448.089844 39 C 448.796875 37.011719 448.144531 34.398438 447.5 32.5 C 446.464844 29.449219 445.296875 23.800781 441.386719 23.25 C 436.089844 22.515625 426.710938 23.023438 421.339844 22.996094 C 410.195312 22.933594 402.390625 23.515625 391.257812 24.03125 C 386.066406 24.265625 380.898438 24.800781 375.714844 25.128906 C 371.203125 25.410156 366.296875 24.871094 362.109375 26.890625 C 361.933594 26.972656 361.757812 27.0625 361.582031 27.15625 C 357.199219 29.535156 355.441406 34.898438 356.148438 39.675781 C 356.585938 42.644531 358.285156 44.609375 360.574219 45.875"/></g><g id="change3_6"><path fill="#eeaa94" d="M 26.664062 85.347656 C 26.753906 83.445312 29.515625 83.453125 29.609375 85.347656 C 29.726562 87.652344 30.09375 90.492188 28.914062 92.578125 C 28.59375 93.140625 27.746094 93.132812 27.425781 92.578125 C 26.222656 90.507812 26.566406 87.652344 26.664062 85.347656 Z M 32.058594 85.035156 C 32.203125 83.511719 34.269531 83.523438 34.421875 85.035156 C 34.695312 87.699219 35.707031 91.660156 34.113281 94.027344 C 33.691406 94.652344 32.863281 94.644531 32.441406 94.027344 C 30.828125 91.675781 31.808594 87.695312 32.058594 85.035156 Z M 37.390625 89.257812 C 37.410156 87.21875 37.398438 85.210938 37.71875 83.195312 C 37.953125 81.730469 40.402344 81.742188 40.648438 83.191406 C 41.03125 85.46875 40.996094 87.769531 41.039062 90.078125 C 41.078125 92.023438 41.09375 93.753906 40.308594 95.558594 C 39.949219 96.371094 38.523438 96.363281 38.160156 95.558594 C 37.246094 93.515625 37.367188 91.449219 37.390625 89.257812 Z M 44.734375 83.5625 C 44.84375 81.210938 48.199219 81.242188 48.355469 83.5625 C 48.5 85.652344 48.648438 87.742188 48.726562 89.835938 C 48.785156 91.390625 48.730469 92.992188 47.804688 94.296875 C 47.304688 94.992188 46.453125 94.972656 45.949219 94.296875 C 44.832031 92.796875 44.847656 90.84375 44.773438 89.050781 C 44.695312 87.210938 44.652344 85.402344 44.734375 83.5625 Z M 54.898438 81.964844 C 55.277344 84.21875 55.554688 86.476562 55.726562 88.757812 C 55.886719 90.820312 56.085938 92.78125 55.046875 94.644531 C 54.582031 95.472656 53.347656 95.445312 52.875 94.644531 C 51.8125 92.832031 51.90625 90.800781 51.84375 88.757812 C 51.78125 86.632812 51.699219 84.519531 51.734375 82.398438 C 51.765625 80.636719 54.589844 80.121094 54.898438 81.964844 Z M 62.214844 83.359375 C 63.023438 85.460938 63.445312 87.523438 63.730469 89.746094 C 63.941406 91.320312 64.277344 93.316406 63.023438 94.519531 C 62.652344 94.871094 62.039062 94.992188 61.585938 94.703125 C 60.164062 93.78125 60.058594 91.996094 59.910156 90.425781 C 59.71875 88.351562 59.535156 86.246094 59.222656 84.191406 C 58.933594 82.21875 61.488281 81.476562 62.214844 83.359375 Z M 69.757812 83.207031 C 70.273438 85.195312 70.546875 87.179688 70.710938 89.226562 C 70.839844 90.855469 71.078125 92.640625 69.683594 93.789062 C 69.1875 94.203125 68.582031 94.339844 67.992188 94.007812 C 66.222656 93.03125 66.25 91.027344 66.148438 89.226562 C 66.042969 87.398438 65.996094 85.5625 65.78125 83.746094 C 65.511719 81.4375 69.199219 81.046875 69.757812 83.207031 Z M 73.574219 87.214844 C 73.582031 85.214844 73.652344 83.226562 74.011719 81.253906 C 74.324219 79.535156 77.117188 79.554688 77.449219 81.253906 C 77.875 83.476562 77.933594 85.738281 77.945312 88 C 77.953125 89.648438 77.984375 91.652344 76.652344 92.800781 C 76.105469 93.277344 75.441406 93.269531 74.898438 92.800781 C 73.375 91.507812 73.5625 89.054688 73.574219 87.214844 Z M 80.6875 81.6875 C 80.851562 79.3125 84.179688 79.324219 84.367188 81.6875 C 84.617188 84.835938 85.097656 89.019531 83.550781 91.898438 C 83.148438 92.640625 81.988281 92.632812 81.589844 91.898438 C 80.019531 89.035156 80.46875 84.835938 80.6875 81.6875 Z M 88.199219 81.9375 C 88.382812 80.519531 90.703125 79.839844 90.972656 81.5625 C 91.4375 84.574219 92.328125 88.726562 90.867188 91.546875 C 90.5 92.265625 89.390625 92.234375 89.011719 91.546875 C 87.5625 88.921875 87.824219 84.820312 88.199219 81.9375 Z M 97.289062 81.152344 C 98.003906 83.597656 100.097656 87.195312 98.035156 89.445312 C 97.640625 89.878906 96.964844 89.820312 96.5625 89.445312 C 95.566406 88.535156 95.320312 87.132812 94.953125 85.875 C 94.589844 84.617188 94.160156 83.375 93.832031 82.109375 C 93.246094 79.863281 96.644531 78.9375 97.289062 81.152344 Z M 32.269531 97.859375 C 53.054688 101.28125 97.726562 93.898438 101.152344 92.117188 C 103.925781 90.679688 103.089844 87.023438 102.277344 84.660156 C 101.378906 82.058594 100.355469 77.21875 97.007812 76.773438 C 92.472656 76.15625 84.449219 76.632812 79.855469 76.628906 C 70.316406 76.625 63.636719 77.152344 54.109375 77.636719 C 49.667969 77.863281 45.25 78.339844 40.808594 78.636719 C 36.957031 78.894531 32.746094 78.460938 29.171875 80.195312 C 29.027344 80.265625 28.875 80.34375 28.726562 80.421875 C 24.984375 82.480469 23.503906 87.074219 24.125 91.160156 C 24.761719 95.359375 28.339844 97.210938 32.269531 97.859375"/></g><g id="change3_7"><path fill="#eeaa94" d="M 34.652344 48.367188 C 43.117188 54.535156 52.425781 54.746094 62.390625 53.871094 C 71.28125 53.089844 81.464844 52.324219 89.519531 48.171875 C 94.75 45.480469 92.1875 40.15625 87.203125 39.507812 C 86.097656 39.359375 85.832031 40.808594 86.390625 41.46875 C 87.472656 42.757812 89.765625 43.78125 87.703125 45.070312 C 85.816406 46.242188 83.40625 46.734375 81.277344 47.277344 C 75.636719 48.730469 69.765625 49.394531 63.984375 49.96875 C 59.816406 50.382812 55.601562 50.738281 51.410156 50.667969 C 48.472656 50.628906 45.648438 49.804688 42.894531 48.882812 C 40.226562 47.988281 37.535156 46.433594 35.335938 44.695312 C 30.230469 40.675781 38.34375 37.394531 41.207031 36.4375 C 42.261719 36.082031 41.824219 34.609375 40.753906 34.792969 C 32.882812 36.140625 25.753906 41.890625 34.652344 48.367188"/></g><g id="change3_8"><path fill="#eeaa94" d="M 115.796875 98.078125 C 95.605469 112.917969 65.648438 107.367188 42.082031 107.363281 C 28.421875 107.359375 7.714844 107.4375 2.25 122.773438 C 1.894531 123.777344 3.550781 124.480469 3.972656 123.496094 C 12.3125 104.0625 51.238281 111.195312 67.925781 111.640625 C 83.191406 112.050781 106.730469 113.671875 117.773438 100.644531 C 118.894531 99.324219 117.386719 96.910156 115.796875 98.078125"/></g><g id="change3_9"><path fill="#eeaa94" d="M 472.972656 96.195312 C 440.601562 100.371094 408.9375 103.371094 376.320312 104.855469 C 374.570312 104.9375 374.566406 107.503906 376.320312 107.570312 C 408.367188 108.757812 442.273438 107.78125 473.398438 99.359375 C 475.105469 98.898438 474.8125 95.957031 472.972656 96.195312"/></g><g id="change3_10"><path fill="#eeaa94" d="M 234.980469 96.195312 C 202.605469 100.371094 170.941406 103.371094 138.328125 104.855469 C 136.578125 104.9375 136.574219 107.503906 138.328125 107.570312 C 170.375 108.757812 204.28125 107.785156 235.410156 99.359375 C 237.109375 98.898438 236.820312 95.957031 234.980469 96.195312"/></g><g id="change3_11"><path fill="#eeaa94" d="M 444.730469 62.710938 C 444 62.964844 442.984375 62.925781 442.675781 62.492188 C 442.382812 62.082031 442.527344 61.101562 442.980469 60.820312 C 443.6875 60.378906 445.019531 60.867188 445.417969 61.535156 C 445.738281 62.09375 445.328125 62.5 444.730469 62.710938 Z M 442.027344 56.324219 C 440.777344 56.863281 435.902344 60.636719 439.972656 65.203125 C 441.195312 66.578125 443.160156 67.0625 444.917969 67.050781 C 446.324219 67.042969 448.082031 67.121094 449.355469 66.429688 C 451.835938 65.078125 451.722656 61.625 450.929688 59.316406 C 450.734375 58.742188 450.339844 58.261719 449.835938 57.859375 C 448.742188 56.988281 447.148438 56.472656 446.015625 56.207031 C 444.828125 55.925781 443.183594 55.835938 442.027344 56.324219"/></g><g id="change3_12"><path fill="#eeaa94" d="M 216.964844 50.523438 C 227.792969 43.390625 235.5 33.878906 248.75 30.363281 C 261.394531 27.015625 275.527344 28.546875 288.4375 28.546875 C 313.019531 28.546875 328.863281 30.148438 345.136719 49.855469 C 346.429688 51.421875 348.527344 49.421875 347.773438 47.820312 C 338.453125 27.988281 318.882812 24.734375 298.960938 24.273438 C 283.878906 23.921875 268.398438 23.394531 253.484375 25.855469 C 236.371094 28.675781 229.523438 39.835938 216.332031 49.453125 C 215.699219 49.914062 216.28125 50.972656 216.964844 50.523438"/></g><g id="change3_13"><path fill="#eeaa94" d="M 321.167969 76.054688 C 293.652344 72.375 266.714844 79.164062 242.199219 91.285156 C 241.4375 91.660156 241.984375 92.992188 242.785156 92.671875 C 283.988281 76.105469 331.347656 73.101562 367.605469 100.996094 C 368.996094 102.0625 370.636719 100.0625 369.875 98.730469 C 360.675781 82.648438 337.996094 78.300781 321.167969 76.054688"/></g><g id="change3_14"><path fill="#eeaa94" d="M 465.019531 268.105469 C 460.804688 264.871094 451.628906 265.679688 447.195312 267.484375 C 445.515625 268.167969 445.242188 270.585938 447.195312 271.164062 C 451.089844 272.320312 454.894531 271.628906 458.925781 271.769531 C 465.722656 271.996094 464.910156 282.042969 465.3125 287.007812 C 465.734375 292.304688 469.140625 309.625 463.921875 312.945312 C 460.6875 314.996094 451.410156 317.121094 449.582031 312.148438 C 448.203125 308.402344 448.304688 303.667969 447.867188 299.742188 C 446.890625 290.789062 445.972656 281.828125 444.828125 272.898438 C 444.542969 270.667969 441.089844 270.535156 441.238281 272.894531 C 442.113281 286.425781 442.394531 300.078125 444.824219 313.453125 C 446.570312 323.117188 462.820312 320.726562 468.148438 316.207031 C 471.007812 313.785156 471.027344 310.734375 471.195312 307.164062 C 471.59375 298.894531 470.863281 290.492188 470.15625 282.257812 C 469.683594 276.734375 469.679688 271.679688 465.019531 268.105469"/></g></g></svg>