<?xml version="1.0" encoding="UTF-8" standalone="no"?><svg xmlns="http://www.w3.org/2000/svg" xmlns:xlink="http://www.w3.org/1999/xlink" contentScriptType="text/ecmascript" fill="#000000" width="388.9" zoomAndPan="magnify" contentStyleType="text/css" viewBox="9.0 -58.3 388.9 371.1" height="371.1" preserveAspectRatio="xMidYMid meet" version="1"><g id="change1_1"><path fill="inherit" d="m21.738 253.21l87.822 20.379 0.4852 3.8816-92.189-14.556 3.8816-9.7041z" fill-rule="evenodd" stroke="#000000"/></g><g stroke="#000000" fill-rule="evenodd"><g id="change1_3"><path fill="inherit" stroke-width="1.209" d="m9.6047 283.11l144.34-0.9047c65.433-330.52 201.75 30.602 243.31-269.6l-75.055 2.7141c-6.6315 207.32-207.85-73.623-312.59 267.79z"/></g><g id="change2_1"><path fill="#ffffff" stroke-width="1.167" d="m15.891 275.85l132.67-0.3774c71.647-323.89 203.28 28.209 243.86-258.04l-66.486 2.1028c-8.9006 202.54-208.26-66.805-310.04 256.32h-2e-5z"/></g><g id="change1_4"><path fill="inherit" stroke-width="1.049" d="m21.655 277.37l118.33-1.3317c67.88-328.3 213.83 15.915 248.12-259.63l-57.595 1.0425c-11.554 215.97-203.4-61.615-308.86 259.92v3.1e-5z"/></g></g><path fill="none" stroke-width="8" d="m323.05 30.014l68.414-0.4852" id="a" stroke="#000000"/><use x="-1.941" y="14.071" width="400" xlink:href="#a" xlink:type="simple" xlink:actuate="onLoad" height="400" id="b" xlink:show="embed"/><use x="-3.396" y="14.071" width="400" xlink:href="#b" xlink:type="simple" xlink:actuate="onLoad" height="400" xlink:show="embed"/><use transform="matrix(1.0318 0 0 1 -18.196 28.142)" width="400" xlink:href="#b" xlink:type="simple" xlink:actuate="onLoad" height="400" xlink:show="embed"/><use x="5.764" y="55.844" transform="matrix(1.0697 .01593 -.01704 .99987 -42.053 -19.788)" width="400" xlink:href="#b" xlink:type="simple" xlink:actuate="onLoad" height="400" xlink:show="embed"/><g fill-rule="evenodd"><g id="change1_2" stroke="#000000"><path fill="inherit" d="m233.77 101.82l113.54 32.994 5.3372-4.3669-109.66-29.112-9.2189 0.4852z"/><path fill="inherit" d="m260.94 102.31l100.92 21.834 2.9112-6.065-95.585-16.254-8.2484 0.4852z"/><path fill="inherit" d="m283.4 99.782l87.721 8.4209 4.8033-9.163-78.342-3.8014-14.182 4.5434z"/><path fill="inherit" d="m227.95 103.52l104.32 37.846 8.4911-1.6982-107.96-36.876-4.8521 0.7278z"/><path fill="inherit" d="m154.44 104.98l93.644 23.29 8.9763-0.2426-96.07-24.503-6.5503 1.4556z"/><path fill="inherit" d="m182.83 101.58l86.852 28.384 16.012 4.3668-93.644-33.479-9.2189 0.7278z"/><path fill="inherit" d="m207.09 101.58l94.857 35.905 18.438 3.1538-109.17-39.302-4.1242 0.2426z"/><path fill="inherit" d="m235.23 130.94l-89.278-23.775-12.13 3.3964 87.822 24.745 13.586-4.3668z"/><path fill="inherit" d="m214.36 140.64l-88.307-27.171-13.1 6.7929 93.159 25.716 8.2485-5.3373z"/><path fill="inherit" d="m199.32 152.77l-91.704-26.201-8.2485 3.8816 91.704 27.657 8.2485-5.3373z"/><path fill="inherit" d="m188.16 167.33l-100.44-28.142-4.852 6.3076 102.38 27.657 2.9112-5.8224z"/><path fill="inherit" d="m74.14 156.17l103.35 27.657-1.4556 8.2485-109.17-30.083 7.2781-5.8224z"/><path fill="inherit" d="m62.495 170.72l107.72 33.964-3.3964 10.674-109.17-36.39 4.852-8.2485z"/><path fill="inherit" d="m49.88 191.59l110.14 36.39-2.426 10.189-113.05-39.302 5.3373-7.2781h-1.1e-5z"/><path fill="inherit" d="m38.235 211c38.816 14.071 77.633 35.972 116.45 42.213l-0.9704 7.7633c-47.869-7.82-78.926-26.848-118.39-40.272l2.9112-9.7041h-1.1e-5z"/><path fill="inherit" d="m29.987 232.34c40.11 13.909 71.691 36.348 120.33 41.728v3.8816l-124.21-35.42 3.8816-10.189z"/></g><g fill="none" stroke="#ffffff"><g stroke-opacity="0.941"><path d="m27.561 276.5l109.17-0.9704c2.5562-19.534 6.3695-34.04 10.189-48.52l-99.467-3.3965c-7.5494 13.956-13.571 34.024-19.893 52.887h-1e-5z"/><path d="m51.336 216.33l97.526 2.9112c4.9067-16.793 11.941-32.522 19.408-48.035l-85.396-7.2781c-17.609 23.677-23.878 37.431-31.538 52.402z"/><path d="m51.336 216.33l97.526 2.9112c4.9067-16.793 11.941-32.522 19.408-48.035l-85.396-7.2781c-17.609 23.677-23.878 37.431-31.538 52.402z"/><path d="m85.785 159.08l84.426 7.2781c11.7-21.16 28.438-31.067 40.272-39.787l-62.591-9.7041c-19.065 5.7242-50.564 28.697-62.106 42.213z"/><path d="m156.06 114.44l58.224 10.189c21.404-6.1186 20.674-8.2623 51.432-3.8816l-45.609-10.674c-19.065 0.87218-39.405-0.90034-64.047 4.3668z"/></g><path d="m237.65 110.07l51.432 15.526c32.594 5.6544 43.163 5.8662 62.106-10.189l-48.035-15.041c-13.877 9.4869-33.565 14.408-65.502 9.7041z"/><path stroke-opacity="0.941" d="m306.55 97.458l48.035 14.556c8.4357-10.053 15.574-24.146 19.893-40.757l-48.52-5.8225c-4.5062 13.599-7.4955 19.569-19.408 32.024z"/><path d="m327.42 60.582l48.52 4.3668c5.0992-17.851 6.9891-31.422 8.2485-44.154l-50.946 0.4852c-0.71652 14.325-2.5197 27.563-5.8224 39.302z"/></g></g></svg>