<?xml version="1.0" encoding="UTF-8" standalone="no"?><svg xmlns="http://www.w3.org/2000/svg" xmlns:xlink="http://www.w3.org/1999/xlink" contentScriptType="text/ecmascript" fill="#000000" width="803.7" zoomAndPan="magnify" contentStyleType="text/css" viewBox="-4.4 -7.2 803.7 1133.0" height="1133" preserveAspectRatio="xMidYMid meet" version="1"><defs><clipPath id="a"><path d="M 435 951 L 497 951 L 497 959 L 435 959 Z M 435 951"/></clipPath><clipPath id="b"><path d="M 607.394531 940.21875 C 607.394531 940.21875 618.011719 1007.148438 605.761719 1008.898438 C 530.492188 1018.441406 353.851562 1054.839844 260.578125 1062.03125 C 223.691406 1064.871094 176.367188 1055.109375 174.910156 1022.039062 C 172.757812 973.242188 180.492188 935.871094 204.90625 841.472656 C 235.523438 723.058594 244.371094 713.464844 255.289062 586.175781 C 289.375 593.921875 361.464844 585.253906 402.242188 578.441406 C 410.71875 731.820312 336.277344 876.796875 299.535156 949.105469 C 299.535156 949.105469 425.300781 922.546875 607.394531 940.21875"/></clipPath><clipPath id="c"><path d="M 343 720 L 350 720 L 350 743 L 343 743 Z M 343 720"/></clipPath><clipPath id="d"><path d="M 607.394531 940.21875 C 607.394531 940.21875 618.011719 1007.148438 605.761719 1008.898438 C 530.492188 1018.441406 353.851562 1054.839844 260.578125 1062.03125 C 223.691406 1064.871094 176.367188 1055.109375 174.910156 1022.039062 C 172.757812 973.242188 180.492188 935.871094 204.90625 841.472656 C 235.523438 723.058594 244.371094 713.464844 255.289062 586.175781 C 289.375 593.921875 361.464844 585.253906 402.242188 578.441406 C 410.71875 731.820312 336.277344 876.796875 299.535156 949.105469 C 299.535156 949.105469 425.300781 922.546875 607.394531 940.21875"/></clipPath><clipPath id="e"><path d="M 270 664 L 326 664 L 326 973 L 270 973 Z M 270 664"/></clipPath><clipPath id="f"><path d="M 607.394531 940.21875 C 607.394531 940.21875 618.011719 1007.148438 605.761719 1008.898438 C 530.492188 1018.441406 353.851562 1054.839844 260.578125 1062.03125 C 223.691406 1064.871094 176.367188 1055.109375 174.910156 1022.039062 C 172.757812 973.242188 180.492188 935.871094 204.90625 841.472656 C 235.523438 723.058594 244.371094 713.464844 255.289062 586.175781 C 289.375 593.921875 361.464844 585.253906 402.242188 578.441406 C 410.71875 731.820312 336.277344 876.796875 299.535156 949.105469 C 299.535156 949.105469 425.300781 922.546875 607.394531 940.21875"/></clipPath><clipPath id="g"><path d="M 240 590 L 300 590 L 300 1002 L 240 1002 Z M 240 590"/></clipPath><clipPath id="h"><path d="M 607.394531 940.21875 C 607.394531 940.21875 618.011719 1007.148438 605.761719 1008.898438 C 530.492188 1018.441406 353.851562 1054.839844 260.578125 1062.03125 C 223.691406 1064.871094 176.367188 1055.109375 174.910156 1022.039062 C 172.757812 973.242188 180.492188 935.871094 204.90625 841.472656 C 235.523438 723.058594 244.371094 713.464844 255.289062 586.175781 C 289.375 593.921875 361.464844 585.253906 402.242188 578.441406 C 410.71875 731.820312 336.277344 876.796875 299.535156 949.105469 C 299.535156 949.105469 425.300781 922.546875 607.394531 940.21875"/></clipPath><clipPath id="i"><path d="M 208 609 L 284 609 L 284 1029 L 208 1029 Z M 208 609"/></clipPath><clipPath id="j"><path d="M 607.394531 940.21875 C 607.394531 940.21875 618.011719 1007.148438 605.761719 1008.898438 C 530.492188 1018.441406 353.851562 1054.839844 260.578125 1062.03125 C 223.691406 1064.871094 176.367188 1055.109375 174.910156 1022.039062 C 172.757812 973.242188 180.492188 935.871094 204.90625 841.472656 C 235.523438 723.058594 244.371094 713.464844 255.289062 586.175781 C 289.375 593.921875 361.464844 585.253906 402.242188 578.441406 C 410.71875 731.820312 336.277344 876.796875 299.535156 949.105469 C 299.535156 949.105469 425.300781 922.546875 607.394531 940.21875"/></clipPath><clipPath id="k"><path d="M 778 944 L 797.761719 944 L 797.761719 1116.398438 L 778 1116.398438 Z M 778 944"/></clipPath><clipPath id="l"><path d="M 418 709 L 686 709 L 686 975 L 418 975 Z M 418 709"/></clipPath><clipPath id="m"><path d="M 442.070312 560.6875 C 467.675781 608.835938 529.894531 665.269531 523.78125 736.742188 C 518.464844 798.871094 435.046875 930.253906 432.585938 971.539062 C 432.585938 971.539062 479.582031 956.3125 526.945312 953.460938 C 633.992188 947.011719 651.128906 941.570312 686.816406 946.234375 C 680.675781 979.402344 687.285156 1024.011719 687.285156 1024.011719 C 294.597656 1090.269531 275.460938 1097.621094 284.273438 982.929688 C 293.273438 865.738281 349.898438 725.925781 349.898438 725.925781 C 327.429688 670.679688 308.582031 649.46875 300.199219 590.089844 C 354.015625 588.21875 372.84375 566.332031 388.980469 559.730469 C 417.378906 548.113281 442.070312 560.6875 442.070312 560.6875"/></clipPath><clipPath id="n"><path d="M 377 690 L 685 690 L 685 1007 L 377 1007 Z M 377 690"/></clipPath><clipPath id="o"><path d="M 442.070312 560.6875 C 467.675781 608.835938 529.894531 665.269531 523.78125 736.742188 C 518.464844 798.871094 435.046875 930.253906 432.585938 971.539062 C 432.585938 971.539062 479.582031 956.3125 526.945312 953.460938 C 633.992188 947.011719 651.128906 941.570312 686.816406 946.234375 C 680.675781 979.402344 687.285156 1024.011719 687.285156 1024.011719 C 294.597656 1090.269531 275.460938 1097.621094 284.273438 982.929688 C 293.273438 865.738281 349.898438 725.925781 349.898438 725.925781 C 327.429688 670.679688 308.582031 649.46875 300.199219 590.089844 C 354.015625 588.21875 372.84375 566.332031 388.980469 559.730469 C 417.378906 548.113281 442.070312 560.6875 442.070312 560.6875"/></clipPath><clipPath id="p"><path d="M 335 613 L 687 613 L 687 1044 L 335 1044 Z M 335 613"/></clipPath><clipPath id="q"><path d="M 442.070312 560.6875 C 467.675781 608.835938 529.894531 665.269531 523.78125 736.742188 C 518.464844 798.871094 435.046875 930.253906 432.585938 971.539062 C 432.585938 971.539062 479.582031 956.3125 526.945312 953.460938 C 633.992188 947.011719 651.128906 941.570312 686.816406 946.234375 C 680.675781 979.402344 687.285156 1024.011719 687.285156 1024.011719 C 294.597656 1090.269531 275.460938 1097.621094 284.273438 982.929688 C 293.273438 865.738281 349.898438 725.925781 349.898438 725.925781 C 327.429688 670.679688 308.582031 649.46875 300.199219 590.089844 C 354.015625 588.21875 372.84375 566.332031 388.980469 559.730469 C 417.378906 548.113281 442.070312 560.6875 442.070312 560.6875"/></clipPath><clipPath id="r"><path d="M 294 593 L 364 593 L 364 1070 L 294 1070 Z M 294 593"/></clipPath><clipPath id="s"><path d="M 442.070312 560.6875 C 467.675781 608.835938 529.894531 665.269531 523.78125 736.742188 C 518.464844 798.871094 435.046875 930.253906 432.585938 971.539062 C 432.585938 971.539062 479.582031 956.3125 526.945312 953.460938 C 633.992188 947.011719 651.128906 941.570312 686.816406 946.234375 C 680.675781 979.402344 687.285156 1024.011719 687.285156 1024.011719 C 294.597656 1090.269531 275.460938 1097.621094 284.273438 982.929688 C 293.273438 865.738281 349.898438 725.925781 349.898438 725.925781 C 327.429688 670.679688 308.582031 649.46875 300.199219 590.089844 C 354.015625 588.21875 372.84375 566.332031 388.980469 559.730469 C 417.378906 548.113281 442.070312 560.6875 442.070312 560.6875"/></clipPath></defs><g><g><path fill="#227377" d="M 201.746094 261.230469 C 201.746094 261.230469 140.183594 364.363281 149.421875 421.980469 C 149.421875 421.980469 20.175781 334.867188 7.875 342.46875 C -4.429688 350.066406 115 470.441406 171.929688 521.089844 C 228.863281 571.734375 246.230469 567.003906 253.441406 554.53125 C 260.65625 542.0625 201.746094 261.230469 201.746094 261.230469"/></g><g><path fill="#5e1212" d="M 157.511719 59.101562 C 138.074219 10.039062 201.84375 -7.21875 238.335938 2.679688 C 280.492188 14.109375 309.617188 42.410156 323.984375 83.679688 C 327.816406 94.691406 324.765625 107.078125 328.996094 117.691406 C 333.339844 128.585938 345.539062 135.015625 354.359375 141.804688 C 361.300781 147.152344 372.03125 152.40625 376.226562 160.578125 C 381.445312 170.746094 378.511719 184.089844 383.773438 195.207031 C 388.589844 205.378906 402.445312 215.777344 404.101562 227.054688 C 405.863281 239.105469 392.691406 256.464844 383.765625 263.363281 C 361.1875 280.8125 325.191406 274.613281 315.964844 246.308594 C 311.113281 231.425781 313.902344 231.292969 301.222656 223.210938 C 291.890625 217.261719 284.277344 212.234375 273.925781 208.933594 C 246.914062 200.3125 222.414062 192.21875 202.285156 170.066406 C 179.578125 145.070312 170.375 100.371094 157.511719 59.101562"/></g><g><path fill="#195452" d="M 443.074219 668.640625 C 443.074219 668.640625 239.675781 709.242188 241.371094 691.128906 C 252.941406 567.679688 231.007812 510.964844 220.121094 482.03125 C 209.230469 453.09375 169.289062 314.433594 170.878906 295.707031 C 171.796875 284.855469 186.964844 277.023438 186.964844 277.023438 L 279.640625 532.808594 L 443.074219 668.640625"/></g><g><path fill="#f65b2b" d="M 435.449219 257.191406 C 411.996094 201.917969 337.183594 208.71875 286.71875 218.867188 C 257.011719 224.839844 222.777344 240.558594 201.746094 261.230469 C 190.496094 266.871094 180.339844 275.03125 178.269531 289.570312 C 176.847656 299.523438 179.710938 311.332031 184.59375 323.460938 C 187.304688 334.34375 191.292969 345.144531 193.703125 356.414062 C 196.734375 370.566406 196.5625 359.648438 194.199219 382.710938 C 191.917969 404.925781 184.867188 422.871094 196.074219 442.117188 C 211.839844 469.1875 238.492188 479.21875 238.492188 479.21875 C 245.503906 491.6875 267.449219 591.785156 267.886719 591.714844 C 270.824219 605.167969 271.359375 624.566406 272.925781 641.558594 C 288.050781 652.121094 341.335938 655.328125 423.484375 635.191406 C 464.03125 625.25 466.917969 541.570312 437.621094 502.707031 C 426.785156 488.328125 431.476562 492.28125 439.132812 496.234375 C 449.132812 501.398438 464.195312 506.5625 456.335938 470.886719 C 464.753906 343.316406 441.820312 272.199219 435.449219 257.191406"/></g><g><path fill="#c97b27" d="M 327.421875 426.746094 C 320.964844 426.746094 314.570312 425.621094 309.070312 422.597656 C 308.046875 422.039062 307.675781 420.757812 308.234375 419.734375 C 308.789062 418.699219 310.085938 418.328125 311.101562 418.898438 C 330.097656 429.289062 362.984375 413.792969 363.316406 413.628906 C 364.382812 413.140625 365.644531 413.578125 366.140625 414.621094 C 366.644531 415.679688 366.199219 416.941406 365.148438 417.445312 C 364.101562 417.949219 345.5 426.746094 327.421875 426.746094"/></g><g><path fill="#c97b27" d="M 268.914062 359.160156 C 268.609375 359.160156 268.292969 359.09375 268.003906 358.953125 C 266.949219 358.449219 266.503906 357.1875 267.007812 356.140625 C 272.671875 344.253906 279.164062 333.8125 286.027344 322.761719 C 288.414062 318.929688 290.824219 315.050781 293.238281 311.050781 C 298.515625 302.28125 303.023438 294.167969 304.660156 283.648438 C 304.839844 282.492188 305.964844 281.722656 307.070312 281.878906 C 308.226562 282.0625 309.019531 283.144531 308.839844 284.289062 C 307.085938 295.566406 302.171875 304.410156 296.855469 313.230469 C 294.433594 317.246094 292.015625 321.144531 289.621094 325 C 282.8125 335.945312 276.386719 346.285156 270.820312 357.953125 C 270.457031 358.714844 269.699219 359.160156 268.914062 359.160156"/></g><g><path fill="#f7d6ab" d="M 305.441406 214.847656 C 305.441406 214.847656 302.71875 280.679688 282.605469 308.003906 C 262.492188 335.324219 252.308594 361.441406 252.308594 361.441406 C 252.308594 361.441406 203.949219 298.398438 228.074219 241.746094 C 235.597656 224.074219 305.441406 214.847656 305.441406 214.847656"/></g><g><path fill="#ffbb8a" d="M 575.574219 1004.25 C 580.59375 1006.019531 599.589844 1004.851562 616.492188 1003.671875 C 629.765625 1002.75 641.75 1001.828125 644.664062 1002.328125 C 651.285156 1003.480469 657.433594 1006.609375 659.402344 1003.78125 C 661.375 1000.949219 649.132812 999.273438 650.140625 995.875 C 652.074219 989.339844 654.019531 982.777344 655.132812 976.007812 C 656.742188 966.21875 667.296875 952.097656 659.441406 947.320312 C 656.210938 945.359375 650.328125 946.355469 643.585938 947.351562 C 639.242188 947.992188 634.542969 948.632812 629.964844 948.484375 C 602.855469 947.605469 589.121094 945.148438 573.503906 942.792969 C 571.925781 942.554688 579.648438 948.507812 578.097656 948.902344 C 575.355469 949.601562 573.328125 952.230469 572.085938 955.035156 C 568.4375 963.246094 569.996094 972.964844 569.441406 982.101562 C 569.148438 986.980469 568.230469 991.941406 569.242188 996.699219 C 570.253906 1001.460938 571.378906 1002.769531 575.574219 1004.25"/></g><g><path fill="#376f90" d="M 652.378906 945.34375 C 645.332031 945.941406 642.929688 947.417969 634.050781 947.140625 C 634.144531 946.722656 630.6875 947.535156 630.546875 947.933594 C 630.402344 948.332031 630.632812 948.765625 630.824219 949.136719 C 632.625 952.621094 631.925781 956.949219 631.5 960.941406 C 630.945312 966.164062 630.972656 971.476562 631.769531 976.660156 C 631.914062 977.601562 632.085938 978.566406 631.941406 979.507812 C 631.808594 980.359375 631.433594 981.136719 631.160156 981.945312 C 630.121094 985.039062 630.664062 988.464844 630.898438 991.753906 C 631.132812 995.046875 630.902344 998.734375 628.78125 1001.039062 C 628.386719 1001.46875 627.925781 1001.859375 627.714844 1002.421875 C 627.503906 1002.988281 627.703125 1003.800781 628.242188 1003.910156 C 634.261719 1005.148438 640.679688 1004.011719 646.78125 1003.53125 C 648.625 1003.378906 650.378906 1004.449219 652.1875 1004.859375 C 654.628906 996.851562 657.039062 984.082031 658.160156 975.722656 C 658.808594 970.894531 659.230469 965.96875 658.550781 961.144531 C 657.867188 956.324219 655.988281 951.574219 652.660156 948.386719 C 651.910156 947.667969 651.058594 946.984375 650.675781 945.96875 C 650.414062 945.28125 650.839844 945.324219 651.4375 945.367188 C 651.730469 945.386719 652.0625 945.40625 652.378906 945.34375"/></g><g><path fill="#feb856" d="M 648.820312 955.640625 C 645.6875 950.023438 648.390625 942.597656 654.164062 941.003906 C 676.457031 934.84375 699.027344 933.960938 700.828125 939.949219 C 714.445312 985.210938 708.394531 1021.261719 706.117188 1064.398438 C 705.808594 1070.261719 703.78125 1076.871094 703.359375 1081.667969 C 701.949219 1097.78125 677.625 1082.460938 671.265625 1068.121094 C 664.511719 1052.910156 667.6875 1036.878906 661.71875 1022.851562 C 658.757812 1015.890625 656.398438 1012.660156 648.328125 1010.621094 C 635.785156 1007.449219 656.164062 984.398438 655.480469 970.03125 C 655.144531 963.011719 652.503906 962.246094 648.820312 955.640625"/></g><g><path fill="#c97b27" d="M 697.472656 936.589844 C 697.472656 936.589844 704.640625 935.082031 705.5 937.582031 C 707.371094 943.027344 715.050781 976.382812 713.546875 1018.839844 C 712.058594 1060.839844 709.378906 1096.769531 697.261719 1088.910156 C 697.261719 1088.910156 706.882812 1078.101562 705.878906 1019.621094 C 704.878906 961.148438 698.273438 938.484375 697.472656 936.589844"/></g><g><path fill="#c97b27" d="M 673.175781 1071.640625 C 673.175781 1071.640625 666.847656 1047.75 673.414062 1041.820312 C 679.984375 1035.890625 676.054688 1015.25 664.9375 1007.421875 C 653.824219 999.59375 643.132812 996.796875 642.527344 1004.699219 C 641.921875 1012.601562 654.054688 1017.460938 655.652344 1019.570312 C 657.25 1021.679688 663.542969 1024.78125 664.742188 1035.109375 C 665.941406 1045.429688 668.980469 1067.039062 673.175781 1071.640625"/></g><g><path fill="#227377" d="M 607.394531 940.21875 C 607.394531 940.21875 618.011719 1007.148438 605.761719 1008.898438 C 530.492188 1018.441406 353.851562 1054.839844 260.578125 1062.03125 C 223.691406 1064.871094 176.367188 1055.109375 174.910156 1022.039062 C 172.757812 973.242188 180.492188 935.871094 204.90625 841.472656 C 235.523438 723.058594 244.371094 713.464844 255.289062 586.175781 C 289.375 593.921875 361.464844 585.253906 402.242188 578.441406 C 410.71875 731.820312 336.277344 876.796875 299.535156 949.105469 C 299.535156 949.105469 425.300781 922.546875 607.394531 940.21875"/></g><g clip-path="url(#a)"><g clip-path="url(#b)"><path fill="#91b9bb" d="M 484.078125 958.914062 C 475.335938 957.699219 468.183594 957.3125 458.105469 956.765625 C 450.355469 956.34375 442.953125 955.972656 435.882812 955.644531 C 436.292969 954.296875 436.738281 952.902344 437.214844 951.476562 C 443.839844 951.785156 450.746094 952.132812 457.957031 952.523438 C 472.605469 953.316406 481.207031 953.78125 496.792969 956.757812 C 492.445312 957.425781 488.1875 958.152344 484.078125 958.914062"/></g></g><g clip-path="url(#c)"><g clip-path="url(#d)"><path fill="#91b9bb" d="M 343.703125 742.027344 C 345.039062 734.707031 346.324219 727.421875 347.539062 720.214844 C 348.320312 722.078125 349.105469 723.980469 349.898438 725.925781 C 349.898438 725.925781 347.539062 731.753906 343.703125 742.027344"/></g></g><g clip-path="url(#e)"><g clip-path="url(#f)"><path fill="#91b9bb" d="M 285.144531 972.972656 C 281.503906 971.636719 278.539062 969.992188 276.238281 967.957031 C 269.476562 965.199219 270.632812 958.515625 271.855469 951.457031 C 272.226562 949.308594 272.640625 946.972656 272.902344 944.460938 C 276.71875 909.433594 284.449219 872.417969 292.640625 833.21875 C 299.058594 802.550781 305.683594 770.828125 311.117188 737.046875 C 315.09375 712.363281 318.867188 687.515625 321.738281 664 C 322.828125 666.417969 323.945312 668.847656 325.085938 671.289062 C 322.332031 692.84375 318.894531 715.351562 315.296875 737.726562 C 309.847656 771.597656 303.203125 803.367188 296.78125 834.085938 C 288.609375 873.175781 280.898438 910.09375 277.113281 944.921875 C 276.824219 947.523438 276.414062 949.953125 276.023438 952.175781 C 274.644531 960.128906 274.503906 962.8125 278.097656 964.140625 L 278.808594 964.570312 C 280.527344 966.160156 282.792969 967.496094 285.589844 968.613281 C 285.433594 970.0625 285.285156 971.527344 285.144531 972.972656"/></g></g><g clip-path="url(#g)"><g clip-path="url(#h)"><path fill="#91b9bb" d="M 283.109375 1001.160156 C 262.390625 998.515625 248.515625 992.621094 242.691406 979.992188 C 239.71875 973.574219 240.136719 966.097656 240.625 957.453125 L 240.800781 954.296875 C 243.019531 910.960938 251.363281 871.78125 260.191406 830.292969 C 266.558594 800.386719 273.140625 769.464844 278.140625 734.207031 L 279.941406 721.539062 C 284.613281 688.742188 290.003906 650.960938 293.074219 616.640625 C 294.460938 616.660156 295.871094 616.679688 297.3125 616.699219 C 294.238281 651.226562 288.824219 689.191406 284.128906 722.140625 L 282.320312 734.804688 C 277.304688 770.210938 270.714844 801.199219 264.328125 831.179688 C 255.535156 872.492188 247.234375 911.515625 245.027344 954.511719 L 244.855469 957.691406 C 244.375 966.109375 244.003906 972.757812 246.523438 978.222656 C 251.589844 989.207031 264.261719 994.496094 283.324219 996.953125 C 283.242188 998.378906 283.171875 999.777344 283.109375 1001.160156 M 297.679688 612.472656 C 296.238281 612.457031 294.828125 612.4375 293.441406 612.414062 C 294.035156 605.394531 294.523438 598.53125 294.882812 591.910156 C 296.183594 591.257812 297.613281 590.675781 299.207031 590.195312 C 299.078125 592.699219 298.933594 595.246094 298.769531 597.820312 C 297.273438 599.253906 296.398438 601.4375 296.585938 603.8125 C 296.703125 605.335938 297.238281 606.714844 298.058594 607.820312 C 297.9375 609.363281 297.808594 610.914062 297.679688 612.472656"/></g></g><g clip-path="url(#i)"><g clip-path="url(#j)"><path fill="#91b9bb" d="M 283.53125 1028.269531 C 240.296875 1028.070312 211.714844 1021.878906 209.730469 992.238281 C 205.34375 927.015625 215.847656 879.824219 226.972656 829.863281 C 233.648438 799.910156 240.542969 768.929688 245.160156 731.359375 C 246.632812 719.332031 248.429688 705.886719 250.332031 691.65625 C 253.894531 665.007812 257.714844 636.410156 260.523438 609.335938 C 262.042969 609.332031 263.464844 609.265625 264.792969 609.148438 C 264.710938 609.945312 264.628906 610.75 264.542969 611.550781 C 263.929688 611.523438 263.589844 611.503906 263.546875 611.503906 C 262.347656 611.535156 261.382812 612.34375 261.324219 613.507812 C 261.265625 614.671875 262.164062 615.664062 263.328125 615.730469 C 263.367188 615.730469 263.628906 615.746094 264.09375 615.765625 C 261.355469 641.101562 257.828125 667.492188 254.527344 692.21875 C 252.628906 706.433594 250.824219 719.859375 249.355469 731.871094 C 244.714844 769.648438 237.792969 800.726562 231.101562 830.78125 C 220.042969 880.433594 209.605469 927.339844 213.941406 991.957031 C 215.707031 1018.109375 242.496094 1023.808594 283.15625 1024.03125 C 283.257812 1025.480469 283.382812 1026.890625 283.53125 1028.269531"/></g></g><g><path fill="#195452" d="M 276.808594 966.609375 C 275.007812 966.609375 273.265625 966.289062 271.316406 965.933594 C 268.179688 965.339844 264.296875 964.589844 258.277344 964.894531 C 257.121094 964.894531 256.121094 964.042969 256.070312 962.871094 C 256.019531 961.703125 256.921875 960.714844 258.09375 960.664062 C 264.601562 960.375 268.738281 961.152344 272.085938 961.773438 C 277.105469 962.714844 279.410156 963.125 285.265625 958.890625 C 286.191406 958.195312 287.53125 958.410156 288.214844 959.359375 C 288.898438 960.300781 288.695312 961.621094 287.742188 962.308594 C 283.117188 965.660156 279.890625 966.609375 276.808594 966.609375"/></g><g><path fill="#195452" d="M 448.035156 942 C 447.898438 942 447.757812 941.984375 447.609375 941.957031 C 446.46875 941.71875 445.734375 940.605469 445.964844 939.453125 C 447.46875 932.171875 457.644531 925.273438 460.105469 925.597656 C 461.195312 925.730469 462.175781 926.835938 462.144531 927.933594 C 462.101562 929.105469 460.980469 930.066406 459.964844 929.980469 C 457.445312 930.898438 451.085938 935.582031 450.109375 940.316406 C 449.902344 941.3125 449.019531 942 448.035156 942"/></g><g><path fill="#ffbb8a" d="M 648.269531 1023.851562 C 657.867188 1021.648438 699.511719 1018.519531 708.769531 1018.269531 C 716.636719 1018.058594 727.5 1017.269531 733.769531 1017.699219 C 737.554688 1017.960938 733.359375 1013.390625 734.089844 1009.300781 C 735.492188 1001.441406 736.898438 993.539062 737.316406 985.511719 C 737.914062 973.894531 741.375 953.523438 731.042969 955.46875 C 722.296875 957.113281 708.585938 957.386719 698.902344 956.734375 C 672.304688 954.9375 662.203125 955.277344 643.675781 954.492188 C 641.804688 954.410156 645.664062 962.921875 643.90625 963.578125 C 640.796875 964.734375 638.777344 968.058594 637.691406 971.484375 C 634.511719 981.515625 637.601562 992.652344 638.148438 1003.371094 C 638.445312 1009.101562 638.023438 1015 639.824219 1020.417969 C 641.625 1025.839844 643.230469 1025 648.269531 1023.851562"/></g><g><path fill="#376f90" d="M 731.390625 954 C 723.453125 954.480469 718.605469 954.289062 710.753906 955.523438 C 710.859375 955.058594 706.972656 955.878906 706.8125 956.320312 C 706.652344 956.765625 706.914062 957.257812 707.132812 957.679688 C 709.183594 961.636719 708.417969 966.476562 707.964844 970.941406 C 707.367188 976.789062 707.425781 982.753906 708.355469 988.589844 C 708.527344 989.652344 708.722656 990.738281 708.566406 991.792969 C 708.425781 992.742188 708.003906 993.605469 707.699219 994.503906 C 706.546875 997.949219 707.179688 1001.808594 707.460938 1005.511719 C 707.742188 1009.210938 707.511719 1013.339844 705.132812 1015.878906 C 704.691406 1016.339844 704.171875 1016.769531 703.9375 1017.398438 C 703.703125 1018.019531 703.933594 1018.941406 704.542969 1019.082031 C 711.324219 1020.628906 718.304688 1016.878906 725.175781 1016.5 C 727.25 1016.378906 729.355469 1016.308594 731.394531 1016.808594 C 734.101562 1007.890625 736.863281 997.597656 738.078125 988.246094 C 738.78125 982.847656 739.226562 977.328125 738.433594 971.898438 C 737.636719 966.46875 735.488281 961.085938 731.726562 957.421875 C 730.875 956.59375 729.910156 955.804688 729.476562 954.652344 C 729.035156 953.503906 730.289062 954.1875 731.390625 954"/></g><g><path fill="#feb856" d="M 725.757812 963.640625 C 722.3125 957.183594 725.460938 948.992188 731.984375 947.5 C 757.1875 941.742188 782.617188 941.917969 784.558594 948.726562 C 799.246094 1000.191406 791.910156 1040.308594 788.730469 1088.570312 C 788.296875 1095.128906 785.917969 1102.441406 785.375 1107.800781 C 783.554688 1125.800781 756.375 1107.359375 749.417969 1090.949219 C 742.035156 1073.539062 745.839844 1055.730469 739.316406 1039.691406 C 736.082031 1031.730469 733.472656 1027.988281 724.414062 1025.28125 C 710.332031 1021.082031 733.617188 996.273438 733.050781 980.121094 C 732.773438 972.234375 729.8125 971.242188 725.757812 963.640625"/></g><g clip-path="url(#k)"><path fill="#c97b27" d="M 779.808594 944.921875 C 779.808594 944.921875 788.921875 943.464844 789.855469 946.3125 C 791.882812 952.519531 799.636719 1000.609375 797.335938 1048.148438 C 795.054688 1095.167969 795.40625 1121.410156 778.402344 1115.601562 C 778.402344 1115.601562 789.394531 1103.980469 789.101562 1038.339844 C 788.816406 972.710938 780.6875 947.085938 779.808594 944.921875"/></g><g><path fill="#c97b27" d="M 752.25 1096.121094 C 752.25 1096.121094 744.371094 1069.351562 752.347656 1063.511719 C 760.324219 1057.667969 757.519531 1033.730469 745.476562 1023.359375 C 733.433594 1012.980469 721.464844 1008.378906 720.128906 1017.261719 C 718.796875 1026.140625 732.242188 1033.28125 733.890625 1035.890625 C 735.542969 1038.5 742.472656 1042.859375 742.996094 1054.730469 C 743.523438 1066.609375 747.835938 1090.332031 752.25 1096.121094"/></g><g><path fill="#227377" d="M 442.070312 560.6875 C 467.675781 608.835938 529.894531 665.269531 523.78125 736.742188 C 518.464844 798.871094 435.046875 930.253906 432.585938 971.539062 C 432.585938 971.539062 479.582031 956.3125 526.945312 953.460938 C 633.992188 947.011719 651.128906 941.570312 686.816406 946.234375 C 680.675781 979.402344 687.285156 1024.011719 687.285156 1024.011719 C 294.597656 1090.269531 275.460938 1097.621094 284.273438 982.929688 C 293.273438 865.738281 349.898438 725.925781 349.898438 725.925781 C 327.429688 670.679688 308.582031 649.46875 300.199219 590.089844 C 354.015625 588.21875 372.84375 566.332031 388.980469 559.730469 C 417.378906 548.113281 442.070312 560.6875 442.070312 560.6875"/></g><g clip-path="url(#l)"><g clip-path="url(#m)"><path fill="#91b9bb" d="M 418.703125 974.761719 L 418.652344 972.5 C 418.179688 950.589844 435.285156 917.445312 455.089844 879.0625 C 477.289062 836.035156 502.457031 787.265625 503.339844 749.644531 C 503.75 732.125 505.078125 719.480469 506.160156 709.304688 C 507.597656 709.839844 508.964844 710.34375 510.253906 710.820312 C 509.199219 720.734375 507.953125 733.007812 507.570312 749.742188 C 506.660156 788.339844 481.257812 837.570312 458.847656 881.007812 C 440.785156 916.007812 423.6875 949.136719 422.898438 970.140625 C 425.027344 969.945312 428.386719 969.648438 432.792969 969.269531 C 432.699219 970.054688 432.628906 970.8125 432.585938 971.539062 C 432.585938 971.539062 436.527344 970.265625 443.28125 968.378906 C 487.945312 964.644531 587.933594 956.992188 656.621094 956.992188 C 666.960938 956.992188 676.597656 957.164062 685.222656 957.554688 C 685.082031 958.949219 684.957031 960.355469 684.847656 961.765625 C 676.566406 961.40625 667.320312 961.242188 657.386719 961.242188 C 568.019531 961.242188 422.863281 974.378906 420.957031 974.554688 L 418.703125 974.761719"/></g></g><g clip-path="url(#n)"><g clip-path="url(#o)"><path fill="#91b9bb" d="M 423.375 1006.960938 C 400.554688 1006.960938 386.621094 1002.628906 380.75 997.796875 C 378.726562 996.136719 377.613281 994.371094 377.4375 992.5625 C 374.917969 966.445312 392.542969 926.660156 411.195312 884.539062 C 429.59375 842.980469 448.625 800.007812 451.960938 763.914062 C 453.042969 752.214844 454.257812 742.449219 455.320312 733.835938 C 457.394531 717.128906 458.890625 705.0625 457.476562 693.441406 C 457.339844 692.300781 457.1875 691.199219 457.019531 690.136719 C 458.535156 690.757812 460.046875 691.378906 461.554688 691.988281 C 461.59375 692.300781 461.636719 692.613281 461.671875 692.929688 C 463.152344 705.070312 461.625 717.351562 459.515625 734.355469 C 458.453125 742.945312 457.246094 752.675781 456.171875 764.3125 C 452.769531 801.089844 433.601562 844.382812 415.058594 886.25 C 396.640625 927.851562 379.238281 967.140625 381.648438 992.148438 C 381.675781 992.378906 381.863281 993.238281 383.441406 994.535156 C 388.523438 998.71875 401.628906 1002.71875 423.371094 1002.71875 C 429.648438 1002.71875 436.644531 1002.390625 444.378906 1001.628906 C 511.460938 995.183594 616.40625 985.109375 680.53125 985.109375 C 681.792969 985.109375 683.03125 985.113281 684.261719 985.121094 C 684.289062 986.542969 684.324219 987.949219 684.371094 989.339844 C 683.054688 989.328125 681.722656 989.324219 680.367188 989.324219 C 616.570312 989.324219 511.761719 999.402344 444.785156 1005.839844 C 436.9375 1006.609375 429.800781 1006.960938 423.375 1006.960938"/></g></g><g clip-path="url(#p)"><g clip-path="url(#q)"><path fill="#91b9bb" d="M 388.125 1043.339844 C 366.859375 1043.339844 354.683594 1037.648438 347.929688 1032.289062 C 338.554688 1024.839844 336.621094 1015.96875 336.226562 1012.5 C 332.640625 981.171875 349.53125 935.285156 367.410156 886.703125 C 381.007812 849.769531 395.0625 811.578125 400.582031 778.195312 L 401.941406 770.027344 C 406.371094 743.53125 409.574219 724.378906 408.136719 707.382812 C 406.667969 690.046875 403.925781 684.769531 397.285156 672.015625 C 395.625 668.820312 393.328125 664.386719 390.511719 658.472656 C 383.917969 644.613281 378.949219 629.023438 374.882812 613.128906 C 376.320312 613.316406 377.820312 613.480469 379.378906 613.628906 C 383.316406 628.765625 388.089844 643.539062 394.328125 656.65625 C 397.109375 662.503906 399.390625 666.90625 401.035156 670.066406 C 407.75 682.960938 410.8125 688.839844 412.351562 707.019531 C 413.828125 724.554688 410.589844 743.921875 406.113281 770.730469 L 404.757812 778.890625 C 399.175781 812.660156 385.046875 851.050781 371.386719 888.164062 C 353.675781 936.257812 336.960938 981.683594 340.421875 1012.019531 C 340.761719 1014.96875 342.421875 1022.511719 350.5625 1028.980469 C 356.765625 1033.898438 368.035156 1039.109375 388.050781 1039.109375 C 392.855469 1039.109375 398.160156 1038.808594 404.023438 1038.140625 C 416.660156 1036.691406 430.050781 1035.128906 443.941406 1033.511719 C 523.65625 1024.21875 620.875 1012.828125 685.796875 1011.210938 C 685.945312 1012.738281 686.089844 1014.148438 686.230469 1015.449219 C 621.53125 1017.070312 524.21875 1028.410156 444.429688 1037.710938 C 430.535156 1039.332031 417.148438 1040.890625 404.503906 1042.332031 C 398.523438 1043.03125 393.074219 1043.339844 388.125 1043.339844"/></g></g><g clip-path="url(#r)"><g clip-path="url(#s)"><path fill="#91b9bb" d="M 319.421875 1069.070312 C 315.292969 1068.160156 311.609375 1067.019531 308.308594 1065.648438 C 297.886719 1054.71875 296.011719 1040.210938 295.003906 1032.441406 C 289.652344 991.125 308.664062 929.289062 327.050781 869.484375 C 343.691406 815.328125 360.910156 759.332031 358.789062 721.339844 C 357.667969 701.089844 355.867188 697.328125 350.539062 686.1875 C 348.6875 682.332031 346.394531 677.523438 343.59375 670.902344 C 336.113281 653.210938 333.464844 634.71875 332.039062 616.367188 C 333.453125 616.316406 334.859375 616.257812 336.257812 616.195312 C 337.660156 634.457031 340.207031 652.035156 347.492188 669.25 C 350.25 675.789062 352.53125 680.539062 354.355469 684.363281 C 359.796875 695.753906 361.835938 700.015625 363.019531 721.109375 C 365.171875 759.851562 347.847656 816.222656 331.089844 870.730469 C 312.835938 930.097656 293.964844 991.488281 299.199219 1031.890625 C 300.441406 1041.511719 302.734375 1059.410156 319.421875 1069.070312 M 331.734375 612.148438 C 331.410156 607.410156 331.148438 602.691406 330.890625 597.996094 C 330.808594 596.492188 330.722656 594.980469 330.636719 593.460938 C 332.15625 594.34375 333.597656 595.3125 335.03125 596.332031 C 335.058594 596.808594 335.085938 597.285156 335.109375 597.757812 C 335.375 602.546875 335.636719 607.285156 335.953125 611.980469 C 334.554688 612.042969 333.148438 612.097656 331.734375 612.148438"/></g></g><g><path fill="#195452" d="M 456.667969 970.585938 C 454.488281 970.585938 452.316406 969.78125 450.257812 967.660156 C 447.105469 967.636719 438.128906 967.140625 434.839844 962.285156 C 433.773438 960.722656 432.867188 958.03125 434.566406 954.113281 L 449.472656 920.988281 C 449.945312 919.921875 451.199219 919.425781 452.265625 919.929688 C 453.332031 920.410156 453.804688 921.65625 453.324219 922.722656 L 438.433594 955.824219 C 437.316406 958.402344 438.085938 959.539062 438.332031 959.914062 C 440.222656 962.695312 447.136719 963.597656 451.128906 963.421875 L 452.152344 963.390625 L 452.8125 964.183594 C 455.957031 967.925781 458.949219 966.5625 465.507812 962.351562 C 469.394531 959.839844 473.417969 957.253906 477.917969 957.007812 C 487.804688 956.46875 616.894531 946.484375 618.191406 946.386719 C 619.457031 946.144531 620.371094 947.171875 620.464844 948.324219 C 620.554688 949.488281 619.6875 950.507812 618.523438 950.597656 C 617.21875 950.695312 488.085938 960.691406 478.152344 961.234375 C 474.765625 961.414062 471.222656 963.695312 467.792969 965.902344 C 464.414062 968.082031 460.527344 970.585938 456.667969 970.585938"/></g><g><path fill="#195452" d="M 368.921875 746.191406 C 361.011719 746.191406 354.273438 741.34375 350.589844 736.652344 C 349.859375 735.734375 350.027344 734.40625 350.941406 733.6875 C 351.859375 732.960938 353.191406 733.125 353.90625 734.042969 C 357.441406 738.527344 364.238281 743.277344 371.953125 741.65625 C 373.070312 741.449219 374.210938 742.171875 374.449219 743.308594 C 374.679688 744.449219 373.945312 745.570312 372.796875 745.804688 C 371.484375 746.066406 370.1875 746.191406 368.921875 746.191406"/></g><g><path fill="#195452" d="M 484.765625 817.78125 C 484.148438 817.78125 483.535156 817.507812 483.121094 816.996094 C 482.386719 816.089844 482.527344 814.757812 483.4375 814.023438 C 491.878906 807.203125 500.789062 791.871094 505.867188 779.699219 C 506.320312 778.617188 507.527344 778.105469 508.636719 778.566406 C 509.710938 779.011719 510.222656 780.253906 509.765625 781.335938 C 504.867188 793.0625 495.734375 809.53125 486.097656 817.3125 C 485.707031 817.625 485.238281 817.78125 484.765625 817.78125"/></g><g><path fill="#174f4d" d="M 350.523438 1073.550781 C 322.085938 1073.550781 290.964844 1068.289062 285.4375 1046.210938 C 266.070312 968.84375 341.132812 745.117188 347.566406 726.195312 C 343.675781 719.835938 321.085938 680.300781 321.261719 619.894531 C 321.261719 618.726562 322.210938 617.789062 323.375 617.789062 C 324.546875 617.789062 325.488281 618.738281 325.488281 619.910156 C 325.308594 684.316406 351.390625 724.355469 351.652344 724.75 L 352.230469 725.617188 L 351.894531 726.609375 C 351.074219 729.003906 270.046875 967.304688 289.535156 1045.191406 C 298.925781 1082.691406 398.269531 1065.21875 399.273438 1065.039062 C 400.398438 1064.808594 401.523438 1065.601562 401.726562 1066.738281 C 401.9375 1067.890625 401.175781 1068.988281 400.019531 1069.199219 C 398.046875 1069.550781 375.300781 1073.550781 350.523438 1073.550781"/></g><g><path fill="#195452" d="M 290.742188 950.308594 C 289.777344 950.308594 288.910156 949.648438 288.679688 948.664062 C 288.421875 947.523438 289.132812 946.394531 290.273438 946.128906 C 292.261719 945.675781 293.882812 942.578125 295.449219 939.570312 C 296.828125 936.9375 298.25 934.210938 300.289062 932.46875 C 301.175781 931.726562 302.503906 931.808594 303.269531 932.707031 C 304.023438 933.589844 303.925781 934.929688 303.03125 935.6875 C 301.621094 936.894531 300.390625 939.25 299.199219 941.527344 C 297.183594 945.386719 295.109375 949.367188 291.214844 950.257812 C 291.054688 950.289062 290.898438 950.308594 290.742188 950.308594"/></g><g><path fill="#0e2d2f" d="M 303.148438 610.511719 C 301.125 610.511719 299.277344 609.46875 298.058594 607.820312 C 298.320312 604.441406 298.558594 601.109375 298.769531 597.820312 C 299.449219 597.171875 300.257812 596.675781 301.152344 596.390625 C 301.949219 601.339844 302.824219 606.019531 303.769531 610.476562 C 303.714844 610.484375 303.660156 610.488281 303.605469 610.492188 C 303.453125 610.503906 303.300781 610.511719 303.148438 610.511719"/></g><g><path fill="#3c494a" d="M 298.058594 607.820312 C 297.238281 606.714844 296.703125 605.335938 296.585938 603.8125 C 296.398438 601.4375 297.273438 599.253906 298.769531 597.820312 C 298.558594 601.109375 298.320312 604.441406 298.058594 607.820312"/></g><g><path fill="#0e2d2f" d="M 303.769531 610.476562 C 302.824219 606.019531 301.949219 601.339844 301.152344 596.390625 C 301.578125 596.253906 302.027344 596.164062 302.492188 596.128906 C 302.644531 596.117188 302.796875 596.109375 302.949219 596.109375 C 306.328125 596.109375 309.21875 599.011719 309.515625 602.808594 C 309.816406 606.714844 307.257812 610.109375 303.769531 610.476562"/></g><g><path fill="#195452" d="M 308.035156 616.761719 C 284.117188 616.761719 263.695312 615.746094 263.328125 615.730469 C 262.164062 615.664062 261.265625 614.671875 261.324219 613.507812 C 261.382812 612.34375 262.347656 611.535156 263.546875 611.503906 C 264.171875 611.542969 327.328125 614.664062 361.359375 609.851562 C 395.285156 605.027344 455.910156 576.9375 456.519531 576.65625 C 457.578125 576.160156 458.839844 576.625 459.328125 577.679688 C 459.824219 578.738281 459.359375 579.992188 458.304688 580.488281 C 455.792969 581.652344 396.5 609.121094 361.953125 614.027344 C 346.964844 616.160156 326.464844 616.761719 308.035156 616.761719"/></g><g><path fill="#feb856" d="M 234.273438 539.4375 C 234.273438 539.4375 230.761719 609.078125 259.863281 609.332031 C 274.367188 609.460938 279.902344 604.230469 285.496094 598.996094 C 291.128906 593.730469 296.820312 588.464844 311.78125 588.667969 C 341.605469 589.070312 334.578125 611.359375 385.773438 614.097656 C 436.972656 616.839844 473.941406 603.589844 471.925781 591.984375 C 469.90625 580.371094 429.496094 495.144531 429.496094 495.144531 L 234.273438 539.4375"/></g><g><path fill="#f7d6ab" d="M 215.429688 220.320312 C 220.046875 229.644531 236.125 269.324219 240.742188 278.652344 C 244.914062 287.085938 256.207031 274.394531 275.953125 265.660156 C 285.414062 261.472656 298.117188 231.628906 298.117188 231.628906 L 252.816406 143.585938 C 236.804688 172.269531 246.191406 210.714844 215.429688 220.320312"/></g><g><path fill="#5c100e" d="M 265.960938 169.125 L 261.917969 161.269531 C 261.941406 160.945312 261.964844 160.628906 261.988281 160.304688 C 264.105469 163.265625 265.65625 165.644531 265.738281 166.441406 C 265.824219 167.335938 265.898438 168.230469 265.960938 169.125"/></g><g><path fill="#f2c289" d="M 227.132812 247.023438 L 222.0625 235.164062 C 246.265625 224.21875 259.324219 195.785156 261.917969 161.269531 L 265.960938 169.125 C 268.4375 206.519531 245.351562 243.054688 227.132812 247.023438"/></g><g><path fill="#f7d6ab" d="M 212.234375 238.480469 C 200.21875 241.273438 183.570312 226.3125 175.894531 217.53125 C 148.183594 185.832031 132.640625 151.757812 131.929688 112.039062 C 130.78125 48.351562 172.570312 40.46875 197.5 38.480469 C 219.65625 36.710938 250.621094 76.210938 255.566406 95.589844 C 272.152344 160.585938 258.863281 227.644531 212.234375 238.480469"/></g><g><path fill="#5e1212" d="M 134.886719 119.15625 C 134.484375 138.429688 137.582031 150.320312 144.25 168.859375 C 105.109375 119.394531 106.488281 67.460938 153.828125 47.109375 C 161.945312 54.25 157.984375 91.371094 148.621094 96.960938 C 141.921875 100.960938 135.320312 98.28125 134.886719 119.15625"/></g><g><path fill="#5e1212" d="M 190.378906 138.609375 C 189.558594 138.609375 188.734375 138.296875 188.113281 137.660156 C 186.882812 136.410156 186.910156 134.398438 188.15625 133.175781 C 188.652344 132.6875 200.304688 121.347656 216.929688 122.917969 C 218.671875 123.074219 219.960938 124.617188 219.796875 126.359375 C 219.640625 128.09375 218.261719 129.433594 216.351562 129.226562 C 202.601562 127.988281 192.699219 137.601562 192.597656 137.699219 C 191.980469 138.304688 191.179688 138.609375 190.378906 138.609375"/></g><g><path fill="#1e1e14" d="M 200.160156 150.921875 C 201.992188 154.699219 205.90625 156.589844 208.894531 155.136719 C 211.886719 153.683594 212.820312 149.445312 210.984375 145.664062 C 209.148438 141.882812 205.238281 139.996094 202.246094 141.445312 C 199.257812 142.898438 198.324219 147.140625 200.160156 150.921875"/></g><g><path fill="#5e1212" d="M 140.039062 164.773438 C 139.230469 164.773438 138.410156 164.46875 137.789062 163.847656 C 136.5625 162.609375 136.5625 160.59375 137.789062 159.355469 C 144.605469 152.542969 148.148438 151.0625 158.621094 148.800781 C 160.304688 148.429688 162.015625 149.511719 162.386719 151.230469 C 162.757812 152.9375 161.679688 154.621094 159.960938 154.996094 C 150.164062 157.117188 147.84375 158.28125 142.285156 163.847656 C 141.664062 164.46875 140.847656 164.773438 140.039062 164.773438"/></g><g><path fill="#1e1e14" d="M 152.722656 175.679688 C 154.570312 179.476562 158.5 181.378906 161.507812 179.917969 C 164.511719 178.457031 165.449219 174.195312 163.605469 170.394531 C 161.761719 166.597656 157.828125 164.699219 154.824219 166.15625 C 151.820312 167.617188 150.878906 171.878906 152.722656 175.679688"/></g><g><path fill="#f1be84" d="M 182.894531 193.433594 C 182.746094 193.433594 182.597656 193.414062 182.441406 193.390625 C 180.550781 193.078125 179.820312 191.09375 179.589844 190.441406 C 177.882812 185.769531 177.089844 180.789062 176.328125 175.972656 C 175.957031 173.621094 175.585938 171.273438 175.105469 168.953125 C 173.710938 162.1875 173.03125 161.164062 168.40625 156.28125 C 167.773438 155.605469 167.796875 154.53125 168.476562 153.886719 C 168.804688 153.585938 169.222656 153.433594 169.636719 153.433594 C 170.082031 153.433594 170.527344 153.609375 170.871094 153.953125 C 175.859375 159.222656 176.867188 160.761719 178.425781 168.269531 C 178.914062 170.636719 179.292969 173.039062 179.675781 175.445312 C 180.410156 180.09375 181.167969 184.910156 182.761719 189.285156 C 183.011719 189.957031 183.175781 190.113281 183.191406 190.128906 C 188.800781 187.949219 191.1875 186.761719 194.0625 184.503906 C 194.367188 184.253906 194.734375 184.136719 195.097656 184.136719 C 195.601562 184.136719 196.101562 184.363281 196.429688 184.792969 C 197.011719 185.527344 196.878906 186.585938 196.140625 187.164062 C 192.929688 189.683594 190.328125 191.003906 184.546875 193.027344 C 184.011719 193.234375 183.488281 193.433594 182.894531 193.433594"/></g><g><path fill="#ffffff" d="M 190.320312 209.214844 C 190.320312 209.214844 195.945312 216.816406 202.589844 215.597656 C 206.734375 214.835938 210.671875 212.03125 213.410156 208.824219 C 216.058594 205.722656 216.835938 199.375 215.78125 196.164062 C 215.722656 195.984375 215.9375 195.773438 215.816406 195.625 C 215.699219 195.476562 215.375 195.667969 215.515625 195.796875 C 215.515625 195.796875 193.367188 209.867188 190.320312 209.214844"/></g><g><path fill="#5e1212" d="M 127.890625 91.441406 C 127.890625 91.441406 152.519531 132.8125 205.597656 125.28125 C 243.3125 119.925781 267.574219 144.382812 267.574219 144.382812 C 267.574219 144.382812 295.960938 54.558594 214.261719 35.820312 C 139.285156 18.621094 127.890625 91.441406 127.890625 91.441406"/></g><g><path fill="#f7d6ab" d="M 243.660156 126.847656 C 245.046875 123.09375 248.449219 119.375 252.785156 118.738281 C 257.6875 118.019531 261.695312 121.296875 264.023438 124.867188 C 269.535156 133.328125 269.484375 144.816406 263.890625 154.371094 C 262.664062 156.46875 260.96875 158.632812 258.488281 159.410156 C 254.59375 160.628906 251.121094 157.851562 249.082031 155.023438 L 243.863281 147.417969 C 243.417969 143.65625 239.957031 136.875 243.660156 126.847656"/></g><g><path fill="#feb856" d="M 253.027344 156.136719 C 252.785156 159.371094 255.214844 162.195312 258.453125 162.4375 C 261.6875 162.679688 264.511719 160.253906 264.753906 157.015625 C 264.996094 153.777344 262.570312 150.953125 259.332031 150.710938 C 256.09375 150.46875 253.269531 152.898438 253.027344 156.136719"/></g><g><path fill="#f1be84" d="M 258.632812 138.90625 C 257.828125 138.90625 257.121094 138.335938 256.972656 137.527344 L 256.738281 136.140625 C 256.367188 133.851562 255.519531 128.484375 253.617188 127.492188 C 253.515625 127.445312 253.335938 127.355469 253.027344 127.355469 C 252.75 127.355469 252.359375 127.429688 251.824219 127.683594 C 250.238281 128.449219 247.910156 132.457031 248.027344 133.792969 C 248.109375 134.726562 247.414062 135.546875 246.480469 135.617188 C 246.417969 135.625 246.355469 135.628906 246.296875 135.628906 C 245.4375 135.628906 244.726562 134.945312 244.65625 134.074219 C 244.417969 131.257812 247.613281 125.964844 250.355469 124.644531 C 251.367188 124.144531 252.261719 123.964844 253.03125 123.964844 C 253.925781 123.964844 254.644531 124.210938 255.179688 124.492188 C 258.589844 126.269531 259.480469 131.886719 260.074219 135.609375 L 260.289062 136.898438 C 260.464844 137.816406 259.859375 138.699219 258.945312 138.871094 C 258.839844 138.898438 258.730469 138.90625 258.632812 138.90625"/></g><g><path fill="#659da0" d="M 519.746094 694.308594 C 510.324219 659.304688 487.597656 628.191406 467.550781 599.941406 C 470.828125 597.34375 472.382812 594.621094 471.925781 591.984375 C 471.113281 587.328125 464.140625 570.851562 456.070312 552.777344 C 455.027344 544.425781 453.214844 536.183594 450.648438 528.449219 C 452.378906 528.710938 454.039062 529.039062 455.621094 529.4375 C 488.253906 537.6875 464.753906 564.5 484.769531 591.082031 C 501.785156 613.683594 513.925781 665.078125 519.746094 694.308594"/></g><g><path fill="#61381b" d="M 456.070312 552.777344 C 452.359375 544.460938 448.414062 535.808594 444.734375 527.808594 C 446.769531 527.953125 448.753906 528.160156 450.648438 528.449219 C 453.214844 536.183594 455.027344 544.425781 456.070312 552.777344"/></g><g><path fill="#0e474b" d="M 523.636719 715.6875 C 523.636719 715.6875 518.539062 713.878906 510.253906 710.820312 C 510.304688 710.34375 510.351562 709.871094 510.402344 709.40625 C 513.0625 684.445312 514.167969 674.113281 495.636719 644.042969 C 493.566406 640.683594 486.609375 629.203125 478.007812 614.71875 C 474.496094 609.703125 470.984375 604.78125 467.550781 599.941406 C 487.597656 628.191406 510.324219 659.304688 519.746094 694.308594 C 522.296875 707.128906 523.636719 715.6875 523.636719 715.6875 M 506.160156 709.304688 C 494.578125 704.996094 478.449219 698.855469 461.554688 691.988281 C 459.789062 678.476562 455.941406 670.503906 448.335938 657.050781 L 447.996094 656.449219 C 446.445312 653.707031 444.082031 649.511719 441.175781 644.050781 C 436.359375 635.050781 431.238281 624.238281 426.25 612.863281 C 444.011719 610.65625 457.714844 606.390625 465.320312 601.527344 C 477.796875 622.808594 489.269531 641.773438 492.035156 646.257812 C 509.808594 675.097656 508.824219 684.320312 506.199219 708.960938 C 506.1875 709.074219 506.175781 709.1875 506.160156 709.304688 M 457.019531 690.136719 C 450.910156 687.625 444.746094 685.035156 438.703125 682.414062 C 415.621094 672.40625 402.6875 643.832031 395.441406 614.433594 C 396.726562 614.453125 397.996094 614.460938 399.257812 614.460938 C 407.277344 614.460938 414.847656 614.066406 421.855469 613.359375 C 427.054688 625.28125 432.414062 636.640625 437.441406 646.042969 C 440.375 651.535156 442.753906 655.761719 444.3125 658.527344 L 444.652344 659.132812 C 452.054688 672.21875 455.335938 679.484375 457.019531 690.136719"/></g><g><path fill="#397275" d="M 510.253906 710.820312 C 508.964844 710.34375 507.597656 709.839844 506.160156 709.304688 C 506.175781 709.1875 506.1875 709.074219 506.199219 708.960938 C 508.824219 684.320312 509.808594 675.097656 492.035156 646.257812 C 489.269531 641.773438 477.796875 622.808594 465.320312 601.527344 C 466.136719 601.003906 466.878906 600.476562 467.550781 599.941406 C 470.984375 604.78125 474.496094 609.703125 478.007812 614.71875 C 486.609375 629.203125 493.566406 640.683594 495.636719 644.042969 C 514.167969 674.113281 513.0625 684.445312 510.402344 709.40625 C 510.351562 709.871094 510.304688 710.34375 510.253906 710.820312"/></g><g><path fill="#397275" d="M 461.554688 691.988281 C 460.046875 691.378906 458.535156 690.757812 457.019531 690.136719 C 455.335938 679.484375 452.054688 672.21875 444.652344 659.132812 L 444.3125 658.527344 C 442.753906 655.761719 440.375 651.535156 437.441406 646.042969 C 432.414062 636.640625 427.054688 625.28125 421.855469 613.359375 C 423.347656 613.207031 424.808594 613.039062 426.25 612.863281 C 431.238281 624.238281 436.359375 635.050781 441.175781 644.050781 C 444.082031 649.511719 446.445312 653.707031 447.996094 656.449219 L 448.335938 657.050781 C 455.941406 670.503906 459.789062 678.476562 461.554688 691.988281"/></g><g><path fill="#647136" d="M 399.257812 614.460938 C 397.996094 614.460938 396.726562 614.453125 395.441406 614.433594 C 385.769531 575.199219 386.234375 534.496094 386.234375 534.496094 C 386.234375 534.496094 413.796875 527.570312 437.53125 527.570312 C 439.988281 527.570312 442.398438 527.644531 444.734375 527.808594 C 448.414062 535.808594 452.359375 544.460938 456.070312 552.777344 C 464.140625 570.851562 471.113281 587.328125 471.925781 591.984375 C 472.382812 594.621094 470.828125 597.34375 467.550781 599.941406 C 466.878906 600.476562 466.136719 601.003906 465.320312 601.527344 C 457.714844 606.390625 444.011719 610.65625 426.25 612.863281 C 424.808594 613.039062 423.347656 613.207031 421.855469 613.359375 C 414.847656 614.066406 407.277344 614.460938 399.257812 614.460938"/></g><g><path fill="#489ba1" d="M 305.441406 214.847656 C 305.441406 214.847656 333.398438 249.832031 333.039062 298.261719 C 332.617188 354.972656 348.28125 424.859375 378.859375 548.175781 C 389.964844 592.976562 402.882812 658.273438 441.222656 664.324219 C 479.5625 670.378906 558.761719 680.949219 558.285156 664.371094 C 557.804688 647.792969 541.203125 558.605469 497.070312 497.09375 C 466.820312 454.929688 462.046875 317.222656 458.378906 296.742188 C 447.117188 233.867188 430.542969 186.914062 305.441406 214.847656"/></g><g><path fill="#227377" d="M 401.226562 545.617188 C 400.175781 545.617188 399.257812 544.835938 399.128906 543.769531 C 397.597656 531.636719 361.664062 246.441406 362.605469 234.074219 C 363.191406 226.355469 343.535156 217.476562 331.007812 213.683594 C 329.890625 213.347656 329.253906 212.164062 329.59375 211.050781 C 329.921875 209.933594 331.089844 209.265625 332.226562 209.636719 C 335.878906 210.738281 367.851562 220.796875 366.816406 234.390625 C 366.089844 243.953125 390.378906 440.597656 403.320312 543.238281 C 403.472656 544.394531 402.644531 545.453125 401.488281 545.601562 C 401.398438 545.609375 401.308594 545.617188 401.226562 545.617188"/></g><g><path fill="#227377" d="M 542.273438 601.878906 C 541.636719 601.878906 541.011719 601.589844 540.597656 601.054688 C 537.953125 597.601562 537.070312 592.710938 536.210938 587.988281 C 535.015625 581.339844 534.046875 577.277344 530.761719 576.855469 L 530.167969 576.78125 L 529.695312 576.398438 C 525.699219 573.179688 520.867188 570.207031 515.746094 567.058594 C 504.554688 560.171875 492.984375 553.050781 488.34375 542.191406 C 487.878906 541.117188 488.375 539.871094 489.449219 539.417969 C 490.515625 538.960938 491.769531 539.449219 492.222656 540.523438 C 496.34375 550.152344 507.328125 556.917969 517.960938 563.457031 C 523.015625 566.5625 527.804688 569.511719 531.917969 572.757812 C 537.980469 573.972656 539.25 581.007812 540.375 587.238281 C 541.144531 591.464844 541.9375 595.84375 543.949219 598.476562 C 544.660156 599.402344 544.488281 600.730469 543.5625 601.441406 C 543.175781 601.738281 542.726562 601.878906 542.273438 601.878906"/></g><g><path fill="#489ba1" d="M 224.003906 243.941406 C 224.003906 243.941406 191.738281 279.253906 252.871094 498.765625 C 259.191406 521.464844 241.371094 691.128906 241.371094 691.128906 C 241.371094 691.128906 214.515625 458.890625 196.429688 427.675781 C 179.503906 398.46875 168.886719 397.53125 171.46875 361.121094 C 171.882812 355.308594 171.84375 349.511719 171.292969 343.878906 C 158.402344 279.101562 187.382812 264.613281 222.640625 244.710938 L 224.003906 243.941406"/></g><g><path fill="#227377" d="M 244.367188 533.105469 C 243.539062 533.105469 242.765625 532.617188 242.417969 531.816406 C 186.761719 400.53125 198.976562 283.558594 199.105469 282.390625 L 199.257812 281.804688 L 212.957031 249.296875 C 213.402344 248.222656 214.652344 247.695312 215.726562 248.167969 C 216.808594 248.621094 217.3125 249.859375 216.855469 250.933594 L 203.277344 283.152344 C 202.617188 289.785156 192.476562 403.183594 246.316406 530.164062 C 246.769531 531.238281 246.265625 532.488281 245.195312 532.941406 C 244.921875 533.058594 244.640625 533.105469 244.367188 533.105469"/></g><g><path fill="#f7d6ab" d="M 342.59375 531.214844 C 335.84375 531.945312 328.941406 530.664062 322.820312 527.410156 C 322.820312 527.410156 173.894531 449.535156 112.3125 401.4375 C 94.371094 387.421875 122.089844 382.753906 139.550781 375.375 C 147.230469 372.128906 163.460938 384.257812 172.964844 387.527344 C 197.726562 396.039062 200.289062 394.96875 241.558594 412.789062 C 283.289062 430.8125 319.160156 447.78125 319.160156 447.78125 C 345.933594 367.429688 377.742188 271.652344 380.042969 263.828125 C 385.328125 245.824219 404.171875 235.183594 422.234375 240.226562 C 440.320312 245.265625 451.058594 263.679688 446.273438 281.828125 C 444.167969 289.800781 393.246094 442.621094 371.453125 507.957031 C 368.261719 517.527344 361.011719 525.210938 351.640625 528.960938 C 348.714844 530.132812 345.667969 530.882812 342.59375 531.214844"/></g><g><path fill="#f7d6ab" d="M 136.925781 411.476562 C 136.925781 411.476562 110.394531 405.019531 101.210938 399.542969 C 93.3125 394.832031 66.648438 390.300781 62.851562 387.265625 C 59.050781 384.226562 70.773438 384.449219 87.992188 375.585938 C 105.214844 366.726562 141.734375 369.820312 155.492188 376.257812 C 169.25 382.699219 136.925781 411.476562 136.925781 411.476562"/></g><g><path fill="#221c1c" d="M 64.402344 387.476562 L 207.613281 378.699219 C 210.078125 378.546875 211.957031 376.425781 211.804688 373.957031 L 206.300781 284.164062 C 206.152344 281.695312 204.027344 279.820312 201.5625 279.96875 L 58.351562 288.75 C 55.882812 288.902344 54.007812 291.023438 54.15625 293.488281 L 59.660156 383.285156 C 59.8125 385.75 61.933594 387.628906 64.402344 387.476562"/></g><g><path fill="#484444" d="M 193.476562 379.5625 L 208.652344 378.632812 C 210.546875 378.519531 211.984375 376.890625 211.871094 374.996094 L 206.238281 283.125 C 206.121094 281.230469 204.492188 279.789062 202.601562 279.90625 L 187.425781 280.835938 L 193.476562 379.5625"/></g><g><path fill="#221c1c" d="M 85.886719 274.71875 L 86.644531 287.066406 L 162.253906 282.433594 L 161.492188 270.085938 C 161.148438 264.4375 159.296875 259.417969 156.625 255.683594 C 153.375 250.925781 148.566406 248.03125 143.570312 248.339844 L 101.023438 250.945312 C 91.921875 251.503906 85.117188 262.191406 85.886719 274.71875"/></g><g><path fill="#484444" d="M 48.527344 306.199219 L 87.144531 303.832031 C 134.015625 299.324219 136.191406 305.015625 137.847656 332.074219 L 137.933594 333.425781 C 138.414062 362.199219 139.8125 364.140625 91.140625 369.007812 L 48.714844 371.605469 L 48.527344 306.199219"/></g><g><path fill="#221c1c" d="M 36.753906 299.957031 L 81.765625 299.238281 C 127.058594 304.875 129.167969 304.746094 132.753906 332.386719 L 132.835938 333.738281 C 134.734375 364.738281 125.46875 361.425781 86.585938 371.519531 L 45.914062 377.589844 L 36.753906 299.957031"/></g><g><path fill="#484444" d="M 6.195312 341.050781 C 7.519531 362.636719 26.085938 379.054688 47.667969 377.734375 C 69.246094 376.410156 85.667969 357.84375 84.347656 336.261719 C 83.023438 314.683594 64.457031 298.261719 42.878906 299.582031 C 21.296875 300.90625 4.875 319.472656 6.195312 341.050781"/></g><g><path fill="#221c1c" d="M 0.0742188 341.429688 C 1.398438 363.007812 19.964844 379.429688 41.542969 378.109375 C 63.125 376.785156 79.546875 358.21875 78.226562 336.636719 C 76.902344 315.058594 58.335938 298.636719 36.753906 299.957031 C 15.175781 301.28125 -1.25 319.847656 0.0742188 341.429688"/></g><g><path fill="#484444" d="M 12.441406 339.515625 C 13.34375 354.222656 26 365.417969 40.710938 364.515625 C 55.421875 363.617188 66.617188 350.957031 65.714844 336.246094 C 64.8125 321.535156 52.15625 310.339844 37.445312 311.242188 C 22.734375 312.144531 11.539062 324.800781 12.441406 339.515625"/></g><g><path fill="#ffffff" d="M 32.40625 340.230469 C 31.71875 340.230469 31.050781 339.898438 30.644531 339.28125 C 29.226562 337.148438 28.796875 334.40625 29.441406 331.773438 C 29.992188 329.503906 31.371094 327.320312 33.3125 325.628906 C 34.675781 324.457031 36.007812 323.785156 37.402344 323.5625 C 38.542969 323.421875 39.640625 324.175781 39.820312 325.324219 C 40.003906 326.472656 39.21875 327.5625 38.0625 327.742188 C 37.476562 327.835938 36.808594 328.199219 36.082031 328.824219 C 34.800781 329.941406 33.902344 331.34375 33.550781 332.773438 C 33.191406 334.257812 33.421875 335.8125 34.164062 336.953125 C 34.816406 337.925781 34.542969 339.230469 33.570312 339.875 C 33.214844 340.113281 32.808594 340.230469 32.40625 340.230469"/></g><g><path fill="#484444" d="M 151.574219 303.375 L 173.203125 302.046875 L 172.574219 291.835938 L 150.949219 293.160156 L 151.574219 303.375"/></g><g><path fill="#ffffff" d="M 153.753906 279.15625 L 94.066406 282.816406 C 94.066406 282.816406 90.992188 260.957031 102.820312 260.316406 C 114.644531 259.675781 142.175781 257.902344 142.175781 257.902344 C 142.175781 257.902344 153.902344 257.183594 153.753906 279.15625"/></g><g><path fill="#f7d6ab" d="M 136.9375 393.105469 C 136.9375 393.105469 124.472656 370.75 103.054688 374.152344 C 90.296875 376.179688 82.332031 379.515625 75.015625 377.074219 C 67.695312 374.632812 60.039062 383.359375 68.222656 386.121094 C 76.40625 388.882812 82.574219 386.574219 94.519531 393.472656 C 106.46875 400.367188 113.308594 408.671875 123.566406 407.570312 C 133.828125 406.46875 136.9375 393.105469 136.9375 393.105469"/></g><g><path fill="#489ba1" d="M 199.492188 384.964844 C 188.277344 416.503906 174.613281 442.097656 167.75 454.214844 C 167.75 454.214844 332.652344 546.777344 356.152344 527.625 C 392.777344 497.777344 439.246094 394.730469 450.21875 352.886719 C 461.191406 311.039062 459.109375 225.203125 415.691406 215.425781 C 372.277344 205.648438 321.167969 427.257812 321.167969 427.257812 L 199.492188 384.964844"/></g><g><path fill="#227377" d="M 341.75 531.792969 C 298.464844 531.792969 172.074219 459.152344 166.691406 456.046875 L 164.980469 455.058594 L 165.847656 453.28125 C 165.945312 453.089844 175.3125 434.003906 181.894531 422.121094 C 192.839844 402.363281 197.390625 384.621094 197.4375 384.441406 L 198 382.210938 L 200.179688 382.964844 L 319.597656 424.472656 C 335.480469 351.214844 376.132812 255.601562 376.546875 254.625 C 377 253.550781 378.257812 253.046875 379.320312 253.519531 C 380.394531 253.972656 380.890625 255.210938 380.429688 256.292969 C 380.015625 257.261719 338.652344 354.558594 323.234375 427.695312 L 322.746094 430.039062 L 200.925781 387.703125 C 199.347656 393.148438 194.640625 407.832031 185.59375 424.167969 C 180.242188 433.839844 173.007812 448.351562 170.523438 453.363281 C 186.082031 462.226562 302.238281 527.566406 341.726562 527.566406 C 341.949219 527.566406 342.164062 527.566406 342.378906 527.554688 C 357.179688 527.277344 359.425781 524.308594 371.898438 507.867188 L 375.515625 503.109375 C 393.453125 479.644531 442.175781 379.699219 444.445312 367.097656 C 444.644531 365.949219 445.765625 365.164062 446.898438 365.386719 C 448.054688 365.59375 448.8125 366.691406 448.605469 367.839844 C 446.007812 382.277344 395.65625 483.734375 378.867188 505.6875 L 375.265625 510.417969 C 362.6875 527.003906 359.308594 531.460938 342.460938 531.785156 C 342.230469 531.785156 341.992188 531.792969 341.75 531.792969"/></g><g><path fill="#227377" d="M 428.324219 415.125 L 424.96875 412.546875 C 425.613281 411.703125 426.25 410.757812 426.886719 409.8125 L 428.140625 407.988281 C 428.511719 407.453125 429.097656 407.136719 429.703125 407.097656 C 431.46875 405.570312 434.054688 403.824219 439.539062 400.132812 L 441.621094 398.738281 C 442.585938 398.070312 443.898438 398.34375 444.550781 399.308594 C 445.203125 400.273438 444.949219 401.589844 443.980469 402.238281 L 441.902344 403.644531 C 432.105469 410.234375 432.105469 410.234375 429.035156 414.207031 L 428.324219 415.125"/></g><g><path fill="#227377" d="M 352.4375 325.96875 C 351.496094 325.96875 350.644531 325.339844 350.390625 324.390625 C 349.984375 322.863281 349.554688 321.292969 349.109375 319.699219 C 345.921875 308.261719 342.3125 295.292969 347.359375 283.664062 C 347.820312 282.597656 349.070312 282.109375 350.140625 282.566406 C 351.214844 283.027344 351.703125 284.273438 351.242188 285.347656 C 346.789062 295.605469 350.183594 307.804688 353.183594 318.566406 C 353.636719 320.175781 354.074219 321.765625 354.488281 323.316406 C 354.785156 324.4375 354.105469 325.597656 352.976562 325.902344 C 352.792969 325.941406 352.609375 325.96875 352.4375 325.96875"/></g><g><path fill="#227377" d="M 240.667969 483.222656 C 240.082031 483.222656 239.492188 482.972656 239.074219 482.503906 C 237.519531 480.71875 235.792969 479.109375 234.125 477.546875 C 231.996094 475.550781 229.78125 473.484375 227.855469 471.015625 C 226.71875 469.5625 225.777344 468.03125 224.851562 466.503906 C 223.644531 464.546875 222.511719 462.699219 220.984375 461.121094 L 219.761719 459.839844 C 217.730469 457.691406 211.5625 451.175781 209.308594 451.101562 C 208.144531 451.058594 207.226562 450.078125 207.269531 448.914062 C 207.308594 447.746094 208.433594 446.855469 209.457031 446.871094 C 213.132812 447.003906 217.882812 451.703125 222.828125 456.925781 L 224.023438 458.179688 C 225.875 460.097656 227.1875 462.234375 228.453125 464.300781 C 229.300781 465.6875 230.152344 467.089844 231.195312 468.421875 C 232.910156 470.628906 234.902344 472.484375 237.015625 474.460938 C 238.757812 476.085938 240.558594 477.769531 242.261719 479.710938 C 243.03125 480.59375 242.9375 481.933594 242.0625 482.699219 C 241.65625 483.046875 241.164062 483.222656 240.667969 483.222656"/></g><g><path fill="#195452" d="M 335.945312 435.625 C 335.488281 435.625 335.027344 435.476562 334.648438 435.179688 C 329.113281 430.875 320.878906 429.355469 320.796875 429.339844 C 319.648438 429.132812 318.882812 428.03125 319.089844 426.886719 C 319.296875 425.738281 320.402344 424.945312 321.539062 425.175781 C 321.921875 425.242188 330.898438 426.902344 337.242188 431.839844 C 338.164062 432.558594 338.332031 433.890625 337.613281 434.804688 C 337.199219 435.34375 336.570312 435.625 335.945312 435.625"/></g><g><path fill="#f7d6ab" d="M 9.394531 313.554688 C 9.394531 313.554688 18.570312 293.328125 48.84375 295.179688 C 61.09375 295.925781 66.550781 297.308594 65.523438 300.972656 C 64.496094 304.636719 51.34375 300.203125 51.34375 300.203125 C 51.34375 300.203125 62.890625 305.261719 58.804688 308.480469 C 54.71875 311.699219 39.988281 304.613281 39.988281 304.613281 C 39.988281 304.613281 57.585938 310.511719 53.054688 313.027344 C 48.527344 315.546875 23.167969 299.65625 9.394531 313.554688"/></g></g></svg>